<svg xmlns="http://www.w3.org/2000/svg" width="90" height="90" fill="none" viewBox="0 0 90 90"><rect width="90" height="90" fill="#f2fdf0" rx="9.524"/><g clip-path="url(#a)"><g clip-path="url(#b)"><path fill="#d9ae94" d="m29.487 52.941-8.531 12.157H36.87l8.222-12.157z"/><path fill="#932a74" d="M44.124 50.555 37.05 60.678s3.404-5.57 7.073-10.123"/><path fill="#613670" d="m29.536 53.826-7.913 10.875v.132H36.43l7.648-11.007z"/><path fill="#e4f2e3" d="M22.108 61.296s.796 1.547.133 3.006h14.322s.796-1.591-.044-2.873z"/><path fill="#b8c5bb" d="M23.168 63.816H36.03s-8.001-.177-12.863 0m1.018-.309h11.891s-7.382-.177-11.891 0m-.839-.531h12.687s-7.868-.176-12.687 0m-.443-.265h12.864s-8.001-.177-12.864 0"/><path fill="#e1dadf" d="m36.518 61.429-14.41-.133s.132.221.22.575H35.9s.663.574.22 1.9H22.418c0 .177-.088.354-.177.531h14.323s.795-1.591-.045-2.873" style="mix-blend-mode:multiply"/><path fill="#65459b" d="M36.43 61.341s1.15 1.503 0 3.492l7.648-11.007s.486-.663.486-1.768-.442-1.724-.486-1.724z"/><path fill="#4c3077" d="m44.077 50.334-2.387 3.448c.663.575.751 1.68.575 2.652l1.812-2.608s.486-.663.486-1.768-.442-1.724-.486-1.724"/><path fill="#8d54a2" d="M29.534 50.334 21.62 61.341h14.81l7.647-11.007z"/><path fill="#bb78b3" d="M21.623 61.34v.133h14.72s.53.796.398 1.724c-.088.928-.442 1.547-.442 1.547H21.623v.088H36.43s.398-.574.575-1.458-.486-2.122-.486-2.122l-14.897.133z"/><path fill="#b8c5bb" d="M23.919 62.447H35.81s-7.382-.177-11.891 0m-.837-.532h12.687s-7.869-.176-12.687 0"/><path fill="#95302b" d="m29.267 49.847-7.912 10.919v.088h14.808l7.648-11.007z"/><path fill="#e4f2e3" d="M21.798 57.318s.796 1.547.133 3.006h14.322s.796-1.591-.044-2.873z"/><path fill="#b8c5bb" d="M22.9 59.837h12.864s-8-.177-12.863 0m1.016-.264h11.89s-7.382-.177-11.89 0m-.837-.531h12.687s-7.87-.177-12.687 0m-.444-.266H35.5s-8.001-.176-12.864 0"/><path fill="#e1dadf" d="m36.207 57.494-14.411-.133s.133.221.22.575h13.572s.663.574.22 1.9H22.15c0 .177-.089.354-.177.531h14.322s.796-1.591-.044-2.873z" style="mix-blend-mode:multiply"/><path fill="#d44944" d="M36.164 57.362s1.149 1.503 0 3.492l7.647-11.007s.486-.663.486-1.768-.442-1.724-.486-1.724z"/><path fill="#fff" d="M36.694 60.103c.442-1.061.354-2.122-.265-3.139l-.265.398s1.149 1.503 0 3.492z" opacity=".4"/><path fill="#f37554" d="M29.267 46.399 21.355 57.36h14.808l7.648-10.96z"/><path fill="#fdbc64" d="M21.355 57.361v.133h14.72s.53.796.398 1.724c-.089.928-.442 1.547-.442 1.547H21.355v.088h14.808s.442-.574.575-1.458c.177-.884-.486-2.122-.486-2.122l-14.897.133z"/><path fill="#b8c5bb" d="M23.609 58.468h11.89s-7.382-.177-11.89 0m-.795-.532H35.5s-7.869-.176-12.687 0"/><path fill="#c56057" d="M43.81 46.444 36.251 57.23s3.758-6.321 7.56-10.786"/><path fill="#0088ce" d="M30.42 45.736 22.461 56.61v.133h14.81l7.647-11.007z"/><path fill="#e4f2e3" d="M22.95 53.207s.795 1.547.132 3.006h14.322s.796-1.592-.044-2.874z"/><path fill="#b8c5bb" d="M24.052 55.726h12.864s-8.001-.177-12.864 0m.973-.309h11.89s-7.381-.177-11.89 0m-.837-.53h12.687s-7.869-.177-12.687 0m-.444-.267h12.864s-8.001-.176-12.864 0"/><path fill="#e1dadf" d="m37.36 53.34-14.411-.134s.132.221.22.575h13.572s.663.575.22 1.9H23.259c0 .178-.088.355-.177.531h14.323s.795-1.591-.045-2.873" style="mix-blend-mode:multiply"/><path fill="#0088ce" d="M37.272 53.25s1.15 1.504 0 3.493l7.647-11.007s.487-.663.487-1.768c0-1.106-.443-1.724-.487-1.724z"/><path fill="#00bef3" d="M30.42 42.244 22.463 53.25h14.809l7.647-11.007z"/><path fill="#7bd3f7" d="M22.463 53.25v.133h14.72s.53.796.398 1.724c-.089.929-.442 1.547-.442 1.547H22.507v.089h14.808s.398-.575.575-1.459-.486-2.122-.486-2.122l-14.897.133z"/><path fill="#b8c5bb" d="M24.76 54.356h11.891s-7.382-.177-11.89 0m-.839-.53h12.686s-7.868-.177-12.686 0"/><path fill="#086090" d="m44.918 42.332-7.56 10.786s3.758-6.321 7.56-10.786"/><path fill="#fbae36" d="M29.933 41.714 22.02 52.59v.088h14.808l7.648-10.963z"/><path fill="#e4f2e3" d="M22.462 49.185s.795 1.547.132 3.006h14.323s.795-1.591-.045-2.873z"/><path fill="#b8c5bb" d="M23.565 51.704h12.863s-8.001-.176-12.863 0m.973-.309H36.43s-7.382-.177-11.89 0m-.797-.53H36.43s-7.868-.177-12.687 0M23.3 50.6h12.864s-8.001-.178-12.864 0"/><path fill="#e1dadf" d="m36.872 49.319-14.41-.133s.132.221.22.575h13.571s.663.575.221 1.9H22.771c0 .178-.089.354-.177.531h14.322s.796-1.591-.044-2.873" style="mix-blend-mode:multiply"/><path fill="#f89935" d="M36.827 49.23s1.15 1.502 0 3.491l7.648-11.007s.486-.663.486-1.768c-.044-1.105-.486-1.724-.486-1.724z"/><path fill="#fbae36" d="M29.933 38.222 22.02 49.229h14.808l7.648-11.007z"/><path fill="#c87529" d="M22.02 49.23v.132h14.72s.53.795.398 1.724c-.088.928-.442 1.547-.442 1.547H22.02v.088h14.808s.442-.574.575-1.458c.177-.885-.486-2.122-.486-2.122l-14.897.132z"/><path fill="#b8c5bb" d="M24.272 50.335h11.891s-7.382-.177-11.89 0m-.794-.531h12.687s-7.869-.177-12.687 0"/><path fill="#f47b33" d="m44.474 38.31-7.559 10.786s3.758-6.365 7.56-10.786"/><g fill="#f4d9bf" style="mix-blend-mode:multiply"><path d="M63.993 59.276S52.837 52.22 43.43 57.105l-11.095 13.99s11.698-3.257 22.31.723l9.407-12.542z" opacity=".9" style="mix-blend-mode:multiply"/><path d="M86.3 59.997s-12.904-5.668-22.31-.723l-9.347 12.542s11.698-3.256 22.31.723l9.407-12.542z" opacity=".9" style="mix-blend-mode:multiply"/></g><path fill="#004565" d="M63.992 58.548s-11.156-7.055-20.562-2.17L32.335 70.365s11.698-3.256 22.31.724l9.407-12.542z"/><path fill="#004565" d="M86.299 59.274s-12.904-5.668-22.311-.724l-9.346 12.543s11.698-3.257 22.31.723l9.407-12.542z"/><path fill="#b1b3b5" d="M63.992 58.127s-11.156-7.055-20.562-2.17L32.335 69.945s11.698-3.257 22.31.723l9.407-12.542z"/><path fill="#b1b3b5" d="M86.299 58.851s-12.904-5.668-22.311-.724L54.642 70.67s11.698-3.256 22.31.724l9.407-12.542z"/><path fill="#fff" d="M63.812 57.706s-10.914-6.935-20.08-2.11L32.88 69.282s11.397-3.196 21.768.663z"/><path fill="#e6e7e8" d="M85.578 58.429s-12.603-5.487-21.828-.724l-9.166 12.24s11.457-3.195 21.828.725z"/><path fill="#c4c6c8" d="M75.932 69.404c-12.24-3.136-19.96-.12-20.02-.12s-.18 0-.18-.061c0-.06 0-.18.06-.18s7.839-3.076 20.2.12c.06 0 .12.12.12.18s-.06.121-.18.121z"/><path fill="#c4c6c8" d="M76.475 68.74c-12.24-3.195-19.899-.18-20.02-.18-.06 0-.18 0-.18-.06s0-.181.06-.181 7.839-3.076 20.2.12c.06 0 .12.121.12.181s-.06.12-.18.12"/><path fill="#c4c6c8" d="M77.017 68.077c-12.241-3.316-19.9-.24-19.96-.24s-.18 0-.18-.061c0-.06 0-.181.06-.181s7.839-3.135 20.2.18c.06 0 .12.121.12.182 0 .06-.06.12-.18.12z"/><path fill="#c4c6c8" d="M77.556 67.474c-12.24-3.377-19.898-.301-19.959-.24-.06 0-.18 0-.18-.061 0-.06 0-.181.06-.181s7.839-3.136 20.2.241c.06 0 .12.12.12.181 0 .06-.06.12-.18.12z"/><path fill="#c4c6c8" d="M78.043 66.813c-12.18-3.437-19.899-.362-19.959-.302-.06 0-.18 0-.18-.06s0-.18.06-.18 7.838-3.197 20.14.3c.06 0 .12.121.12.182 0 .06-.06.12-.18.12z"/><path fill="#c4c6c8" d="M78.583 66.149c-12.18-3.558-19.899-.422-19.959-.362-.06 0-.18 0-.18-.06s0-.181.06-.181 7.838-3.196 20.14.361c.06 0 .12.121.12.181s-.06.12-.181.12z"/><path fill="#c4c6c8" d="M79.126 65.545c-12.18-3.618-19.838-.482-19.959-.422-.06 0-.18 0-.18-.06s0-.18.06-.18 7.838-3.257 20.14.421c.06 0 .12.12.12.181 0 .06-.06.12-.12.12z"/><path fill="#c4c6c8" d="M79.67 64.882c-12.18-3.678-19.838-.482-19.959-.482-.06 0-.18 0-.18-.06s0-.181.06-.181 7.839-3.256 20.14.482c.06 0 .12.12.12.181 0 .06-.06.12-.12.12z"/><path fill="#c4c6c8" d="M80.15 64.219c-12.18-3.799-19.839-.543-19.899-.543s-.18 0-.18-.06 0-.181.06-.181 7.838-3.317 20.14.543c.06 0 .12.12.12.18s-.06.121-.12.121z"/><path fill="#c4c6c8" d="M80.694 63.554c-12.12-3.859-19.838-.603-19.898-.603s-.181 0-.181-.06 0-.181.06-.181 7.839-3.316 20.14.543c.06 0 .12.12.12.18s-.06.121-.12.121z"/><path fill="#c4c6c8" d="M81.239 62.952c-12.12-3.92-19.839-.663-19.899-.603-.06 0-.18 0-.18-.06s0-.181.06-.181 7.899-3.377 20.14.603c.06 0 .12.12.12.18 0 .061-.06.121-.12.121z"/><path fill="#c4c6c8" d="M81.777 62.29c-6.332-2.11-11.397-2.171-14.532-1.87-3.377.362-5.306 1.146-5.367 1.206-.06 0-.18 0-.18-.06s0-.18.06-.18 7.899-3.378 20.08.662c.06 0 .12.121.12.181s-.06.12-.12.12z"/><path fill="#c4c6c8" d="M82.264 61.626c-6.332-2.17-11.397-2.231-14.532-1.93-3.377.302-5.306 1.206-5.367 1.206s-.18 0-.18-.06 0-.18.06-.18 7.899-3.438 20.08.723c.06 0 .12.12.12.18s-.06.121-.12.121z"/><path fill="#c4c6c8" d="M82.804 60.962c-6.332-2.17-11.397-2.291-14.532-1.99-3.377.302-5.307 1.206-5.367 1.206s-.18 0-.18-.06 0-.18.06-.18 7.898-3.438 20.079.783c.06 0 .12.12.12.181 0 .06-.06.12-.12.12z"/><path fill="#c4c6c8" d="M83.345 60.359c-6.331-2.231-11.396-2.352-14.532-2.05-3.376.301-5.306 1.206-5.306 1.206-.06 0-.18 0-.18-.06s0-.181.06-.181 7.899-3.498 20.079.844c.06 0 .12.12.12.18s-.06.121-.12.121z"/><path fill="#c4c6c8" d="M83.83 59.695c-6.33-2.291-11.396-2.412-14.531-2.11-3.377.301-5.307 1.206-5.307 1.206-.06 0-.18 0-.18-.06 0-.061 0-.182.06-.182s1.99-.904 5.427-1.206c3.195-.301 8.26-.18 14.652 2.11.06 0 .12.121.12.182 0 .06-.06.12-.12.12z"/><path fill="#c4c6c8" d="M84.372 59.033c-6.27-2.292-11.336-2.473-14.471-2.171-3.377.301-5.307 1.206-5.307 1.206-.06 0-.18 0-.18-.06s0-.181.06-.181 1.99-.905 5.427-1.206c3.196-.302 8.26-.181 14.652 2.17.06 0 .12.121.12.181s-.06.121-.12.121zM54.22 69.102c-12-3.92-19.416-.784-19.476-.724-.06 0-.181 0-.181-.06s0-.18.06-.18 7.598-3.197 19.718.723c.06 0 .12.12.12.18 0 .061-.06.121-.12.121z"/><path fill="#c4c6c8" d="M54.705 68.378c-11.94-4.04-19.296-.845-19.417-.845-.06 0-.18 0-.18-.06s0-.18.06-.18 7.597-3.257 19.597.843c.06 0 .12.121.12.181s-.06.12-.12.12z"/><path fill="#c4c6c8" d="M55.248 67.654c-11.879-4.16-19.235-.965-19.295-.904-.06 0-.181 0-.181-.06 0-.061 0-.182.06-.182s7.537-3.256 19.537.905c.06 0 .12.12.12.18 0 .061-.06.121-.12.121z"/><path fill="#c4c6c8" d="M55.79 66.992c-11.819-4.281-19.175-1.025-19.235-.965-.06 0-.181 0-.181-.06s0-.181.06-.181 7.537-3.316 19.476.965c.06 0 .121.12.121.18 0 .061-.06.121-.12.121z"/><path fill="#c4c6c8" d="M56.271 66.268c-11.698-4.402-19.054-1.085-19.114-1.085s-.181 0-.181-.06 0-.181.06-.181 7.537-3.377 19.356 1.085c.06 0 .12.12.12.18 0 .061-.06.121-.12.121z"/><path fill="#c4c6c8" d="M56.813 65.605c-6.09-2.352-10.914-2.533-13.93-2.291-3.255.301-5.064 1.145-5.125 1.145s-.18 0-.18-.06 0-.18.06-.18 1.87-.845 5.186-1.147c3.015-.24 7.96-.06 14.11 2.292.06 0 .12.12.12.18s-.06.121-.12.121z"/><path fill="#c4c6c8" d="M57.357 64.882c-6.03-2.412-10.914-2.593-13.87-2.352-3.255.302-5.064 1.146-5.064 1.146-.06 0-.181 0-.181-.06s0-.181.06-.181 1.87-.905 5.186-1.146c3.015-.241 7.9 0 14.05 2.412.06 0 .12.12.06.18 0 .061-.06.121-.12.121z"/><path fill="#c4c6c8" d="M57.898 64.218c-6.03-2.473-10.853-2.714-13.808-2.473-3.196.242-5.065 1.146-5.065 1.146-.06 0-.181 0-.181-.06s0-.181.06-.241c.06 0 1.87-.905 5.186-1.146 3.015-.241 7.9 0 13.99 2.472.06 0 .12.12.06.181 0 .06-.06.12-.121.12z"/><path fill="#c4c6c8" d="M58.38 63.494h-.06c-5.97-2.533-10.793-2.774-13.748-2.533-3.196.242-5.065 1.146-5.065 1.146-.06 0-.18 0-.18-.06s0-.181.06-.181 1.869-.905 5.125-1.146c3.015-.241 7.839 0 13.929 2.533.06 0 .12.12.06.18 0 0-.06.121-.12.121z"/><path fill="#c4c6c8" d="M58.924 62.83h-.06c-5.97-2.592-10.733-2.833-13.688-2.592-3.196.241-5.005 1.146-5.005 1.146-.06 0-.18 0-.18-.06s0-.181.06-.181 1.869-.905 5.125-1.146c3.015-.241 7.839 0 13.869 2.653.06 0 .12.12.06.18 0 0-.06.121-.12.121z"/><path fill="#c4c6c8" d="M59.466 62.107h-.06c-5.91-2.653-10.673-2.954-13.628-2.713-3.196.24-5.005 1.145-5.005 1.145-.06 0-.18 0-.18-.06s0-.18.06-.18 1.869-.905 5.125-1.146c2.955-.242 7.779 0 13.748 2.713.06 0 .12.12.06.18 0 0-.06.121-.12.121z"/><path fill="#c4c6c8" d="M59.95 61.385h-.06c-5.85-2.713-10.613-3.015-13.507-2.774-3.196.242-5.005 1.146-5.005 1.146-.06 0-.18 0-.241-.06 0-.06 0-.181.06-.181s7.417-3.618 18.813 1.628c.06 0 .12.12.06.18 0 0-.06.121-.12.121z"/><path fill="#c4c6c8" d="M60.492 60.721h-.06c-11.156-5.306-18.392-1.749-18.452-1.749s-.18 0-.241-.06c0-.06 0-.18.06-.241.06 0 7.417-3.678 18.753 1.688.06 0 .12.12.06.181 0 0-.06.06-.12.06z"/><path fill="#c4c6c8" d="M61.035 59.998h-.06c-11.095-5.427-18.27-1.81-18.391-1.81-.06 0-.18 0-.18-.06s0-.18.06-.24c.06 0 7.416-3.679 18.632 1.808.06 0 .12.12.06.181 0 0-.06.06-.12.06z"/><path fill="#c4c6c8" d="M61.577 59.334h-.06c-11.035-5.548-18.21-1.93-18.27-1.87-.061 0-.182 0-.242-.06 0-.06 0-.18.06-.24.06 0 7.417-3.74 18.572 1.868.06 0 .121.121.06.242 0 0-.06.06-.12.06"/><path fill="#c4c6c8" d="M62.059 58.61h-.06c-10.975-5.608-18.15-1.99-18.21-1.99s-.182 0-.182-.06c0-.061 0-.182.06-.242.06 0 7.357-3.738 18.512 1.99.06 0 .12.12.06.241 0 0-.06.06-.12.06z"/><path fill="#c4c6c8" d="M62.6 57.947h-.06c-10.914-5.728-18.03-2.05-18.09-2.05s-.18 0-.24-.06c0-.06 0-.181.06-.241.06 0 7.356-3.8 18.39 2.05.06 0 .121.12.06.241 0 0-.06.06-.12.06"/><path fill="#77d0ec" d="m40.471 61.445-4.944 6.09s4.401-.965 7.055-.784l4.341-5.91s-3.376-.421-6.512.604z"/><path fill="#8f969e" d="m64.655 58.008-3.136 3.86s2.774-.664 4.522-.483l2.774-3.799s-2.11-.241-4.16.422"/><path fill="#96ab7f" d="m74.42 63.917-3.135 3.86s2.714 0 4.643.663l2.653-3.799s-1.809-.724-4.16-.724"/><path fill="#d9ae94" d="M25.7 68.259c.12 1.93-4.16 3.738-9.588 4.04-5.366.301-9.829-1.025-9.95-2.955s4.161-3.738 9.588-4.04c5.427-.301 9.89 1.025 9.95 3.015z"/><mask id="e" width="41" height="40" x="23" y="25" maskUnits="userSpaceOnUse" style="mask-type:luminance"><g clip-path="url(#c)"><path fill="#fff" d="M23.59 25.385h40.16v38.712H23.59z"/><path fill="url(#d)" d="m60.737 34.79-24.601-9.406-12.543 10.25 11.156 26.05s5.728 5.185 15.376.542S68.515 46.79 60.737 34.85z" style="mix-blend-mode:multiply"/></g></mask><g mask="url(#e)"><path fill="url(#f)" d="m60.735 34.792-24.602-9.407-12.542 10.251 11.155 26.049s5.729 5.186 15.376.543c9.648-4.643 18.391-15.437 10.613-27.376z" style="mix-blend-mode:screen"/></g><path fill="#007bc2" d="m24.918 67.535-.724-1.75-1.93.121c-1.688-.542-4.04-.783-6.632-.663-2.593.12-4.945.663-6.573 1.387l-1.87.12s-.481 1.569-.542 1.99v.362c.12 1.81 4.342 3.076 9.407 2.834 5.125-.301 9.165-1.99 9.045-3.798q0-.271-.181-.543z"/><path fill="#007bc2" d="M10.751 66.028c-.482.12-.904.301-1.327.482-.422 1.387-.964 2.774-1.447 4.161.483.301 1.146.482 1.87.723.301-1.748.603-3.557.904-5.306z"/><path fill="#00b0ef" d="m24.917 67.535-.724-1.749-1.93.12a14.6 14.6 0 0 0-3.557-.602c.603 1.99 1.267 3.92 1.87 5.91 2.713-.724 4.522-1.93 4.462-3.136q0-.271-.181-.543z" opacity=".7" style="mix-blend-mode:multiply"/><path fill="#7bc8ef" d="M24.377 66.148c.12 1.688-3.678 3.316-8.382 3.558-4.763.24-8.622-.905-8.743-2.654-.12-1.688 3.678-3.316 8.382-3.557 4.763-.241 8.622.904 8.743 2.653"/><path fill="#fff" d="M21.48 64.58c0 .12-.302.241-.603.241-.362 0-.663-.06-.663-.18 0-.121.301-.242.603-.242.361 0 .663.06.663.181"/><path fill="#00b0ef" d="M24.016 66.207c.12 1.628-3.498 3.135-8.02 3.376-4.523.242-8.261-.844-8.321-2.472s3.497-3.135 8.02-3.377c4.522-.24 8.26.905 8.32 2.533z"/><path fill="#004d7c" d="M13.642 65.665c0 .302-.664.663-1.568.724-.905.06-1.689-.12-1.689-.422s.664-.664 1.568-.724c.905-.06 1.689.12 1.689.422"/><path fill="#737577" d="M20.46 29.847c-.24.18-.542.482-.904.844-.844.784-1.93 1.99-3.075 3.497-2.292 3.075-4.704 7.718-5.789 12.723-.301 1.266-.482 2.533-.663 3.739-.12 1.266-.181 2.472-.302 3.678v3.437c0 .543 0 1.085.12 1.568 0 .482.121 1.025.121 1.447.121 1.87.483 3.437.664 4.522 0 .302.12.543.12.724.06 0 .181 0 .302.06.723 0 1.387 0 2.05-.301.06 0 .12-.121.18-.121 0-.241-.12-.543-.18-.844-.18-1.025-.543-2.533-.663-4.281-.422-3.558-.483-8.442.603-13.025.964-4.643 3.196-8.984 5.306-11.758 1.025-1.447 2.05-2.472 2.774-3.196a9 9 0 0 0 .723-.663v-.241c-.06-.784-.784-1.689-1.567-1.75z"/><path fill="#737577" d="M22.026 31.9v-.12l-1.568-1.87-.361.302 1.688 1.93.241-.182zm-1.023.964.18-.181.182-.181-1.75-1.87-.24.242-.241.241 1.808 1.809zm-1.387 1.507.302-.361-1.93-1.689-.362.362zm.664-.784.301-.301-1.87-1.81-.3.362zm-1.266 1.507.241-.361-1.93-1.628-.3.361zm-.725.905.362-.482-2.05-1.508-.362.483zm-1.146 1.689s0-.12.12-.18c.061-.121.121-.182.121-.182l-2.17-1.386-.121.24-.12.242 2.17 1.327zm.604-.844.241-.361-2.11-1.508-.241.422zm-1.027 1.627.181-.362-2.17-1.326-.242.422zm-.601 1.026.301-.543-2.231-1.206-.302.543zm-.908 1.869.242-.483-2.352-1.025-.181.422zm.483-.966.18-.421-2.291-1.146-.18.422zm-.841 1.81.181-.422-2.352-1.025-.18.422zm-.425 1.085.242-.542-2.412-.965-.181.603zm-.601 1.93.12-.422-2.471-.784-.121.482zm.303-1.026.121-.362-2.412-.844-.18.422zm-.604 1.929.12-.422-2.472-.723-.12.422zm-.239 1.087.12-.543-2.472-.663-.18.663zm-.423 2.05.06-.483-2.532-.482-.06.543zm.177-1.025.12-.423-2.532-.542-.12.422zm-.361 1.928.121-.422-2.533-.422-.12.483zm-.115 1.147v-.603l-2.532-.302v.603zm-.183 2.11.06-.482-2.593-.18v.482zm.058-1.085.06-.422-2.533-.24-.06.421zm-.12 1.99.06-.423-2.593-.18v.482zm.003 1.144v-.603l-2.593-.06v.663zm-.003 2.111v-.482l-2.533.06v.482zm0-1.085v-.422H9.787v.482zm.062 1.99v-.422l-2.532.12v.483zm.118 1.205-.06-.603-2.533.181.06.603zm.184 2.05-.06-.483-2.533.302.06.482zm-.118-1.085v-.422l-2.533.241v.483zm.237 1.99-.06-.422-2.533.362.06.422zm.239 1.147-.12-.542-2.533.422.12.603zm.181 1.023-.06-.422-2.533.482.06.422z" opacity=".5" style="mix-blend-mode:screen"/><path fill="#444648" d="M21.607 30.63c-.181.121-.603.483-1.146 1.026-.784.723-1.809 1.869-2.955 3.376-2.23 2.955-4.522 7.417-5.547 12.241-1.146 4.824-1.085 9.768-.663 13.447.12 1.869.482 3.376.663 4.401q.09.633.18 1.086c.363 0 .664-.12 1.026-.302.06 0 .12-.12.18-.12 0-.242-.12-.543-.18-.844-.181-1.026-.543-2.533-.663-4.282-.422-3.557-.483-8.441.603-13.024.964-4.643 3.195-8.985 5.306-11.758 1.025-1.448 2.05-2.473 2.774-3.196.301-.241.542-.483.723-.663v-.242c0-.361-.18-.723-.422-1.025z" opacity=".3" style="mix-blend-mode:multiply"/><path fill="#00b0ef" d="M38.546 26.049c-.422-.423-.904-.724-1.447-1.026l-7.236-2.05-7.537 7.84c0 .06-.422.24-.422.24s1.085 4.221 2.291 6.754c.302.723.784 1.387 1.387 1.99 3.015 2.834 8.382 2.11 12-1.75 3.557-3.798 4.04-9.225 1.025-12.059z"/><path fill="#00b0ef" d="m24.738 28.34-2.412 2.412c0 .06-.422.24-.422.24s1.085 4.222 2.291 6.754c.302.724.784 1.387 1.387 1.99 2.05 1.93 5.246 2.231 8.14.965-3.135-4.824-6.15-8.08-8.984-12.422z" opacity=".4" style="mix-blend-mode:multiply"/><path fill="#44c8f5" d="M40.296 33.044c.603-2.654.06-5.307-1.748-7.055-.423-.422-.905-.724-1.448-1.026l-7.236-2.05-2.411 2.473c4.28 2.532 8.562 5.004 12.783 7.597z"/><path fill="#00b0ef" d="M31.853 31.475c1.688-2.954 1.025-5.849-.603-8.14l-1.387-.362-7.537 7.84c0 .06-.422.24-.422.24s.362 1.327.844 2.955c3.196 1.507 7.236.784 9.105-2.533" opacity=".4" style="mix-blend-mode:multiply"/><path fill="#007bc2" d="M30.766 23.155 25.7 18.633l-5.065 8.08-2.05 2.412 4.461 3.98c.181.12.362.301.543.422 2.352 1.447 5.789.18 7.598-2.774 1.628-2.713 1.447-5.91-.362-7.537z"/><path fill="#44c8f5" d="M32.273 26.23c-.12-1.206-.603-2.351-1.448-3.075l-5.065-4.522-1.145 1.809c2.472 2.05 5.125 3.92 7.718 5.788z" opacity=".2"/><path fill="#00b0ef" d="M26.24 30.692a428 428 0 0 0-4.703-5.367l-.844 1.387-2.05 2.412 4.462 3.98c.18.12.362.301.543.422 1.387.844 3.195.783 4.763-.06-.723-.905-1.387-1.81-2.17-2.654z" opacity=".4" style="mix-blend-mode:multiply"/><path fill="#00b0ef" d="M26.303 26.351c-1.809 2.955-5.246 4.221-7.597 2.774s-2.835-5.065-1.026-8.02c1.81-2.954 5.246-4.22 7.598-2.774 2.352 1.448 2.834 5.065 1.025 8.02"/><path fill="#007bc2" d="M25.641 20.26h-.06l-3.558-1.326c-.12 0-.24-.241-.18-.362 0-.12.24-.241.361-.18l3.558 1.326c.12 0 .241.241.18.362 0 .12-.18.18-.3.18m.544 1.688h-.06l-5.789-2.05c-.12 0-.241-.242-.18-.362 0-.12.24-.241.361-.181l5.789 2.05c.12 0 .241.241.18.362 0 .12-.18.18-.3.18m.055 1.871h-.06l-7.357-2.834c-.12 0-.241-.241-.18-.362 0-.12.24-.24.361-.18l7.357 2.834c.12 0 .24.24.18.361 0 .12-.18.181-.301.181m-1.445 3.195h-.06l-7.357-2.834c-.12 0-.241-.242-.18-.362 0-.12.24-.241.36-.181l7.357 2.834c.121 0 .242.241.181.362 0 .12-.18.18-.301.18m-1.507 1.026h-.061l-5.849-2.11c-.12 0-.241-.241-.18-.362 0-.12.24-.241.36-.18l5.85 2.11c.12 0 .241.24.18.361 0 .121-.18.181-.3.181m-2.172.904h-.12l-3.257-1.326c-.12 0-.241-.241-.18-.362 0-.12.24-.241.36-.181l3.257 1.327c.12 0 .241.24.18.361 0 .12-.18.181-.3.181zm4.583-3.257h-.12l-7.96-3.135c-.12 0-.241-.241-.18-.362 0-.12.24-.241.361-.18l7.96 3.135c.12 0 .24.24.18.361 0 .121-.18.181-.301.181z"/><path fill="#fff" d="M19.13 31.536s-6.21 4.523-8.803 18.633c0 0 2.171-11.095 8.804-18.633" opacity=".6" style="mix-blend-mode:screen"/><path fill="#00b0ef" d="M21.962 65.122c0 .12-.24.242-.603.242-.362 0-.603-.06-.603-.181s.241-.242.603-.242c.302 0 .603.06.603.181" opacity=".7" style="mix-blend-mode:multiply"/><path fill="#c7dde8" d="M20.82 63.858v1.267c.06.12.302.18.543.12.241 0 .422-.12.422-.18v-1.267h-.965z"/><path fill="#fff" d="M21.725 63.797c0 .06-.181.181-.423.181-.24 0-.482 0-.482-.12 0-.121.181-.181.422-.181s.482 0 .482.12"/></g></g><defs><clipPath id="a"><path fill="#fff" d="M4.931 16.027h81.37v57.945H4.931z"/></clipPath><clipPath id="b"><path fill="#fff" d="M6.164 17.727h80.137v54.751H6.164z"/></clipPath><clipPath id="c"><path fill="#fff" d="M23.59 25.385h40.16v38.712H23.59z"/></clipPath><linearGradient id="d" x1="31.663" x2="55.782" y1="39.045" y2="52.896" gradientUnits="userSpaceOnUse"><stop stop-color="#fff"/><stop offset="1"/></linearGradient><linearGradient id="f" x1="31.66" x2="55.78" y1="39.047" y2="52.897" gradientUnits="userSpaceOnUse"><stop stop-color="#fff"/><stop offset="1" stop-color="#fff"/></linearGradient></defs></svg>