<svg xmlns="http://www.w3.org/2000/svg" width="90" height="90" fill="none" viewBox="0 0 90 90"><rect width="90" height="90" fill="#f2fdf0" rx="9.524"/><g clip-path="url(#a)"><path fill="#fa676a" d="M4.13 37.865c.09-.78.538-1.62 1.372-2.549s1.64-1.469 2.445-1.649c.806-.18 1.521.03 2.207.66.209.21.388.42.537.6.149.21.238.45.298.78.06.329.12.599.149.869.03.27 0 .69 0 1.229-.06.84-.12 1.679-.239 2.548q-.135 1.305-.178 1.53l-.15 1.198 2.595-2.848c.506-.54.745-1.05.715-1.499 0-.45-.238-.96-.656-1.499l.179-.21 3.16 3.148-5.098 5.576-1.372-1.259v-2.218c0-1.5-.119-2.698-.387-3.568a4.9 4.9 0 0 0-1.461-2.278c-.686-.63-1.253-1.02-1.64-1.08-.388-.09-.746.06-1.074.42s-.447.69-.417.99c.06.3.149.54.328.689.179.15.328.27.507.33l.328-.36c.208.09.447.24.686.45.238.21.357.51.327.84 0 .359-.178.689-.447 1.019-.298.33-.626.48-1.014.48-.357 0-.715-.18-1.043-.45-.537-.48-.746-1.11-.686-1.89z"/><path fill="#fac1c2" d="m80.498 61.939 3.607 5.966-14.849 4.647z"/><path fill="#f7a5a7" d="m82.108 62.899 1.997 5.006-14.849 4.647z"/><path fill="#fad7d8" d="m82.11 62.898-12.852 9.654.477.03 16.847-6.326.954-3.657zm-2.118-4.767-4.95 1.32-5.904 12.77.12.33 11.24-10.613z"/><path fill="#33b5ff" d="M76.05 60.23 56.846 30.58l.984.479 19.173 29.65z"/><path fill="#5cc4ff" d="m31.564 71.592-19.202-29.65c.746.12 18.04 2.967 18.934 3.147.716.15 2.564-.03 3.548-.3.984-.24 2.803-.989 3.519-1.498.864-.63 17.77-12.202 18.486-12.682l19.173 29.65a7467 7467 0 0 0-18.487 12.682c-.715.51-2.534 1.26-3.518 1.5-.984.239-2.833.449-3.549.299-.894-.18-18.188-3.028-18.933-3.148z"/><path fill="#8ad5ff" d="m30.61 72.551-19.172-29.65.924-.96 19.203 29.65z"/><path fill="#1378d6" d="m76.05 60.23.984.48c-.179.12-17.592 12.051-18.427 12.68-1.043.75-3.22 1.62-4.502 1.95-1.312.33-3.489.57-4.562.36-.865-.18-18.725-3.119-18.904-3.149l.924-.959c.745.12 18.04 2.968 18.934 3.148.715.15 2.564-.03 3.548-.3.984-.24 2.803-.99 3.519-1.499.864-.63 17.77-12.202 18.486-12.682z"/><path fill="#8d9198" d="M53.57 72.613 35.59 44.76l.12-.15 17.98 27.852z"/><path fill="#bacee0" d="M53.39 72.613 35.41 44.76c.12-.03.15 0 .18 0l17.98 27.852c-.03 0-.09-.03-.18 0"/><mask id="b" width="19" height="29" x="35" y="44" maskUnits="userSpaceOnUse" style="mask-type:luminance"><path fill="#fff" d="M53.39 72.613 35.41 44.76c.119-.03.149 0 .178 0l17.98 27.852c-.03 0-.09-.03-.179 0"/></mask><g fill="#bacee0" mask="url(#b)"><path d="m53.385 72.584-17.98-27.852h.03l17.98 27.852zm.058 0-17.98-27.852h.06l17.98 27.852z"/></g><path fill="#d5e5f2" d="M69.37 59.69 51.39 31.84c3.817-.87 5.1.18 5.189.24l17.98 27.852c-.06-.06-1.372-1.11-5.189-.24"/><path fill="url(#c)" d="M35.619 44.55c5.426-4.377 15.266-12.322 15.773-12.711l17.98 27.851c-.507.42-10.347 8.365-15.774 12.742-5.754-8.904-12.225-18.977-17.98-27.852z"/><path fill="#d5e5f2" d="M38.215 42.482c-.478.39-.955.75-1.402 1.14 2.982 6.865 16.43 14.78 19.769 26.412.537-.42 1.073-.87 1.61-1.32-3.518-11.542-17.085-19.396-20.007-26.232zm-1.342 25.513-17.98-27.852c.537.15 10.973 3.088 16.489 4.617l17.98 27.852c-5.517-1.53-15.953-4.467-16.49-4.617"/><path fill="#fafdff" d="M39.79 65.388 21.812 37.506l.12-.12 17.98 27.852z"/><path fill="url(#d)" d="m39.912 65.238-17.98-27.852c.06.03 7.037 3.238 13.716 7.195 0 0 .06.03.09.06l17.98 27.852s-.06-.03-.09-.06c-6.679-3.958-13.626-7.165-13.716-7.195"/><path fill="#fafdff" d="M39.913 65.237c.06.03 7.037 3.238 13.716 7.195 0 0 .06.03.09.06l-.12.15c-.03 0-.09-.03-.12-.06-6.649-3.927-13.596-7.135-13.656-7.165l.12-.15z"/><path fill="#bacee0" d="M69.37 59.69c3.816-.868 5.098.18 5.187.24-.715.48-16.757 11.483-17.622 12.113-.715.51-2.534 1.259-3.518 1.499s-2.833.45-3.548.3c-.895-.18-17.324-2.879-18.07-2.998.06-.09 1.283-1.8 5.1-2.848.536.15 10.972 3.088 16.488 4.617.12-.03.15 0 .18 0 0 0 .029-.12.029-.18A9960 9960 0 0 0 69.369 59.69"/><path fill="#d5e5f2" d="M58.189 68.715c-.537.45-1.104.87-1.61 1.32.178.63.327 1.289.447 1.948.268-.18.864-.6 1.7-1.169a17 17 0 0 0-.508-2.099z"/><path fill="#e6f4ff" d="m31.801 70.843-17.98-27.852c.06-.09 1.283-1.798 5.1-2.848L36.9 67.995c-3.818 1.08-5.04 2.758-5.1 2.848"/><path fill="url(#e)" d="M60.908 74.201c.149-15.56-19.083-23.984-22.78-31.929l-1.342 1.14c3.697 7.944 22.63 16.369 22.482 31.929l.656-1.92z"/><path fill="#0064de" d="M54.52 21.376v.09l-5.336.9-2.445-1.23a40 40 0 0 0-4.175 17.089l3.459-3.148s1.58 1.409 3.101 2.758c.09-3.118.656-6.326 1.67-9.414 1.49 2.219 3.727 4.917 7.186 8.005l.477-4.047s1.58-.27 4.204-.57c-7.126-6.266-8.17-10.433-8.17-10.463z"/><path fill="#004496" d="M57.146 25.993c-2.177-2.878-2.594-4.587-2.624-4.617v.09l-5.337.9-2.445-1.23a38.3 38.3 0 0 0-2.356 5.876c.269.24.507.48.776.72 1.341 1.229 3.22 1.889 5.307 1.739.09-.33.209-.69.328-1.02.179.3.387.57.626.9 2.206-.42 4.204-1.65 5.665-3.358z"/><path fill="#fff" d="m58.102 35.707.06-.57c-4.473-4.017-6.381-7.135-7.156-8.754a46 46 0 0 1 1.61-3.747l-.418-.21c-.536 1.079-1.043 2.188-1.46 3.328a6 6 0 0 1-.21-.57l-.477.12s.09.39.418 1.11a40.6 40.6 0 0 0-2.356 10.582c.15.12.298.27.448.39a40.3 40.3 0 0 1 2.206-10.373c.924 1.769 2.952 4.827 7.335 8.694m-3.843-13.641-.477.12c0 .03.954 3.927 7.395 9.833.208 0 .417-.06.626-.09-6.56-5.906-7.544-9.833-7.574-9.863zm-6.65-.51-.418-.21c-2.534 5.157-3.966 10.853-4.115 16.52l.477-.45c.21-5.427 1.61-10.883 4.056-15.86"/><path fill="#bddaff" d="M49.993 29.501q.357-1.26.805-2.518c.298.6.745 1.349 1.341 2.218.15-.03.328-.09.478-.15a17 17 0 0 1-1.61-2.668 46 46 0 0 1 1.61-3.747l-.418-.21a33 33 0 0 0-1.46 3.328 6 6 0 0 1-.21-.57l-.477.12s.09.39.418 1.11a42 42 0 0 0-1.014 3.087zm4.265-7.435-.477.12s.417 1.738 2.564 4.616c.119-.12.238-.21.358-.33-2.028-2.728-2.446-4.346-2.446-4.376zm-9.068 5.636a38.6 38.6 0 0 1 2.416-6.146h-.03l-.388-.21a41 41 0 0 0-2.385 5.996c.12.12.269.24.388.36"/><path fill="url(#f)" d="M57.208 16.909c0-1.53-.387-2.878-1.073-3.988-1.223-1.918-3.37-3.088-5.904-3.058-.418 0-.835.06-1.282.12a6.2 6.2 0 0 0-1.282.33c-2.535.84-4.712 2.758-5.964 5.127-.715 1.349-1.133 2.848-1.133 4.347-.03 4.617 3.638 7.735 8.23 6.925 4.592-.78 8.349-5.186 8.408-9.803"/><g opacity=".4" style="mix-blend-mode:overlay"><path fill="url(#g)" d="M57.207 16.909c0-1.08-.179-2.04-.537-2.908L44.386 26.173a7.04 7.04 0 0 0 3.011.66l9.81-9.744z"/><path fill="url(#h)" d="M50.232 9.864h-.268l-9.392 9.293v.6c0 1.5.387 2.848 1.073 3.957l12.732-12.621c-1.133-.81-2.564-1.23-4.145-1.23"/></g><path fill="url(#i)" d="M58.875 18.467c0-1.529-.388-2.878-1.074-3.987a7.7 7.7 0 0 0-1.073-1.32l-1.67-1.558c.417.39.775.84 1.073 1.319.686 1.11 1.074 2.458 1.074 3.987-.03 4.617-3.817 8.994-8.409 9.804-2.415.42-4.592-.24-6.082-1.649.268.27.566.51.834.78.269.27.567.51.835.78 1.491 1.378 3.668 2.068 6.083 1.648 4.592-.78 8.349-5.187 8.408-9.804"/><path fill="#de6921" d="M58.875 18.468c0-1.529-.388-2.878-1.074-3.987a4.6 4.6 0 0 0-.894-1.11c.268.3.537.63.745.99.686 1.109 1.074 2.458 1.074 3.987-.03 4.617-3.817 8.994-8.409 9.804-2.415.42-4.592-.24-6.083-1.65-.268-.269-.566-.509-.834-.779-.18-.15-.328-.3-.507-.45-.06-.06-.15-.12-.209-.18.268.27.567.51.835.78s.566.51.835.78c1.49 1.379 3.667 2.068 6.082 1.649 4.592-.78 8.35-5.187 8.409-9.804z"/><path fill="#ffe8a6" d="M48.886 26.863c4.592-.78 8.349-5.187 8.408-9.804 0-1.529-.387-2.878-1.073-3.987-.09-.15-.179-.3-.298-.42.06.09.12.18.179.3.686 1.109 1.073 2.458 1.073 3.987-.03 4.617-3.816 8.994-8.408 9.804-2.416.42-4.592-.24-6.083-1.65.209.18.388.36.596.57 1.461 1.11 3.43 1.59 5.576 1.23z" opacity=".7" style="mix-blend-mode:overlay"/><path fill="url(#j)" d="m52.882 17.239-1.55 1.949.238 2.248c.03.33-.12.54-.388.6h-.268l-2.057-.6-2.087 1.29c-.09.06-.18.09-.269.12-.238.03-.417-.12-.358-.48l.269-2.309-1.521-1.439c-.298-.27-.179-.63.239-.81l2.236-.839 1.133-2.189c.12-.21.268-.33.387-.36.15 0 .299.06.388.21l1.103 1.8 2.237.09c.417 0 .536.33.238.719zm-4.085 8.454c-4.025.69-7.246-2.038-7.216-6.056.03-4.047 3.34-7.885 7.335-8.574 4.026-.69 7.246 2.039 7.216 6.086s-3.34 7.885-7.335 8.574zm6.947-8.514c.03-3.808-3.011-6.386-6.798-5.726s-6.888 4.287-6.917 8.094c-.03 3.808 3.011 6.386 6.798 5.727 3.787-.66 6.888-4.288 6.917-8.095"/><path fill="#ff7e14" d="M48.943 11.452c1.64-.27 3.13.03 4.293.78l.328-.33c-1.252-.84-2.862-1.2-4.621-.87-.06 0-.12 0-.18.03l-.536.54c.239-.06.477-.12.716-.15m-6.171 11.153c-.507-.87-.775-1.92-.745-3.088 0-.72.119-1.41.328-2.099l-.537.54a7.5 7.5 0 0 0-.179 1.619c0 1.259.298 2.398.835 3.327l.328-.33zm8.14-.6c.09 0 .179.03.268 0 .239-.03.418-.27.388-.6l-.209-2.158-2.236 2.218 1.819.51zm5.161-3.778c.06-.36.09-.75.09-1.11q0-1.213-.359-2.248l-.358.33c.18.6.299 1.26.299 1.979 0 .51-.06 1.049-.18 1.559zm-6.769-3.597c-.12-.18-.239-.24-.388-.21-.149 0-.298.15-.387.36l-1.134 2.188-2.236.84c-.417.15-.537.51-.238.81l.983.929 3.996-3.988-.566-.93zm-.807 11.093.507-.51c-.06 0-.12 0-.18.03a6.2 6.2 0 0 1-3.25-.27l-.357.33c.984.39 2.087.54 3.28.39z"/><path fill="#fff" d="M48.41 24.973a.48.48 0 0 1-.448-.39c-.03-.27.12-.509.388-.569 1.044-.18 2.117-.66 3.041-1.379.21-.15.507-.12.656.09s.12.51-.09.66c-1.073.809-2.265 1.349-3.458 1.558h-.09zm5.069-3.028c.03-.03.06-.09.089-.12.179-.21.12-.51-.06-.689-.208-.18-.507-.12-.685.06-.03.03-.06.09-.09.12a.484.484 0 0 0 .06.69c.09.06.179.12.298.12a.48.48 0 0 0 .387-.18m-5.248-8.964c.09-.03.208-.06.298-.12.238-.09.387-.36.298-.6s-.358-.389-.596-.299c-.12.03-.239.09-.328.12-.239.09-.358.36-.269.63.06.18.239.3.418.3.06 0 .12 0 .179-.03m-4.115 3.688a8.5 8.5 0 0 1 1.908-2.369.484.484 0 0 0 .06-.69.477.477 0 0 0-.686-.06c-.865.75-1.61 1.65-2.117 2.64a.49.49 0 0 0 .209.659c.06.03.119.06.209.06.178 0 .357-.09.447-.24z" opacity=".8" style="mix-blend-mode:overlay"/><path fill="#ffc933" d="m59.89 18.498 2.206.42c.417.09.685.48.596.87-.09.419-.477.689-.865.599-.09 0-.149-.06-.238-.09l-1.968-1.11c-.18-.09-.239-.33-.15-.51a.36.36 0 0 1 .388-.179zm-1.523-4.737 1.282-1.859c.239-.33.716-.42 1.044-.18s.417.72.179 1.05l-.18.18-1.818 1.319c-.179.12-.418.09-.537-.09-.09-.12-.09-.3 0-.45zM59.8 15.92l2.087-.84c.387-.15.805 0 .984.42a.75.75 0 0 1-.418.99c-.09.03-.149.06-.238.06l-2.237.15c-.208 0-.387-.15-.387-.36 0-.18.09-.3.238-.36zm-19.65 5.426-1.79 1.35c-.328.239-.805.179-1.044-.15-.238-.33-.178-.81.15-1.05.06-.06.149-.09.208-.12l2.147-.69a.39.39 0 0 1 .477.24c.06.15 0 .33-.119.42zm.086-4.976-1.968-1.08c-.358-.21-.507-.66-.298-1.019.209-.36.656-.51 1.014-.3.06.03.149.09.179.15l1.52 1.679c.15.15.12.39 0 .54-.119.12-.298.12-.447.06zm-.774 2.488-2.237.15c-.417 0-.775-.3-.805-.69 0-.42.298-.779.686-.809h.238l2.177.57c.209.06.328.27.268.45a.35.35 0 0 1-.328.27z"/><path fill="#fa676a" d="M25.333 38.165a2.4 2.4 0 0 1 .746-3.327c1.103-.72 2.594-.39 3.31.75l1.968 3.087-4.056 2.578z"/><path fill="#186ed6" d="m37.977 57.203.179 1.529 2.057-.06 1.82-1.62-.18-1.528-2.057.09z"/><path fill="#f6d1aa" d="m40.124 58.462 1.73-1.47-.18-1.258-1.789.06-1.73 1.499.18 1.259z"/><path fill="#41413f" d="M40.243 56.693c-.268 0-.626.21-.745.48-.12.24 0 .45.268.42a.87.87 0 0 0 .746-.48c.119-.24 0-.45-.269-.45z"/><path fill="url(#k)" d="m37.976 57.203-10.585-16.97.209 1.53 10.555 16.969z"/><path fill="url(#l)" d="m29.24 38.615-1.849 1.62 10.585 16.968 1.82-1.589z"/><path fill="#ffc933" d="M41.854 55.524 31.268 38.555l-2.027.06 10.555 17z"/><path fill="#86b0d1" d="m27.54 40.474-1.192-1.919.208 1.53 1.193 1.918z"/><path fill="#accfeb" d="m29.389 38.855-1.223-1.92-1.819 1.62 1.193 1.918z"/><path fill="#d9eeff" d="m31.418 38.795-1.193-1.949-2.058.09 1.223 1.919z"/><path fill="#41413f" d="M42.387 59.002c-.358.18-.716.42-1.044.72s-.656.63-.925.99l2.565 2.248-.626-3.958z"/><path fill="url(#m)" d="m38.153 58.732 2.266 1.98c.269-.36.567-.69.925-.99.328-.3.685-.54 1.043-.72l-.566-3.477c-.209-.21-.686-.51-1.133-.57-.477-.06-.835.21-.835.21s-.298-.15-.567 0-.477.57-.447.66c-.477 0-1.133.42-1.133.989-.209.24 0 .84.06.959-.06.12 0 .39.387.99z"/><path fill="#fac1c2" d="m72.804 35.586 1.074 4.977 6.947-12.682z"/><path fill="#f7a5a7" d="m75.245 35.856-1.372 4.707 6.947-12.682z"/><path fill="#fad7d8" d="m81.178 28.061-.358-.18-5.575 7.975 3.13 2.099 4.682-1.56z"/><path fill="#fad7d8" d="m65.555 34.417 1.371 2.248 5.874-1.079 8.021-7.705-.566.06z"/><path fill="#fac1c2" d="m8.365 50.008-.894 5.187 15.594-.51z"/><path fill="#fad7d8" d="m7.382 52.077-4.92 3.088 2.504 3.478 17.682-3.628.417-.33zm4.682-8.335-4.95 1.679 1.253 4.587 14.7 4.677-.03-.45z"/><path fill="url(#n)" d="M12.628 24.194c0-.27-.06-.54-.06-.81 0-.18.06-.36.24-.539.595-.57 1.997-.9 3.19-.72.805.12 1.282.45 1.312.81 0 .27.06.54.06.81-.03-.36-.508-.69-1.313-.81-1.192-.18-2.594.15-3.19.72-.18.18-.269.36-.239.54"/><path fill="url(#o)" d="M16.09 22.935c-1.192-.18-2.594.15-3.19.72-.179.18-.268.36-.239.54 0 .3.358.599.955.749.03 0 .119.06.178.18.06.06.06.12.09.15v.6c0 .12 0 .24.03.359 0 .12 0 .24.03.36 0 .12 0 .24.03.36 0 .12 0 .24.03.36v.869c0-.09.029-.18.118-.3.299-.3 1.074-.48 1.7-.39.417.06.686.24.716.45v-.87c0-.12 0-.24-.03-.36 0-.12 0-.24-.03-.36 0-.119 0-.239-.03-.359 0-.12 0-.24-.03-.36v-.6c0-.09.03-.21.18-.329h.029c.209-.12.418-.21.537-.36.179-.18.268-.36.238-.54-.03-.36-.507-.689-1.312-.809z"/><path fill="#ffe8a6" d="M17.401 23.744v-.18c-.09-.33-.566-.63-1.312-.72-1.192-.179-2.594.15-3.19.72-.179.18-.239.33-.239.51 0-.12.09-.27.239-.39.596-.57 1.998-.899 3.19-.72.805.12 1.283.45 1.312.81z" opacity=".7" style="mix-blend-mode:overlay"/><path fill="url(#p)" d="M18.592 30.61c-.805.809-2.833 1.259-4.473 1.019-1.67-.24-2.325-1.08-1.52-1.889.805-.81 2.832-1.259 4.472-1.02 1.67.24 2.326 1.08 1.52 1.89"/><path fill="#de6921" d="M12.6 29.8c.835-.81 2.832-1.26 4.472-1.02 1.193.18 1.879.66 1.849 1.23.09-.6-.596-1.11-1.849-1.29-1.67-.239-3.667.21-4.472 1.02-.239.21-.328.45-.358.66 0-.18.149-.39.328-.6z"/><path fill="#d5e5f2" d="M16.478 30.07c0-.15-.179-.27-.507-.3-.447-.06-.984.06-1.193.27-.06.06-.09.15-.09.21l.388 4.258c0 .03 0 .09.03.12.18.21.328.42.507.66.18.21.328.419.507.659.239-.48.477-.96.745-1.47v-.12l-.387-4.256z"/><path fill="#d5e5f2" d="M16.478 30.07c0-.15-.179-.27-.507-.3-.447-.06-.984.06-1.193.27-.06.06-.09.15-.09.21v.48c.388.03 1.074.18 1.91.75l-.12-1.38z"/><path fill="url(#q)" d="M18.265 27.762c-.567-.54-1.402-.66-1.67-.69-.328-.03-1.282-.149-2.415.18-1.044.33-1.431.81-1.61 1.02-.12.15-.269.42-.328.6-.09.33-.09.51-.06.78 0 .269.06.539.09.839 0-.24.089-.51.357-.75.805-.81 2.833-1.26 4.473-1.02 1.133.18 1.819.63 1.849 1.14l-.09-.84c0-.18-.09-.779-.596-1.259"/><path fill="#ffe8a6" d="M12.51 28.362c.18-.21.597-.69 1.64-1.019 1.163-.36 2.147-.24 2.475-.21.239.03 1.104.18 1.7.72.12.12.239.24.328.39-.09-.15-.209-.33-.358-.48-.566-.54-1.401-.66-1.67-.69-.328-.03-1.282-.15-2.415.18-1.043.33-1.431.81-1.61 1.02-.06.06-.12.15-.149.24.03-.06.06-.09.09-.12zm-.206 1.799c0 .03-.06.09-.06.12v.18c0-.09 0-.21.06-.3m6.59-.479c0 .06.03.09.03.15v-.12s0-.03-.03-.06z" opacity=".7" style="mix-blend-mode:overlay"/><path fill="#0064de" d="m29.864 24.734-2.773-2.399-2.743 1.62.716 3.627 1.043-.63.15.27-2.117 1.26-.15-.27.656-.39-2.087-11.633 1.133-.66 9.094 7.466.627-.39.149.27-4.503 2.698-.149-.27.984-.57zm-6.41-5.547.834 4.407 2.505-1.499z"/><path fill="#7ecb66" d="m81.626 38.644 2.922 3.808c.895 1.169 1.431 2.188 1.58 3.028s-.178 1.559-.924 2.128c-1.163.9-2.385.75-3.697-.48 1.103 1.89 1.013 3.298-.239 4.288-.924.72-1.848.87-2.743.45s-1.849-1.29-2.862-2.579L72.77 45.54l.239-.18.626.84 8.408-6.537-.626-.839.239-.18zm2.296 3.508-3.906 3.028.268.33c.328.45.716.66 1.103.63.388-.03.865-.27 1.432-.69l.596-.45c.626-.48 1.014-.9 1.133-1.26.12-.359.03-.749-.298-1.169zm-4.145 3.208-4.264 3.297.448.6c.358.48.775.66 1.252.6s1.014-.33 1.64-.81l.686-.51c.566-.42.894-.869.984-1.319s-.06-.959-.507-1.559z"/><path fill="#fa676a" d="M12.543 67.006c-.835 1.439.119 2.968 2.892 4.587l1.103.63c1.312.779 2.445 1.169 3.43 1.229.953.06 1.669-.3 2.086-1.05.597-1.019.15-2.548-1.341-4.557l.149-.24 3.041 1.92-.09.15h-.298c-.06 0-.119.09-.178.18-.06.089-.18.479-.358 1.138a11 11 0 0 1-.805 1.92c-.865 1.528-1.968 2.458-3.25 2.817-1.283.36-2.773.06-4.384-.9-1.64-.959-2.653-2.128-3.011-3.507-.388-1.379-.15-2.818.686-4.287.328-.57.715-1.08 1.192-1.529.448-.45.716-.75.776-.84s.06-.18.06-.24-.06-.15-.12-.27l.09-.15 3.07 1.65-.149.24c-1.162-.12-2.146-.12-2.892.03q-1.118.225-1.61 1.079z"/><path fill="#7ecb66" d="m50.734 68.385-1.73-.45.09-.3 3.548.87 1.223.48-4.055 10.403 1.162.45-.119.3-5.635-2.22.119-.299 1.58.63 3.847-9.834z"/><path fill="#ffc933" d="M72.086 16.01c.805 0 1.7.389 2.713 1.138 1.968 1.47 2.415 2.879 1.401 4.258-.417.57-.984.84-1.729.87-.745 0-1.58-.21-2.534-.72 1.013.899 1.61 1.738 1.789 2.548s.03 1.529-.448 2.218c-.626.84-1.43 1.23-2.445 1.23q-1.52 0-3.31-1.35a7.2 7.2 0 0 1-1.192-1.109 2.9 2.9 0 0 1-.626-1.409c-.09-.54 0-1.02.328-1.439.298-.42.656-.69 1.043-.75.388-.09.746 0 1.104.27q.536.405.626.9t-.18.9c-.178.24-.387.449-.595.569l-.388-.3c-.15.09-.298.21-.388.36-.447.6-.328 1.2.388 1.739.507.39.984.45 1.461.18.477-.24.984-.75 1.52-1.47.537-.719.836-1.319.925-1.798.06-.45 0-.9-.209-1.35-.358-.15-.775-.39-1.252-.659l.179-.3c.805.48 1.431.69 1.878.57.448-.12.955-.54 1.491-1.26.537-.719.865-1.319.954-1.738.09-.42-.03-.75-.357-1.02-.328-.24-.656-.33-.955-.24s-.507.24-.626.42-.238.36-.268.54l.388.27c-.06.24-.18.48-.388.72-.179.24-.447.39-.805.42a1.58 1.58 0 0 1-1.044-.36c-.358-.27-.536-.57-.566-.96 0-.36.09-.72.358-1.08.417-.569 1.013-.839 1.818-.839z"/></g><defs><linearGradient id="c" x1="57.454" x2="42.111" y1="48.716" y2="59.172" gradientUnits="userSpaceOnUse"><stop stop-color="#f0f8ff"/><stop offset="1" stop-color="#d5e5f2"/></linearGradient><linearGradient id="d" x1="41.104" x2="27.712" y1="53.436" y2="59.388" gradientUnits="userSpaceOnUse"><stop stop-color="#f0f8ff"/><stop offset="1" stop-color="#d5e5f2"/></linearGradient><linearGradient id="e" x1="37.505" x2="58.166" y1="47.105" y2="68.353" gradientUnits="userSpaceOnUse"><stop stop-color="#ff7a7d"/><stop offset="1" stop-color="#fa6164"/></linearGradient><linearGradient id="f" x1="50.68" x2="43.421" y1="14.945" y2="28.486" gradientUnits="userSpaceOnUse"><stop stop-color="#ffc933"/><stop offset="1" stop-color="#ffa733"/></linearGradient><linearGradient id="g" x1="52.318" x2="49.69" y1="13.164" y2="27.349" gradientUnits="userSpaceOnUse"><stop stop-color="#fff"/><stop offset="1" stop-color="#fff" stop-opacity="0"/></linearGradient><linearGradient id="h" x1="47.972" x2="45.343" y1="12.351" y2="26.535" gradientUnits="userSpaceOnUse"><stop stop-color="#fff"/><stop offset="1" stop-color="#fff" stop-opacity="0"/></linearGradient><linearGradient id="i" x1="56.475" x2="49.129" y1="12.348" y2="25.824" gradientUnits="userSpaceOnUse"><stop stop-color="#ffac26"/><stop offset="1" stop-color="#ff860d"/></linearGradient><linearGradient id="j" x1="53.853" x2="44.728" y1="9.188" y2="25.781" gradientUnits="userSpaceOnUse"><stop stop-color="#ffac26"/><stop offset="1" stop-color="#ff860d"/></linearGradient><linearGradient id="k" x1="30.03" x2="33.094" y1="35.031" y2="51.263" gradientUnits="userSpaceOnUse"><stop stop-color="#ffac26"/><stop offset="1" stop-color="#ff860d"/></linearGradient><linearGradient id="l" x1="29.671" x2="34.48" y1="35.674" y2="50.691" gradientUnits="userSpaceOnUse"><stop stop-color="#ffc933"/><stop offset="1" stop-color="#ffa733"/></linearGradient><linearGradient id="m" x1="41.396" x2="38.377" y1="56.502" y2="58.687" gradientUnits="userSpaceOnUse"><stop stop-color="#f6e7c4"/><stop offset="1" stop-color="#f6b391"/></linearGradient><linearGradient id="n" x1="12.548" x2="17.402" y1="23.066" y2="23.302" gradientUnits="userSpaceOnUse"><stop stop-color="#ffc933"/><stop offset="1" stop-color="#ffa733"/></linearGradient><linearGradient id="o" x1="14.426" x2="17.019" y1="24.419" y2="27.263" gradientUnits="userSpaceOnUse"><stop stop-color="#ffac26"/><stop offset="1" stop-color="#ff860d"/></linearGradient><linearGradient id="p" x1="13.406" x2="18.401" y1="29.981" y2="30.402" gradientUnits="userSpaceOnUse"><stop stop-color="#ffac26"/><stop offset="1" stop-color="#ff860d"/></linearGradient><linearGradient id="q" x1="13.858" x2="18.806" y1="28.683" y2="29.459" gradientUnits="userSpaceOnUse"><stop stop-color="#ffc933"/><stop offset="1" stop-color="#ffa733"/></linearGradient><clipPath id="a"><path fill="#fff" d="M2.466 9.863h85.069v70.274H2.465z"/></clipPath></defs></svg>