<svg xmlns="http://www.w3.org/2000/svg" width="90" height="90" fill="none" viewBox="0 0 90 90"><rect width="90" height="90" fill="#f2fdf0" rx="9.524"/><g clip-path="url(#a)"><g clip-path="url(#b)"><path fill="#e5ebf3" d="M84.228 20.98H7.715c-.854 0-1.547.693-1.547 1.547v49.777c0 .854.693 1.546 1.547 1.546h76.513c.854 0 1.546-.692 1.546-1.546V22.527c0-.854-.692-1.547-1.546-1.547"/><path fill="#2356a7" d="M84.228 20.98H7.715a1.55 1.55 0 0 0-1.547 1.547v1.546h79.606v-1.546a1.55 1.55 0 0 0-1.546-1.547"/><path fill="#f75244" d="M8.811 22.527c0 .309-.247.54-.541.54a.55.55 0 0 1-.541-.54c0-.294.247-.542.541-.542s.541.248.541.542"/><path fill="#ffc100" d="M11.194 22.527c0 .309-.247.54-.54.54a.55.55 0 0 1-.542-.54c0-.294.247-.542.541-.542s.541.248.541.542"/><path fill="#18e08f" d="M13.588 22.527c0 .309-.247.54-.54.54a.55.55 0 0 1-.542-.54c0-.294.247-.542.541-.542s.541.248.541.542"/><path fill="#222f4c" d="M82.69 42.288H67.967v6.727h14.721zm-12.545 9.109c0 .603-.495 1.098-1.098 1.098a1.1 1.1 0 0 1-1.098-1.098c0-.603.495-1.098 1.098-1.098s1.098.495 1.098 1.098m12.535-1.098H71.204v1.098H82.68zm0 1.902H71.204V53.3H82.68zm.01-23.117H67.967v6.726h14.721zm-12.545 9.092c0 .603-.495 1.098-1.098 1.098a1.1 1.1 0 0 1-1.098-1.098c0-.603.495-1.098 1.098-1.098s1.098.495 1.098 1.098m12.535-1.098H71.204v1.098H82.68zm0 1.918H71.204v1.098H82.68zm.01 16.498H67.967v6.727h14.721zM69.047 65.685a1.098 1.098 0 1 0 0-2.196 1.098 1.098 0 0 0 0 2.196m13.633-2.196H71.204v1.098H82.68zm0 1.917H71.204v1.097H82.68z"/><path fill="#fafafc" d="M10.853 25.93h-1.67v-.294h1.67zm0 .309h-1.67v.293h1.67zm0 .618h-1.67v.294h1.67z"/><path fill="#f75244" d="M13.968 25.882c-.031-.155-.109-.247-.248-.278-.062 0-.108-.016-.17-.016a10 10 0 0 0-.943-.015c-.201 0-.402 0-.603.03-.201.016-.31.109-.325.31q-.069.488 0 .974c.015.17.108.263.232.294.046 0 .093.015.14.015.262.016.525.016.772.031h.14c.231 0 .479 0 .71-.03.17-.016.264-.109.31-.264.015-.077.03-.17.03-.247a3.4 3.4 0 0 0-.03-.788zm-1.392.866v-.711c.2.123.417.232.618.355-.216.124-.417.232-.618.356"/><path fill="#222f4c" d="M65.48 25.836H17.468v1.098H65.48zm7.925.557c0 .464-.387.85-.85.85a.86.86 0 0 1-.851-.85c0-.464.386-.85.85-.85s.85.386.85.85m1.98-.85a.86.86 0 0 0-.851.85c0 .464.386.85.85.85s.85-.386.85-.85a.86.86 0 0 0-.85-.85m2.813 0a.86.86 0 0 0-.85.85c0 .464.387.85.85.85a.86.86 0 0 0 .851-.85.86.86 0 0 0-.85-.85m2.815 0a.86.86 0 0 0-.85.85c0 .464.386.85.85.85s.85-.386.85-.85a.86.86 0 0 0-.85-.85M10.253 69.937a.881.881 0 1 0 0-1.763.881.881 0 0 0 0 1.763m10.943-1.763H11.98v.882h9.216zm15.34 1.531H11.98v.881h24.556z"/><path fill="#b1b1b1" d="M65.5 62.284V29.068H9.258v33.216z"/><path fill="#c3c3c3" d="M57.319 62.285h-8.783L65.499 45.32v8.783zm-22.02 0h2.984L65.5 35.069v-2.985zM9.259 41.486v2.985L24.66 29.085h-2.984zm30.818-12.401h-13.02L9.259 46.883v13.02z"/><path fill="#2356a7" d="M65.5 62.283H9.258v4.206h56.24z"/><path fill="#122030" d="M63.967 63.722H48.58a.21.21 0 0 1-.216-.216c0-.124.093-.217.216-.217h15.387c.123 0 .216.093.216.217a.21.21 0 0 1-.217.216"/><path fill="#ffc100" d="M48.571 63.722h-37.7a.21.21 0 0 1-.216-.216c0-.124.093-.217.216-.217h37.7c.124 0 .217.093.217.217a.21.21 0 0 1-.217.216"/><path fill="#fffdff" d="M49.032 63.506a.465.465 0 0 1-.464.464.456.456 0 0 1-.464-.464c0-.263.201-.464.464-.464s.464.201.464.464"/><path fill="#fff" d="M13.497 64.711h.294v1.005h-.294zm-.572 1.005h.294v-1.005h-.294zm2.8-1.005v.402l-.62-.402v1.005l.62-.402v.402h.293v-1.005zm-5.026 0v1.005h.293v-.402l.619.402v-1.005l-.619.402v-.402zm51.241.51c0 .279-.232.51-.51.51a.515.515 0 0 1-.51-.51c0-.278.231-.51.51-.51.278 0 .51.232.51.51"/><path fill="#fffdff" d="M62.918 65.082v-.185h.371v-.186h-.541v.371zm.664-.185h.37v.185h.17v-.371h-.54zm-.293.68h-.371v-.201h-.17v.371h.541z"/><path fill="#fff" d="M63.953 65.376v.201h-.372v.17h.542v-.371z"/></g><g clip-path="url(#c)"><path fill="#fff" d="M17.238 23.497h7.48c3.88 0 7.012 3.179 7.012 7.117v.356c0 3.938-3.132 7.117-7.012 7.117h-1.66v2.135l-3.226-2.135h-2.594c-3.88 0-7.013-3.179-7.013-7.117v-.356c0-3.938 3.133-7.117 7.013-7.117"/><path fill="#0095f5" d="M17.636 30.802c0 .996-.795 1.803-1.776 1.803-.982 0-1.777-.807-1.777-1.803 0-.997.795-1.803 1.777-1.803s1.776.806 1.776 1.803m3.343-1.803c-.982 0-1.777.806-1.777 1.803s.795 1.803 1.777 1.803 1.776-.807 1.776-1.803c0-.997-.795-1.803-1.776-1.803m5.095 0c-.981 0-1.776.806-1.776 1.803s.795 1.803 1.776 1.803c.982 0 1.777-.807 1.777-1.803 0-.997-.795-1.803-1.777-1.803"/></g><g clip-path="url(#d)"><path fill="#ff9e83" d="M35.732 41.31c-.1-1.207-1.856-1.87-3.065-2.167-1.226-.298-2.667-.497-2.683.165s2.22 1.093 2.22 1.093z"/><path fill="#ff9e83" d="M35.732 41.31c-.1-1.207-1.856-1.87-3.065-2.167-1.226-.298-2.667-.497-2.683.165s2.22 1.093 2.22 1.093z" opacity=".4" style="mix-blend-mode:multiply"/><path fill="#ff9e83" d="M43.894 46.227c-.878 1.87-1.806 3.327-1.806 3.327-.828-2.5-6.361-8.225-6.361-8.225l-2.187 1.307s6.46 12.76 8.548 13.025c1.309.182 3.71-2.35 5.036-4.7-.613-1.904-1.491-3.807-3.23-4.734"/><path fill="#ff9e83" d="M47.127 50.961c-.613-1.903-1.49-3.806-3.23-4.733-.215.447-.43.877-.63 1.274 1.276 2.234 2.071 4.816.862 7.2 1.077-.91 2.236-2.35 3.015-3.74z" opacity=".6" style="mix-blend-mode:multiply"/><path fill="#239cc1" d="M50.671 37.704h-1.308c-3.38.232-4.937 6.289-6.312 8.523 1.74.927 3.462 2.83 4.075 4.734a45 45 0 0 0 1.309-2.483z"/><path fill="#6ee4ff" d="M42.773 46.227c2.501 1.357 4.356 4.981 4.356 4.981l.514-.893c-.43-2.98-4.24-5.363-4.24-5.363z"/><path fill="#311733" d="M58.628 22.957c-2.948-2.581 1.193-7.215 4.059-6.818 0 0-1.607.38-2.021.993 0 0 2.054-1.755 4.207 1.026 2.154 2.764-.546 6.09-2.435 6.156-1.888.067-3.81-1.357-3.81-1.357"/><path fill="#311733" d="M60.135 16.834c-2.087 1.357-3.611 4.253-1.507 6.106 0 0 1.938 1.424 3.81 1.357.977-.033 2.17-.943 2.8-2.2-3.198 1.737-4.871-2.698-5.12-5.264z"/><path fill="#ff9e83" d="m57.767 21.32 7.587-3.393-.298-.679-7.587 3.376-.596.679z"/><path fill="#ff7170" d="m65.135 17.414-7.388 3.293-.282-.083 7.587-3.376zm.15.349-7.388 3.293-.133.265 7.587-3.393z"/><path fill="#ff7170" d="m57.752 20.708-.133.265.282.083 7.388-3.294-.083-.165-.066-.182z"/><path fill="#ff7170" d="m65.285 17.763-7.388 3.293-.133.265 7.587-3.393z" opacity=".7" style="mix-blend-mode:multiply"/><path fill="#ff7170" d="m57.752 20.708-.133.265.282.083 7.388-3.294-.083-.165-.066-.182z" opacity=".3" style="mix-blend-mode:multiply"/><path fill="#000" d="m56.873 21.304.199-.231c.149.082.115.231.115.231z"/><path fill="#fff" d="m65.56 16.954-.712.316.364.816.711-.316z"/><path fill="#ff7170" d="m66.178 17.548-.298.132-.315-.695.299-.133a.39.39 0 0 1 .496.183c.083.215 0 .43-.182.513"/><path fill="#ccc" d="m65.82 17.54-.712.316.101.226.711-.316z"/><path fill="#ff9e83" d="m56.819 22.113 8.233-1.175-.1-.728-8.233 1.159-.762.496z"/><path fill="#f79e00" d="m64.968 20.392-8.001 1.142-.249-.165 8.233-1.159zm.056.365-8.001 1.142-.2.215 8.234-1.175zm-8.054.777-.199.215.248.149 8.002-1.142-.017-.182-.033-.182z"/><path fill="#f79e00" d="m65.024 20.757-8.001 1.142-.2.215 8.234-1.175z" opacity=".7" style="mix-blend-mode:multiply"/><path fill="#f79e00" d="m56.97 21.534-.199.215.248.149 8.002-1.142-.017-.182-.033-.182z" opacity=".3" style="mix-blend-mode:multiply"/><path fill="#000" d="m55.957 21.866.249-.166c.116.116.05.248.05.248z"/><path fill="#fff" d="m65.499 20.03-.771.11.126.885.77-.11z"/><path fill="#ff7170" d="m65.945 20.806-.331.05-.116-.761.331-.05a.36.36 0 0 1 .414.314.384.384 0 0 1-.314.447z"/><path fill="#ccc" d="m65.595 20.695-.77.11.034.246.771-.11z"/><path fill="#311733" d="M47.457 17.529c-3.246-.116-4.505 7.331-.447 9.532l1.027-6.851-.563-2.665z"/><path fill="#311733" d="M45.819 21.9c-.282.645-.15 1.472 0 2.118-1.06-1.523-1.276-3.492-.364-5.23-1.574 1.936-1.458 6.554 1.606 8.275l.265-2.201c-.894-.563-1.507-1.804-1.507-2.962" opacity=".6" style="mix-blend-mode:multiply"/><path fill="#239cc1" d="M67.39 47.335c-.927-2.565-2.55-7.994-3.992-8.705 0 0-3.528 0-4.373 4.832-.53 3.045 1.425 5.296 1.425 5.296l1.97 2.93c.978-1.986 2.883-3.443 4.954-4.337z"/><path fill="#239cc1" d="M59.488 41.824a9 9 0 0 0-.447 1.638c-.53 3.046 1.424 5.296 1.424 5.296l1.971 2.93c.58-1.192 1.491-2.168 2.568-2.98-2.899-1.125-5.218-3.64-5.516-6.884" opacity=".2" style="mix-blend-mode:multiply"/><path fill="#239cc1" d="M58.142 36.33c1.822 1.357 5.268 2.284 5.268 2.284-4.456 1.572-3.926 6.504-2.187 9.003 0 0-4.14 5.379-3.677 10.211.464 4.833 2.899 6.405 2.899 6.405-7.455 5.842-15.174 3.244-17.394 0 1.027-3.525 4.34-10.228 3.247-12.214-1.11-1.986-1.855-5.048-1.193-6.355.646-1.308 4.374-6.786 4.274-7.977l2.452-.364z"/><path fill="#239cc1" d="M46.182 51.805c.033.083.083.15.116.215 1.11 1.986-2.22 8.69-3.247 12.214 2.237 3.244 9.94 5.842 17.394 0 0 0-2.435-1.572-2.9-6.405-.463-4.832 3.678-10.21 3.678-10.21-.745-1.06-1.259-2.566-1.275-4.072-1.027 1.754-1.524 3.988-2.336 5.925-2.02 5.163-7.073 4.518-11.43 2.317z" opacity=".2" style="mix-blend-mode:multiply"/><path fill="#ff9e83" d="M58.576 28.42c-1.143 2.83-.431 7.927-.431 7.927-.928 1.49-3.943 2.234-4.77 2.284-.812.066-1.558-1.307-1.558-1.307 1.425-1.06 1.557-4.518 1.557-4.518l5.202-4.403z"/><path fill="#ff9e83" d="M57.978 31.233c.082-1.01.264-2.003.596-2.814l-5.202 4.403s-.099 2.68-1.093 4.038c2.584-.794 4.423-3.244 5.698-5.61z" opacity=".6" style="mix-blend-mode:multiply"/><path fill="#ff9e83" d="M48.986 19.416c-2.6 1.489-2.451 4.137-2.22 6.437.117 1.093.332 3.542 1.541 5.528 1.342 2.218 2.999 2.913 3.893 2.88.447.033 2.054-.464 3.76-1.82.978-.779 1.955-1.92 2.402-2.83.746.066 2.137-.944 2.005-3.046-.1-1.672-1.375-1.34-1.375-1.34s-.066-3.84-2.005-5.644c-1.921-1.804-5.5-1.589-8-.165"/><path fill="#311733" d="M61.04 20.674c-.53-2.053-1.74-3.41-2.85-4.287-2.037-1.605-8.564-3.012-10.718 1.142l.563 2.582c6.014-3.906 1.442 4.998 8.465 5.594.845.149.829 2.697.829 2.697s1.507-1.555 1.557-2.946c1.772.2 1.391 2.748-.199 3.857-.977.678-1.06 1.97-.745 2.499 2.617-.828 5.135-5.727 3.097-11.155z"/><path fill="#311733" d="M61.04 20.673c-.034-.132-.067-.265-.117-.38q.075 1.116-.149 2.283c-.166 1.043-.861 1.738-1.905 1.208-.348-.165-.513-.695-.696-1.042 0 .695-.331 1.737-1.822 2.134-1.49.414-3.561-2.25-4.572-5.196-.497-1.44-2.75-1.887-3.744.513 5.914-4.071 1.607 4.965 8.465 5.511.845.149.828 2.698.828 2.698s1.508-1.556 1.558-2.946c1.772.198 1.391 2.747-.2 3.856-.977.678-1.06 1.97-.745 2.499 2.618-.828 5.136-5.726 3.098-11.155z" opacity=".6" style="mix-blend-mode:multiply"/><path fill="#ff5852" d="M58.544 29.892a.447.447 0 1 0 0-.894.447.447 0 0 0 0 .894"/><path fill="#ff9e83" d="M59.602 26.93c-.249 1.274-.994 1.406-1.243 1.406-.248 0 .05-.877.05-1.125s.348-1.142.58-1.142.712.281.596.86z" opacity=".6" style="mix-blend-mode:multiply"/><path fill="#6ee4ff" d="M58.094 35.982s-1.64 2.102-4.87 2.632c0 0 .596 2.565 1.755 2.565 1.16 0 4.158-3.773 4.158-4.353s-1.044-.86-1.044-.86zm-4.868 2.648s-1.325 2.301-2.203 1.771c-1.027-.629 0-2.946.215-3.541.216-.596 1.491-.86 1.491-.86s-.315.777-.662 1.108c-.067.761 1.143 1.523 1.143 1.523z"/><path fill="#311733" d="M48.369 18.373s.166-.116.464-.298c.083-.034.166-.083.265-.133.1-.05.199-.1.315-.149.116-.033.232-.099.38-.132.133-.033.282-.066.431-.1.083 0 .15-.016.232-.032h.497c.083 0 .166.016.265.033.05 0 .083 0 .133.016.05 0 .083.017.132.033.083.017.183.05.265.066.183.067.365.133.53.216q.523.248.994.645c.315.248.613.513.911.794.282.282.58.563.862.828.281.265.563.53.845.761.281.232.58.447.861.613.066.033.15.082.215.115.067.034.15.067.216.1.033 0 .066.033.1.05.032 0 .065.016.115.032.066.017.15.05.215.067.15.033.282.066.415.082.132 0 .265.034.38.017.117 0 .233 0 .332-.017.1-.016.199-.033.282-.05.082 0 .165-.032.231-.049.067-.016.116-.033.166-.05.083-.016.133-.033.133-.033s-.05.017-.133.05c-.05.017-.1.033-.166.066s-.132.05-.215.083c-.083.017-.182.05-.282.083q-.149.024-.347.05c-.116.016-.266 0-.398 0-.133 0-.282-.034-.447-.05a3.8 3.8 0 0 1-.945-.331 6.3 6.3 0 0 1-.927-.596 18 18 0 0 1-.895-.761 40 40 0 0 1-.861-.828 10 10 0 0 0-.878-.778c-.15-.116-.298-.231-.464-.347-.166-.1-.315-.215-.48-.282-.166-.099-.331-.149-.48-.215-.084-.033-.166-.05-.25-.082-.032 0-.082-.034-.115-.034h-.116a1.4 1.4 0 0 0-.248-.066c-.083 0-.166 0-.232-.016h-.448c-.149 0-.281.05-.414.066s-.248.066-.364.1a2 2 0 0 0-.315.115 4 4 0 0 0-.265.1c-.315.148-.497.231-.497.231zm-.513 1.077c-1.325.049-1.259 2.945-1.259 2.945s.199-1.258 1.425-2.3l-.166-.63z" opacity=".6" style="mix-blend-mode:multiply"/><path fill="#311733" d="M52.549 20.21c-.48.166 1.723 3.26 2.617 3.377.878.116-.994-1.076-.795-1.39.199-.331 1.806 1.224 2.617 1.026.812-.215-1.905-1.225-1.822-1.622s1.01.397 1.143.165c.15-.231-1.772-1.423-2.12-2.019-.365-.596-.43.315-.066.762.364.43-.431-.365-.911-.811s.927 1.125.546 1.373c-.38.265-.894-.96-1.21-.844z" opacity=".4" style="mix-blend-mode:screen"/><path fill="#6ee4ff" d="M53.16 40.848c0 .282-.133.497-.315.497-.183 0-.315-.232-.315-.497s.132-.496.315-.496c.182 0 .314.231.314.496"/><path stroke="#239cc1" stroke-miterlimit="10" stroke-width=".03" d="M52.838 40.169v1.324m.666-.663h-1.326"/><path fill="#6ee4ff" d="M52.9 42.85c0 .282-.132.497-.314.497s-.315-.232-.315-.497c0-.264.133-.496.315-.496s.315.232.315.496"/><path stroke="#239cc1" stroke-miterlimit="10" stroke-width=".03" d="M52.58 42.171v1.324m.665-.661H51.92"/><path fill="#239cc1" d="M48.649 39.657c-1.491 4.204-4.39 5.048-3.661 8.424l-.895-.91c-.083-1.804 4.208-5.412 4.556-7.514" opacity=".2" style="mix-blend-mode:multiply"/><path fill="#f79e00" d="m55.488 51.847-7.227 8.306 11.19 9.717 7.227-8.306z"/><path fill="#f79e00" d="m55.401 52.607-7.227 8.306 11.19 9.718 7.227-8.306z"/><path fill="#f79e00" d="m48.174 60.873.1-.761 11.198 9.714-.1.762z"/><path fill="#fff" d="m48.386 60.642.05-.514 7.007-8.076 10.966 9.516.1.63-11.116-9.633z"/><path fill="#6765d0" d="m55.567 54.122-2.63 3.023 1.5 1.303 2.63-3.023zm1.686 1.35-2.625 3.027.138.12 2.625-3.028zm.313.373-2.63 3.023.138.12 2.63-3.023z"/><path fill="#6765d0" d="m55.84 53.809-7.227 8.306 11.19 9.717 7.227-8.306z"/><path fill="#6765d0" d="m55.763 54.58-7.228 8.305 11.19 9.718 7.227-8.306z"/><path fill="#6765d0" d="m48.521 62.843.1-.761 11.198 9.698-.1.778z"/><path fill="#fff" d="m48.733 62.61.05-.53 7.007-8.06 10.966 9.517.1.629-11.116-9.632z"/><path fill="#6765d0" d="m55.929 56.095-2.63 3.023 1.5 1.303 2.63-3.023zm1.671 1.428-2.63 3.023.137.12 2.63-3.023zm.314.284-2.63 3.023.137.12 2.63-3.024z"/><path fill="#fff" d="m45.717 55.164-1.361 1.332L60.582 73.05l1.361-1.331z" opacity=".6"/><path fill="#fff" d="m45.683 55.185-.2.197 16.225 16.554.201-.197z" opacity=".6"/><path fill="#fff" d="m45.978 55.445-.426.417.058.06.426-.417zm.279.245-.296.29.058.059.296-.29zm.232.27-.296.289.058.059.296-.29zm.287.27-.426.417.058.059.426-.417zm.261.312-.296.29.058.059.296-.29zm.311.293-.298.281-.05-.05.282-.297zm.216.23-.426.416.057.06.426-.417zm.26.261-.296.29.058.058.296-.29zm.255.269-.296.29.058.059.296-.29zm.281.271-.427.417.058.06.426-.418zm.26.294-.296.29.058.06.296-.29zm.25.252-.296.29.058.059.296-.29zm.305.245-.426.417.058.06.426-.418zm.25.289-.296.289.058.06.296-.29zm.302.323-.298.297-.05-.066.282-.298zm.288.281-.431.414-.05-.066.414-.398zm.267.281L50 60.13l-.066-.066.298-.298zm.184.168-.296.29.058.059.296-.29zm.284.277-.426.417.057.06.426-.418zm.269.267-.296.29.058.059.296-.29zm.226.291-.296.29.058.059.296-.29zm.311.26-.426.416.058.06.426-.417zm.25.306-.296.289.058.059.296-.29zm.261.28-.296.29.058.059.296-.29zm.279.248-.426.417.058.059.426-.417zm.259.319-.296.289.058.06.296-.29z" opacity=".6"/><path fill="#ff9e83" d="M69.862 55.032c-.067-.811-1.458-4.039-2.717-7.431-2.154.678-3.297 1.589-4.456 3.475l2.17 3.972c-1.26 1.175-5.864 7.282-8.216 8.64l1.606 2.449s11.845-8.342 11.613-11.122z"/><path fill="#ff9e83" d="M68.976 52.385c-.513-1.34-1.192-3.045-1.838-4.766-2.154.678-3.297 1.589-4.457 3.475l.647 1.175c1.755-.629 4.008-.81 5.648.116" opacity=".6" style="mix-blend-mode:multiply"/><path fill="#6ee4ff" d="M62.735 52.234c.53-1.903 5.085-4.154 5.085-4.154l-.63-1.456c-3.13 1.01-5.101 4.783-5.101 4.783l.645.844z"/><path fill="#ff9e83" d="M35.734 41.31c0-1.903-4.257-1.307-4.058-1.274 0 0-7.52.348-7.455 1.043.067.695 8.73.463 9.327 1.539z"/><path fill="#ff9e83" d="M29.77 40.6c-1.424 0-3.246.067-3.511.398-.265.33 2.667.728 2.667.728s-2.85-.132-2.816-.745c.033-.612 3.66-.38 3.66-.38" opacity=".4" style="mix-blend-mode:multiply"/><path stroke="#311733" stroke-linecap="round" stroke-linejoin="round" stroke-width=".126" d="M46.364 23.868c.762-.629 2.236.232 2.236.232m2.796-.266c1.292-1.274 4.042-.38 4.042-.38M47.06 26.1c.662-.578 1.722-.082 1.722-.082"/><path fill="#311733" d="M48.6 26.582c.066.463-.133.877-.464.926s-.646-.281-.712-.744c-.067-.464.132-.878.463-.927.332-.05.646.281.713.744"/><path fill="#fff" d="M47.957 26.349c.016.132-.033.248-.133.265-.099 0-.182-.083-.198-.216-.017-.132.033-.248.132-.264.1 0 .182.082.199.215"/><path stroke="#311733" stroke-linecap="round" stroke-linejoin="round" stroke-width=".126" d="M52.196 25.538c.662-.58 1.722-.083 1.722-.083"/><path fill="#311733" d="M53.717 26.019c.066.463-.132.877-.464.927-.33.05-.646-.282-.712-.745-.066-.464.133-.877.464-.927s.646.281.712.745"/><path fill="#fff" d="M53.089 25.785c.016.133-.034.248-.133.265-.1 0-.182-.083-.199-.215-.016-.133.033-.248.133-.265.1 0 .182.083.199.215"/><path fill="#fff" d="M49.466 26.882a2.25 2.25 0 0 1-2.187 2.333 2.25 2.25 0 0 1-2.335-2.184c-.033-1.258.927-2.3 2.186-2.334a2.25 2.25 0 0 1 2.336 2.185" opacity=".3"/><path stroke="#fff" stroke-linecap="round" stroke-linejoin="round" stroke-width=".09" d="M49.466 26.882a2.25 2.25 0 0 1-2.187 2.333 2.25 2.25 0 0 1-2.335-2.184c-.033-1.258.927-2.3 2.186-2.334a2.25 2.25 0 0 1 2.336 2.185"/><path fill="#fff" d="M55.556 26.286a2.25 2.25 0 0 1-2.186 2.333 2.25 2.25 0 0 1-2.336-2.184 2.25 2.25 0 0 1 2.187-2.334 2.25 2.25 0 0 1 2.335 2.185" opacity=".3"/><path stroke="#fff" stroke-linecap="round" stroke-linejoin="round" stroke-width=".09" d="M55.556 26.286a2.25 2.25 0 0 1-2.186 2.333 2.25 2.25 0 0 1-2.336-2.184 2.25 2.25 0 0 1 2.187-2.334 2.25 2.25 0 0 1 2.335 2.185"/><path stroke="#fff" stroke-linecap="round" stroke-linejoin="round" stroke-width=".09" d="M49.413 26.517c.679-.364 1.623-.215 1.623-.215m4.424-.58 3.413-.414M45.024 27.56l1.756-.497"/><path stroke="#ff9e83" stroke-linecap="round" stroke-linejoin="round" stroke-width=".072" d="M50.164 27.757c.116.298-1.11.894.017 1.241" opacity=".6" style="mix-blend-mode:multiply"/><path fill="#311733" d="M49.48 30.504c.944.182 3.843-.364 3.843-.364-.762.778-1.69 1.258-2.435 1.274-.712 0-1.408-.91-1.408-.91"/><path fill="#ff9e83" d="M50.988 31.73c.464.148.894-.15.894-.15-.265.596-.894.15-.894.15" opacity=".6" style="mix-blend-mode:multiply"/><path fill="#fff" d="M49.712 30.537s.116.282.282.331c.182.066 2.22-.1 2.667-.281.43-.15.662-.447.662-.447s-2.17.414-3.611.397"/><path fill="#ff5852" d="M50.39 31.3c.332-.332 1.988-.381 1.988-.381-1.408.893-1.988.38-1.988.38"/></g></g><defs><clipPath id="a"><path fill="#fff" d="M4.931 13.562h81.37v60.41H4.931z"/></clipPath><clipPath id="b"><path fill="#fff" d="M6.167 20.98h79.606v52.87H6.167z"/></clipPath><clipPath id="c"><path fill="#fff" d="M10.225 23.496H31.73v16.726H10.225z"/></clipPath><clipPath id="d"><path fill="#fff" d="M24.255 14.795h45.617v47.473H24.255z"/></clipPath></defs></svg>