<svg xmlns="http://www.w3.org/2000/svg" width="90" height="90" fill="none" viewBox="0 0 90 90"><g clip-path="url(#a)"><rect width="90" height="90" fill="#f2fdf0" rx="9.524"/><g clip-path="url(#b)"><path fill="#ff9e83" d="M26.698 44.966c-.14-1.704-2.62-2.637-4.33-3.057-1.73-.42-3.767-.7-3.79.233-.024.934 3.136 1.54 3.136 1.54z"/><path fill="#ff9e83" d="M26.698 44.966c-.14-1.704-2.62-2.637-4.33-3.057-1.73-.42-3.767-.7-3.79.233-.024.934 3.136 1.54 3.136 1.54z" opacity=".4" style="mix-blend-mode:multiply"/><path fill="#ff5852" d="M38.235 76.515c-4.072 6.814-2.293 16.778-1.24 21.352h25.719c3.09-16.265-3.744-22.005-3.744-22.005z"/><path fill="#ff5852" d="m58.968 75.862-20.735.653c-.491.817-.889 1.704-1.24 2.59 2.691 2.077 5.991 3.477 9.455 3.99v.98c0 .024.023.047.046.07.188.514.305 1.238 0 1.658-.327.42-2.62-.56-2.62-.56s2.69 1.586 2.69 1.75c0 .186-1.333.093-1.333.093s2.106.933 2.293 1.284c.047.093.772 9.427.772 9.427l.14-9.778 2.598-.98s-2.246.374-2.223.257c0-.117 3.628-1.913 3.815-1.983-.14.07-3.02 1.026-3.487.816-.515-.21-.351-.28-.351-1.237 0-.536.093-.77.21-.886v-.724c2.832.07 5.664-.466 8.238-1.75a1.428 1.428 0 0 1 2.013.934c1.217 5.04 1.24 10.944-1.405 15.354h4.845c3.089-16.264-3.745-22.005-3.745-22.005z" opacity=".8" style="mix-blend-mode:multiply"/><path fill="#ff9e83" d="M38.235 51.897c-1.24 2.637-2.55 4.69-2.55 4.69-1.17-3.523-8.987-11.597-8.987-11.597l-3.09 1.843s9.128 17.992 12.076 18.365c1.85.257 5.243-3.314 7.115-6.627-.866-2.684-2.106-5.367-4.564-6.674"/><path fill="#ff9e83" d="M42.797 58.571c-.865-2.683-2.106-5.367-4.563-6.674-.304.63-.609 1.237-.89 1.797 1.803 3.15 2.926 6.79 1.218 10.15 1.52-1.283 3.159-3.313 4.259-5.273z" opacity=".6" style="mix-blend-mode:multiply"/><path fill="#239cc1" d="M47.805 39.879h-1.849c-4.774.327-6.974 8.867-8.916 12.017 2.457 1.307 4.89 3.99 5.757 6.674 1.1-1.937 1.848-3.5 1.848-3.5z"/><path fill="#6ee4ff" d="M36.646 51.897c3.534 1.914 6.155 7.024 6.155 7.024l.725-1.26c-.608-4.2-5.99-7.56-5.99-7.56z"/><path fill="#311733" d="M59.041 19.088c-4.165-3.64 1.685-10.174 5.734-9.614 0 0-2.27.536-2.855 1.4 0 0 2.901-2.474 5.944 1.447 3.042 3.897-.773 8.587-3.44 8.68-2.668.094-5.383-1.913-5.383-1.913"/><path fill="#311733" d="M61.168 10.453c-2.949 1.914-5.102 5.998-2.13 8.611 0 0 2.738 2.007 5.383 1.913 1.38-.046 3.066-1.33 3.955-3.103-4.517 2.45-6.88-3.804-7.232-7.42z"/><path fill="#ff9e83" d="m57.823 16.777 10.718-4.784-.42-.956-10.72 4.76-.842.957z"/><path fill="#ff7170" d="M68.238 11.27 57.8 15.914l-.397-.117 10.718-4.76zm.212.492-10.437 4.643-.187.374 10.718-4.784zm-10.649 4.152-.187.374.398.116 10.437-4.643-.117-.234-.093-.256z"/><path fill="#ff7170" d="m68.45 11.762-10.437 4.643-.187.374 10.718-4.784z" opacity=".7" style="mix-blend-mode:multiply"/><path fill="#ff7170" d="m57.801 15.914-.187.374.398.116 10.437-4.643-.117-.234-.093-.256z" opacity=".3" style="mix-blend-mode:multiply"/><path fill="#000" d="m56.56 16.755.28-.327c.21.117.164.327.164.327z"/><path fill="#fff" d="m68.834 10.62-1.004.447.514 1.151 1.004-.446z"/><path fill="#ff7170" d="m69.711 11.458-.42.186-.445-.98.42-.186c.258-.117.562 0 .703.256.117.304 0 .607-.258.724"/><path fill="#ccc" d="m69.205 11.448-1.005.446.143.32 1.004-.447z"/><path fill="#ff9e83" d="m56.492 17.898 11.63-1.657-.14-1.027-11.63 1.634-1.077.7z"/><path fill="#f79e00" d="m68.003 15.47-11.304 1.61-.35-.232 11.63-1.634zm.074.514-11.303 1.61-.281.304 11.63-1.657zM56.7 17.08l-.28.304.35.21 11.304-1.61-.023-.257-.047-.257z"/><path fill="#f79e00" d="m68.077 15.984-11.303 1.61-.281.304 11.63-1.657z" opacity=".7" style="mix-blend-mode:multiply"/><path fill="#f79e00" d="m56.7 17.08-.28.304.35.21 11.304-1.61-.023-.257-.047-.257z" opacity=".3" style="mix-blend-mode:multiply"/><path fill="#000" d="m55.275 17.548.35-.234c.165.163.071.35.071.35z"/><path fill="#fff" d="m68.754 14.96-1.089.155.178 1.248 1.089-.155z"/><path fill="#ff7170" d="m69.386 16.054-.468.07-.164-1.074.468-.07a.51.51 0 0 1 .585.444.54.54 0 0 1-.445.63z"/><path fill="#ccc" d="m68.885 15.898-1.09.155.05.346 1.09-.154z"/><path fill="#311733" d="M43.267 11.434c-4.587-.164-6.365 10.337-.632 13.44l1.451-9.66-.795-3.757z"/><path fill="#311733" d="M40.948 17.595c-.398.91-.21 2.076 0 2.986-1.498-2.146-1.802-4.923-.515-7.373-2.223 2.73-2.06 9.24 2.27 11.667l.375-3.104c-1.264-.793-2.13-2.543-2.13-4.177" opacity=".6" style="mix-blend-mode:multiply"/><path fill="#239cc1" d="M71.42 53.46c-1.31-3.617-3.604-11.271-5.64-12.275 0 0-4.985 0-6.178 6.814-.75 4.294 2.012 7.468 2.012 7.468l2.785 4.13c1.38-2.8 4.072-4.854 6.997-6.114z"/><path fill="#239cc1" d="M60.258 45.69q-.386.98-.632 2.31c-.748 4.294 2.013 7.467 2.013 7.467l2.785 4.13c.819-1.68 2.106-3.056 3.627-4.2-4.095-1.587-7.371-5.134-7.793-9.707" opacity=".2" style="mix-blend-mode:multiply"/><path fill="#239cc1" d="M58.36 37.942c2.574 1.914 7.441 3.22 7.441 3.22-6.295 2.217-5.546 9.171-3.089 12.695 0 0-5.85 7.584-5.195 14.397s4.095 9.031 4.095 9.031c-10.53 8.237-21.436 4.574-24.572 0 1.45-4.97 6.131-14.421 4.587-17.221-1.568-2.8-2.622-7.117-1.685-8.96.912-1.844 6.178-9.568 6.037-11.248l3.464-.514z"/><path fill="#239cc1" d="M41.463 59.761c.047.117.117.21.163.304 1.569 2.8-3.135 12.25-4.586 17.221 3.159 4.574 14.041 8.237 24.572 0 0 0-3.44-2.217-4.095-9.03-.656-6.814 5.195-14.398 5.195-14.398-1.053-1.494-1.779-3.617-1.802-5.74-1.45 2.473-2.153 5.623-3.3 8.353-2.855 7.28-9.992 6.37-16.147 3.267z" opacity=".2" style="mix-blend-mode:multiply"/><path fill="#ff9e83" d="M58.97 26.789c-1.614 3.99-.608 11.177-.608 11.177-1.31 2.1-5.57 3.15-6.74 3.22-1.147.094-2.2-1.843-2.2-1.843 2.013-1.494 2.2-6.37 2.2-6.37l7.348-6.208z"/><path fill="#ff9e83" d="M58.127 30.756c.117-1.424.375-2.824.843-3.967l-7.348 6.207s-.14 3.78-1.545 5.694c3.65-1.12 6.249-4.574 8.05-7.911z" opacity=".6" style="mix-blend-mode:multiply"/><path fill="#ff9e83" d="M45.419 14.094c-3.674 2.1-3.464 5.834-3.136 9.078.164 1.54.468 4.993 2.176 7.793 1.896 3.127 4.236 4.107 5.5 4.06.632.047 2.902-.653 5.312-2.566 1.38-1.097 2.761-2.707 3.393-3.99 1.053.093 3.02-1.33 2.832-4.294-.14-2.357-1.942-1.89-1.942-1.89s-.094-5.414-2.832-7.957c-2.715-2.544-7.77-2.24-11.303-.234"/><path fill="#311733" d="M62.458 15.867c-.749-2.893-2.457-4.807-4.025-6.043-2.879-2.264-12.1-4.247-15.141 1.61l.795 3.64c8.495-5.507 2.036 7.047 11.959 7.887 1.193.21 1.17 3.804 1.17 3.804s2.13-2.194 2.2-4.154c2.504.28 1.966 3.874-.281 5.437-1.38.957-1.498 2.777-1.053 3.524 3.697-1.167 7.255-8.074 4.376-15.728z"/><path fill="#311733" d="M62.457 15.867a3.6 3.6 0 0 0-.164-.537q.105 1.576-.21 3.22c-.234 1.47-1.217 2.45-2.691 1.704-.492-.233-.726-.98-.983-1.47 0 .98-.468 2.45-2.575 3.01-2.106.584-5.031-3.173-6.459-7.327-.702-2.03-3.884-2.66-5.289.723 8.355-5.74 2.27 7 11.959 7.771 1.194.21 1.17 3.804 1.17 3.804s2.13-2.194 2.2-4.154c2.504.28 1.966 3.874-.28 5.437-1.382.957-1.499 2.777-1.054 3.524 3.698-1.167 7.255-8.074 4.376-15.728z" opacity=".6" style="mix-blend-mode:multiply"/><path fill="#ff5852" d="M58.926 28.865a.631.631 0 1 0 .001-1.262.631.631 0 0 0-.001 1.262"/><path fill="#ff9e83" d="M60.419 24.689c-.351 1.796-1.404 1.983-1.755 1.983s.07-1.237.07-1.587.491-1.61.819-1.61 1.006.397.842 1.214z" opacity=".6" style="mix-blend-mode:multiply"/><path fill="#6ee4ff" d="M58.292 37.451s-2.317 2.964-6.88 3.71c0 0 .842 3.618 2.48 3.618 1.639 0 5.874-5.32 5.874-6.138 0-.816-1.474-1.213-1.474-1.213zm-6.881 3.736s-1.872 3.243-3.113 2.496c-1.45-.886 0-4.153.305-4.993.304-.84 2.106-1.214 2.106-1.214s-.445 1.097-.936 1.564c-.094 1.073 1.615 2.147 1.615 2.147z"/><path fill="#311733" d="M44.553 12.624s.234-.163.655-.42c.117-.047.234-.117.375-.187s.28-.14.444-.21c.164-.046.328-.14.539-.186.187-.047.398-.094.608-.14.117 0 .21-.024.328-.047h.701c.118 0 .235.023.375.047.07 0 .117 0 .188.023.07 0 .117.023.187.047.117.023.257.07.374.093.258.093.515.187.75.303q.736.35 1.403.91c.445.35.866.724 1.287 1.12.398.397.82.794 1.217 1.167.398.374.796.747 1.194 1.074.398.326.819.63 1.217.863.093.047.21.117.304.163.093.047.21.094.304.14.047 0 .094.047.14.07.047 0 .094.024.164.047.094.023.211.07.305.093.21.047.397.094.585.117.187 0 .374.047.538.023.164 0 .328 0 .468-.023s.28-.047.398-.07c.117 0 .234-.047.327-.07.094-.023.164-.047.235-.07.117-.023.187-.047.187-.047s-.07.024-.187.07a2 2 0 0 0-.235.094c-.093.046-.187.07-.304.116-.117.024-.257.07-.398.117q-.21.035-.491.07c-.164.023-.374 0-.562 0-.187 0-.398-.047-.632-.07a5.4 5.4 0 0 1-1.333-.467 9 9 0 0 1-1.311-.84c-.421-.326-.843-.7-1.264-1.073-.398-.373-.819-.77-1.217-1.167s-.819-.77-1.24-1.097c-.21-.163-.421-.326-.655-.49-.234-.14-.445-.303-.679-.396-.234-.14-.468-.21-.679-.304-.117-.046-.234-.07-.35-.116-.047 0-.118-.047-.165-.047h-.163a2 2 0 0 0-.351-.093c-.117 0-.234 0-.328-.024h-.632c-.21 0-.398.07-.585.094s-.35.093-.515.14a2.5 2.5 0 0 0-.444.163 7 7 0 0 0-.375.14c-.445.21-.702.327-.702.327zm-.725 1.516c-1.872.07-1.779 4.154-1.779 4.154s.281-1.774 2.013-3.244l-.234-.887z" opacity=".6" style="mix-blend-mode:multiply"/><path fill="#311733" d="M50.453 15.214c-.679.233 2.433 4.597 3.697 4.76 1.24.163-1.404-1.517-1.123-1.96.28-.467 2.55 1.727 3.697 1.447 1.147-.303-2.69-1.727-2.574-2.287s1.428.56 1.615.233c.21-.326-2.504-2.007-2.995-2.847-.515-.84-.609.444-.094 1.074.515.607-.609-.514-1.287-1.143-.679-.63 1.31 1.586.772 1.936-.538.374-1.264-1.353-1.708-1.19z" opacity=".4" style="mix-blend-mode:screen"/><path fill="#6ee4ff" d="M51.316 44.313c0 .396-.187.7-.445.7-.257 0-.445-.327-.445-.7 0-.374.188-.7.445-.7.258 0 .445.326.445.7"/><path stroke="#239cc1" stroke-miterlimit="10" stroke-width=".239" d="M50.87 43.356v1.867m.937-.933h-1.872"/><path fill="#6ee4ff" d="M50.942 47.136c0 .397-.187.7-.444.7-.258 0-.445-.326-.445-.7s.187-.7.445-.7c.257 0 .444.327.444.7"/><path stroke="#239cc1" stroke-miterlimit="10" stroke-width=".239" d="M50.495 46.18v1.866m.939-.932H49.56"/><path fill="#239cc1" d="M44.952 42.633c-2.106 5.927-6.202 7.117-5.172 11.878l-1.264-1.284c-.117-2.543 5.944-7.63 6.436-10.594" opacity=".2" style="mix-blend-mode:multiply"/><path fill="#ff5852" d="M46.918 83.12s.14 3.22.234 3.733c.093.537.912 1.284.912 1.284l.539-4.877-1.662-.164z"/><path fill="#f79e00" d="m54.616 59.82-10.21 11.711 15.807 13.702 10.21-11.711z"/><path fill="#f79e00" d="m54.487 60.893-10.21 11.711 15.807 13.702 10.21-11.712z"/><path fill="#f79e00" d="m44.277 72.548.14-1.073 15.82 13.697-.14 1.074z"/><path fill="#fff" d="m44.58 72.221.07-.723 9.9-11.388 15.492 13.418.14.887L54.48 60.834z"/><path fill="#6765d0" d="m54.725 63.029-3.716 4.262 2.12 1.837 3.715-4.262zm2.38 1.903L53.397 69.2l.195.168L57.3 65.1zm.446.525-3.715 4.262.194.169 3.716-4.262z"/><path fill="#6765d0" d="M55.106 62.588 44.896 74.3 60.704 88l10.21-11.711z"/><path fill="#6765d0" d="m54.991 63.675-10.21 11.711 15.808 13.702 10.21-11.711z"/><path fill="#6765d0" d="m44.766 75.326.14-1.074 15.82 13.675-.14 1.096z"/><path fill="#fff" d="m45.069 74.999.07-.747 9.9-11.364L70.53 76.305l.14.887-15.703-13.58z"/><path fill="#6765d0" d="m55.23 65.812-3.716 4.262 2.119 1.837 3.715-4.262zm2.368 2.013-3.715 4.262.194.168 3.715-4.262zm.439.401-3.716 4.261.195.169 3.715-4.262z"/><path fill="#fff" d="m40.798 64.5-1.923 1.877L61.798 89.72l1.923-1.878z" opacity=".6"/><path fill="#fff" d="m40.763 64.528-.284.278 22.923 23.34.285-.277z" opacity=".6"/><path fill="#fff" d="m41.172 64.895-.602.587.082.084.602-.588zm.394.345-.419.407.082.084.418-.409zm.333.378-.419.408.082.083.418-.408zm.405.384-.602.588.082.083.602-.588zm.37.439-.418.408.082.084.418-.409zm.43.414-.421.396-.07-.07.397-.42zm.315.325-.602.587.082.083.602-.587zm.37.367-.418.408.081.084.419-.409zm.357.379-.418.408.082.083.418-.408zm.392.383-.602.588.081.083.602-.588zm.37.415-.419.408.082.083.418-.408zm.356.355-.418.408.082.083.418-.408zm.426.343-.602.588.081.083.602-.587zm.354.408-.418.409.082.083.418-.408zm.436.455-.421.42-.07-.094.397-.42zm.396.398-.608.583-.07-.093.585-.56zm.372.396-.398.42-.094-.094.421-.42zm.264.237-.418.408.081.084.419-.409zm.402.391-.602.588.082.083.602-.588zm.388.376-.418.409.082.083.418-.41zm.319.411-.418.408.082.084.418-.409zm.427.364-.602.588.082.084.602-.588zm.355.432-.418.409.081.083.418-.408zm.372.395-.419.408.082.084.418-.409zm.392.35-.602.588.082.083.602-.587zm.37.449-.418.408.082.084.418-.409zm.356.285-.418.408.082.083.418-.408zm.424.389-.602.588.082.083.602-.588zm.354.408-.418.408.082.084.418-.409zm.352.332-.418.408.082.083.418-.408zm.38.461-.602.587.081.084.602-.588zm.394.368-.418.408.082.084.418-.408zm.338.393-.418.409.082.083.418-.408zm.41.393-.602.587.082.084.602-.588zm.395.344-.418.408.082.084.418-.409zm.34.349-.417.409.082.083.418-.408zm.404.39-.602.588.082.083.602-.588zm.37.439-.418.408.082.083.418-.408zm.336.347-.418.408.082.084.418-.408zm.407.415-.602.588.082.083.602-.588zm.393.368-.418.408.082.083.418-.408zm.42.435-.421.396-.094-.093.422-.397zm.323.28-.602.587.082.083.602-.587zm.451.512-.421.397-.094-.094.422-.396zm.352.351-.422.397-.093-.094.421-.396zm.283.336-.602.587.081.084.602-.588zm.418.346-.418.408.081.083.419-.408zm.333.377-.418.408.081.083.418-.408zm.488.481-.609.583-.094-.094.609-.583zm.274.341-.418.408.082.083.418-.408zm.351.332-.418.409.082.083.418-.408zm.411.361-.602.587.082.084.602-.588zm.37.461-.418.408.081.083.419-.408zm.357.262-.418.408.082.084.418-.409zm.365.5-.602.588.082.084.602-.588zm.418.3-.418.408.082.084.418-.409zm.333.401-.418.408.082.084.418-.408zm.484.471-.608.584-.07-.094.585-.583zm.27.372-.418.408.082.084.418-.408zm.453.375-.421.397-.07-.07.398-.42z" opacity=".6"/><path fill="#ff9e83" d="M74.907 64.312c-.093-1.144-2.059-5.694-3.838-10.478-3.042.957-4.657 2.24-6.295 4.9l3.066 5.601c-1.779 1.657-8.285 10.267-11.608 12.18l2.27 3.454s16.733-11.76 16.405-15.68z"/><path fill="#ff9e83" d="M73.664 60.579c-.726-1.89-1.685-4.294-2.598-6.72-3.042.956-4.657 2.24-6.295 4.9l.913 1.656c2.48-.886 5.663-1.143 7.98.164" opacity=".6" style="mix-blend-mode:multiply"/><path fill="#6ee4ff" d="M64.845 60.367c.75-2.683 7.185-5.857 7.185-5.857l-.89-2.053c-4.422 1.423-7.207 6.743-7.207 6.743l.912 1.19z"/><path fill="#ff9e83" d="M56.251 76.516c-.795.443-5.289 4.55-5.476 4.923s.445 2.194.492 2.894 3.44 2.847 4.329 3.08c.89.234 1.919-1.12 1.919-1.12s-1.053-1.003-1.194-1.003c-.14 0 2.551-3.15 2.2-5.344-.117-.957-2.27-3.454-2.27-3.454z"/><path fill="#ff9e83" d="M56.324 85.313c-.023 0 0-.024.21-.304-2.222.91-4.422-1.493-5.803-3.337 0 .63.491 2.077.515 2.684.047.7 3.44 2.847 4.33 3.08.889.234 1.918-1.12 1.918-1.12s-1.053-1.003-1.193-1.003z" opacity=".3" style="mix-blend-mode:multiply"/><path fill="#ff9e83" d="M26.698 44.965c0-2.683-6.014-1.843-5.733-1.797 0 0-10.625.49-10.531 1.47s12.333.654 13.175 2.17z"/><path fill="#ff9e83" d="M18.273 43.964c-2.013 0-4.587.093-4.961.56-.375.466 3.768 1.026 3.768 1.026s-4.026-.186-3.979-1.05c.047-.863 5.172-.536 5.172-.536" opacity=".4" style="mix-blend-mode:multiply"/><path stroke="#311733" stroke-linecap="round" stroke-linejoin="round" stroke-width="1.003" d="M41.721 20.372c1.077-.887 3.16.326 3.16.326m3.952-.374c1.825-1.797 5.71-.537 5.71-.537m-11.841 3.735c.936-.817 2.433-.117 2.433-.117"/><path fill="#311733" d="M44.877 24.198c.094.654-.187 1.237-.655 1.307s-.913-.397-1.006-1.05c-.094-.653.187-1.237.655-1.307s.913.397 1.006 1.05"/><path fill="#fff" d="M43.964 23.87c.024.187-.047.35-.187.373-.14 0-.258-.116-.28-.303-.024-.187.046-.35.186-.373.14 0 .258.116.281.303"/><path stroke="#311733" stroke-linecap="round" stroke-linejoin="round" stroke-width="1.003" d="M49.963 22.728c.936-.817 2.433-.117 2.433-.117"/><path fill="#311733" d="M52.114 23.405c.093.653-.188 1.236-.656 1.306s-.912-.396-1.006-1.05c-.094-.653.187-1.237.655-1.307s.913.397 1.007 1.05"/><path fill="#fff" d="M51.224 23.076c.023.187-.047.35-.187.374-.14 0-.258-.117-.281-.304-.023-.186.047-.35.187-.373.14 0 .258.117.28.303"/><path fill="#fff" d="M46.098 24.619a3.17 3.17 0 0 1-3.09 3.29 3.174 3.174 0 0 1-3.3-3.08c-.046-1.773 1.311-3.244 3.09-3.29a3.174 3.174 0 0 1 3.3 3.08" opacity=".3"/><path stroke="#fff" stroke-linecap="round" stroke-linejoin="round" stroke-width=".717" d="M46.098 24.619a3.17 3.17 0 0 1-3.09 3.29 3.174 3.174 0 0 1-3.3-3.08c-.046-1.773 1.311-3.244 3.09-3.29a3.174 3.174 0 0 1 3.3 3.08"/><path fill="#fff" d="M54.708 23.78a3.17 3.17 0 0 1-3.089 3.29 3.174 3.174 0 0 1-3.3-3.08 3.17 3.17 0 0 1 3.09-3.29 3.174 3.174 0 0 1 3.3 3.08" opacity=".3"/><path stroke="#fff" stroke-linecap="round" stroke-linejoin="round" stroke-width=".717" d="M54.708 23.78a3.17 3.17 0 0 1-3.089 3.29 3.174 3.174 0 0 1-3.3-3.08 3.17 3.17 0 0 1 3.09-3.29 3.174 3.174 0 0 1 3.3 3.08"/><path stroke="#fff" stroke-linecap="round" stroke-linejoin="round" stroke-width=".717" d="M46.025 24.105c.96-.514 2.294-.303 2.294-.303m6.251-.817 4.82-.583m-19.562 3.173 2.48-.7"/><path stroke="#ff9e83" stroke-linecap="round" stroke-linejoin="round" stroke-width=".573" d="M47.08 25.855c.163.42-1.569 1.26.023 1.75" opacity=".6" style="mix-blend-mode:multiply"/><path fill="#311733" d="M46.12 29.728c1.334.256 5.43-.514 5.43-.514-1.077 1.097-2.388 1.774-3.44 1.797-1.007 0-1.99-1.283-1.99-1.283"/><path fill="#ff9e83" d="M48.25 31.455c.655.21 1.263-.21 1.263-.21-.374.84-1.264.21-1.264.21" opacity=".6" style="mix-blend-mode:multiply"/><path fill="#fff" d="M46.448 29.775s.164.396.398.466c.258.093 3.136-.14 3.768-.396.608-.21.936-.63.936-.63s-3.066.583-5.102.56"/><path fill="#ff5852" d="M47.406 30.849c.468-.467 2.809-.537 2.809-.537-1.99 1.26-2.809.537-2.809.537"/><g stroke="#969696" stroke-miterlimit="10" clip-path="url(#c)"><path stroke-width=".874" d="M15.61 37.114c6.77 0 12.26-5.47 12.26-12.215 0-6.746-5.49-12.215-12.26-12.215-6.772 0-12.261 5.469-12.261 12.215s5.489 12.215 12.26 12.215Z"/><path stroke-width=".437" d="M13.625 12.684 15.95 24.9l10.2-6.213M15.293 21.45l3.408 1.764m-3.833-3.527 5.073 2.659m-5.073-3.95 6.474 3.001M14.42 16.87l8.376 3.923m-8.588-5.477 10.094 4.58m-10.388-6.344 11.547 5.45"/></g></g></g><defs><clipPath id="a"><rect width="90" height="90" fill="#fff" rx="9.524"/></clipPath><clipPath id="b"><path fill="#fff" d="M-8.583 7.398H94.123V90H-8.583z"/></clipPath><clipPath id="c"><path fill="#fff" d="M3.084 12.42h25.023v24.93H3.084z"/></clipPath></defs></svg>