<svg xmlns="http://www.w3.org/2000/svg" width="90" height="90" fill="none" viewBox="0 0 90 90"><g clip-path="url(#a)"><rect width="90" height="90" fill="#f2fdf0" rx="9.524"/><g clip-path="url(#b)"><path fill="url(#c)" d="M14.65 54.93H3.127a.565.565 0 0 0-.565.565v15.346c0 .312.253.565.565.565H14.65a.565.565 0 0 0 .565-.565V55.495a.565.565 0 0 0-.565-.564"/><path fill="#333" d="M9.084 52.384v.31H7.71v-.265l.65-.696q.098-.11.154-.192a1 1 0 0 0 .082-.15.37.37 0 0 0-.004-.284.23.23 0 0 0-.09-.103.27.27 0 0 0-.143-.035.3.3 0 0 0-.158.044.3.3 0 0 0-.099.122.5.5 0 0 0-.033.178H7.67a.65.65 0 0 1 .327-.567.73.73 0 0 1 .37-.09q.211 0 .356.07a.5.5 0 0 1 .22.196.6.6 0 0 1 .076.303.6.6 0 0 1-.032.194 1 1 0 0 1-.09.188 1.5 1.5 0 0 1-.141.188q-.083.095-.184.197l-.349.392zm.622-.605-.317-.075.114-1.018h1.128v.321h-.8l-.05.446a.64.64 0 0 1 .303-.078.7.7 0 0 1 .26.046q.112.045.19.132a.6.6 0 0 1 .122.213.9.9 0 0 1 0 .539.58.58 0 0 1-.337.363.8.8 0 0 1-.3.053.8.8 0 0 1-.251-.038.7.7 0 0 1-.216-.115.6.6 0 0 1-.154-.183.56.56 0 0 1-.059-.248h.395a.4.4 0 0 0 .044.147q.037.06.098.094.06.033.142.033a.3.3 0 0 0 .13-.029.23.23 0 0 0 .086-.08.4.4 0 0 0 .049-.121.7.7 0 0 0-.003-.3.3.3 0 0 0-.06-.114.3.3 0 0 0-.102-.074.4.4 0 0 0-.142-.027.35.35 0 0 0-.17.035.4.4 0 0 0-.1.078"/><path fill="#777" d="M8.172 74.036h-.564l-.132-.054a.7.7 0 0 1-.335-.21.54.54 0 0 1-.117-.356q0-.195.086-.33a.55.55 0 0 1 .245-.206.9.9 0 0 1 .378-.07h.643v2.008H8.11v-1.79h-.377q-.22 0-.332.105a.37.37 0 0 0-.11.283q0 .116.048.207.049.09.146.143a.5.5 0 0 0 .24.052h.448zm-.453-.138-.488.92h-.283l.502-.92zm2.11.075v.207H9.04v-.207zm-.735-.647v1.492H8.84v-1.492zm.942 0v1.492H9.78v-1.492zm1.112.836h-.49l-.003-.204h.4a.7.7 0 0 0 .197-.024.24.24 0 0 0 .12-.07.17.17 0 0 0 .04-.116.18.18 0 0 0-.09-.161.3.3 0 0 0-.114-.04 1 1 0 0 0-.155-.014h-.327v1.285h-.256v-1.492h.582q.142 0 .256.025a.6.6 0 0 1 .194.076.34.34 0 0 1 .124.126.37.37 0 0 1 .015.31.3.3 0 0 1-.081.108.4.4 0 0 1-.132.078.7.7 0 0 1-.181.037zm0 .656h-.582l.127-.207h.455q.106 0 .176-.026a.22.22 0 0 0 .105-.077.2.2 0 0 0 .036-.121.2.2 0 0 0-.14-.198.5.5 0 0 0-.177-.027h-.388l.003-.204h.484l.092.077a.5.5 0 0 1 .209.06.35.35 0 0 1 .13.13q.043.078.043.168 0 .105-.04.185a.35.35 0 0 1-.113.134.6.6 0 0 1-.18.08q-.106.026-.24.026"/><path fill="url(#d)" d="M32.725 31.863H21.2a.565.565 0 0 0-.565.565V70.84c0 .312.253.565.565.565h11.524a.565.565 0 0 0 .564-.565V32.428a.565.565 0 0 0-.564-.565"/><path fill="#333" d="M26.81 27.599h.057v.317h-.023a.8.8 0 0 0-.28.047.57.57 0 0 0-.338.34.8.8 0 0 0-.044.272v.334q0 .108.02.19.022.082.063.137.041.054.096.081a.3.3 0 0 0 .242-.001.3.3 0 0 0 .09-.077.4.4 0 0 0 .058-.119.5.5 0 0 0 .021-.15.5.5 0 0 0-.02-.15.3.3 0 0 0-.058-.12.27.27 0 0 0-.218-.105.316.316 0 0 0-.319.297l-.12-.078a.55.55 0 0 1 .157-.37.5.5 0 0 1 .175-.116.6.6 0 0 1 .23-.042q.142 0 .248.053a.5.5 0 0 1 .179.148.7.7 0 0 1 .108.217 1 1 0 0 1 .035.262.8.8 0 0 1-.048.271.64.64 0 0 1-.349.366.7.7 0 0 1-.278.052.66.66 0 0 1-.514-.224.8.8 0 0 1-.146-.252 1 1 0 0 1-.05-.32v-.154q0-.243.071-.444.072-.203.206-.35.133-.15.322-.23.189-.082.426-.082m1.948.848v.348q0 .225-.048.39a.7.7 0 0 1-.14.267.55.55 0 0 1-.213.153.8.8 0 0 1-.502.02.57.57 0 0 1-.333-.265 1 1 0 0 1-.09-.243 1.5 1.5 0 0 1-.032-.322v-.348q0-.226.048-.387a.7.7 0 0 1 .14-.267.55.55 0 0 1 .214-.151.7.7 0 0 1 .276-.05q.121 0 .225.032a.56.56 0 0 1 .332.262q.06.1.091.241.032.14.032.32m-.398.4v-.454q0-.108-.013-.19a.6.6 0 0 0-.034-.138.3.3 0 0 0-.058-.094.2.2 0 0 0-.079-.052.3.3 0 0 0-.098-.017.3.3 0 0 0-.12.026.2.2 0 0 0-.087.085.5.5 0 0 0-.055.151 1.2 1.2 0 0 0-.018.23v.453q0 .109.011.192.013.082.036.142.025.057.058.095a.2.2 0 0 0 .079.052.3.3 0 0 0 .216-.01.23.23 0 0 0 .088-.085.5.5 0 0 0 .056-.154 1.3 1.3 0 0 0 .018-.232"/><path fill="#777" d="M25.703 73.01h.332q.174 0 .321.06a.77.77 0 0 1 .433.421.8.8 0 0 1 .062.327q0 .18-.062.329a.77.77 0 0 1-.433.424.9.9 0 0 1-.321.058h-.332a.8.8 0 0 1-.58-.225.8.8 0 0 1-.174-.255.9.9 0 0 1-.06-.328q0-.18.06-.327a.77.77 0 0 1 .432-.425.9.9 0 0 1 .322-.059m0 .21a.6.6 0 0 0-.307.076.5.5 0 0 0-.19.21.7.7 0 0 0-.065.315q0 .136.036.247a.48.48 0 0 0 .285.31.6.6 0 0 0 .24.043h.336a.6.6 0 0 0 .303-.075.5.5 0 0 0 .19-.21.7.7 0 0 0 .067-.318.8.8 0 0 0-.038-.245.5.5 0 0 0-.109-.19.5.5 0 0 0-.175-.12.6.6 0 0 0-.238-.043zm.295-.493v2.174h-.256v-2.174zm1.77 2.119a.7.7 0 0 1-.282-.053.64.64 0 0 1-.355-.379.8.8 0 0 1-.048-.29v-.057a.9.9 0 0 1 .054-.325.7.7 0 0 1 .146-.242.63.63 0 0 1 .728-.147.5.5 0 0 1 .192.155q.075.097.11.232.036.131.036.29v.114h-1.114v-.209h.859v-.019a.6.6 0 0 0-.042-.193.35.35 0 0 0-.11-.154.32.32 0 0 0-.207-.061.35.35 0 0 0-.285.145.5.5 0 0 0-.081.175 1 1 0 0 0-.03.239v.058q0 .105.03.2.03.091.086.162a.4.4 0 0 0 .14.11q.082.04.187.04.135 0 .23-.055a.6.6 0 0 0 .163-.147l.155.123a.7.7 0 0 1-.123.139.6.6 0 0 1-.183.107.7.7 0 0 1-.256.042m1.58-.684h-.49l-.003-.204h.4q.12 0 .197-.024a.24.24 0 0 0 .12-.07.17.17 0 0 0 .04-.116.18.18 0 0 0-.09-.161.3.3 0 0 0-.114-.04 1 1 0 0 0-.156-.014h-.326v1.285h-.256v-1.492h.582q.142 0 .256.025a.6.6 0 0 1 .194.076.34.34 0 0 1 .124.126.37.37 0 0 1 .015.31.3.3 0 0 1-.081.108.4.4 0 0 1-.133.078.7.7 0 0 1-.18.037zm0 .656h-.582l.126-.207h.456q.106 0 .176-.026a.22.22 0 0 0 .105-.077.2.2 0 0 0 .036-.121.2.2 0 0 0-.036-.12.2.2 0 0 0-.105-.078.5.5 0 0 0-.177-.027h-.387l.003-.204h.484l.092.077a.5.5 0 0 1 .208.06.35.35 0 0 1 .13.13q.045.078.044.168 0 .105-.04.185a.35.35 0 0 1-.113.134.6.6 0 0 1-.18.08q-.106.026-.24.026"/><path fill="url(#e)" d="M50.804 41.75H39.28a.565.565 0 0 0-.565.564v28.527c0 .312.253.565.565.565h11.524a.565.565 0 0 0 .565-.565V42.314a.565.565 0 0 0-.565-.565"/><path fill="#333" d="M45.27 38.762v.312h-1.446l-.02-.241.838-1.328h.316l-.343.572-.416.685zm-.227-1.257v2.008h-.397v-2.008zm.816 1.093-.317-.076.115-1.017h1.128v.32h-.801l-.05.446a.65.65 0 0 1 .303-.077q.146 0 .26.046.113.045.191.132a.6.6 0 0 1 .122.212.9.9 0 0 1 0 .54.6.6 0 0 1-.337.363.8.8 0 0 1-.3.053.8.8 0 0 1-.252-.038.7.7 0 0 1-.216-.115.6.6 0 0 1-.153-.183.56.56 0 0 1-.06-.249h.395a.4.4 0 0 0 .044.148q.038.06.098.094.06.033.142.033a.3.3 0 0 0 .13-.03.23.23 0 0 0 .087-.08.4.4 0 0 0 .048-.12.7.7 0 0 0-.003-.3.3.3 0 0 0-.06-.114.3.3 0 0 0-.101-.075.4.4 0 0 0-.142-.026.35.35 0 0 0-.171.035.4.4 0 0 0-.1.078"/><path fill="#777" d="M42.74 72.81h.258l.658 1.637.656-1.637h.26l-.817 2.008h-.201zm-.084 0h.227l.038 1.225v.783h-.265zm1.77 0h.228v2.008h-.265v-.783zm1.537 1.753v-.768a.3.3 0 0 0-.036-.153.23.23 0 0 0-.105-.102.4.4 0 0 0-.174-.036.4.4 0 0 0-.17.033.3.3 0 0 0-.112.087.2.2 0 0 0-.04.116h-.255q0-.08.041-.159a.5.5 0 0 1 .119-.142.6.6 0 0 1 .187-.102.7.7 0 0 1 .246-.039q.162 0 .286.055a.43.43 0 0 1 .196.167.5.5 0 0 1 .072.278v.695q0 .075.012.158.015.085.04.145v.022h-.266a.5.5 0 0 1-.03-.117 1 1 0 0 1-.011-.138m.044-.65.003.18h-.258a1 1 0 0 0-.195.018.4.4 0 0 0-.143.05.23.23 0 0 0-.119.207q0 .07.032.129t.095.092a.35.35 0 0 0 .159.033.42.42 0 0 0 .349-.17.26.26 0 0 0 .058-.14l.109.123a.4.4 0 0 1-.053.128.6.6 0 0 1-.282.241.6.6 0 0 1-.218.042.6.6 0 0 1-.266-.06.42.42 0 0 1-.239-.383q0-.12.047-.211a.4.4 0 0 1 .135-.153.6.6 0 0 1 .212-.094q.124-.031.278-.031zm.867-.3v1.779h-.256v-2.066h.234zm1.006.447v.029q0 .162-.039.302a.7.7 0 0 1-.113.24.5.5 0 0 1-.18.158.63.63 0 0 1-.498.01.5.5 0 0 1-.185-.137.7.7 0 0 1-.122-.215 1.2 1.2 0 0 1-.06-.283v-.154q.016-.166.062-.297a.7.7 0 0 1 .12-.223.5.5 0 0 1 .183-.142.6.6 0 0 1 .248-.05q.141 0 .25.055a.5.5 0 0 1 .184.155q.074.101.111.241.039.14.039.31m-.257.029v-.03a1 1 0 0 0-.023-.209.5.5 0 0 0-.073-.174.35.35 0 0 0-.305-.163.36.36 0 0 0-.288.123.5.5 0 0 0-.082.127.7.7 0 0 0-.045.146v.357a.8.8 0 0 0 .077.182.4.4 0 0 0 .133.137.4.4 0 0 0 .208.051.35.35 0 0 0 .178-.043q.075-.045.124-.12a.6.6 0 0 0 .073-.173 1 1 0 0 0 .023-.211"/><path fill="url(#f)" d="M68.878 12.094H57.354a.565.565 0 0 0-.564.564v58.183c0 .312.252.565.564.565h11.524a.565.565 0 0 0 .565-.565V12.658a.565.565 0 0 0-.565-.564"/><path fill="#333" d="M62.22 9.556h.026q.165 0 .284-.04a.47.47 0 0 0 .312-.308.8.8 0 0 0 .037-.256V8.57a.8.8 0 0 0-.022-.192.4.4 0 0 0-.061-.136.26.26 0 0 0-.091-.083.23.23 0 0 0-.23.005.3.3 0 0 0-.087.087.5.5 0 0 0-.054.127.6.6 0 0 0 0 .295q.018.069.054.123a.3.3 0 0 0 .09.084q.053.03.126.03a.3.3 0 0 0 .221-.097.3.3 0 0 0 .083-.207l.13.072a.5.5 0 0 1-.04.19.6.6 0 0 1-.286.292.5.5 0 0 1-.207.046.55.55 0 0 1-.434-.194.7.7 0 0 1-.114-.216.9.9 0 0 1 .009-.54.7.7 0 0 1 .136-.227.6.6 0 0 1 .214-.153.7.7 0 0 1 .279-.056q.153 0 .278.059.126.06.215.168.09.108.138.258.05.15.05.334v.138q0 .195-.043.364-.041.168-.125.305a.86.86 0 0 1-.493.379q-.162.05-.364.05h-.032zm2.692-.879v.348q0 .225-.049.39a.7.7 0 0 1-.139.267.55.55 0 0 1-.214.154.8.8 0 0 1-.502.02.57.57 0 0 1-.332-.266 1 1 0 0 1-.091-.243 1.5 1.5 0 0 1-.032-.322v-.348q0-.226.048-.387a.7.7 0 0 1 .14-.267.55.55 0 0 1 .215-.151.7.7 0 0 1 .276-.05q.121 0 .224.032a.56.56 0 0 1 .333.262q.06.1.09.241.033.14.033.32m-.399.4v-.454q0-.108-.012-.19a.6.6 0 0 0-.035-.138.3.3 0 0 0-.058-.094.2.2 0 0 0-.078-.052.3.3 0 0 0-.098-.017.3.3 0 0 0-.12.027.2.2 0 0 0-.087.084.5.5 0 0 0-.055.151 1.3 1.3 0 0 0-.018.23v.453q0 .11.01.192.013.082.037.142.024.057.057.095.035.036.08.052a.3.3 0 0 0 .216-.01.23.23 0 0 0 .088-.085.5.5 0 0 0 .055-.154 1.3 1.3 0 0 0 .018-.232"/><path fill="#777" d="m62.022 72.988-.665 1.83h-.272l.765-2.008h.176zm.557 1.83-.666-1.83-.005-.178h.175l.769 2.008zm-.035-.743v.218h-1.128v-.218zm1.532-.749v.211h-.754v-.211zm-.717 0v1.492h-.255v-1.492zm.943 0v1.492h-.256v-1.492zm.665.287v1.779h-.256v-2.066h.234zm1.006.447v.029q0 .162-.039.302a.7.7 0 0 1-.113.24.5.5 0 0 1-.18.158.63.63 0 0 1-.498.01.5.5 0 0 1-.185-.137.7.7 0 0 1-.122-.215 1.3 1.3 0 0 1-.06-.283v-.154q.015-.166.062-.297a.7.7 0 0 1 .12-.223.5.5 0 0 1 .183-.142.6.6 0 0 1 .248-.05q.14 0 .25.055a.5.5 0 0 1 .183.155q.075.101.112.241.039.14.039.31m-.257.029v-.03a1 1 0 0 0-.023-.209.5.5 0 0 0-.073-.174.35.35 0 0 0-.305-.163.36.36 0 0 0-.288.123.5.5 0 0 0-.082.127.7.7 0 0 0-.045.146v.357a.8.8 0 0 0 .077.182.4.4 0 0 0 .132.137.4.4 0 0 0 .209.051.35.35 0 0 0 .177-.043q.076-.045.125-.12a.6.6 0 0 0 .073-.173 1 1 0 0 0 .023-.211"/><path fill="url(#g)" d="M86.957 51.634H75.433a.565.565 0 0 0-.565.565V70.84c0 .312.253.565.565.565h11.524a.565.565 0 0 0 .565-.565V52.2a.565.565 0 0 0-.565-.565"/><path fill="#333" d="M80.424 48.221h.212a.4.4 0 0 0 .169-.034.23.23 0 0 0 .098-.1.3.3 0 0 0 .033-.15.3.3 0 0 0-.03-.136.2.2 0 0 0-.09-.094.3.3 0 0 0-.153-.035.3.3 0 0 0-.136.03.25.25 0 0 0-.099.08.2.2 0 0 0-.037.128h-.399q0-.165.089-.289a.6.6 0 0 1 .24-.192q.15-.068.33-.068.205 0 .358.066a.53.53 0 0 1 .238.191.55.55 0 0 1 .086.315.4.4 0 0 1-.044.185.5.5 0 0 1-.127.16.6.6 0 0 1-.199.113.8.8 0 0 1-.263.041h-.276zm0 .302v-.205h.276q.164 0 .288.037a.6.6 0 0 1 .208.108q.085.068.127.164a.57.57 0 0 1-.011.46.5.5 0 0 1-.151.184.7.7 0 0 1-.227.115 1 1 0 0 1-.532.005.7.7 0 0 1-.22-.107.55.55 0 0 1-.158-.179.54.54 0 0 1-.058-.258h.399a.25.25 0 0 0 .145.233.34.34 0 0 0 .153.035.35.35 0 0 0 .162-.035.25.25 0 0 0 .105-.099.3.3 0 0 0 .037-.15.34.34 0 0 0-.04-.177.24.24 0 0 0-.114-.1.5.5 0 0 0-.177-.03zm2.566-.306v.348q0 .225-.048.39a.7.7 0 0 1-.139.267.55.55 0 0 1-.214.154.8.8 0 0 1-.502.02.57.57 0 0 1-.332-.266 1 1 0 0 1-.091-.243 1.5 1.5 0 0 1-.032-.322v-.348q0-.226.048-.387a.7.7 0 0 1 .14-.267.55.55 0 0 1 .215-.151.7.7 0 0 1 .276-.05q.12 0 .224.032a.56.56 0 0 1 .333.262q.06.1.09.241.033.14.032.32m-.398.4v-.454q0-.109-.012-.19a.6.6 0 0 0-.035-.138.3.3 0 0 0-.058-.094.2.2 0 0 0-.078-.052.3.3 0 0 0-.098-.017.3.3 0 0 0-.12.027.2.2 0 0 0-.087.084.5.5 0 0 0-.055.151 1.3 1.3 0 0 0-.018.23v.453q0 .11.01.192.013.082.037.142.024.057.057.095.035.036.08.052a.3.3 0 0 0 .216-.01.23.23 0 0 0 .088-.085.4.4 0 0 0 .055-.154 1.3 1.3 0 0 0 .018-.232"/><path fill="#777" d="M78.87 72.81h.258l.657 1.637.657-1.637h.26l-.817 2.008h-.202zm-.084 0h.227l.037 1.225v.783h-.264zm1.77 0h.228v2.008h-.265v-.783zm1.537 1.753v-.768a.3.3 0 0 0-.036-.153.23.23 0 0 0-.105-.102.4.4 0 0 0-.174-.036.4.4 0 0 0-.17.033.3.3 0 0 0-.112.087.2.2 0 0 0-.04.116H81.2q0-.08.042-.159a.5.5 0 0 1 .118-.142.6.6 0 0 1 .188-.102.7.7 0 0 1 .245-.039q.163 0 .287.055a.43.43 0 0 1 .196.167.5.5 0 0 1 .072.278v.695q0 .075.012.158.015.085.04.145v.022h-.266a.5.5 0 0 1-.03-.117 1 1 0 0 1-.011-.138m.044-.65.003.18h-.258a1 1 0 0 0-.195.018.4.4 0 0 0-.143.05.23.23 0 0 0-.119.207q0 .07.032.129t.095.092a.35.35 0 0 0 .159.033.42.42 0 0 0 .349-.17.26.26 0 0 0 .058-.14l.109.123a.4.4 0 0 1-.053.128.6.6 0 0 1-.283.241.6.6 0 0 1-.218.042.6.6 0 0 1-.266-.06.42.42 0 0 1-.239-.383q0-.12.048-.211a.4.4 0 0 1 .135-.153.6.6 0 0 1 .212-.094q.124-.031.277-.031zm.888.501.688-1.088h.257v1.492h-.257V73.73l-.688 1.088h-.254v-1.492h.254zm.549-1.629h.207a.34.34 0 0 1-.192.321.5.5 0 0 1-.22.048.43.43 0 0 1-.303-.102.35.35 0 0 1-.11-.267h.207q0 .082.047.144.046.062.16.062.11 0 .157-.062a.23.23 0 0 0 .047-.144"/><path stroke="#ccc" stroke-width=".282" d="M-.15 71.406h90.381"/></g></g><defs><linearGradient id="c" x1="-29.523" x2="-29.523" y1="46.693" y2="71.406" gradientUnits="userSpaceOnUse"><stop stop-color="#fef08a"/><stop offset="1" stop-color="#facc15" stop-opacity=".1"/></linearGradient><linearGradient id="d" x1="-11.449" x2="-11.449" y1="12.093" y2="71.405" gradientUnits="userSpaceOnUse"><stop stop-color="#1d3fee"/><stop offset="1" stop-color="#1d3fee" stop-opacity=".1"/></linearGradient><linearGradient id="e" x1="6.63" x2="6.63" y1="26.921" y2="71.406" gradientUnits="userSpaceOnUse"><stop stop-color="#74b291"/><stop offset="1" stop-color="#74b291" stop-opacity=".1"/></linearGradient><linearGradient id="f" x1="24.704" x2="24.704" y1="-17.563" y2="71.406" gradientUnits="userSpaceOnUse"><stop stop-color="#f55"/><stop offset="1" stop-color="#f87171" stop-opacity=".1"/></linearGradient><linearGradient id="g" x1="42.783" x2="42.783" y1="41.749" y2="71.405" gradientUnits="userSpaceOnUse"><stop stop-color="#ffa425"/><stop offset="1" stop-color="#facc15" stop-opacity=".1"/></linearGradient><clipPath id="a"><rect width="90" height="90" fill="#fff" rx="9.524"/></clipPath><clipPath id="b"><path fill="#fff" d="M-11.558 8.014h112.976v69.04H-11.558z"/></clipPath></defs></svg>