<svg xmlns="http://www.w3.org/2000/svg" width="90" height="90" fill="none" viewBox="0 0 90 90"><rect width="90" height="90" fill="#f2fdf0" rx="9.524"/><g clip-path="url(#a)"><path fill="url(#b)" d="M53.444 12.87a4.234 4.234 0 0 0-5.19 2.996l-.11.41c-9.846-.61-19.096 5.77-21.75 15.67l-.743 2.776A28.13 28.13 0 0 1 15.177 50.07l-1.672 1.225a4.702 4.702 0 0 0 1.566 8.33l48.214 12.92a4.703 4.703 0 0 0 5.522-6.432l-.836-1.896a28.2 28.2 0 0 1-1.384-18.525l.743-2.776c2.654-9.901-2.168-20.05-11-24.446l.11-.41a4.233 4.233 0 0 0-2.996-5.19M29.608 70.1a8.485 8.485 0 0 0 6.286 8.266 8.484 8.484 0 0 0 9.576-4.015z"/><circle cx="63.204" cy="36.405" r="11.405" fill="#ff4040"/><path fill="#fff" d="M62.88 31.127h1.718V42H62.56v-8.729l-2.722 1.855V33.09z"/></g><defs><linearGradient id="b" x1="73.311" x2="16.013" y1="53.293" y2="37.94" gradientUnits="userSpaceOnUse"><stop stop-color="#f5ce81"/><stop offset="1" stop-color="#fcee98"/></linearGradient><clipPath id="a"><path fill="#fff" d="M7.604 11.712h76.438V79.52H7.604z"/></clipPath></defs></svg>