<svg xmlns="http://www.w3.org/2000/svg" width="90" height="90" fill="none" viewBox="0 0 90 90"><rect width="90" height="90" fill="#f2fdf0" rx="9.524"/><g clip-path="url(#a)"><g clip-path="url(#b)"><path fill="#fff" d="M18.493 52.839s.81 2.848 3.188 2.673l6.55-2.673v-2.734z"/><path fill="#b2c9c6" d="M25.43 17.648s-10.008 2.279-3.632 15.306 4.521 20.817-.114 22.558l24.139-5.93-6.518-26.624-6.555-4.883z"/><path fill="#2f1a31" d="M65.864 72.412 47.588 77.45c-3.248.895-6.605-1.02-7.498-4.277L29.106 33.105c-.894-3.257 1.016-6.624 4.264-7.52l18.277-5.038c3.247-.896 6.605 1.02 7.498 4.276l10.984 40.07c.893 3.256-1.017 6.623-4.265 7.519"/><path fill="#6f4975" d="m69.486 71.415-18.277 5.039c-3.247.895-6.605-1.02-7.498-4.277L32.727 32.108c-.893-3.257 1.017-6.624 4.265-7.52l18.276-5.039c3.247-.895 6.605 1.02 7.498 4.277L73.75 63.895c.894 3.257-1.017 6.624-4.264 7.52"/><path fill="#2f1a31" d="M60.403 28.198 37.6 34.497l3.44 12.528 22.805-6.3z"/><path fill="#deebe9" d="m59.839 28.35-22.805 6.3 3.441 12.528 22.805-6.3z"/><path fill="#2f1a31" d="m46.809 48.86-4.222 1.166c-.685.19-1.088.9-.899 1.587l.39 1.422a1.287 1.287 0 0 0 1.583.902l4.222-1.167c.685-.189 1.088-.9.9-1.587l-.391-1.421a1.287 1.287 0 0 0-1.583-.902m8.053-2.22-4.221 1.166c-.686.189-1.088.9-.9 1.587l.39 1.421a1.287 1.287 0 0 0 1.584.902l4.221-1.166c.686-.19 1.088-.9.9-1.587l-.391-1.422a1.287 1.287 0 0 0-1.583-.902m8.048-2.225-4.222 1.166c-.686.19-1.088.9-.9 1.587l.39 1.422a1.287 1.287 0 0 0 1.584.902l4.221-1.167c.686-.189 1.088-.9.9-1.587l-.39-1.421a1.287 1.287 0 0 0-1.584-.902M48.408 54.68l-4.222 1.166c-.685.19-1.088.9-.899 1.588l.39 1.421a1.287 1.287 0 0 0 1.583.902l4.222-1.166c.685-.19 1.088-.9.9-1.588l-.391-1.421a1.287 1.287 0 0 0-1.583-.902m8.052-2.225-4.222 1.166c-.685.19-1.088.9-.9 1.587l.391 1.422a1.287 1.287 0 0 0 1.583.901l4.222-1.166c.685-.189 1.088-.9.899-1.587l-.39-1.421a1.287 1.287 0 0 0-1.583-.902m8.048-2.221L60.287 51.4c-.686.189-1.088.9-.9 1.587l.39 1.421c.19.688.898 1.091 1.584.902l4.221-1.166c.686-.19 1.088-.9.9-1.587l-.391-1.422a1.287 1.287 0 0 0-1.583-.901M50.013 60.5l-4.222 1.166c-.685.19-1.088.9-.899 1.588l.39 1.421c.19.687.898 1.091 1.583.902l4.222-1.166c.685-.19 1.088-.9.9-1.588l-.391-1.421a1.287 1.287 0 0 0-1.583-.902m8.043-2.224-4.222 1.166c-.686.19-1.088.9-.9 1.587l.391 1.422c.189.687.897 1.09 1.583.901l4.221-1.166c.686-.19 1.088-.9.9-1.587l-.39-1.422a1.287 1.287 0 0 0-1.584-.901m8.048-2.226-4.222 1.167c-.685.189-1.088.9-.9 1.587l.391 1.421a1.287 1.287 0 0 0 1.583.902l4.222-1.166c.685-.19 1.087-.9.899-1.587l-.39-1.422a1.287 1.287 0 0 0-1.583-.902"/><path fill="#bcbf80" d="m51.61 66.32-4.222 1.166c-.686.19-1.088.9-.9 1.587l.391 1.422a1.287 1.287 0 0 0 1.583.901l4.222-1.166c.685-.189 1.088-.9.899-1.587l-.39-1.421a1.287 1.287 0 0 0-1.584-.902"/><path fill="#629fb7" d="M59.661 64.095 55.44 65.26c-.686.19-1.088.9-.9 1.587l.39 1.421a1.287 1.287 0 0 0 1.584.902l4.221-1.166c.686-.19 1.088-.9.9-1.587l-.391-1.422a1.287 1.287 0 0 0-1.583-.901"/><path fill="#cc6e58" d="m67.708 61.87-4.221 1.166c-.686.189-1.088.9-.9 1.587l.39 1.421a1.287 1.287 0 0 0 1.584.902l4.221-1.166c.686-.19 1.088-.9.9-1.587l-.391-1.422a1.287 1.287 0 0 0-1.583-.902"/><path fill="#deebe9" d="m47.672 48.626-4.221 1.166c-.686.19-1.088.9-.9 1.587l.39 1.422a1.287 1.287 0 0 0 1.584.901l4.221-1.166c.686-.19 1.088-.9.9-1.587l-.391-1.422a1.287 1.287 0 0 0-1.583-.901m8.049-2.226-4.222 1.167c-.685.189-1.088.9-.899 1.587l.39 1.421a1.287 1.287 0 0 0 1.583.902l4.222-1.166c.685-.19 1.088-.9.9-1.587l-.391-1.422a1.287 1.287 0 0 0-1.583-.901m8.047-2.221-4.222 1.166c-.685.19-1.088.9-.899 1.587l.39 1.422a1.287 1.287 0 0 0 1.583.902l4.222-1.167c.685-.189 1.088-.9.9-1.587l-.391-1.421a1.287 1.287 0 0 0-1.583-.902M49.271 54.44l-4.222 1.167c-.685.189-1.087.9-.899 1.587l.39 1.421a1.287 1.287 0 0 0 1.584.902l4.221-1.166c.686-.19 1.088-.9.9-1.587l-.391-1.422a1.287 1.287 0 0 0-1.583-.901m8.049-2.221-4.222 1.167c-.685.19-1.088.9-.9 1.587l.391 1.422c.19.687.898 1.09 1.583.901l4.222-1.166c.685-.19 1.088-.9.899-1.587l-.39-1.422a1.287 1.287 0 0 0-1.583-.901M65.371 50l-4.221 1.166c-.686.19-1.088.9-.9 1.587l.391 1.422c.189.687.897 1.09 1.583.902l4.221-1.166c.686-.19 1.088-.9.9-1.588l-.39-1.421A1.287 1.287 0 0 0 65.37 50m-14.5 10.26-4.222 1.165c-.685.19-1.088.9-.9 1.588l.391 1.421a1.287 1.287 0 0 0 1.583.902l4.222-1.166c.685-.19 1.088-.9.899-1.587l-.39-1.422a1.287 1.287 0 0 0-1.583-.902m8.051-2.22L54.7 59.205c-.686.19-1.088.9-.9 1.587l.391 1.422c.189.687.897 1.09 1.583.901l4.221-1.166c.686-.19 1.088-.9.9-1.587l-.39-1.422a1.287 1.287 0 0 0-1.584-.901m8.049-2.225-4.222 1.166c-.685.19-1.087.9-.899 1.588l.39 1.421a1.287 1.287 0 0 0 1.583.902l4.222-1.166c.686-.19 1.088-.9.9-1.588l-.391-1.421a1.287 1.287 0 0 0-1.583-.902"/><path fill="#cfd3a3" d="m52.466 66.08-4.222 1.167c-.685.189-1.088.9-.899 1.587l.39 1.421a1.287 1.287 0 0 0 1.583.902l4.222-1.166c.685-.19 1.088-.9.9-1.587l-.391-1.422a1.287 1.287 0 0 0-1.583-.902"/><path fill="#81b3cc" d="m60.518 63.855-4.222 1.166c-.685.19-1.088.9-.9 1.588l.391 1.421a1.287 1.287 0 0 0 1.583.902l4.222-1.166c.685-.19 1.088-.9.899-1.588l-.39-1.421a1.287 1.287 0 0 0-1.583-.902"/><path fill="#e28569" d="M68.565 61.634 64.343 62.8c-.685.19-1.088.9-.899 1.587l.39 1.422c.19.687.898 1.09 1.583.901l4.222-1.166c.685-.19 1.088-.9.899-1.587l-.39-1.422a1.287 1.287 0 0 0-1.583-.901"/><path fill="#2f1a31" d="m70.574 67.432-21.948 6.062.17.616 21.947-6.062z"/><path fill="#fff" d="M58.852 26.174s-1.906-12.885-9.84-13.845l-23.584 5.32s8.492-.102 11.245 14.639z"/><path fill="#2f1a31" d="m59.3 26.146-22.953 6.325a.149.149 0 0 1-.082-.284l22.953-6.326a.149.149 0 0 1 .082.285"/><path fill="#b2c9c6" d="M37.277 27.547a333 333 0 0 1 16.916-5.09c.178-.05.105-.33-.078-.28a333 333 0 0 0-16.916 5.09c-.179.06-.1.34.078.28m.123.9a92 92 0 0 1 6.948-1.998c.183-.046.105-.327-.078-.28a92 92 0 0 0-6.949 1.998c-.174.06-.1.34.078.28m-.953-3.688c4.754-1.645 9.56-3.1 14.406-4.437.178-.051.105-.331-.078-.28-4.846 1.331-9.656 2.792-14.406 4.437-.174.06-.1.34.078.28m-.626-1.296c2.108-.753 4.205-1.502 6.358-2.117.179-.05.101-.33-.078-.28-2.153.615-4.25 1.364-6.358 2.117-.173.064-.1.345.078.28m7.829-2.641c2.913-.919 5.844-1.768 8.813-2.485.183-.046.105-.326-.078-.28-2.968.716-5.9 1.566-8.813 2.485-.179.055-.101.335.078.28m-8.575 1.024c4.19-1.437 8.45-2.65 12.752-3.72.179-.046.105-.327-.078-.28-4.296 1.074-8.556 2.287-12.752 3.72-.174.06-.1.34.078.28m-2.259-2.723a58 58 0 0 1 8.63-2.375c.183-.037.105-.317-.078-.28a58 58 0 0 0-8.63 2.375c-.174.064-.1.344.078.28m9.99-2.789a86 86 0 0 1 6.569-1.832c.183-.042.105-.322-.078-.28a90 90 0 0 0-6.568 1.832c-.18.055-.101.336.077.28M31.784 18.3a18 18 0 0 1 2.18-.648c.183-.04.105-.321-.078-.28-.742.17-1.466.386-2.18.648-.174.064-.101.345.078.28"/></g></g><defs><clipPath id="a"><path fill="#fff" d="M4.931 11.096h81.37v66.575H4.931z"/></clipPath><clipPath id="b"><path fill="#fff" d="M18.492 12.33h55.48v65.342h-55.48z"/></clipPath></defs></svg>