<svg xmlns="http://www.w3.org/2000/svg" width="90" height="90" fill="none" viewBox="0 0 90 90"><g clip-path="url(#a)"><rect width="90" height="90" fill="#f2fdf0" rx="9.524"/><g clip-path="url(#b)"><path fill="#007dff" d="M33.322 59.745s-7.884 2.578-10.574 6.202c-2.727 3.661-6.202 31.196-6.202 31.196H73s-1.457-29.067-5.567-32.205-11.208-5.044-11.208-5.044l-22.902-.112z"/><path fill="#80b6ff" d="M56.223 59.894c-1.831-.784-3.139-1.307-3.139-1.307h-16.55s-1.383.448-3.214 1.158l11.433 17.597s8.107-11.246 11.47-17.485z"/><path fill="#ff9e83" d="M44.76 72.71s7.733-12.105 8.331-14.122l-4.633-1.27-.261-11.097h-6.912l.037 9.602v1.532c-.037 0-4.782 1.233-4.782 1.233.374 1.83 8.257 14.122 8.257 14.122z"/><path fill="#ff9e83" d="M52.38 58.401c-1.494-.411-3.923-1.084-3.923-1.084l-.261-11.096h-6.912l.037 9.602v1.532c-.037 0-3.512.897-3.512.897 2.952 1.718 7.921 3.175 14.571.149" opacity=".3" style="mix-blend-mode:multiply"/><path fill="url(#c)" d="M56.64 38.899s3.102-.3 3.774 2.466c.71 2.84-3.96 3.474-3.96 3.474z"/><g opacity=".5" style="mix-blend-mode:multiply"><path fill="#f68373" d="M56.192 39.983s2.69-.411 3.474 2.13c0 0-2.241-1.346-3.661-.225l.15-1.905z" opacity=".3" style="mix-blend-mode:multiply"/></g><path fill="url(#d)" d="M33.287 39.01s-3.325.224-3.512 3.063c-.224 2.914 4.483 2.765 4.483 2.765l-.97-5.866z"/><path fill="#f68373" d="M33.696 39.981s-2.69 0-3.101 2.69c0 0 1.98-1.719 3.55-.822l-.487-1.868z" opacity=".3" style="mix-blend-mode:multiply"/><path fill="#ff9e83" d="M55.817 34.677c-.897-2.28-.822-4.297-1.793-5.642-2.242-2.952-5.455-3.55-5.455-3.55-2.466.412-5.268-1.344-8.967 1.159-1.98 1.345-5.716 1.943-6.276 9.303-.86 11.731 1.681 19.054 11.918 18.98 11.059-.038 13.86-11.695 10.536-20.288z"/><path fill="#ffc2bf" d="M53.982 29.072c-2.241-2.952-5.454-3.55-5.454-3.55-2.466.411-5.268-1.345-8.967 1.158-.523.374-1.196.673-1.868 1.047-.747.933-1.607 1.756-2.69 2.39-.86 1.27-1.532 3.064-1.719 5.904a50 50 0 0 0-.112 5.716c4.97.187 12.703-4.708 16.29-7.36 1.942-1.457 3.586-1.98 4.782-2.13.112 1.868.785 4.745 2.615 9.154l.224-.225c-.074-2.204-.485-4.446-1.307-6.5-.897-2.28-.822-4.297-1.794-5.642z" opacity=".5" style="mix-blend-mode:multiply"/><path fill="#1f2c31" d="M45.99 47.416c.26 0 .56-.037.746-.187a.6.6 0 0 0 .225-.486c0-.597-.486-.784-.822-.934-.15-.037-.3-.112-.3-.186-.074-.187-.111-1.607-.074-2.429 0-.075-.037-.15-.112-.15s-.15.038-.15.113c0 .373 0 2.242.112 2.54.075.15.262.224.449.3.299.111.635.26.635.672a.42.42 0 0 1-.112.299c-.262.224-.86.15-1.084.074-.074 0-.149 0-.149.112 0 .075 0 .15.112.15 0 0 .262.075.56.075zm7.883-6.462c.187-.411-2.653-2.84-4.596-1.831-1.68.897 1.57 1.644 3.213 1.943s1.345-.112 1.345-.112zM36.2 40.841c-.261-.373 2.018-3.362 4.11-2.764 1.83.523-1.196 1.942-2.765 2.577s-1.345.187-1.345.187m20.697-1.009s1.345-1.12 2.84-5.753-3.475-6.837-4.297-6.725-2.84 2.055 1.42 12.44z"/><path fill="#1f2c31" d="M56.415 30.829s-2.765-1.084-6.95 2.017c-4.146 3.101-14.047 9.266-18.493 6.8-4.483-2.466-5.866-9.266 1.383-10.163 7.248-.934 5.865-9.863 15.878-9.265 7.92.486 7.099 9.863 8.182 10.648z"/><path fill="#311733" d="M49.252 49.891c-1.957.455-7.965-.91-7.965-.91 1.58 1.944 3.502 3.144 5.047 3.186 1.476 0 2.918-2.276 2.918-2.276"/><path fill="#fff" d="M49.252 49.832s-.256.603-.621.71c-.402.142-4.896-.213-5.882-.603a3.4 3.4 0 0 1-1.462-.958s4.787.887 7.965.851"/><path fill="#ff5852" d="M47.66 51.724c-.797-1-4.78-1.15-4.78-1.15 3.385 2.7 4.78 1.15 4.78 1.15"/><path fill="#1f2c31" d="M39.452 44.576c.599 0 1.084-.67 1.084-1.495s-.485-1.494-1.084-1.494c-.598 0-1.083.669-1.083 1.494 0 .826.485 1.495 1.083 1.495"/><path fill="#fff" d="M40.092 42.608a.398.398 0 1 0 0-.796.398.398 0 0 0 0 .796"/><path fill="#1f2c31" d="M51.895 43.081c0 .822-.486 1.495-1.084 1.495s-1.083-.673-1.083-1.495.485-1.494 1.083-1.494 1.084.672 1.084 1.494"/><path fill="#fff" d="M51.243 42.608a.398.398 0 1 0 0-.796.398.398 0 0 0 0 .796"/><path fill="#005bcf" d="M70.648 22.684 47.036 28.55c-.934.373-2.055.41-3.064.112l-24.92-9.415c-.784-.224-.86-1.158-.112-1.383L43.86 11.7c.747-.187 1.57-.224 2.354-.038l24.21 9.64c.784.186.971 1.083.261 1.382z"/><path fill="#007dff" d="M19.052 19.247h.075l24.733-6.053c.747-.187 1.57-.224 2.354-.037l24.172 9.639.3-.075c.709-.261.522-1.195-.262-1.382l-24.21-9.677c-.785-.186-1.607-.149-2.354.038l-24.92 6.164c-.747.224-.672 1.159.112 1.383"/><path fill="#007dff" d="M46.102 11.662c-.748-.149-1.532-.149-2.242.075l-24.92 6.127c-.747.224-.672 1.159.112 1.383h.075l24.733-6.053a5 5 0 0 1 2.242-.075zm-13.041 8.443-.299 9.378s5.567 1.942 14.16 1.942 10.05-1.68 10.05-1.68V21.3c-11.283-7.286-23.948-1.196-23.948-1.196z"/><path stroke="#f1ad00" stroke-miterlimit="10" stroke-width=".374" d="m24.171 16.556-.86 13.861"/><path fill="#f1ad00" d="M23.351 29.595s-.523-.112-.747.112c-.224.262-.15.748.075.822.224.075 1.009.337 1.27.15s.15-.598.15-.71c-.038-.262-.748-.374-.748-.374"/><path fill="#f1ad00" d="M22.79 30.118s-1.27 6.538-1.084 6.8l.187.224s-.299 1.905-.373 2.391.261.822.485-.486c.225-1.307-.56 3.55-.41 3.55.186 0 .298.261.522-.374.262-.635.785-5.118.785-5.118s0 .672.224.672.598-7.659.598-7.659h-.971z"/><path fill="#0061c2" d="M31.193 97.144s-.897-6.277-.785-6.538c.337-.935 1.01 1.643 1.01 1.643s-.599-8.107-.225-8.22c.374-.074.86 6.913 1.195 6.128.374-.784.598-4.072 1.159-3.587.56.486-1.868 10.536-1.868 10.536h-.486zm26.042-.001s-.373-2.428 0-2.466c.374-.037.56 1.009.748.934.186-.075-.71-6.575-.262-6.837.448-.224.673 4.857 1.158 4.857.486 0 .635-2.204 1.009-2.055.373.112-.411 5.604-.411 5.604h-2.204z" opacity=".5"/></g></g><defs><linearGradient id="c" x1="56.08" x2="58.434" y1="41.402" y2="42.411" gradientUnits="userSpaceOnUse"><stop stop-color="#ff9e83"/><stop offset="1" stop-color="#ffaf9c"/></linearGradient><linearGradient id="d" x1="34.147" x2="31.867" y1="41.774" y2="42.372" gradientUnits="userSpaceOnUse"><stop stop-color="#ff9e83"/><stop offset="1" stop-color="#ffaf9c"/></linearGradient><clipPath id="a"><rect width="90" height="90" fill="#fff" rx="9.524"/></clipPath><clipPath id="b"><path fill="#fff" d="M16.545 11.549h56.453v85.594H16.545z"/></clipPath></defs></svg>