<svg xmlns="http://www.w3.org/2000/svg" width="90" height="90" fill="none" viewBox="0 0 90 90"><rect width="90" height="90" fill="#f2fdf0" rx="9.524"/><g clip-path="url(#a)"><path fill="#201729" d="m34.633 65.247-4.996 11.292 2.5 1.198 4.996-11.293z"/><path fill="#201729" d="M32.95 77.28c.212 1.253-.797 2.48-2.253 2.758-1.492.252-2.867-.507-3.078-1.76-.212-1.252.797-2.478 2.252-2.757 1.493-.252 2.868.507 3.08 1.76m27.167-16.393-1.969 1.951 8.425 9.028 1.969-1.951z"/><path fill="#201729" d="M65.63 71.766c.212 1.252 1.567 2.08 3.033 1.866 1.493-.252 2.543-1.42 2.332-2.672s-1.567-2.08-3.033-1.866c-1.493.252-2.543 1.42-2.332 2.672M22.005 24.672l-1.841 2.08 6.93 6.534 1.841-2.08z"/><path fill="#3a3f57" d="M32.02 18.88c-5.067-3.306-11.812-2.532-15.919 2.124-4.132 4.694-4.264 11.685-.628 16.554z"/><path fill="#201729" d="M16.832 19.461c.496.478.43 1.414-.156 2.107-.592.661-1.488.846-2.021.341-.496-.478-.43-1.413.156-2.107.592-.661 1.488-.846 2.02-.34m15.179-.585L15.46 37.571l1.17 1.103 16.552-18.693zm28.632-.355-5.172 7.964 2.286 1.592 5.172-7.963z"/><path fill="#3a3f57" d="M49.535 15.231c4.12-4.394 10.858-5.2 15.968-1.637 5.141 3.558 6.923 10.325 4.576 15.94z"/><path fill="#201729" d="M64.418 12.29c-.38.593-.073 1.466.657 2.003.762.532 1.648.482 2.028-.11.38-.593.073-1.466-.657-2.003-.762-.533-1.649-.482-2.028.11m-14.902 2.917-.873 1.345 20.553 14.31.873-1.345z"/><path fill="#3a3f57" d="M71.727 43.854c2.535 15.028-7.195 29.187-21.746 31.642-14.551 2.456-28.42-7.722-30.955-22.75-2.536-15.03 7.226-29.193 21.777-31.649 14.55-2.455 28.388 7.728 30.924 22.757"/><path fill="#3a3f57" d="M67.5 44.568c2.12 12.556-6.02 24.398-18.176 26.45-12.157 2.05-23.731-6.466-25.85-19.022s6.02-24.399 18.178-26.45c12.157-2.051 23.73 6.465 25.849 19.022"/><path fill="#fff" d="M66.038 44.814c1.989 11.785-5.636 22.88-17.047 24.806-11.41 1.925-22.26-6.086-24.243-17.84-1.983-11.752 5.637-22.88 17.048-24.806 11.41-1.925 22.254 6.055 24.242 17.84"/><path fill="#000" d="m46.02 47.86-2.956-13.735 1.775 13.935zm-1.104.65 8.194 12.555-7.181-13.188z"/><path fill="#201729" d="m49.426 49.268-.081.278-17.446-5.413.081-.278z"/><path fill="#000" d="M46.691 48.045c.12.706-.317 1.341-1 1.457-.685.115-1.306-.342-1.425-1.048-.119-.707.318-1.342 1.002-1.457.684-.116 1.304.341 1.423 1.048"/><path fill="#201729" d="M43.365 29.847c.13.77-.384 1.517-1.13 1.643s-1.477-.411-1.607-1.182.384-1.518 1.13-1.643c.746-.126 1.476.41 1.606 1.182m6.166 36.512c.13.77-.384 1.517-1.13 1.643-.747.126-1.477-.411-1.607-1.182s.384-1.518 1.13-1.644 1.476.412 1.606 1.183M27.151 49.922c.746-.126 1.477.411 1.607 1.182s-.384 1.518-1.13 1.644-1.477-.412-1.607-1.183c-.13-.77.384-1.517 1.13-1.643m35.383-5.97c.747-.126 1.477.411 1.607 1.182s-.384 1.518-1.13 1.644-1.476-.411-1.606-1.182.383-1.518 1.13-1.644M31.25 36.316c.62.457.773 1.356.336 1.991a1.36 1.36 0 0 1-1.928.326 1.47 1.47 0 0 1-.336-1.991 1.36 1.36 0 0 1 1.928-.326m29.286 21.745c.62.457.772 1.356.335 1.991a1.36 1.36 0 0 1-1.927.325 1.47 1.47 0 0 1-.336-1.99 1.36 1.36 0 0 1 1.928-.326m-27.13 4.281c.437-.636 1.313-.75 1.928-.326.62.457.741 1.361.336 1.991-.437.635-1.313.75-1.928.326-.62-.457-.741-1.361-.336-1.991m21.108-29.72c.436-.635 1.312-.75 1.928-.325.62.457.74 1.361.336 1.99-.437.636-1.313.75-1.928.326-.62-.457-.741-1.361-.336-1.99"/><path fill="#d7d7e0" d="M51.36 21.496a32.4 32.4 0 0 1 5.507 13.305c1.382 8.19-.456 16.624-5.078 23.349-4.621 6.724-11.748 11.295-19.645 12.628-7.898 1.332-1.12.189-1.66.214 5.518 3.89 12.441 5.695 19.5 4.504 14.55-2.455 24.28-16.614 21.745-31.643S61.537 24.006 51.361 21.496"/></g><defs><clipPath id="a"><path fill="#fff" d="m10.89 19.109 57.86-9.763 10.544 62.49L21.433 81.6z"/></clipPath></defs></svg>