<svg xmlns="http://www.w3.org/2000/svg" width="90" height="90" fill="none" viewBox="0 0 90 90"><rect width="90" height="90" fill="#f2fdf0" rx="9.524"/><g clip-path="url(#a)"><path fill="#f8ec72" d="M74.799 15.845H56.19c-6.693 0-12.12 5.5-12.12 12.283v34.41c0 6.784 5.427 12.283 12.12 12.283h18.608c6.693 0 12.12-5.499 12.12-12.282V28.128c0-6.784-5.427-12.283-12.12-12.283"/><path fill="#fff" d="M50.558 29.029c-.132 0-.23-.134-.23-.267 0-.134.098-.268.23-.268l29.443-.2c.132 0 .23.134.23.267 0 .134-.098.267-.23.267zm.102 9.011c-.132 0-.231-.133-.231-.267s.099-.267.23-.267l29.443-.2c.132 0 .23.133.23.267 0 .133-.098.267-.23.267zm.096 9.012c-.132 0-.23-.134-.23-.267 0-.134.098-.267.23-.267l29.443-.2c.131 0 .23.133.23.266 0 .134-.099.267-.23.267zm.101 9.045c-.132 0-.23-.134-.23-.267 0-.134.098-.267.23-.267l29.443-.2c.132 0 .23.133.23.266 0 .134-.098.267-.23.267zm.096 9.011c-.131 0-.23-.133-.23-.267 0-.133.099-.267.23-.267l29.443-.2c.132 0 .23.133.23.267 0 .133-.098.267-.23.267z"/><path fill="#70625a" d="M40.55 39.676H30.505c-3.074 0-5.566 2.526-5.566 5.64v16.722c0 3.115 2.492 5.64 5.566 5.64H40.55c3.074 0 5.566-2.525 5.566-5.64V45.317c0-3.115-2.492-5.64-5.566-5.64"/><path fill="#ce5628" fill-rule="evenodd" d="M38.309 66.477c-.395.6-3.03 3.771-8.2 4.205-5.534.501-7.115-9.712-18.444-.7 0-11.615 9.946-15.053 18.542-8.345 3.524 2.737 8.102 4.84 8.102 4.84" clip-rule="evenodd"/><mask id="b" width="28" height="13" x="11" y="58" maskUnits="userSpaceOnUse" style="mask-type:luminance"><path fill="#fff" d="M11.667 69.982c7.278-5.808 10.539-3.638 13.404-1.502 1.58 1.201 3.063 2.403 5.039 2.202 5.17-.467 7.838-3.638 8.2-4.205 0 0-4.545-2.103-8.101-4.84-2.965-2.303-6.06-3.404-8.86-3.404-5.4 0-9.682 4.105-9.715 11.749z"/></mask><g fill-rule="evenodd" clip-rule="evenodd" mask="url(#b)"><path fill="#c14f25" d="m12.488 72.986-.823-3.037s.659-2.203 3.425-4.606 5.797-2.37 9.024-1.235c3.228 1.135 4.281 3.872 7.64 4.039 3.327.133 4.94-1.803 4.94-1.803s-.757 3.772-2.173 4.94-13.47-2.136-16.96-.768c-3.492 1.402-5.073 2.47-5.073 2.47"/><path fill="#faf6cf" d="M14.562 58.234c1.152-.2 5.565.067 5.598.968s-.955 1.702-.494 2.002c.494.3 2.042 1.369 1.779 1.936-.297.568-1.087.434-.79 1.335s.889 2.303-.363 3.004c-1.251.701-8.3 6.408-9.156 4.473s-.263-6.91.527-9.179 1.746-4.305 2.899-4.539"/></g><mask id="c" width="11" height="13" x="11" y="58" maskUnits="userSpaceOnUse" style="mask-type:luminance"><path fill="#fff" d="M11.667 69.98c4.248-3.404 7.146-4.072 9.353-3.604.066-.635-.23-1.369-.395-1.903-.297-.901.527-.767.79-1.335.297-.567-1.284-1.669-1.778-1.936-.494-.3.527-1.101.494-2.002 0-.3-.494-.5-1.153-.668-4.248 1.035-7.344 4.973-7.344 11.482z"/></mask><g mask="url(#c)"><path fill="#f9f1a9" fill-rule="evenodd" d="m12.49 72.984-.823-3.037s.658-2.203 3.425-4.606 5.796-2.37 9.024-1.235 4.281 3.872 7.64 4.039c3.327.133 4.94-1.803 4.94-1.803s-.757 3.772-2.173 4.94-13.47-2.136-16.961-.768c-3.491 1.402-5.072 2.47-5.072 2.47" clip-rule="evenodd"/></g><path fill="#ec632e" fill-rule="evenodd" d="m30.633 45.85-.89-.934s-8.595 3.271-10.21 5.173c-1.613 1.903-1.02 3.839 1.582 3.705s9.254-3.27 9.32-4.038c.099-.768.165-3.905.165-3.905" clip-rule="evenodd"/><mask id="d" width="13" height="10" x="18" y="44" maskUnits="userSpaceOnUse" style="mask-type:luminance"><path fill="#fff" d="M19.53 50.09c-1.615 1.902-1.022 3.838 1.58 3.704s9.254-3.27 9.32-4.038c.1-.768.165-3.905.165-3.905l-.89-.935s-8.595 3.271-10.209 5.173z"/></mask><g mask="url(#d)"><path fill="#de5d2b" fill-rule="evenodd" d="M17.851 53.26c.165-.133.857-1.535 1.252-1.468s2.075.234 5.105-.534c2.997-.734 4.248-1.402 4.248-1.402s.23 3.438-2.14 4.272c-2.372.835-8.596-.734-8.432-.867" clip-rule="evenodd"/></g><path fill="#ec632e" fill-rule="evenodd" d="M26.286 61.804c.23 1.202 2.14 14.118 4.249 11.849.691-.734.856-3.972.856-3.972.066-3.404-1.12-5.574-1.482-5.774-.692-.4-2.931-1.702-3.623-2.103" clip-rule="evenodd"/><mask id="e" width="6" height="13" x="26" y="61" maskUnits="userSpaceOnUse" style="mask-type:luminance"><path fill="#fff" d="M30.531 73.652c.692-.734.857-3.972.857-3.972.066-3.404-1.12-5.574-1.482-5.774-.692-.4-2.931-1.702-3.623-2.103.23 1.202 2.14 14.119 4.248 11.849"/></mask><g mask="url(#e)"><path fill="#de5d2b" fill-rule="evenodd" d="M28.887 72.985c.197-.1 1.482-1.168 1.68-3.004s-1.021-4.005-1.021-4.005l2.535 1.769s1.153 2.736.231 4.405c-.955 1.67-3.26 1.569-3.26 1.569s-.363-.667-.165-.734" clip-rule="evenodd"/></g><path fill="#251f1c" fill-rule="evenodd" d="M27.934 69.882c.724 2.703 1.646 4.806 2.601 3.771.428-.467.659-1.936.758-2.97-.297.233-.626.333-.857.066-.46-.467-.856-.934-1.185-.634-.23.2-.857-.066-1.318-.267" clip-rule="evenodd"/><path fill="#ff6183" fill-rule="evenodd" d="M30.34 72.985c-.066-.3-.527-1.201-2.174-1.435-1.877-.267-4.775 3.204-2.569 3.504 2.8.368 6.488-.2 6.521-.667 0-.4-.066-.6-.329-.701-.264-.067-1.383.167-1.35.067s-.1-.768-.1-.768" clip-rule="evenodd"/><mask id="f" width="9" height="5" x="24" y="71" maskUnits="userSpaceOnUse" style="mask-type:luminance"><path fill="#fff" d="M25.597 75.055c2.8.367 6.488-.2 6.521-.668 0-.4-.066-.6-.33-.7-.13-.034-.46 0-.757.032-.329.034-.625.1-.592 0 .032-.1-.1-.767-.1-.767-.065-.3-.526-1.202-2.173-1.435h-.23c-1.878 0-4.48 3.237-2.339 3.504z"/></mask><g mask="url(#f)"><path fill="#fcf5f5" fill-rule="evenodd" d="M24.21 74.254s1.549.4 4.019.334c2.47-.067 4.084-.668 4.084-.668l-.132 1.101s-5.006 1.168-6.455.668c-1.482-.5-1.515-1.435-1.515-1.435" clip-rule="evenodd"/></g><path fill="#ec632e" fill-rule="evenodd" d="M45.355 62.739c-.23 1.201-2.14 14.118-4.248 11.848-.66-.734-.857-3.972-.857-3.972-.066-3.437 1.12-5.574 1.482-5.774.692-.4 2.931-1.702 3.623-2.102" clip-rule="evenodd"/><mask id="g" width="6" height="13" x="40" y="62" maskUnits="userSpaceOnUse" style="mask-type:luminance"><path fill="#fff" d="M41.732 64.841c-.363.2-1.548 2.37-1.483 5.774 0 0 .165 3.238.857 3.972 2.075 2.27 4.018-10.647 4.248-11.848-.691.4-2.93 1.702-3.623 2.102"/></mask><g mask="url(#g)"><path fill="#de5d2b" fill-rule="evenodd" d="M42.194 72.318c-.165-.134-1.153-1.502-.89-3.338.264-1.836 1.977-3.605 1.977-3.605l-2.898 1.068s-1.812 2.37-1.285 4.206c.494 1.835 2.767 2.336 2.767 2.336s.526-.534.329-.667" clip-rule="evenodd"/></g><path fill="#251f1c" fill-rule="evenodd" d="M43.608 71.217c-.724 2.503-1.58 4.372-2.503 3.404-.56-.6-.757-2.803-.823-3.638q.148-.15.296 0c.33.4.692.701.89.4.197-.333.691-1.201 1.185-.567.264.367.659.434.955.434" clip-rule="evenodd"/><path fill="#ec632e" fill-rule="evenodd" d="M30.536 43.18c-.362 1.837-3.096 3.672-4.446 13.518-2.173 15.754 19.827 16.989 20.222 1.168.164-7.309-4.973-14.518-4.973-14.518z" clip-rule="evenodd"/><path fill="#827670" fill-rule="evenodd" d="M33.928 44.782s-3.393 5.407-4.743 7.61-3.26 6.842-3.293 6.742c0-.1-.264-2.27-.132-3.605s2.865-7.643 3.92-9.111c1.053-1.469 4.215-1.636 4.215-1.636z" clip-rule="evenodd"/><path fill="#faf6cf" fill-rule="evenodd" d="M32.776 68.68c2.173.668 4.545.6 6.685-.2 2.24-2.203 3.755-6.442 3.755-11.315 0-7.142-3.228-12.916-7.213-12.916s-7.212 5.774-7.212 12.916 1.613 9.38 3.952 11.515" clip-rule="evenodd"/><path fill="#827670" fill-rule="evenodd" d="M38.9 44.015s2.536 5.874 3.557 8.243 2.207 7.243 2.24 7.143.593-2.203.658-3.538-1.712-8.01-2.535-9.612-3.92-2.27-3.92-2.27z" clip-rule="evenodd"/><path fill="#ec632e" fill-rule="evenodd" d="M30.766 22.788c-.494-1.402-3.03-4.473-6.85-5.875s-4.446-1.502-4.446-1.502c-.89 3.905 4.15 10.347 8.234 10.948zm11.756 0c.494-1.402 3.03-4.473 6.85-5.875s4.446-1.502 4.446-1.502c.89 3.905-4.15 10.347-8.233 10.948z" clip-rule="evenodd"/><path fill="#f9f1a9" fill-rule="evenodd" d="M44.597 21.853c.263-.401 2.305-2.137 4.479-3.038s2.536-.968 2.536-.968-.23 1.903-1.515 3.705c-1.318 1.802-3.491 2.937-3.491 2.937z" clip-rule="evenodd"/><mask id="h" width="8" height="8" x="44" y="17" maskUnits="userSpaceOnUse" style="mask-type:luminance"><path fill="#fff" d="M49.075 18.815c-2.174.9-4.216 2.636-4.48 3.037l2.01 2.636s2.173-1.134 3.49-2.937 1.516-3.704 1.516-3.704-.396.066-2.536.967"/></mask><g mask="url(#h)"><path fill="#faf6cf" fill-rule="evenodd" d="M43.937 21.852c.263-.4 2.305-2.136 4.479-3.038 2.173-.9 2.536-.968 2.536-.968s-.23 1.903-1.515 3.705c-1.318 1.803-3.491 2.937-3.491 2.937z" clip-rule="evenodd"/></g><path fill="#251f1c" fill-rule="evenodd" d="M52.698 18.983c.23-2.403-2.009-2.27-4.215-1.703.263-.133.56-.233.856-.333 3.82-1.402 4.446-1.502 4.446-1.502.362 1.602-.263 3.604-1.416 5.474.099-.568.23-1.269.296-1.936" clip-rule="evenodd"/><path fill="#f9f1a9" fill-rule="evenodd" d="M28.693 21.853c-.263-.401-2.305-2.137-4.479-3.038s-2.535-.968-2.535-.968.23 1.903 1.514 3.705c1.318 1.802 3.491 2.937 3.491 2.937z" clip-rule="evenodd"/><mask id="i" width="8" height="8" x="21" y="17" maskUnits="userSpaceOnUse" style="mask-type:luminance"><path fill="#fff" d="M23.197 21.551c1.317 1.803 3.49 2.937 3.49 2.937l2.01-2.636c-.264-.4-2.306-2.136-4.48-3.038-2.173-.9-2.535-.968-2.535-.968s.23 1.903 1.515 3.705"/></mask><g mask="url(#i)"><path fill="#faf6cf" fill-rule="evenodd" d="M29.356 21.852c-.264-.4-2.306-2.136-4.48-3.038-2.173-.9-2.535-.968-2.535-.968s.23 1.903 1.515 3.705c1.317 1.803 3.49 2.937 3.49 2.937z" clip-rule="evenodd"/></g><path fill="#f9f1a9" fill-rule="evenodd" d="M36.596 18.382c-16.697.3-10.044 17.422-18.805 18.957 6.455 11.081 31.156 11.081 37.61 0-8.76-1.568-2.14-18.657-18.805-18.957" clip-rule="evenodd"/><mask id="j" width="39" height="28" x="17" y="18" maskUnits="userSpaceOnUse" style="mask-type:luminance"><path fill="#fff" d="M17.792 37.339c6.455 11.08 31.155 11.08 37.61 0-8.76-1.569-2.14-18.657-18.805-18.958-16.698.3-10.045 17.423-18.806 18.958"/></mask><g mask="url(#j)"><path fill="#faf6cf" fill-rule="evenodd" d="M36.597 16.979c-16.698.3-10.045 18.824-18.806 20.36 6.258 9.345 30.431 9.712 37.611 0-8.76-1.57-2.14-20.093-18.805-20.36" clip-rule="evenodd"/></g><path fill="#493118" fill-rule="evenodd" d="M36.564 40.344v1.201c0 .034 0 .067.066.067.033 0 .066 0 .066-.067v-1.201c0-.4 0-.067-.066-.067s-.066 0-.066.067" clip-rule="evenodd"/><path fill="#493118" fill-rule="evenodd" d="M33.664 41.412s1.318.768 1.779.868c.197.033.428-.034.658-.167a4 4 0 0 0 .56-.467v-.1h-.099s-.23.233-.526.433c-.165.1-.363.2-.527.167-.428-.1-1.746-.834-1.746-.834h-.099z" clip-rule="evenodd"/><path fill="#493118" fill-rule="evenodd" d="M39.428 41.278s-1.285.734-1.746.834c-.164.034-.362-.033-.527-.166-.296-.167-.526-.434-.526-.434h-.1v.133s.264.267.56.467c.231.134.462.234.66.167.46-.1 1.778-.867 1.778-.867.033 0 .066-.067 0-.1 0-.034-.066-.067-.1 0" clip-rule="evenodd"/><path fill="#ec632e" fill-rule="evenodd" d="M36.596 18.115c-13.667.234-11.691 11.882-15.347 16.988 1.35-.367 3.195-.634 5.467-.4 5.072.467 9.353 4.606 9.353 4.606l.494.6.494-.6s4.282-4.139 9.354-4.606c2.305-.2 4.117.067 5.467.4-3.656-5.073-1.68-16.754-15.347-16.988" clip-rule="evenodd"/><path fill="#634521" fill-rule="evenodd" d="M35.87 37.64h1.448a1.26 1.26 0 0 1 1.252 1.268v.2a1.26 1.26 0 0 1-1.252 1.269H35.87a1.26 1.26 0 0 1-1.251-1.269v-.2c0-.7.56-1.268 1.251-1.268" clip-rule="evenodd"/><mask id="k" width="5" height="4" x="34" y="37" maskUnits="userSpaceOnUse" style="mask-type:luminance"><path fill="#fff" d="M35.866 37.64a1.26 1.26 0 0 0-1.252 1.268v.2c0 .702.56 1.269 1.252 1.269h1.449a1.26 1.26 0 0 0 1.251-1.268v-.2a1.26 1.26 0 0 0-1.251-1.269z"/></mask><g mask="url(#k)"><path fill="#755127" fill-rule="evenodd" d="M35.903 37.206h1.45a1.26 1.26 0 0 1 1.25 1.268v.2a1.26 1.26 0 0 1-1.25 1.269h-1.45a1.26 1.26 0 0 1-1.251-1.269v-.2c0-.701.56-1.268 1.251-1.268" clip-rule="evenodd"/></g><path fill="#986933" d="M36.4 38.007h1.053c.264 0 .461.2.461.467a.453.453 0 0 1-.46.468H36.4a.453.453 0 0 1-.462-.468c0-.267.198-.467.462-.467"/><path fill="#251f1c" fill-rule="evenodd" d="M20.59 18.983c-.231-2.404 2.008-2.27 4.215-1.703a7 7 0 0 0-.857-.333c-3.853-1.436-4.478-1.536-4.478-1.536-.363 1.602.263 3.605 1.416 5.474-.1-.567-.23-1.268-.297-1.936" clip-rule="evenodd"/><path fill="#ff6183" fill-rule="evenodd" d="M40.582 72.985c.066-.3.527-1.201 2.174-1.435 1.877-.267 4.776 3.204 2.569 3.504-2.8.368-6.488-.2-6.521-.667 0-.4.066-.6.33-.701.263-.067 1.383.167 1.35.067s.098-.768.098-.768" clip-rule="evenodd"/><mask id="l" width="9" height="5" x="38" y="71" maskUnits="userSpaceOnUse" style="mask-type:luminance"><path fill="#fff" d="M42.728 71.55c-1.647.234-2.108 1.135-2.174 1.436 0 0-.132.667-.099.767 0 .067-.263 0-.592 0-.297-.033-.626-.067-.758-.033-.263.067-.362.3-.33.7 0 .468 3.722 1.069 6.522.668 2.14-.267-.494-3.504-2.339-3.504h-.23z"/></mask><g mask="url(#l)"><path fill="#fcf5f5" fill-rule="evenodd" d="M46.677 74.253s-1.548.4-4.018.334c-2.47-.067-4.084-.667-4.084-.667l.132 1.101s5.006 1.168 6.455.668c1.482-.501 1.515-1.436 1.515-1.436" clip-rule="evenodd"/></g><path fill="#fae3c1" fill-rule="evenodd" d="M29.318 36.439c1.547.267 2.766.7 2.7 1.034s-1.35.367-2.898.134c-1.548-.234-2.767-.701-2.7-1.035.065-.3 1.35-.367 2.897-.133m14.622 0c-1.548.267-2.767.7-2.701 1.034s1.35.367 2.898.134c1.548-.234 2.767-.701 2.7-1.035-.065-.3-1.35-.367-2.898-.133" clip-rule="evenodd"/><path fill="#fff1c9" fill-rule="evenodd" d="m3.035 23.12 9.88 3.706-.79 4.539-4.117 1.168z" clip-rule="evenodd"/><mask id="m" width="10" height="10" x="3" y="23" maskUnits="userSpaceOnUse" style="mask-type:luminance"><path fill="#fff" d="m8.007 32.532 4.117-1.168.79-4.54-9.88-3.704z"/></mask><g fill-rule="evenodd" clip-rule="evenodd" mask="url(#m)"><path fill="#fff5d9" d="m1.849 25.724 1.185-2.604 5.797 7.677.724 1.668s-1.745 1.402-1.943 1.502c-.164.1-5.796-8.243-5.796-8.243"/><path fill="#ffe69d" d="m3.989 20.884-.955 2.236 8.2 4.84 2.965-.835-5.632-5.674z"/></g><path fill="#ff6183" fill-rule="evenodd" d="m8.01 32.534.032-.034c.429-.5.725-1.101.824-1.702.56-.167 1.12-.534 1.548-1.035.46-.534.757-1.168.823-1.802a3.45 3.45 0 0 0 1.647-1.068l.033-.033 40.31 35.646a3.8 3.8 0 0 1 1.285 2.603c.066 1.001-.263 2.002-.922 2.737a3.72 3.72 0 0 1-2.569 1.301 3.64 3.64 0 0 1-2.7-.934z" clip-rule="evenodd"/><mask id="n" width="47" height="44" x="8" y="26" maskUnits="userSpaceOnUse" style="mask-type:luminance"><path fill="#fff" d="M12.884 26.86a3.45 3.45 0 0 1-1.647 1.068 3.6 3.6 0 0 1-.823 1.802c-.428.5-.988.868-1.548 1.035-.099.6-.362 1.168-.824 1.702l-.032.033 40.31 35.646a3.68 3.68 0 0 0 2.701.934 3.72 3.72 0 0 0 2.57-1.301 3.795 3.795 0 0 0-.363-5.34L12.917 26.826z"/></mask><g mask="url(#n)"><path fill="#f08686" d="m4.866 27.31-2.988 3.471 47.774 42.236 2.988-3.47z"/><path fill="#f15476" fill-rule="evenodd" d="m10.051 21.319 1.186 6.642L54.94 66.944l2.898-3.371z" clip-rule="evenodd"/></g><path fill="#7b3047" fill-rule="evenodd" d="m51.02 60.503 2.207 1.97a3.8 3.8 0 0 1 1.285 2.603c.066 1-.264 2.002-.922 2.737a3.72 3.72 0 0 1-2.57 1.301 3.64 3.64 0 0 1-2.7-.934l-2.206-1.97z" clip-rule="evenodd"/><mask id="o" width="9" height="10" x="46" y="60" maskUnits="userSpaceOnUse" style="mask-type:luminance"><path fill="#fff" d="m46.077 66.244 2.206 1.97a3.68 3.68 0 0 0 2.7.934 3.72 3.72 0 0 0 2.57-1.302 3.795 3.795 0 0 0-.362-5.34l-2.207-1.97z"/></mask><g mask="url(#o)"><path fill="#a23f5e" fill-rule="evenodd" d="m47.104 57.065 3.194 2.803a5.504 5.504 0 0 1 .527 7.71c-.955 1.102-2.272 1.77-3.688 1.87a5.32 5.32 0 0 1-3.92-1.336l-3.194-2.803 7.08-8.21z" clip-rule="evenodd"/></g><path fill="#6e5100" fill-rule="evenodd" d="m3.035 23.12 3.721 1.403-1.844 2.136z" clip-rule="evenodd"/><path fill="#f6b500" d="m49.718 59.367-4.914 5.71 1.29 1.14 4.915-5.709z"/><path fill="#ffc41e" d="m48.306 61.01-2.273 2.64 1.29 1.142 2.273-2.641z"/><path fill="#ec632e" fill-rule="evenodd" d="M42.458 45.116c.922-.166 1.58.034 2.24.3 1.613.702 2.601 2.404 3.886 4.607 1.811 3.104.197 4.606-3.195 6.107-3.36 1.502-2.14-1.201-1.712-2.37.46-1.167 1.877-1.835 1.877-1.835-.758-2.17-1.91-4.472-3.03-6.508 0-.067-.033-.267-.066-.3" clip-rule="evenodd"/><mask id="p" width="9" height="13" x="41" y="45" maskUnits="userSpaceOnUse" style="mask-type:luminance"><path fill="#fff" d="M42.362 45.084c0 .066.066.2.099.267 1.086 2.036 1.81 4.773 2.568 6.942 0 0-3.392 1.535-3.853 2.737-.461 1.201 0 3.504 3.392 2.002 3.36-1.501 5.797-3.905 3.985-7.009-1.284-2.202-2.272-3.905-3.886-4.606-.527-.233-1.12-.333-1.778-.333z"/></mask><g mask="url(#p)"><path fill="#de5d2b" fill-rule="evenodd" d="m41.767 46.185 1.284.567 2.899 5.307-1.384.868-.329.467z" clip-rule="evenodd"/></g><path fill="#ec632e" fill-rule="evenodd" d="M23.946 46.618c-.197.133-3.227.801-4.94 3.237-1.383 1.97-1.218 3.572.56 4.34s2.997.834 4.644-1.47c1.647-2.302 2.437-4.138 1.811-4.705s-2.075-1.402-2.075-1.402" clip-rule="evenodd"/><path fill="#251f1c" fill-rule="evenodd" d="M22.103 47.286c.132-.434-.428-2.17-.23-2.47.197-.334 1.054.233 1.614-.835s1.745-1.301 2.272-1.034c.593.3.264 1.368.395 1.435.165.134.955-.667 1.45-.4.757.367.428 1.668.428 1.635 0 0 1.02 0 1.02 1.235s-1.152.901-2.272 2.002c-1.12 1.102-1.58 2.537-2.207 3.572-.164.267-.296-1.169-.592-1.402-.527-.4-1.614.3-2.042-.167-.56-.6.296-1.168.131-1.435-.23-.4-1.053.067-1.35-.334-.23-.3 0-.934.395-1.235.363-.267.988-.567.988-.567m21.378 5.774c-.362.167-2.009-.133-2.305.067s.329.901-.593 1.535c-.922.601-1.021 1.669-.725 2.103.33.467 1.285.1 1.35.2.132.134-.493.901-.23 1.335.428.634 1.58.2 1.548.167 0 0 .099.901 1.219.768 1.12-.134 1.91-1.736 2.799-2.837.922-1.102 1.219-1.235 1.811-2.036.1-.167.264-.734.033-1.001-.131-.167-.691.1-.889-.034-.165-.133.099-.7-.066-.834-.263-.2-.922.066-1.251 0-.165-.034 0-.601-.1-.668-.164-.133-.493.167-.658.167-.197 0-2.042 1.135-2.042 1.135" clip-rule="evenodd"/><path fill="#251f1c" d="M42.392 38.808c-2.536-.567-4.446-3.07-4.48-6.04 0-3.372 2.47-6.075 5.534-6.042 3.062 0 5.532 2.804 5.565 6.175 0 1.635-.56 3.17-1.613 4.305-1.054 1.135-2.437 1.77-3.92 1.736a4 4 0 0 1-1.086-.134m2.041-11.314q-.494-.1-.987-.1c-2.734 0-4.94 2.403-4.94 5.407s2.239 5.473 4.972 5.473a4.62 4.62 0 0 0 3.491-1.568 5.7 5.7 0 0 0 1.45-3.839c0-2.636-1.713-4.84-3.985-5.373M28.656 38.675c-1.054-.234-2.042-.835-2.832-1.702a6.45 6.45 0 0 1-1.647-4.34c0-1.635.56-3.17 1.614-4.305 1.053-1.135 2.437-1.769 3.919-1.735 1.482 0 2.865.667 3.919 1.835a6.45 6.45 0 0 1 1.647 4.34c0 3.37-2.47 6.074-5.533 6.04-.363 0-.758-.033-1.087-.133m2.042-11.315c-.33-.066-.659-.1-.988-.133a4.62 4.62 0 0 0-3.491 1.568 5.7 5.7 0 0 0-1.45 3.839c0 1.435.528 2.837 1.45 3.871.955 1.035 2.173 1.602 3.524 1.636 2.733 0 4.94-2.403 4.94-5.407 0-1.435-.527-2.837-1.45-3.872-.691-.767-1.58-1.301-2.535-1.502"/><path fill="#251f1c" d="M34.815 34.47c-.033 0-.066 0-.131-.067-.132-.1-.165-.334-.066-.468.46-.734 1.185-1.135 1.976-1.135s1.515.434 1.976 1.169c.099.133.066.367-.066.467s-.33.067-.395-.067c-.363-.567-.89-.868-1.482-.868-.593 0-1.153.3-1.482.835-.066.1-.198.167-.297.133"/><path fill="#fff" fill-rule="evenodd" d="M42.03 35.437c-1.252 0-2.24-1.034-2.24-2.27 0-1.234 1.021-2.27 2.24-2.27 1.218 0 2.24 1.036 2.24 2.27 0 1.236-1.022 2.27-2.24 2.27" clip-rule="evenodd"/><path fill="#474749" fill-rule="evenodd" d="M42.559 34.002c.724 0 1.284-.6 1.284-1.302 0-.7-.593-1.301-1.284-1.301s-1.285.6-1.285 1.301.593 1.302 1.285 1.302" clip-rule="evenodd"/><path fill="#fff" fill-rule="evenodd" d="M43.114 32.333a.368.368 0 0 0 0-.734.368.368 0 0 0 0 .734m-12.05 2.904c-1.251 0-2.24-1.034-2.24-2.27 0-1.234 1.022-2.269 2.24-2.269s2.24 1.035 2.24 2.27-1.021 2.27-2.24 2.27" clip-rule="evenodd"/><path fill="#474749" fill-rule="evenodd" d="M31.656 33.835c.724 0 1.284-.6 1.284-1.302 0-.7-.593-1.301-1.284-1.301s-1.285.6-1.285 1.301.593 1.302 1.285 1.302" clip-rule="evenodd"/><path fill="#fff" fill-rule="evenodd" d="M32.216 32.167a.368.368 0 0 0 0-.735.368.368 0 0 0 0 .735" clip-rule="evenodd"/><path fill="#251f1c" fill-rule="evenodd" d="M40.612 29.697s2.306 0 2.932.133c.197.034.889.334.889.134.066-.835-2.503-1.536-3.425-1.068-.593.3-.824.834-.396.8m-8.299-.233s-2.306-.1-2.932 0c-.197 0-.889.267-.922.1 0-.834 2.57-1.401 3.458-.9.593.3.758.867.363.834z" clip-rule="evenodd"/></g><defs><clipPath id="a"><path fill="#fff" d="M1.85 15.411h85.069v60.411H1.849z"/></clipPath></defs></svg>