<svg xmlns="http://www.w3.org/2000/svg" width="132" height="132" fill="none" viewBox="0 0 132 132"><g clip-path="url(#a)"><path fill="url(#b)" d="M94.968 111.279v-3.15h-.607v-.97h26.085c.485 0 .849.364.849.848v3.393a.83.83 0 0 1-.849.849H94.361v-.97z"/><path fill="#398191" d="M120.446 107.159h-11.889v5.09h11.889a.83.83 0 0 0 .85-.849v-3.393a.83.83 0 0 0-.85-.848" opacity=".3" style="mix-blend-mode:multiply"/><path fill="#398191" d="M119.96 111.279H95.574v-3.15h24.386c.364 0 .606.242.606.605v2.06c0 .364-.242.606-.606.606z" opacity=".3" style="mix-blend-mode:multiply"/><path fill="#ceb6aa" d="M119.233 111.279H94.847v-3.15h24.386c.364 0 .607.242.607.605v2.06c0 .364-.243.606-.607.606z"/><path fill="#ceb6aa" d="M108.072 108.007H94.969v3.151h13.103z"/><path fill="#ffe6d6" d="M108.072 108.007H94.969v3.151h13.103z"/><path fill="#b29b93" d="M107.586 108.007h11.768c.243 0 .486.243.486.485v.727c0-.242-.243-.485-.486-.485h-11.768z"/><path fill="#ceb6aa" d="M108.072 108.007H94.969v.727h13.103z"/><path fill="url(#c)" d="M125.663 114.309v-1.455h.606v-.605H91.086c-.486 0-.85.242-.85.727v1.454c0 .363.364.727.85.727h35.183v-.606h-.606z"/><path fill="#a0335d" d="M91.45 112.855h33.607v1.454H91.45c-.364 0-.606-.243-.606-.606v-.364c0-.363.242-.606.606-.606z" opacity=".3" style="mix-blend-mode:multiply"/><path fill="#ffe6d6" d="M92.056 112.855h33.606v1.454H92.056c-.364 0-.607-.243-.607-.606v-.364c0-.363.243-.606.607-.606z"/><path fill="#a0335d" d="M126.149 112.854v-.605h-17.835v2.787h17.835v-.606h-.607v-1.454h.607z" opacity=".3" style="mix-blend-mode:multiply"/><path fill="#ceb6aa" d="M125.662 112.854H108.07v1.455h17.592z"/><path fill="#ceb6aa" d="M125.662 112.854H108.07v1.455h17.592z"/><path fill="#ceb6aa" d="M108.556 112.854h-16.5c-.243 0-.486.243-.486.485v.727c0-.242.243-.484.486-.484h16.5z"/><path fill="#b29b93" d="M125.662 112.854H108.07v.728h17.592z"/><path fill="url(#d)" d="M126.634 120.731v-4.605h.849v-1.333H90.237c-.607 0-1.214.485-1.214 1.212v4.847c0 .606.486 1.212 1.214 1.212h37.246v-1.333z"/><path fill="#9e4435" d="M90.843 116.248h34.699v4.604H90.843a.83.83 0 0 1-.849-.848v-2.908c0-.485.364-.848.85-.848" opacity=".3" style="mix-blend-mode:multiply"/><path fill="#ffe6d6" d="M91.935 116.248h34.699v4.604H91.935a.83.83 0 0 1-.85-.848v-2.908a.83.83 0 0 1 .85-.848"/><path fill="#9e4435" d="M127.362 116.248v-1.333h-18.926v7.149h18.926v-1.333h-.849v-4.605h.849z" opacity=".3" style="mix-blend-mode:multiply"/><path fill="#ceb6aa" d="M126.512 116.248h-18.563v4.604h18.563z"/><path fill="#ceb6aa" d="M126.512 116.248h-18.563v4.604h18.563z"/><path fill="#ceb6aa" d="M108.678 116.248H91.814c-.364 0-.728.363-.728.727v1.09c0-.363.364-.727.728-.727h16.864z"/><path fill="#b29b93" d="M126.512 116.248h-18.563v1.09h18.563z"/><path fill="#a69b9b" d="M99.215 122.064H58.33c-.728 0-1.213-.727-1.092-1.333l9.1-35.384c0-.363.364-.606.727-.606h40.887c.728 0 1.213.727 1.091 1.333l-9.099 35.384c0 .364-.364.606-.728.606"/><path fill="url(#e)" d="M98.366 122.064H57.48c-.728 0-1.214-.727-1.092-1.333l9.099-35.384c0-.363.364-.606.728-.606H107.1c.728 0 1.213.727 1.092 1.333l-9.1 35.384c0 .364-.363.606-.727.606"/><path fill="#fff4ee" d="m99.094 116.127 7.764-30.053H66.7l-7.643 30.053z"/><path fill="url(#f)" d="m106.252 88.619.606-2.545H66.7l-.606 2.545z"/><path fill="url(#g)" d="M98.608 111.401h-36.64l4.853-18.904h36.64z"/><path fill="#ddc4b6" d="M92.3 91.527H67.065l.485-1.817h25.356zm5.822 21.812h-36.64l.243-.848h36.518zm-.484 1.697H61.119l.243-.848H97.88z"/><path fill="#ddccc1" d="M72.89 96.859c0 .242 0 .485-.122.606v.606c0-.243 0-.485.121-.606zm.484 0c0 .363-.243.848-.243 1.212h.121c0-.364.122-.849.243-1.212zm.122 1.091s.243 0 .243.12a.26.26 0 0 1-.243.243v.121h.485s.122-.12 0-.12h-.485v.12c.243 0 .485-.12.485-.363 0-.121-.12-.364-.364-.243zm24.749 4.604c0 .243 0 .485-.122.606v.606c0-.242 0-.485.122-.606zm.484.121c0 .364-.243.849-.243 1.212h.122c0-.363.121-.848.242-1.212zm.123 1.091s.242 0 .242.121-.12.243-.242.243v.121h.485s.121-.121 0-.121h-.485v.121c.242 0 .485-.121.485-.364 0-.121-.121-.363-.364-.242zm-29.117 3.999c0 .242 0 .485-.121.606v.606c0-.242 0-.485.12-.606zm.485.121c0 .364-.243.848-.243 1.212h.12c0-.364.122-.848.244-1.212zm.12 1.091s.242 0 .242.121-.12.242-.242.242v.122h.485s.121-.122 0-.122h-.485v.122c.242 0 .485-.121.485-.364 0-.121-.121-.363-.364-.242zm-3.275-8.483c0 .242 0 .485-.121.606v.606c0-.242 0-.485.121-.606zm.485 0c0 .364-.243.848-.243 1.212h.121c0-.364.121-.848.243-1.212zm16.744 0c0 .242 0 .485-.122.606v.606c0-.242 0-.485.121-.606zm.484 0c0 .364-.243.848-.243 1.212h.121c0-.364.122-.848.243-1.212zm-17.106 1.091s.242 0 .242.121-.121.242-.242.242v.122h.485s.121-.122 0-.122h-.485v.122c.242 0 .485-.122.485-.364 0-.121-.121-.363-.364-.242zm5.095-2.787c-.364 0-.728.485-.728.848 0 .364.243.606.607.364-.607.363-.607-.849 0-.97zm17.228-1.818c0 .242 0 .485-.122.606v.606c0-.243 0-.485.122-.606zm.484 0c0 .364-.243.848-.243 1.212h.122c0-.364.121-.848.242-1.212zm-.483 1.818c-.364 0-.728.485-.728.848 0 .364.242.606.606.364-.606.363-.606-.849 0-.97zm-19.291 7.271c-.364 0-.728.484-.728.848 0 .363.242.606.606.363-.606.364-.606-.848 0-.969zm16.501 1.696c0 .242 0 .485-.122.606v.606c0-.242 0-.485.122-.606zm.484.121c0 .364-.243.848-.243 1.212h.122c0-.364.12-.848.242-1.212zm.485-1.817c-.364 0-.728.484-.728.848 0 .363.243.606.607.363-.607.364-.607-.848 0-.969zm-19.17-5.575c-.364 0-.728.485-.728.848 0 .364.243.606.607.364-.607.363-.607-.848 0-.97zm16.865 0c-.364 0-.727.485-.727.848 0 .364.242.606.606.364-.606.363-.606-.848 0-.97zm-2.668 3.878c0 .242 0 .485-.122.606v.606c0-.242 0-.485.122-.606zm.484 0c0 .364-.243.848-.243 1.212h.122c0-.364.121-.848.242-1.212zm1.093 0c-.364 0-.728.485-.728.848 0 .364.242.606.606.364-.606.363-.606-.848 0-.97zm-18.806-.242c0 .242 0 .484-.121.606v.605c0-.242 0-.484.121-.605zm.485.121c0 .363-.243.848-.243 1.212h.121c0-.364.121-.849.243-1.212zm8.615-.122c0 .243 0 .485-.122.606v.606c0-.242 0-.485.122-.606zm.484.121c0 .364-.243.849-.243 1.212h.122c0-.363.121-.848.242-1.212zm-8.977 1.091s.243 0 .243.121a.26.26 0 0 1-.243.243v.121h.485s.122-.121 0-.121h-.485v.121c.243 0 .485-.121.485-.364 0-.121-.121-.363-.364-.242zm1.334-1.09c-.365 0-.728.485-.728.848 0 .364.242.606.606.364-.606.363-.606-.848 0-.97zm6.552 0c-.364 0-.728.485-.728.848 0 .364.243.606.607.364-.607.363-.607-.848 0-.97zm-4.003-3.999c-.364.121-.728.242-.97.485.363 0 .727-.364.97-.485m17.105 0c-.364.121-.728.242-.97.485.364 0 .728-.364.97-.485m1.942 5.574c-.364.121-.728.242-.97.485.363 0 .727-.364.97-.485m.242.485c.364-.121.728-.242.97-.485-.363 0-.727.243-.97.485m-17.592-.121c-.364.121-.728.242-.97.485.363 0 .727-.364.97-.485m-4.125-.606c.243.242.485.364.85.485.242.121.485.363.727.484-.121-.242-.485-.363-.728-.484-.242-.121-.606-.364-.849-.485m17.35 0c.242.242.485.363.85.484.242.122.484.364.727.485-.121-.242-.485-.363-.728-.485-.242-.121-.606-.363-.85-.484M73.13 99.888c.244.243.486.364.85.485.243.121.485.363.728.485-.121-.243-.485-.364-.728-.485s-.606-.364-.85-.485m17.472 0c.242.243.485.364.85.485.242.121.484.364.727.485-.121-.242-.485-.364-.728-.485s-.606-.363-.85-.485m1.215 1.333c-.243-.242-.486-.363-.85-.484-.242-.122-.485-.364-.728-.485.122.242.486.363.728.485.243.121.607.363.85.484m-23.781 2.788c.243-.606.485-1.212.485-1.818-.242.606-.364 1.212-.485 1.818m15.895 0c.242-.606.485-1.212.485-1.818-.243.606-.364 1.212-.485 1.818m.605 0c.243-.606.486-1.212.486-1.818-.243.606-.365 1.212-.486 1.818m7.401 0c.242-.606.485-1.212.485-1.818-.243.606-.364 1.212-.486 1.818m-16.134 1.575v.242c.122 0 .243.242 0 .364h-.242c0 .242.364 0 .485 0 .121-.243 0-.485-.121-.485v.121c.364 0 .364-.485 0-.485zm.363-5.211c0 .242 0 .485-.121.606v.606c0-.243 0-.485.121-.606zm.485 0c0 .364-.243.848-.243 1.212h.121c0-.364.122-.848.243-1.212zm-1.091 0c-.364 0-.728.485-.728.848 0 .364.243.606.607.364-.607.363-.607-.848 0-.97zm17.835.242c0 .243 0 .485-.121.606v.606c0-.242 0-.485.12-.606zm.606 0c0 .364-.243.848-.243 1.212h.121c0-.364.122-.848.243-1.212zm-1.091 0c-.364 0-.728.485-.728.848 0 .364.242.606.606.364-.606.364-.606-.848 0-.969zm-.607 3.757c0 .242 0 .485-.121.606v.606c0-.242 0-.485.121-.606zm.606 0c0 .364-.243.848-.243 1.212h.121c0-.364.122-.848.243-1.212zm-1.091.121c-.364 0-.728.485-.728.848 0 .364.243.606.607.364-.607.363-.607-.848 0-.969zm-14.923-2.787v.243c.121 0 .243.242 0 .363h-.243c0 .242.364 0 .486 0 .121-.242 0-.485-.122-.485v.122c.364 0 .364-.485 0-.485zm.848 2.06h4.732v-.121c-.122-.121-.243-.243-.364 0 0 0-.122 0-.243-.121.607.242-.364 0-.607 0H77.62c-.85 0 0 .121 0 .121z"/><path fill="#ddccc1" d="M82.595 103.766s-.243 0-.364.121c0 0-.121 0-.243.122 0 0 .122 0 .243-.122 0 0 .243 0 .243-.242zm13.345-1.212c-.121.364-.242.848-.364 1.212h.122c.12-.364.242-.848.364-1.212zm1.334.364v.485h.121v-.485z"/><path fill="#ddccc1" d="M97.152 103.403h.364s.122-.122 0-.122h-.364z"/><path fill="#ddccc1" d="M97.516 103.039c0 .242-.122.485-.122.727h.122c0-.242 0-.485.121-.727zm-18.926-8.24c0 .242 0 .484-.121.606v.606c0-.243 0-.485.121-.606zm.485 0c0 .363-.243.848-.243 1.212h.121c0-.364.122-.849.243-1.212zm-1.455 0c-.363 0-.727.484-.727.848s.242.606.606.364c-.606.363-.606-.849 0-.97zm8.857 0c0 .242 0 .484-.121.606v.606c0-.243 0-.485.121-.606zm.485 0c0 .363-.243.848-.243 1.212h.121c0-.364.121-.849.243-1.212zm.122 1.211s.242 0 .242.122a.26.26 0 0 1-.242.242v.121h.485s.121-.12 0-.12h-.485v.12c.242 0 .485-.12.485-.363 0-.121-.121-.364-.364-.243zm-2.427-.969c0 .242-.121.485-.243.727h.122c0-.242.12-.485.242-.727zm.849.122v.484h.121v-.484z"/><path fill="#ddccc1" d="M85.385 95.647h.364s.121-.12 0-.12h-.364z"/><path fill="#ddccc1" d="M85.87 95.284c0 .242-.122.484-.122.727h.121c0-.243 0-.485.122-.727zm-6.31.726v.364h.122v-.363z"/><path fill="#ddccc1" d="M79.44 96.374h.243s.12-.12 0-.12h-.364zm.363-.242c0 .242-.121.485-.121.606h.121z"/><path fill="#ddccc1" d="M79.319 96.01c0 .243-.122.486-.122.607h.122zm-1.334 0c-.485 0-.607.728-.121.728.12 0 .364-.121.364-.364 0-.12-.364-.242-.486 0h.243v.122h-.121v-.243l.242-.242zm5.216-1.211c0 .242 0 .484-.12.606v.606c0-.243 0-.485.12-.606zm.485 0c0 .363-.243.848-.243 1.212h.121c0-.364.122-.849.243-1.212zm-1.698 0c-.364 0-.728.484-.728.848s.242.606.606.364c-.606.363-.606-.849 0-.97zm.486 1.211c-.486 0-.607.728-.122.728.121 0 .364-.122.364-.364 0-.121-.364-.242-.485 0h.243v.121h-.122v-.242l.243-.243zm1.577 0c-.485 0-.606.728-.121.728.121 0 .364-.121.364-.364 0-.12-.364-.242-.485 0h.242v.122h-.121v-.243l.243-.242z"/><path fill="#fff" d="M106.01 86.56H67.186l-7.522 29.082z" opacity=".2" style="mix-blend-mode:screen"/><path fill="#a69b9b" d="M99.215 122.065H64.031v-2.182h36.155z"/><path fill="#d9cbcb" d="M63.667 119.883H22.053a.97.97 0 0 0-.971.969v.243a.97.97 0 0 0 .97.969h41.615a.97.97 0 0 0 .97-.969v-.243a.97.97 0 0 0-.97-.969"/><path fill="#544140" d="M51.656 119.883H33.942a.364.364 0 0 0-.364.364v.242c0 .201.163.363.364.363h17.714a.363.363 0 0 0 .364-.363v-.242a.364.364 0 0 0-.364-.364m24.264.848h-5.095a.243.243 0 0 0-.243.243v.121c0 .134.109.242.243.242h5.095a.24.24 0 0 0 .243-.242v-.121a.243.243 0 0 0-.243-.243m6.916.001h-5.095a.24.24 0 0 0-.243.242v.121c0 .134.109.243.243.243h5.095a.243.243 0 0 0 .243-.243v-.121a.24.24 0 0 0-.243-.242m16.014.242c0 .363-.243.606-.607.606s-.606-.243-.606-.606c0-.364.242-.606.606-.606s.607.242.607.606m-75.1-22.782v-5.21h-2.304v5.21c0 .243.242.364.485.485.364.121.85.121 1.213 0 .243-.121.485-.364.485-.485z"/><path fill="#463332" d="M21.446 92.981v.97h1.577v3.877c0 .122-.243.364-.486.364-.242 0-.727.121-.97 0 0 0-.122 0-.243-.121 0 .121.243.363.485.484.364.122.85.122 1.214 0 .242-.12.485-.363.485-.484v-5.21h-2.305z" opacity=".3" style="mix-blend-mode:multiply"/><path fill="#544140" d="M19.262 97.707c0-.12 2.183-4.726 2.183-4.726l-2.062-.969s-2.062 4.484-2.184 4.726c0 .121 0 .485.243.727.242.242.728.485 1.092.485s.606 0 .728-.243"/><path fill="#463332" d="m19.383 92.012-.364.727v.121c.364.243.607.364.97.606.122 0 .365.121.486.243-.364.848-1.577 3.392-1.699 3.514 0 .12-.242.242-.606.242-.243 0-.728-.242-.85-.364 0 0 0-.12-.12-.242 0 .121 0 .364.242.606s.728.485 1.092.485.606 0 .728-.243c0 0 1.092-2.423 1.82-3.756a5.4 5.4 0 0 0 .363-.97z" opacity=".3" style="mix-blend-mode:multiply"/><path fill="#544140" d="M27.996 96.738c0-.121-2.183-4.726-2.183-4.726l-2.063.97s2.063 4.483 2.184 4.726c0 .12.364.242.728.242s.849-.242 1.092-.485c.242-.242.364-.484.242-.727"/><path fill="#463332" d="m23.75 92.982.364.727v.12c.364 0 .728-.241 1.092-.363.121 0 .242-.12.485-.242.364.848 1.577 3.393 1.699 3.514 0 .121 0 .364-.243.606s-.607.485-.85.364h-.242c0 .12.364.12.607.242.364 0 .849-.242 1.092-.485.242-.242.364-.484.242-.727 0 0-1.092-2.423-1.82-3.756a5.4 5.4 0 0 1-.363-.97z" opacity=".3" style="mix-blend-mode:multiply"/><path fill="#544140" d="m36.222 77.836-4.964 1.602.783 2.421 4.964-1.602z"/><path fill="#463332" d="m36.612 79.288-.486-1.454-.364.121.486 1.454-3.519 1.212-.485-1.575-.97.363.485 1.454.242.97 4.975-1.575z" opacity=".3" style="mix-blend-mode:multiply"/><path fill="#544140" d="M24.965 110.067H19.99v4.242h4.975z"/><path fill="#463332" d="M23.023 110.067v1.818H19.99v.848h4.975v-2.666z" opacity=".3" style="mix-blend-mode:multiply"/><path fill="#544140" d="M19.868 112.249h5.338c.121 0 .364.121.364.363v2.06h-5.945v-2.06c0-.121.121-.363.364-.363z"/><path fill="#463332" d="M22.537 112.249h2.67c.12 0 .363.121.363.363v2.06h-2.912v-2.302z" opacity=".3" style="mix-blend-mode:multiply"/><path fill="#544140" d="M16.836 108.614c.364 0 .606-.243.606-.606v-4.847h-.97c-.364 0-.607.242-.607.606v4.847z"/><path fill="#544140" d="M15.985 103.403H14.53v10.3h1.456z"/><path fill="#463332" d="M15.987 103.403h-.243v10.3h.243z" opacity=".3" style="mix-blend-mode:multiply"/><path fill="#d9cbcb" d="M10.89 99.767h2.79a.83.83 0 0 1 .85.849v13.208h-3.64z"/><path fill="#a69b9b" d="M13.802 99.767h-.728c.364 0 .728.364.728.727v13.209h.728v-13.209c0-.363-.364-.727-.728-.727" opacity=".6" style="mix-blend-mode:multiply"/><path fill="#d9cbcb" d="M7.129 114.067v-11.755c0-9.573 1.092-16.117 12.01-16.238v3.878c-4.852 0-7.036 2.666-7.036 12.603v11.512z"/><path fill="#a69b9b" d="M11.011 102.191v11.875H7.13h4.974v-11.512c0-9.815 2.184-12.602 7.037-12.602v-.727c-6.066.12-8.129 3.15-8.129 12.966" opacity=".6" style="mix-blend-mode:multiply"/><path fill="#544140" d="M22.538 93.466c2.01 0 3.64-.76 3.64-1.696 0-.937-1.63-1.697-3.64-1.697s-3.64.76-3.64 1.697 1.63 1.696 3.64 1.696"/><path fill="#463332" d="M22.538 90.073h-.85c1.578 0 2.791.727 2.791 1.454s-1.334 1.212-2.911 1.091c-1.456 0-2.67-.606-2.67-1.212v.364c0 .848 1.578 1.696 3.64 1.696s3.64-.727 3.64-1.696c0-.97-1.577-1.697-3.64-1.697" opacity=".3" style="mix-blend-mode:multiply"/><path fill="#544140" d="M30.544 101.706H14.529v1.818h16.015z"/><path fill="#fff7e6" d="M30.544 101.706H14.529v.485h16.015z" opacity=".3" style="mix-blend-mode:screen"/><path fill="#544140" d="M5.432 120.853s0 1.211.849 1.211c.85 0 .728-1.211.728-1.211zm28.39 0s0 1.211.85 1.211c.849 0 .728-1.211.728-1.211z"/><path fill="#463332" d="M11.618 110.189a3.395 3.395 0 0 0 3.397-3.393 3.395 3.395 0 0 0-3.397-3.393 3.395 3.395 0 0 0-3.397 3.393 3.395 3.395 0 0 0 3.397 3.393" opacity=".3" style="mix-blend-mode:multiply"/><path fill="#d9cbcb" d="M4.824 119.398h31.302s-1.578-4.968-13.467-6.059c-11.647-1.09-15.894-.484-16.743.364-1.092 1.212-1.092 5.695-1.092 5.695"/><path fill="#544140" d="M4.824 119.519v.849c0 .363.243.605.607.605h30.088c.364 0 .607-.242.607-.605v-.849z"/><path fill="#a69b9b" d="M17.807 86.074v2.909c0 .363 0 .605.121.969h1.213v-3.878z" opacity=".6" style="mix-blend-mode:multiply"/><path fill="#544140" d="M14.166 106.432a3 3 0 0 1-3.033 3.03 3 3 0 0 1-3.033-3.03 3 3 0 0 1 3.033-3.029 3 3 0 0 1 3.033 3.029"/><path fill="#d9cbcb" d="M22.537 92.254c-2.184 0-3.883-.97-3.883-3.15v-3.03h7.765v3.03c0 2.18-1.698 3.15-3.882 3.15"/><path fill="#a69b9b" d="M24.48 86.074v2.424c0 1.575-1.335 2.908-2.912 2.908s-2.548-.97-2.79-2.302c0 2.06 1.698 3.15 3.882 3.15 2.183 0 3.882-.97 3.882-3.15v-3.03z" opacity=".6" style="mix-blend-mode:multiply"/><path fill="#544140" d="m30.753 78.675-4.502 1.453a.485.485 0 0 0-.313.61l.97 2.998a.485.485 0 0 0 .61.313l4.503-1.453a.485.485 0 0 0 .313-.61l-.97-2.998a.485.485 0 0 0-.61-.313"/><path fill="#463332" d="m32.365 82.075-.607-1.817c0 .484-.243 1.09-.85 1.211l-3.154.97-.849-2.545-.85.242c-.242 0-.363.243-.242.485l.97 3.15v.364l.607-.242.728-.242 3.761-1.212c.243 0 .364-.243.243-.485z" opacity=".3" style="mix-blend-mode:multiply"/><path fill="#d9cbcb" d="m27.755 84.742-.85.969h-9.098s0-3.393.97-4.12 7.158-2.06 7.158-2.06l1.699 5.21z"/><path fill="#544140" d="M26.783 85.71h-9.1v.606h9.1z"/><path fill="#a69b9b" d="M25.935 79.41s-.364 0-.849.242l1.577 4.725-.849.97h-8.007v.364h9.099l.85-.97-1.7-5.21z" opacity=".6" style="mix-blend-mode:multiply"/><path fill="#463332" d="M17.32 103.403h-2.79v1.454h2.79z" opacity=".3" style="mix-blend-mode:multiply"/><path fill="#544140" d="m36.747 80.436.577-.187-.895-2.767-.577.186z"/><path fill="#463332" d="m36.911 80.422.577-.186-.447-1.384-.577.186zm-25.415 22.981c1.213.242 2.063 1.333 2.063 2.666s-1.213 2.666-2.67 2.666c-1.455 0-2.183-.727-2.547-1.818.242 1.454 1.456 2.424 2.912 2.424s3.033-1.333 3.033-3.03-1.214-2.787-2.67-3.029z" opacity=".3" style="mix-blend-mode:multiply"/><path fill="#fff7e6" d="M12.711 106.432c0 .849-.728 1.576-1.577 1.576-.85 0-1.577-.727-1.577-1.576 0-.848.728-1.575 1.577-1.575.85 0 1.577.727 1.577 1.575" opacity=".5" style="mix-blend-mode:screen"/><path fill="#463332" d="M11.132 107.886c-.85 0-1.577-.727-1.577-1.575s.728-1.575 1.577-1.575c.85 0 1.577.727 1.577 1.575s-.121.727-.364.969c.243-.242.486-.727.486-1.09 0-.849-.728-1.697-1.699-1.697-.97 0-1.698.727-1.698 1.697 0 .969.728 1.696 1.698 1.696s.485 0 .728-.121c-.243 0-.364.121-.607.121zm4.125-6.18h-.728v1.818h.728zM26.783 85.71H23.63v.606h3.154z" opacity=".3" style="mix-blend-mode:multiply"/><path fill="#fff7e6" d="M13.438 87.77c.242.485-1.456 1.212-2.67 3.272-2.062 3.272-1.82 4.726-2.426 4.605-.485 0 0-2.787 1.213-4.968 1.092-1.818 3.64-3.514 4.004-2.908zm8.857-6.664c.242.363-.728.848-1.699 1.212-.849.242-1.698.363-1.82.12-.242-.363.607-.847 1.456-1.211.85-.364 1.82-.485 2.063-.121M6.158 114.43c-.12.727 2.306.848 4.49.727 2.062 0 3.882-.485 4.003-.849.121-.605-1.941-.969-4.246-.848-2.063 0-4.247.364-4.368.97zm9.344-.243c-.122.485.606.727 1.334.727.607 0 1.213-.121 1.335-.363.121-.364-.486-.727-1.213-.848-.607 0-1.335 0-1.456.484" opacity=".5" style="mix-blend-mode:screen"/><path fill="#fff7e6" d="M8.707 105.221c0 .242.486-.485 1.335-.849.85-.484 1.456-.363 1.456-.605 0-.243-.97-.243-1.699.121-.728.363-1.213 1.09-1.213 1.333z" opacity=".3" style="mix-blend-mode:screen"/><path fill="#fff7e6" d="M20.111 87.044c.97 0 1.092 2.544 0 2.666-.97 0-.97-2.545 0-2.666m-1.334-4.12c.485 0 .243 1.575-.242 1.454-.607 0-.243-1.576.242-1.454" opacity=".5" style="mix-blend-mode:screen"/><path fill="#fff7e6" d="M20.475 110.31v1.333s.849-.243.849-.728c0-.484-.85-.605-.85-.605m1.335-15.874v3.514s.485-.485.485-1.697-.485-1.817-.485-1.817m-2.912-.97-1.456 3.151s.607-.242 1.214-1.333c.485-1.09.242-1.818.242-1.818m5.823.727 1.457 3.15s.242-.605-.243-1.817c-.485-1.09-1.213-1.454-1.213-1.454zm6.31-15.268-3.397 1.09s.728.606 1.941.121c1.213-.363 1.456-1.332 1.456-1.332zm4.368-.606-2.79.848s.485.364 1.577 0c1.091-.364 1.213-.97 1.213-.97z" opacity=".3" style="mix-blend-mode:screen"/><path fill="#a69b9b" d="M25.449 113.824c1.82.606 4.004 1.697 2.548 3.03-2.184 1.817-19.048 1.333-23.052 1.211v1.455h31.302s-1.335-4.12-10.677-5.696z" opacity=".6" style="mix-blend-mode:multiply"/><path fill="url(#h)" d="M59.54 115.642c-.97-2.06-4.852-9.573-4.852-9.573v-5.09h.242c1.214 0 1.092-1.332 0-1.332h-4.61c-1.092 0-1.213 1.332 0 1.332h.243v5.09s-3.883 7.513-4.853 9.573c-1.699 3.514-.85 6.423 6.794 6.423s8.492-2.788 6.794-6.423zm-.242 3.878c-.728 1.212-3.033 1.818-6.552 1.818-3.64 0-5.823-.606-6.672-1.818-.486-.848-.486-2.06.364-3.636.97-2.06 4.731-9.451 4.853-9.573v-5.332c0-.363-.243-.605-.607-.605h-.243 4.61-.242c-.364 0-.607.242-.607.605v5.332s3.883 7.513 4.853 9.573q1.093 2.364.364 3.636z"/><path fill="url(#i)" d="M52.747 121.459c-3.64 0-5.824-.606-6.673-1.818-.485-.848-.485-2.06.364-3.635.97-2.06 4.732-9.452 4.853-9.574v-5.331c0-.364-.243-.606-.607-.606h-.242 4.61-.243c-.364 0-.606.242-.606.606v5.331s3.882 7.514 4.853 9.574q1.092 2.363.364 3.635c-.728 1.212-3.034 1.818-6.552 1.818z" opacity=".5"/><path fill="url(#j)" d="M58.692 115.4H46.681c0 .242-.243.363-.243.606q-1.092 2.363-.364 3.635c.728 1.212 3.034 1.818 6.673 1.818q5.46 0 6.552-1.818c.485-.848.485-2.06-.364-3.635 0-.121-.122-.364-.243-.606"/><path fill="#987fc9" d="M51.777 118.551a.83.83 0 0 1-.85.848.83.83 0 0 1-.849-.848.83.83 0 0 1 .85-.849.83.83 0 0 1 .849.849m-4.004-1.455q0 .364-.364.364t-.364-.364.364-.363.364.363m7.766.122q0 .363-.364.363t-.364-.363q-.001-.364.364-.364.364 0 .364.364m1.939 2.787q0 .363-.364.363t-.364-.363q0-.364.364-.364t.364.364m-8.978.242a.364.364 0 1 0 .001-.728.364.364 0 0 0 0 .728m6.066-.242c0 .363-.243.606-.607.606s-.606-.243-.606-.606c0-.364.242-.606.606-.606s.607.242.607.606m4.246-2.181c0 .363-.243.606-.607.606s-.606-.243-.606-.606c0-.364.242-.606.606-.606s.607.242.607.606" opacity=".7" style="mix-blend-mode:screen"/><path fill="#987fc9" d="M59.055 116.006c0-.121-.121-.364-.243-.606h-12.01c0 .242-.243.363-.243.606h12.617z" opacity=".8" style="mix-blend-mode:screen"/><path fill="#398191" d="M59.54 115.642c-.97-2.06-4.852-9.573-4.852-9.573v-5.09h.242c1.214 0 1.092-1.332 0-1.332h-1.334c.242.363.242.727-.97.848-2.063 0-2.791 0-3.155-.243 0 .364.242.727.849.727h2.426v5.211c0 .97 3.761 7.998 3.761 11.876s-8.735 2.787-10.433.848c-.97-1.212-.486-2.545-.364-3.393-1.699 3.514-.85 6.422 6.794 6.422s8.492-2.787 6.794-6.422z" opacity=".3" style="mix-blend-mode:multiply"/><path fill="#fff7e6" d="M51.29 109.583c1.456.364-2.062 6.301-2.911 6.18-1.214-.242 1.577-6.544 2.911-6.18m-3.397 6.907c.97.364-.243 2.424-.728 2.181-.728-.363 0-2.423.728-2.181" opacity=".6" style="mix-blend-mode:screen"/><path fill="url(#k)" d="M40.25 121.459a8.95 8.95 0 0 1-8.978-8.967c0-4.969 3.033-7.877 7.158-8.725.242 0 .485-.364.485-.606v-7.513c0-.364-.243-.606-.607-.606-.242 0-.485-.121-.485-.485s0-.606 2.184-.606h.728c1.82 0 1.82.121 1.82.606s-.243.485-.486.485c-.364 0-.606.242-.606.606v7.513c0 .242.242.484.485.606 4.125.848 7.158 4.483 7.158 8.725 0 4.241-4.004 8.967-8.978 8.967z" opacity=".5"/><path fill="url(#l)" d="M42.07 103.282v-7.513s1.092 0 1.092-1.09-1.092-1.213-2.912-1.213-2.911 0-2.911 1.212 1.092 1.09 1.092 1.09v7.514c-4.368.848-7.644 4.726-7.644 9.331s4.246 9.573 9.585 9.573c5.338 0 9.584-4.242 9.584-9.573s-3.276-8.483-7.643-9.331zm-1.82 18.298a8.95 8.95 0 0 1-8.978-8.967c0-4.969 3.034-7.877 7.159-8.725.242 0 .485-.364.485-.606v-7.513c0-.364-.243-.606-.607-.606-.242 0-.485-.121-.485-.485 0-.363 0-.606 2.184-.606h.728c1.82 0 1.82.121 1.82.606s-.243.485-.486.485c-.364 0-.606.242-.606.606v7.513c0 .242.242.485.485.606 4.125.848 7.158 4.483 7.158 8.725 0 4.241-4.004 8.967-8.978 8.967z"/><path fill="#398191" d="M42.07 103.282v-7.513s1.092 0 1.092-1.09-.728-1.091-1.941-1.213c0 .122.243.364.243.606 0 .849-3.155.849-4.125.485 0 1.09 1.092 1.09 1.092 1.09h1.82v8.12c0 .848 5.823 2.06 5.823 8.482 0 6.423-5.824 7.028-7.4 7.028-1.578 0-7.402-1.211-7.887-7.876v1.09c0 5.211 4.246 9.574 9.585 9.574 5.338 0 9.584-4.242 9.584-9.574s-3.276-8.482-7.643-9.33z" opacity=".3" style="mix-blend-mode:multiply"/><path fill="url(#m)" d="M31.272 112.37v.242a8.953 8.953 0 0 0 8.977 8.968 8.953 8.953 0 0 0 8.978-8.968v-.242z"/><path fill="#ffe675" d="M38.915 116.369a.83.83 0 0 1-.85.849.83.83 0 0 1-.848-.849c0-.484.364-.848.849-.848s.85.364.85.848m7.886.969a.83.83 0 0 1-.85.849.83.83 0 0 1-.849-.849.83.83 0 0 1 .85-.848c.485 0 .849.364.849.848m-4.005.243c0 .364-.242.606-.606.606s-.607-.242-.607-.606.243-.606.607-.606.606.242.606.606m-6.793.969c0 .364-.242.606-.606.606s-.607-.242-.607-.606c0-.363.243-.606.607-.606s.606.243.606.606m4.731-4.241a.364.364 0 1 0 0-.727.364.364 0 0 0 0 .727m-1.578 5.211a.364.364 0 1 0 0-.728.364.364 0 0 0 0 .728m-6.672-3.514a.364.364 0 1 0 0-.728.364.364 0 0 0 0 .728m10.675 4.241a.364.364 0 1 0 .001-.728.364.364 0 0 0 0 .728m1.699-5.574c0 .242-.243.484-.486.484s-.485-.242-.485-.484c0-.243.242-.485.485-.485s.485.242.485.485m2.911-.485q0 .363-.363.363-.364 0-.364-.363 0-.364.364-.364t.364.364m-12.01.606q0 .363-.364.363-.363 0-.364-.363 0-.364.364-.364t.364.364" opacity=".8" style="mix-blend-mode:screen"/><path fill="#ffe675" d="M49.106 112.976v-.727H31.271v.727z"/><path fill="#aa2424" d="M49.108 112.37h-3.155c-.364 4.363-3.518 6.907-7.28 6.907-3.76 0-7.036-2.544-7.279-6.907v.242a8.953 8.953 0 0 0 8.979 8.968 8.953 8.953 0 0 0 8.977-8.968v-.242z" opacity=".2" style="mix-blend-mode:multiply"/><path fill="#fff7e6" d="M39.038 105.826c3.033 2.303-3.276 5.938-4.853 4.726-2.548-1.817 2.305-6.786 4.853-4.726m-5.338 5.817c1.94.121.849 3.151 0 3.029-1.457-.121-1.457-3.15 0-3.029" opacity=".6" style="mix-blend-mode:screen"/></g><defs><linearGradient id="b" x1="107.828" x2="107.828" y1="107.038" y2="112.249" gradientUnits="userSpaceOnUse"><stop stop-color="#80d5c9"/><stop offset=".8" stop-color="#56acb3"/><stop offset="1" stop-color="#49a0ad"/></linearGradient><linearGradient id="c" x1="108.192" x2="108.192" y1="112.127" y2="115.036" gradientUnits="userSpaceOnUse"><stop stop-color="#eb5d84"/><stop offset="1" stop-color="#bf2f56"/></linearGradient><linearGradient id="d" x1="108.193" x2="108.193" y1="114.793" y2="122.185" gradientUnits="userSpaceOnUse"><stop stop-color="#ffe675"/><stop offset="1" stop-color="#e57830"/></linearGradient><linearGradient id="e" x1="78.599" x2="78.599" y1="83.893" y2="120.853" gradientUnits="userSpaceOnUse"><stop stop-color="#544140"/><stop offset=".5" stop-color="#503d3c"/><stop offset="1" stop-color="#463332"/></linearGradient><linearGradient id="f" x1="65.883" x2="105.76" y1="87.286" y2="79.886" gradientUnits="userSpaceOnUse"><stop stop-color="#80d5c9"/><stop offset=".8" stop-color="#56acb3"/><stop offset="1" stop-color="#49a0ad"/></linearGradient><linearGradient id="g" x1="85.319" x2="85.319" y1="92.254" y2="111.401" gradientUnits="userSpaceOnUse"><stop stop-color="#544140"/><stop offset=".5" stop-color="#503d3c"/><stop offset="1" stop-color="#463332"/></linearGradient><linearGradient id="h" x1="52.746" x2="52.746" y1="99.768" y2="122.065" gradientUnits="userSpaceOnUse"><stop stop-color="#80d5c9"/><stop offset=".8" stop-color="#56acb3"/><stop offset="1" stop-color="#49a0ad"/></linearGradient><linearGradient id="i" x1="52.747" x2="52.747" y1="100.373" y2="121.459" gradientUnits="userSpaceOnUse"><stop stop-color="#80d5c9"/><stop offset=".8" stop-color="#56acb3"/><stop offset="1" stop-color="#49a0ad"/></linearGradient><linearGradient id="j" x1="52.747" x2="52.747" y1="115.4" y2="121.459" gradientUnits="userSpaceOnUse"><stop stop-color="#987fc9"/><stop offset=".3" stop-color="#937bc4"/><stop offset=".5" stop-color="#8672b7"/><stop offset=".8" stop-color="#7163a1"/><stop offset="1" stop-color="#60578f"/></linearGradient><linearGradient id="k" x1="40.249" x2="40.249" y1="94.194" y2="121.459" gradientUnits="userSpaceOnUse"><stop stop-color="#80d5c9"/><stop offset=".8" stop-color="#56acb3"/><stop offset="1" stop-color="#49a0ad"/></linearGradient><linearGradient id="l" x1="40.25" x2="40.25" y1="93.588" y2="122.065" gradientUnits="userSpaceOnUse"><stop stop-color="#80d5c9"/><stop offset=".8" stop-color="#56acb3"/><stop offset="1" stop-color="#49a0ad"/></linearGradient><linearGradient id="m" x1="40.249" x2="40.249" y1="112.37" y2="121.458" gradientUnits="userSpaceOnUse"><stop stop-color="#ffe675"/><stop offset="1" stop-color="#e57830"/></linearGradient><clipPath id="a"><path fill="#fff" d="M0 12C0 5.373 5.373 0 12 0h108c6.627 0 12 5.373 12 12v108c0 6.627-5.373 12-12 12H12c-6.627 0-12-5.373-12-12z"/></clipPath></defs></svg>