<svg xmlns="http://www.w3.org/2000/svg" width="132" height="132" fill="none" viewBox="0 0 132 132"><g clip-path="url(#a)"><path fill="url(#b)" d="M88.875 88.292h14v15.945h-14.75V88.92c0-.377.375-.753.75-.753z"/><path fill="#9e4435" d="M88.875 88.292h14v15.945h-14.75V88.92c0-.377.375-.753.75-.753z" opacity=".3" style="mix-blend-mode:multiply"/><path fill="#9e4435" d="M102.875 89.297v-1.005h-14c-.375 0-.75.377-.75.754v.25z" opacity=".3" style="mix-blend-mode:multiply"/><path fill="url(#c)" d="M103.125 103.985h1.5v.252h.875V88.92a.94.94 0 0 0-.875-.628H103c-.375 0-.75.251-.75.628v15.442h1v-.251z"/><path fill="#ceb6aa" d="M103.125 103.985V89.799c0-.251 0-.377.375-.377h.5c.25 0 .5.251.5.377v14.186z"/><path fill="#ceb6aa" d="M104.5 89.799H103l.125 14.187h1.5z"/><path fill="#ffe6d6" d="M104 89.297h-.5c-.25 0-.5.25-.5.376v14.312h1.625V89.673c0-.25-.375-.376-.625-.376"/><path fill="#ceb6aa" d="M103.75 90.427c0-.252-.25-.377-.5-.377H103v-.251c0-.251.25-.377.5-.377h.5c.25 0 .5.251.5.377v14.312h-.625V90.552z"/><path fill="url(#d)" d="M80 85.405h16.5v18.832H79.125V86.284c0-.503.375-.88.875-.88"/><path fill="#60578f" d="M80 85.405h16.5v18.832H79.125V86.284c0-.503.375-.88.875-.88" opacity=".5" style="mix-blend-mode:multiply"/><path fill="#60578f" d="M96.5 86.66v-1.255H80c-.5 0-.875.376-.875.879v.25H96.5z" opacity=".3" style="mix-blend-mode:multiply"/><path fill="url(#e)" d="M96.75 103.986h3.375v.251h1V86.158c-.125-.377-.5-.753-1-.753H96.5c-.5 0-.875.376-.875.753v18.079h1.125z"/><path fill="#ceb6aa" d="M96.75 103.985V87.162c-.125-.25 0-.502.375-.502h2.25c.25 0 .5.251.5.502v16.823h-3.25z"/><path fill="#ceb6aa" d="M100 87.162h-3.375l.125 16.823h3.375z"/><path fill="#ffe6d6" d="M99.375 86.66h-2.25c-.25 0-.5.251-.5.502v16.823h3.5V87.162c-.125-.25-.375-.502-.75-.502"/><path fill="#ceb6aa" d="M99.125 87.916c0-.251-.25-.503-.625-.503h-2v-.25c0-.252.25-.503.5-.503h2.25c.25 0 .5.251.5.502v16.823H99v-16.07z"/><path fill="url(#f)" d="M80.75 108.882v-3.516h-.625v-1.004H109c.5 0 .875.377.875.879v3.766a.857.857 0 0 1-.875.879H80.125v-1.004z"/><path fill="#398191" d="M109 104.237H95.875v5.649H109c.5 0 .875-.377.875-.879v-3.766a.857.857 0 0 0-.875-.879z" opacity=".3" style="mix-blend-mode:multiply"/><path fill="#398191" d="M108.625 108.756h-27v-3.515h27c.25 0 .5.251.5.502v2.385c0 .251-.25.503-.5.503z" opacity=".3" style="mix-blend-mode:multiply"/><path fill="#ceb6aa" d="M107.75 108.756h-27v-3.515h27c.25 0 .5.251.5.502v2.385c0 .251-.25.503-.5.503z"/><path fill="#ceb6aa" d="M95.125 105.366H80.75v3.516h14.375z"/><path fill="#ffe6d6" d="M95.125 105.366H80.75v3.516h14.375z"/><path fill="#b29b93" d="M94.625 105.366h13c.375 0 .625.252.625.628v.879c0-.377-.25-.628-.625-.628h-13z"/><path fill="#ceb6aa" d="M95.125 105.366H80.75v.754h14.375z"/><path fill="url(#g)" d="M114.75 112.272v-1.632h.625v-.754h-39c-.5 0-.875.377-.875.754v1.506c0 .377.375.753.875.753h39v-.753h-.625z"/><path fill="#a0335d" d="M76.75 110.639H114v1.632H76.75c-.25 0-.5-.251-.5-.502v-.502c0-.251.25-.502.5-.502z" opacity=".3" style="mix-blend-mode:multiply"/><path fill="#ffe6d6" d="M77.5 110.639h37.25v1.632H77.5c-.25 0-.5-.251-.5-.502v-.502c0-.251.25-.502.5-.502z"/><path fill="#a0335d" d="M115.375 110.64v-.754h-19.75v3.013h19.75v-.753h-.625v-1.632h.625z" opacity=".3" style="mix-blend-mode:multiply"/><path fill="#ceb6aa" d="M114.625 110.639H95.25v1.632h19.375z"/><path fill="#ceb6aa" d="M114.625 110.639H95.25v1.632h19.375z"/><path fill="#ceb6aa" d="M95.75 110.639H77.5c-.25 0-.5.251-.5.503v.753c0-.251.25-.502.5-.502h18.25z"/><path fill="#b29b93" d="M114.625 110.639H95.25v.754h19.375z"/><path fill="url(#h)" d="M115.75 119.428v-5.022h.875v-1.507H75.5c-.75 0-1.25.628-1.25 1.256v5.398c0 .753.625 1.256 1.25 1.256h41.125v-1.507h-.875z"/><path fill="#9e4435" d="M76.125 114.406h38.5v5.022h-38.5c-.375 0-.75-.377-.75-.754v-3.515c0-.377.375-.753.75-.753" opacity=".3" style="mix-blend-mode:multiply"/><path fill="#ffe6d6" d="M77.25 114.406h38.5v5.022h-38.5c-.375 0-.75-.377-.75-.754v-3.515c0-.377.375-.753.75-.753"/><path fill="#9e4435" d="M116.625 114.406v-1.507h-21v8.035h21v-1.506h-.875v-5.022z" opacity=".3" style="mix-blend-mode:multiply"/><path fill="#ceb6aa" d="M115.75 114.406H95.125v5.022h20.625z"/><path fill="#ceb6aa" d="M115.75 114.406H95.125v5.022h20.625z"/><path fill="#ceb6aa" d="M95.875 114.406H77.25c-.5 0-.875.376-.875.879v1.129c0-.502.375-.878.875-.878h18.625z"/><path fill="#b29b93" d="M98.875 118.549h10.5s-.625 0-1.625.125h-8.875zm16.875-4.143H95.125v1.13h20.625z"/><path fill="url(#i)" d="M60 37.07h27.625c3.125 0 5.625 2.51 5.625 5.65v72.69c0 3.139-2.5 5.65-5.625 5.65H60c-3.125 0-5.625-2.511-5.625-5.65V42.72c0-3.14 2.5-5.65 5.625-5.65"/><path fill="#463332" d="M60 37.07h27.625c3.125 0 5.625 2.51 5.625 5.65v72.69c0 3.139-2.5 5.65-5.625 5.65H60c-3.125 0-5.625-2.511-5.625-5.65V42.72c0-3.14 2.5-5.65 5.625-5.65" opacity=".3" style="mix-blend-mode:multiply"/><path fill="#544140" d="M85.375 37.07H57.75c-3.107 0-5.625 2.53-5.625 5.65v72.565c0 3.12 2.518 5.649 5.625 5.649h27.625c3.107 0 5.625-2.529 5.625-5.649V42.719c0-3.12-2.518-5.65-5.625-5.65"/><path fill="url(#j)" d="M85.375 117.796H57.75c-3.5 0-4.25-2.511-4.25-5.65V44.1c0-3.138 1.125-5.65 4.25-5.65h27.625c3.125 0 4.25 2.512 4.25 5.65v68.046c0 3.139-.75 5.65-4.25 5.65"/><path fill="#544140" d="M66.875 38.325c2.75 0 1.5 3.013 4.125 3.013s1.5-3.013 4.125-3.013c0 0-2-.628-4.125-.628s-4.125.628-4.125.628"/><path fill="#463332" d="M72 39.455c0 .502-.5 1.004-1 1.004s-1-.502-1-1.004.5-1.004 1-1.004 1 .502 1 1.004" opacity=".4" style="mix-blend-mode:multiply"/><path fill="#fff4ee" d="M53.5 45.984v66.037c0 3.138.75 5.649 4.25 5.649h27.625c3.5 0 4.25-2.511 4.25-5.649V45.984z"/><path fill="#544140" d="M86.875 50.001h-30.75v25.611h30.75z"/><path fill="#ddc4b6" d="M86.25 74.608H56.625V51.005H86.25z"/><path fill="#fff" d="M84.625 74.608h-28V51.005h28z"/><path fill="#ddc4b6" d="M70.75 51.005h-.625v23.603h.625z"/><path fill="#ddc4b6" d="M85.25 51.005H85v23.603h.25zm.625 0h-.25v23.603h.25z" opacity=".5" style="mix-blend-mode:multiply"/><path fill="#ddc4b6" d="M62.25 52.135h-4.375v5.273h4.375zm6.5 0h-5.625v.628h5.625zm0 1.632h-5.625v.628h5.625zm0 1.507h-5.625v.628h5.625zm0 1.632h-5.625v.628h5.625zm0 1.758H57.875v1.004H68.75zm0 2.26h-3.5v.627h3.5zm-4.25 0h-6.625v.627H64.5zm4.25 1.255h-6.125v.628h6.125zm-6.625 0h-4.25v.628h4.25zm6.625 1.256h-3.5v.627h3.5zm-4.25 0h-6.625v.627H64.5zm4.25 2.008h-3.5v.628h3.5zm-4.25 0h-6.625v.628H64.5zm4.25 1.256h-6.125v.627h6.125zm-6.625 0h-4.25v.627h4.25zm6.625 1.255h-3.5v.628h3.5zm-4.25 0h-6.625v.628H64.5zm4.25 1.883h-3.5v.628h3.5zm-4.25 0h-6.625v.628H64.5zm4.25 1.256h-6.125v.627h6.125zm-6.625 0h-4.25v.627h4.25zm2.375 1.381h-6.625v.627H64.5zm18.75-4.771h-4.375v5.273h4.375zm-5.25 0h-5.625v.628H78zm0 1.507h-5.625v.627H78zm0 1.632h-5.625v.627H78zm0 1.506h-5.625v.628H78zm5.25-20.338H72.375v1.004H83.25zm0 2.26h-3.5v.627h3.5zm-4.125 0h-6.75v.627h6.75zm4.125 1.255h-6.125v.628h6.125zm-6.625 0h-4.25v.628h4.25zm6.625 1.381h-3.5v.628h3.5zm-4.125 0h-6.75v.628h6.75zm4.125 1.884h-3.5v.627h3.5zm-4.125 0h-6.75v.627h6.75zm4.125 1.255h-6.125v.627h6.125zm-6.625 0h-4.25v.627h4.25zM83.25 61.3h-3.5v.628h3.5zm-4.125 0h-6.75v.628h6.75zm4.125 1.883h-3.5v.628h3.5zm-4.125 0h-6.75v.628h6.75zm4.125 1.256h-6.125v.627h6.125zm-6.625 0h-4.25v.627h4.25zm2.5 1.381h-6.75v.628h6.75z"/><path fill="#ceb6aa" d="M70.125 74.608H64.5s3.375-3.39 3.375-11.801c0-8.412-3.375-11.927-3.375-11.927h5.625z" opacity=".3" style="mix-blend-mode:multiply"/><path fill="#ceb6aa" d="m75.25 63.811-2-1.381-1.5 1.13V51.005h3.5z"/><path fill="url(#k)" d="M76 50.503h-4.25v.502H76z"/><path fill="url(#l)" d="m74.875 63.183-1.625-1.13-1.5 1.13v-12.68h3.125z"/><path fill="#ddc4b6" d="M56.125 91.808v-.754H86.5v.754zm0-1.507v-.753H86.5v.753zm0-2.511v-.753H86.5v.753zm0-1.38v-.754H86.5v.753zm0-2.637v-.754H86.5v.754zm0-1.381v-.754H86.5v.754zm0-2.511v-.753H86.5v.753zm0-1.507v-.753H86.5v.753zm.25 34.777v-1.507h23l-.125 1.507zm0 1.757v-.753h15v.753z"/><path fill="#1d2819" d="M86.75 109.886V95.7H56.375v14.186z"/><path fill="#fff4ee" d="M71.625 106.873c-2.25 0-4.125-1.883-4.125-4.143 0-1.13.375-2.134 1.125-2.887s1.75-1.256 2.875-1.256c2.25 0 4.125 1.883 4.125 4.143 0 1.13-.375 2.134-1.125 2.888-.75.753-1.75 1.255-2.875 1.255m0-7.784q-1.5 0-2.625 1.13t-1.125 2.637c0 2.008 1.625 3.641 3.625 3.641s1.875-.377 2.625-1.13q1.125-1.13 1.125-2.637a3.635 3.635 0 0 0-3.625-3.64"/><path fill="#fff4ee" d="M70.5 100.596v4.269l3.125-2.135z"/><path fill="#544140" d="M56.375 108.882v1.004H86.75v-1.004zM86.75 96.704V95.7H56.375v1.004z"/><path fill="#fff" d="M56.5 116.791 88 40.585c-.625-.879-1.625-1.506-3.125-1.506H75.5c-2.5.376-1.25 2.887-4.5 2.887s-1.875-2.51-4.5-2.887h-8.25c-3 0-4.125 2.385-4.125 5.398v67.167c0 2.385.5 4.394 2.375 5.147" opacity=".2" style="mix-blend-mode:screen"/><path fill="url(#m)" d="M38.125 120.558h-21.25C7.5 115.662 5.5 83.396 17.75 80.634 30.125 77.747 31.875 94.695 36 96.328c3.375 1.38 7.375 1.38 8.625 5.649s.625 14.312-6.375 18.581z"/><path fill="#a69b9b" d="M17.75 80.634C14.25 84.401 12 89.674 12 95.45c0 11.299 8.125 20.338 18 20.338s11.625-3.515 14.875-8.914c-.25 4.646-2 10.546-6.875 13.559H16.75c-9.375-4.896-11.375-37.161.875-39.923z" opacity=".4" style="mix-blend-mode:multiply"/><path fill="#a69b9b" d="M22.875 81.89c8.125 0 9.5 13.057 13.125 14.563 1.75.754 3.875 1.13 5.5 1.883 0 .377 0 .754-.25 1.005-2.125 3.515-3.625 4.896-3.625 4.896h-17.25c-4 0-5-4.268-4.875-10.044 0-6.151 2.375-12.303 7.25-12.303zm10.374 22.347s-1.375 9.667 2.5 16.447h2.875l-1.625-15.945z" opacity=".4" style="mix-blend-mode:multiply"/><path fill="#a69b9b" d="M37.498 103.986s1.125 9.416 3.375 14.187c0 0 1-1.005 1.875-2.762.75-1.507-2.875-12.053-2.875-12.053z" opacity=".4" style="mix-blend-mode:multiply"/><path fill="url(#n)" d="M21.5 65.569c-.875 0-1.375-.879-1.375-.879l1 .251s-.75-1.004-.25-1.883c0 0 .25.879.625 1.506 0 0 1-3.013 4.625-2.385 3.25.502 4 1.758 5.125.753 0 0 .75 1.13-.25 2.01 0 0 .375 1.003-.375 1.506 0 0 .625 1.004 0 1.632S21.5 65.569 21.5 65.569"/><path fill="#491d17" d="m21.125 65.067-1-.252s.25.628 1 .754c0 0 .375.627 1.75.627s3-.627 3-.627l4.375 2.762h.625c.625-.628 0-1.632 0-1.632.75-.502.375-1.507.375-1.507 1-1.004.25-2.009.25-2.009s.25 1.256-.75 1.507c-1.125.251-1.25-.628-3.125-.628-2 0-3 1.381-4.5 1.381s-1.75-.753-1.875-2.134c-.5 1.004.25 1.883.25 1.883z" opacity=".3" style="mix-blend-mode:multiply"/><path fill="url(#o)" d="m45.375 114.281-1.625 1.004c.375 1.13.875 3.139 1.25 4.268.25.879 1.125.252 1.125 0-.125-.753-.625-3.64-.75-5.147z"/><path fill="url(#p)" d="M45 119.679v1.13h4c0-.377-.625-.502-1.5-.753-.875-.252-1.375-.754-1.375-.754-.375.879-.75 1.005-1.125.251z"/><path fill="#d2bcad" d="M48.875 120.683H45v.251h4z"/><path fill="url(#q)" d="M45 119.553h-.125l.125 1.13h2.125L47 119.93l-.375-.251c-.25-.126-.375-.377-.5-.377s-.5.502-.75.502-.375-.376-.375-.376z"/><path fill="url(#r)" d="M24 95.7c.25 1.883.625 6.026 2 8.537h19c0-.125 0-5.273-1-6.152-2-1.632-11.5-2.385-11.5-2.385z"/><path fill="url(#s)" d="M43.874 98.085C46 99.592 45.75 111.52 46.624 118.8h-2.5s-4-10.043-4.625-14.814c-.625-4.896 2.25-7.533 4.375-6.026z"/><path fill="#334b72" d="M45.249 118.8c-.25-.502-3.5-6.905-4.125-10.797-.75-4.017.375-9.667 1.875-9.667 1 0 1.5.754 1.75 1.256-.25-.754-.5-1.256-.875-1.507-1.125-.879-4.5-1.506-7.25-1.883-.375 2.636-1 6.528-.875 6.654 0 0 .25.502.5 1.381h3.25c.625 4.771 4.625 14.689 4.625 14.689h1.125z" opacity=".3" style="mix-blend-mode:multiply"/><path fill="url(#t)" d="M18.624 95.7c-.25 2.762.25 6.026 1.25 8.537H39.25s.25-5.398-1.5-6.528S27.5 95.7 27.5 95.7h-8.875"/><path fill="url(#u)" d="M38.625 114.281 37 115.285c.375 1.13.75 3.139 1 4.268.25.879 1.125.252 1.125 0-.125-.753-.5-3.64-.5-5.147z"/><path fill="url(#v)" d="M38 119.679v1.13h3.875c0-.377-.625-.502-1.5-.753-.875-.252-1.375-.754-1.375-.754-.375.879-.75 1.005-1.125.251z"/><path fill="#d2bcad" d="M42 120.683h-4v.251h4z"/><path fill="url(#w)" d="M38 119.553h-.125v1.13H40v-.753l-.375-.251c-.25-.126-.25-.377-.5-.377-.125 0-.5.502-.75.502s-.375-.376-.375-.376z"/><path fill="url(#x)" d="M37.874 97.834c2 1.507 1.25 13.685 1.75 20.966h-2.625s-3.5-10.043-3.875-14.814c-.375-4.896 2.625-7.784 4.625-6.277z"/><path fill="#334b72" d="M38 118.8c-.625-1.632-2.625-7.156-2.875-9.667-.375-3.013.125-5.9-.25-6.277-.375-.502-1.5-.126-3.625-.126-3.5 0-5.875 0-5.875-1.381 0-1.38 1-2.385 5.25-3.013 4.25-.627 7.125 0 7.875.754 0-.252-.25-.503-.375-.628v-.126l-.25-.25h-.125c-1.75-1.13-10.25-2.01-10.25-2.01h-3.25l-5.625 1.005c0 2.51.375 5.398 1.25 7.658H33.25c.375 4.771 3.875 14.563 3.875 14.563h1z" opacity=".3" style="mix-blend-mode:multiply"/><path fill="#ffe6d6" d="M31.126 78.249c-2.5 1.883-1.626 4.52-.75 8.286.75 3.64 1.625 5.775 2.875 6.905 2.25 2.134 9 1.38 12.125 0v-2.134c.125 0-7.25-.377-8.625-1.256s-2.5-9.918-5.625-11.676z"/><path fill="#ecd2bd" d="M31.126 78.249c-2.5 1.883-1.626 4.52-.75 8.286.75 3.64 1.625 5.775 2.875 6.905 2.25 2.134 9 1.38 12.125 0v-2.134c.125 0-7.25-.377-8.625-1.256s-2.5-9.918-5.625-11.676z" opacity=".5" style="mix-blend-mode:multiply"/><path fill="url(#y)" d="M24.5 74.232s-2.5-.754-3.5-4.144c-1-3.264-.625-4.268.625-4.896.875-.376 3.125.502 3.125.502l-.25 8.412z"/><path fill="#491d17" d="M24.625 65.82c-.25 0-2.25-.879-3.125-.502-.125 0-.25.125-.375.25 0 0 .375.629 1.75.629.625 0 1.25-.126 1.75-.252zm-.125.628s-1.25 1.883-2.875 1.506c-.75-.125-1.125-1.13-.875-1.883-.375.879-.375 1.883.25 4.143 1 3.264 3.375 4.017 3.375 4.017V66.7c.125 0 .125-.126.125-.126z" opacity=".3" style="mix-blend-mode:multiply"/><path fill="#ffe6d6" d="M19.5 78.5c1.625-1.757 6-1.632 7.25-1.507 1.5.126 2.75.503 4.375 1.13.875.377 1.5 3.767 1.25 6.78-.375 2.762-1 4.77-1 6.654 0 2.636 1 4.017 1 4.017-6.5.502-11 5.399-14 4.394-.75-4.268-1-9.29-.875-12.052 0-3.515.25-7.784 1.875-9.541z"/><path fill="#fff3ee" d="M30.125 77.747c-1.125-.377-2.125-.628-3.25-.754-.875 0-3.125-.125-5 .252.125.25 1.375 3.013 5 3.013S30 78.75 30.25 77.747z"/><path fill="#ecd2bd" d="M32.5 85.028c-1.625 1.13-4 1.883-6.625 1.883s-6.5-1.255-7.875-3.138c-.125 1.38-.125 2.887-.25 4.143 0 2.762.125 7.784.875 12.052 3 1.004 7.5-3.892 14-4.394 0 0-1.125-1.255-1-4.017 0-1.884.75-3.892 1-6.654z" opacity=".7" style="mix-blend-mode:multiply"/><path fill="url(#z)" d="M23.75 71.72s.75 3.39-.25 5.399c-.25.502 3.5.879 5 .377 0 0-.25-1.381 0-2.888 0-.753-4.625-3.013-4.625-3.013z"/><path fill="url(#A)" d="M28.5 77.245s.5 0 .875.25c0 0-.125 1.884-2.375 1.884-3.375 0-4.375-2.26-4.375-2.26L24 76.868l4.375.377z"/><path fill="#ac6b53" d="M28.375 76.617v-1.883c0-.754-4.625-3.013-4.625-3.013s.75 3.138 0 5.147h-1.125c0 .125.75 1.883 2.875 2.26 1.625-.88 2.625-2.135 2.875-2.762z" opacity=".6" style="mix-blend-mode:multiply"/><path fill="url(#B)" d="M23 70.214c-.876 0-1.126 1.13-.626 1.758.375.628 1.25.879 1.75.628.25-.377-.5-2.26-1.125-2.386"/><path fill="#e48665" d="M22.998 70.968c-.5 0-.5.627-.25.878a.97.97 0 0 0 1 .251s-.5-1.13-.625-1.13z" opacity=".5" style="mix-blend-mode:multiply"/><path fill="#e48665" d="M23 70.214c-.876 0-1.126 1.13-.626 1.758.375.628 1.25.879 1.75.628.25-.377-.5-2.26-1.125-2.386" opacity=".3" style="mix-blend-mode:multiply"/><path fill="url(#C)" d="M23.249 69.586c-.25-1.506 0-3.138 2.125-4.143 2.375-1.13 4.25-.25 4.875 1.256.25.502.5 1.758.625 3.892 0 2.009 0 4.645-2.125 5.147-.875.251-3.5.251-4.625-3.138 0 0-.5-.754-.875-3.14z"/><path fill="#e48665" d="M25.125 72.725c-.875-3.138-.75-5.9-.75-5.9l-1.125 1.004a4.2 4.2 0 0 0 0 1.758c.375 2.385.875 3.138.875 3.138 1.25 3.39 3.75 3.39 4.625 3.139-1.25 0-2.875-.628-3.625-3.139" opacity=".3" style="mix-blend-mode:multiply"/><path fill="#492a21" d="M26.5 70.088c0 .252.25.503.375.503s.25-.251.25-.503c0-.25-.25-.502-.375-.502s-.25.251-.25.502m3.125-.251c0 .251.25.503.375.503s.25-.252.25-.503c0-.25-.25-.502-.375-.502s-.25.251-.25.502"/><path fill="#e48665" d="M28.749 72.348h.25c.125 0 .375 0 .625-.25 0 0 .25-.252.25-.378v-.627s0-.126-.25-.251c0 0-.125 0-.25-.126h-.625s-.125 0-.25-.125c0 0 0-.252-.125-.377v-.753c0-.503.25-.754.25-.754v-.125h-.125s-.25.25-.375.753c0 .251-.125.628 0 .879 0 .125 0 .377.25.502 0 .126.375.377.625.251h.5c0 .126 0 .377-.125.628-.125.125-.375.251-.375.251h-.25z" opacity=".5" style="mix-blend-mode:multiply"/><path fill="url(#D)" d="M29 67.829c0 .25.5.376 1 .627s.75.502.875.377c0-.126.125-.628-.625-1.004-.5-.251-1-.251-1.125.125z"/><path fill="url(#E)" d="M27.25 67.954c0 .251-.5.377-1.124.753-.625.377-.875.628-1 .503-.125 0-.25-.628.625-1.256.625-.377 1.25-.502 1.5 0"/><path fill="url(#F)" d="M25.625 65.443c-2.5 1.632-1 5.775-1.5 5.901-.375 0-.875-.753-1-1.507-.25-1.004-.375-2.636.375-3.515.25-.377 1.875-1.004 2.25-.879z"/><path fill="#491d17" d="M25.25 65.569s.25-.126.25-.251c-.25 0-1.125.25-1.75.627.625 0 1.125-.25 1.5-.376" opacity=".3" style="mix-blend-mode:multiply"/><path fill="#492a21" d="M29.875 73.101s-1.25.126-3.125-.25c0 0 .625 1.13 1.5 1.255 1.125.125 1.625-.879 1.625-.879z"/><path fill="#fff4e9" d="M29.375 73.352c-.375 0-1.25 0-2.25-.25 0 0 .5.753 1.125.753.75 0 1.125-.628 1.125-.628z"/><path fill="#491d17" d="M22.875 67.829c0 .627 0 1.255.125 2.008s.625 1.632 1 1.507c.5-.126-.5-2.888.5-4.896-.125.125-.5.878-1.625 1.255z" opacity=".3" style="mix-blend-mode:multiply"/><path fill="#7e8082" d="M33.624 93.189v.126h-.125c-.125 0 0-.126 0-.126z"/><path fill="#37393c" d="M33.624 93.189c-.125-.377-1.125-1.758-2.625-3.515-1.625-1.884-3-3.39-3.25-3.265-.25.251 1 1.758 2.625 3.641 1.375 1.632 2.625 2.888 3 3.139z"/><path fill="#a7aaaf" d="m30.121 88.623-.57.49.325.38.57-.488z"/><path fill="#a7aaaf" d="M33.123 92.687c-.125-.251-1.375-1.632-2.375-2.888-1.125-1.38-2.5-2.887-2.5-2.762 0 0 1.125 1.632 2.375 3.013 1 1.256 2.375 2.511 2.625 2.763z" opacity=".4" style="mix-blend-mode:screen"/><path fill="#ecd2bd" d="M31.375 92.31h-.25l-6 .628-7.375 1.13c.125 1.883.375 4.017.625 5.9 3 1.005 7.5-3.892 14-4.394 0 0-.875-1.13-1-3.39z" opacity=".7" style="mix-blend-mode:multiply"/><path fill="url(#G)" d="M27.5 91.431c.75-.376 2.124-1.13 2.874-1.38.75-.252 2.5.502 2.5.878 0 .251-.625 0-1 0s-1-.25-1 0c0 0 .5 0 1.375.377.5.125 1.125.377 1.125.628 0 .125-.75 0-1.25-.126-.5 0-1.125-.126-1.25 0 0 0 .625 0 1.125.251.625.126 1.125.377 1 .628 0 .251-.5 0-1 0h-1.125.75c.375 0 .875.126.75.377 0 .125-.375 0-.875 0H30c-.625.125-1.25.376-1.625.376-1 0-.875-1.883-.875-1.883z"/><path fill="url(#H)" d="M27.5 91.431c-1.125.377-7.25.126-7.25.126s-.25-2.511.25-5.273c.625-3.892 1.5-8.16 0-8.537-3.125 1.004-4.5 5.273-4.75 9.541-.125 2.386-.375 7.407 1.625 8.286.625.251 1.375.377 2.5.251 3.375-.376 7-2.008 8.625-2.636.25-.628.125-2.385-1-1.883z"/><path fill="#c3694d" d="M28.5 93.315c.375 0 .875-.126 1.5-.252.375 0 1-.125 1.5 0h.875c-.5 0-1-.125-1.375-.125-.625 0-1.875 0-2.75.251s-3.625 1.507-5.875 1.883c-1.75.251-5 .628-5.125-1.004-.25-1.632 1.5-2.135 1.5-2.135l-.875-.376L16 93.063c.25 1.256.625 2.386 1.5 2.762.625.251 1.375.377 2.5.251 3.375-.376 7-2.008 8.625-2.636z" opacity=".4" style="mix-blend-mode:multiply"/><path fill="#ceb6aa" d="m47.25 85.154-.25.753-1.875.377zm-14.125 1.004-.375 1.005 7.5.376s-.875-.502-2.5-.753c-1.625-.25-4.75-.502-4.75-.502z"/><path fill="#fae7dc" d="m30.125 95.198 2.625-8.286c3.25.125 6 .125 8 .627 1.875-1.13 4.625-1.38 6.875-1.883l.5.88L45.5 94.82l-6 1.632.375-1.13-1.75.377-.25.879-7.25-.502.25-.88z"/><path fill="#ceb6aa" d="m32.75 86.912.375.879-2.375 7.407h-.625z"/><path fill="#fae7dc" d="M47.25 85.154v-.25s-1.125.878-2.75 1.255c-1.25.376-1.75.502-2.125.627-.25 0 .5 0 2.25-.502s2.625-1.255 2.625-1.255zm-6.5 2.386s-1.125-.628-3.25-1.005-3.75-.502-4.25-.502c0 .126 3.125.502 4.25.628 1.75.25 3.125.879 3.125.879z"/><path fill="#463332" d="m37 97.458-7.625-.377v-.251c-.125 0 2.75-9.165 2.75-9.165l7.875.502c.5-.376 1-.502 1.75-.125l6.5-1.758v.251c.125 0-2.875 8.914-2.875 8.914L39 97.081h-1.75v.126z"/><path fill="url(#I)" d="m39.125 97.458 6.375-1.632 2.875-9.165L42 88.293z"/><path fill="url(#J)" d="M37.125 97.709c.625.125 1.375 0 1.875-.126l2.875-9.165c-.625.251-1.25.377-1.875.126z"/><path fill="#463332" d="M37.125 97.709c.75.125 1.375.125 1.875-.126l2.875-9.165c-.625.251-1.25.377-1.875.126zm2-.251L45.5 95.7c-2.25-1.004-3.5-3.39-3.5-7.407z" opacity=".2" style="mix-blend-mode:multiply"/><path fill="#463332" d="M41.25 88.544c.25 0 .5 0 .75-.251l-2.875 9.165c-.25 0-.5.125-.75.25z" opacity=".2" style="mix-blend-mode:multiply"/><path fill="url(#K)" d="m29.375 97.081 7.875.628L40 88.544l-7.75-.628z"/><path fill="#463332" d="m29.375 97.081 7.875.502 2.875-9.165c-2.25 4.018-5.625 7.031-10.625 8.538z" opacity=".2" style="mix-blend-mode:multiply"/><path fill="#d8c0b6" d="M47 86.158s-.375 0-.875.126c-.5 0-1.125.251-1.875.377a15.3 15.3 0 0 0-2.625.753l.75-.377c.5-.25 1.125-.376 1.875-.502 1.375-.251 2.75-.377 2.75-.377m-13.375 1.13h3c.75 0 1.5 0 2 .251.5 0 .875.251.875.251s-1.5-.25-3-.25h-2.875zm11.5-.376s-.125 0-.375.125c-.25 0-.625.126-.875.251-.375 0-.625.126-.875.252h-.375s.125 0 .375-.126c.25 0 .625-.126.875-.251.375 0 .625-.126.875-.251z"/><path fill="#ffe6d6" d="M20.999 77.621c-1.5.377-5.75 2.135-5.5 14.313 0 0 1.125 0 5-.754 0 0 .125-3.264.75-6.528.625-4.018 1.25-6.654 0-7.03z"/><path fill="#ecd2bd" d="M16.75 90.929c-.125-7.784 1.5-11.3 3.125-12.931-1.875 1.004-4.75 3.892-4.5 13.935 0 0 1.125 0 5-.753v-.628c-2.875.628-3.75.503-3.75.503z" opacity=".7" style="mix-blend-mode:multiply"/><path fill="#fff3ee" d="M21.25 91.682c-2-.125-3.625 0-4.375.88-.75.752-.625 1.882-.125 2.636-.5.25-2.625-1.256-1.375-3.892.625-1.507 3.25-1.758 4.5-1.13 1.375.627 1.375 1.632 1.375 1.632z"/><path fill="#ecd2bd" d="M17 92.436c-.75-.503-.625-1.758-.5-2.135-.5.251-.875.628-1.125 1.005-1.25 2.636.875 4.143 1.375 3.892-.5-.754-.625-1.758.125-2.637H17z" opacity=".7" style="mix-blend-mode:multiply"/><path fill="url(#L)" d="M47.625 91.557c.125-.502.125-1.13 0-1.381-.125-.126-.5-.251-.875-.251-.625 0-1.125.125-1.125.376s.5.126 1 .126c.375 0 .75 0 .75.25h-1c-.5 0-1.125 0-1.125.252 0 .251.5.126 1.125.251.5 0 .875.126.75.251h-.75c-.5 0-1.125 0-1.125.251s.5.126 1 .251c.375 0 .75.251.625.251h-.625c-.375 0-.75 0-.75.126 0 .251.625 0 1.25.377 0 0 .25 0 .625-.251.375-.252.5-.754.5-1.005z"/><path fill="#8ac5d5" d="M46.75 119.051H44l-.375-1.004h3z"/><path fill="#99d0dd" d="M39.75 119.051h-2.875l-.25-1.004h3.125z"/><path fill="#334b72" d="M38 118.047h-1.375l.25 1.004h1.5c0-.251-.25-.627-.375-1.004m7 0h-1.5l.375 1.004h1.5c0-.125-.25-.502-.5-1.004z" opacity=".3" style="mix-blend-mode:multiply"/></g><defs><linearGradient id="b" x1="53.086" x2="53.146" y1="83.394" y2="100.568" gradientUnits="userSpaceOnUse"><stop stop-color="#ffe675"/><stop offset="1" stop-color="#e57830"/></linearGradient><linearGradient id="c" x1="66.208" x2="59.704" y1="62.533" y2="77.216" gradientUnits="userSpaceOnUse"><stop stop-color="#ffe675"/><stop offset="1" stop-color="#e57830"/></linearGradient><linearGradient id="d" x1="46.529" x2="46.601" y1="80.253" y2="100.591" gradientUnits="userSpaceOnUse"><stop stop-color="#987fc9"/><stop offset="1" stop-color="#60578f"/></linearGradient><linearGradient id="e" x1="61.815" x2="53.838" y1="59.627" y2="77.636" gradientUnits="userSpaceOnUse"><stop stop-color="#987fc9"/><stop offset="1" stop-color="#60578f"/></linearGradient><linearGradient id="f" x1="94.875" x2="94.875" y1="104.237" y2="110.012" gradientUnits="userSpaceOnUse"><stop stop-color="#80d5c9"/><stop offset=".8" stop-color="#56acb3"/><stop offset="1" stop-color="#49a0ad"/></linearGradient><linearGradient id="g" x1="95.375" x2="95.375" y1="109.886" y2="113.025" gradientUnits="userSpaceOnUse"><stop stop-color="#eb5d84"/><stop offset="1" stop-color="#bf2f56"/></linearGradient><linearGradient id="h" x1="95.5" x2="95.5" y1="112.774" y2="121.06" gradientUnits="userSpaceOnUse"><stop stop-color="#ffe675"/><stop offset="1" stop-color="#e57830"/></linearGradient><linearGradient id="i" x1="73.875" x2="73.875" y1="35.94" y2="120.934" gradientUnits="userSpaceOnUse"><stop stop-color="#544140"/><stop offset=".5" stop-color="#503d3c"/><stop offset="1" stop-color="#463332"/></linearGradient><linearGradient id="j" x1="71.625" x2="71.625" y1="37.321" y2="117.796" gradientUnits="userSpaceOnUse"><stop stop-color="#80d5c9"/><stop offset=".8" stop-color="#56acb3"/><stop offset="1" stop-color="#49a0ad"/></linearGradient><linearGradient id="k" x1="73.75" x2="73.75" y1="48.997" y2="51.884" gradientUnits="userSpaceOnUse"><stop stop-color="#eb5d84"/><stop offset="1" stop-color="#bf2f56"/></linearGradient><linearGradient id="l" x1="71.75" x2="74.875" y1="56.906" y2="56.906" gradientUnits="userSpaceOnUse"><stop stop-color="#ffe675"/><stop offset="1" stop-color="#e57830"/></linearGradient><linearGradient id="m" x1="27.125" x2="27.125" y1="121.562" y2="79.63" gradientUnits="userSpaceOnUse"><stop stop-color="#d9cbcb"/><stop offset=".4" stop-color="#d5c7c7"/><stop offset=".8" stop-color="#c9bbbb"/><stop offset="1" stop-color="#bdb0b0"/></linearGradient><linearGradient id="n" x1="25.875" x2="25.875" y1="61.928" y2="75.11" gradientUnits="userSpaceOnUse"><stop stop-color="#dc874e"/><stop offset=".3" stop-color="#c37441"/><stop offset=".7" stop-color="#97522b"/><stop offset="1" stop-color="#864623"/></linearGradient><linearGradient id="o" x1="44.968" x2="44.983" y1="123.023" y2="118.754" gradientUnits="userSpaceOnUse"><stop stop-color="#ffb182"/><stop offset="1" stop-color="#ec6b47"/></linearGradient><linearGradient id="p" x1="46.511" x2="46.505" y1="121.16" y2="123.043" gradientUnits="userSpaceOnUse"><stop stop-color="#544140"/><stop offset=".5" stop-color="#503d3c"/><stop offset="1" stop-color="#463332"/></linearGradient><linearGradient id="q" x1="45.636" x2="45.63" y1="121.157" y2="123.04" gradientUnits="userSpaceOnUse"><stop stop-color="#544140"/><stop offset=".5" stop-color="#503d3c"/><stop offset="1" stop-color="#463332"/></linearGradient><linearGradient id="r" x1="61.399" x2="61.271" y1="72.868" y2="109.527" gradientUnits="userSpaceOnUse"><stop stop-color="#8ac5d5"/><stop offset="1" stop-color="#568998"/></linearGradient><linearGradient id="s" x1="38.397" x2="38.286" y1="77.929" y2="109.817" gradientUnits="userSpaceOnUse"><stop stop-color="#8ac5d5"/><stop offset="1" stop-color="#568998"/></linearGradient><linearGradient id="t" x1="28.872" x2="28.767" y1="96.336" y2="126.216" gradientUnits="userSpaceOnUse"><stop stop-color="#8ac5d5"/><stop offset="1" stop-color="#568998"/></linearGradient><linearGradient id="u" x1="37.906" x2="37.921" y1="122.938" y2="118.669" gradientUnits="userSpaceOnUse"><stop stop-color="#ffb182"/><stop offset="1" stop-color="#ec6b47"/></linearGradient><linearGradient id="v" x1="39.735" x2="39.728" y1="121.07" y2="122.953" gradientUnits="userSpaceOnUse"><stop stop-color="#544140"/><stop offset=".5" stop-color="#503d3c"/><stop offset="1" stop-color="#463332"/></linearGradient><linearGradient id="w" x1="38.86" x2="38.853" y1="121.067" y2="122.95" gradientUnits="userSpaceOnUse"><stop stop-color="#544140"/><stop offset=".5" stop-color="#503d3c"/><stop offset="1" stop-color="#463332"/></linearGradient><linearGradient id="x" x1="34.283" x2="34.191" y1="98.133" y2="124.498" gradientUnits="userSpaceOnUse"><stop stop-color="#8ac5d5"/><stop offset="1" stop-color="#568998"/></linearGradient><linearGradient id="y" x1="22.5" x2="22.5" y1="61.928" y2="75.11" gradientUnits="userSpaceOnUse"><stop stop-color="#dc874e"/><stop offset=".3" stop-color="#c37441"/><stop offset=".7" stop-color="#97522b"/><stop offset="1" stop-color="#864623"/></linearGradient><linearGradient id="z" x1="26.044" x2="25.681" y1="79.621" y2="71.343" gradientUnits="userSpaceOnUse"><stop stop-color="#ffb182"/><stop offset=".2" stop-color="#fdac7e"/><stop offset=".5" stop-color="#fa9e72"/><stop offset=".7" stop-color="#f4885f"/><stop offset="1" stop-color="#ec6b47"/></linearGradient><linearGradient id="A" x1="26" x2="26" y1="79.881" y2="70.34" gradientUnits="userSpaceOnUse"><stop stop-color="#ffb182"/><stop offset=".2" stop-color="#fdac7e"/><stop offset=".5" stop-color="#fa9e72"/><stop offset=".7" stop-color="#f4885f"/><stop offset="1" stop-color="#ec6b47"/></linearGradient><linearGradient id="B" x1="26.162" x2="32.561" y1="62.251" y2="77.117" gradientUnits="userSpaceOnUse"><stop stop-color="#ffb283"/><stop offset=".2" stop-color="#fdad7f"/><stop offset=".5" stop-color="#fa9f73"/><stop offset=".7" stop-color="#f48960"/><stop offset="1" stop-color="#ed6b47"/></linearGradient><linearGradient id="C" x1="24.869" x2="27.766" y1="64.717" y2="81.415" gradientUnits="userSpaceOnUse"><stop stop-color="#ffb283"/><stop offset=".2" stop-color="#fdac7e"/><stop offset=".5" stop-color="#f99d71"/><stop offset=".8" stop-color="#f3845c"/><stop offset="1" stop-color="#ed6b47"/></linearGradient><linearGradient id="D" x1="29.875" x2="29.875" y1="61.928" y2="75.11" gradientUnits="userSpaceOnUse"><stop stop-color="#dc874e"/><stop offset=".3" stop-color="#c37441"/><stop offset=".7" stop-color="#97522b"/><stop offset="1" stop-color="#864623"/></linearGradient><linearGradient id="E" x1="26.251" x2="26.251" y1="61.928" y2="75.11" gradientUnits="userSpaceOnUse"><stop stop-color="#dc874e"/><stop offset=".3" stop-color="#c37441"/><stop offset=".7" stop-color="#97522b"/><stop offset="1" stop-color="#864623"/></linearGradient><linearGradient id="F" x1="24.25" x2="24.25" y1="61.928" y2="75.11" gradientUnits="userSpaceOnUse"><stop stop-color="#dc874e"/><stop offset=".3" stop-color="#c37441"/><stop offset=".7" stop-color="#97522b"/><stop offset="1" stop-color="#864623"/></linearGradient><linearGradient id="G" x1="15.374" x2="35.015" y1="96.579" y2="90.351" gradientUnits="userSpaceOnUse"><stop stop-color="#ffb182"/><stop offset=".2" stop-color="#fdac7e"/><stop offset=".5" stop-color="#f99e72"/><stop offset=".7" stop-color="#f3875f"/><stop offset="1" stop-color="#ec6b47"/></linearGradient><linearGradient id="H" x1="13" x2="32.641" y1="89.297" y2="83.194" gradientUnits="userSpaceOnUse"><stop stop-color="#ffb182"/><stop offset=".2" stop-color="#fdac7e"/><stop offset=".5" stop-color="#f99e72"/><stop offset=".7" stop-color="#f3875f"/><stop offset="1" stop-color="#ec6b47"/></linearGradient><linearGradient id="I" x1="43.472" x2="44.345" y1="93.424" y2="104.236" gradientUnits="userSpaceOnUse"><stop stop-color="#544140"/><stop offset=".5" stop-color="#503d3c"/><stop offset="1" stop-color="#463332"/></linearGradient><linearGradient id="J" x1="39.15" x2="39.933" y1="95.02" y2="104.706" gradientUnits="userSpaceOnUse"><stop stop-color="#544140"/><stop offset=".5" stop-color="#503d3c"/><stop offset="1" stop-color="#463332"/></linearGradient><linearGradient id="K" x1="34.613" x2="35.486" y1="94.14" y2="104.952" gradientUnits="userSpaceOnUse"><stop stop-color="#544140"/><stop offset=".5" stop-color="#503d3c"/><stop offset="1" stop-color="#463332"/></linearGradient><linearGradient id="L" x1="44.25" x2="48.03" y1="97.206" y2="85.666" gradientUnits="userSpaceOnUse"><stop stop-color="#ffb182"/><stop offset=".2" stop-color="#fdac7e"/><stop offset=".5" stop-color="#f99e72"/><stop offset=".7" stop-color="#f3875f"/><stop offset="1" stop-color="#ec6b47"/></linearGradient><clipPath id="a"><path fill="#fff" d="M0 12C0 5.373 5.373 0 12 0h108c6.627 0 12 5.373 12 12v108c0 6.627-5.373 12-12 12H12c-6.627 0-12-5.373-12-12z"/></clipPath></defs></svg>