<svg xmlns="http://www.w3.org/2000/svg" width="132" height="132" fill="none" viewBox="0 0 132 132"><g clip-path="url(#a)"><path fill="url(#b)" d="M10.375 118.136v-5.9h-1v-1.758h48c.875.126 1.5.879 1.5 1.632v6.277c0 .879-.75 1.507-1.5 1.507h-48v-1.883h1z"/><path fill="#ceb6aa" d="m55.309 118.344-44.875-.157.02-5.901 44.876.158a1.12 1.12 0 0 1 1.12 1.133l-.013 3.767a1.123 1.123 0 0 1-1.128 1.126z"/><path fill="#ceb6aa" d="m10.466 112.262-.02 5.901 24 .084.02-5.9z"/><path fill="#ffe6d6" d="m10.466 112.262-.02 5.901 24 .084.02-5.9z"/><path fill="#ceb6aa" d="m10.333 112.254-.005 1.381 24 .084.005-1.381z"/><path fill="url(#c)" d="M57.375 110.604H35.5v9.29h21.875c.875 0 1.5-.628 1.5-1.507v-6.277c0-.879-.625-1.506-1.5-1.506"/><path fill="#a0335d" d="M57.375 110.604h-21.75c.875 0 1.5.627 1.5 1.506v6.277c0 .879-.75 1.507-1.5 1.507h21.75c.875 0 1.5-.628 1.5-1.507v-6.277c0-.879-.625-1.506-1.5-1.506" opacity=".3" style="mix-blend-mode:multiply"/><path fill="#a0335d" d="M42.25 118.387v-6.277c0-.879-.625-1.506-1.5-1.506h-1.5c.875 0 1.5.627 1.5 1.506v6.277c0 .879-.75 1.507-1.5 1.507h1.5c.875 0 1.5-.628 1.5-1.507m14.125.126v-6.277c0-.879-.625-1.507-1.5-1.507h-1.5c.875 0 1.5.628 1.5 1.507v6.277c0 .879-.75 1.506-1.5 1.506h1.5c.875 0 1.5-.627 1.5-1.506" opacity=".3" style="mix-blend-mode:multiply"/><path fill="#a0335d" d="M37.125 118.262v.251c0 .879-.625 1.507-1.5 1.507h21.75c.875 0 1.5-.628 1.5-1.507v-.251z" opacity=".3" style="mix-blend-mode:multiply"/><path fill="url(#d)" d="M12.375 109.474v-3.641h-.625v-1.005h43.875c.5.126.875.503.875 1.005v3.892c0 .502-.375.878-1 .878H11.75v-1.129z"/><path fill="#ceb6aa" d="m54.412 109.55-42-.147.013-3.641 42 .147c.375.002.624.254.623.63l-.008 2.26c-.002.377-.252.627-.627.626z"/><path fill="#ceb6aa" d="m12.462 105.966-.013 3.641 20 .07.013-3.641z"/><path fill="#ffe6d6" d="m12.462 105.966-.013 3.641 20 .07.013-3.641z"/><path fill="#ceb6aa" d="m12.333 105.835-.003.879 20 .07.003-.879z"/><path fill="url(#e)" d="M55.625 104.954H33v5.649h22.625c.5 0 .875-.376.875-.878v-3.892a.856.856 0 0 0-.875-.879"/><path fill="#9e4435" d="M55.625 104.954h-22.5c.5 0 .875.376.875.879v3.892c0 .502-.375.878-1 .878h22.5c.5 0 .875-.376.875-.878v-3.892a.856.856 0 0 0-.875-.879z" opacity=".3" style="mix-blend-mode:multiply"/><path fill="#9e4435" d="M37.125 109.599v-3.892a.857.857 0 0 0-.875-.879h-.875c.5 0 .875.377.875.879v3.892c0 .502-.375.879-1 .879h.875c.5 0 .875-.377.875-.879zm2.5 0v-3.892a.857.857 0 0 0-.875-.879h-.875c.5 0 .875.377.875.879v3.892c0 .502-.375.879-1 .879h.875c.5 0 .875-.377.875-.879zm12.75.126v-3.892a.856.856 0 0 0-.875-.879h-.875c.5 0 .875.376.875.879v3.892c0 .502-.375.878-1 .878h.875c.5 0 .875-.376.875-.878zm2.375 0v-3.892a.856.856 0 0 0-.875-.879H53c.5 0 .875.376.875.879v3.892c0 .502-.375.878-1 .878h.875c.5 0 .875-.376.875-.878z" opacity=".3" style="mix-blend-mode:multiply"/><path fill="#9e4435" d="M34 109.474c0 .627-.375 1.004-.875 1.004h22.5c.5 0 .875-.377.875-.879 0-.125-22.5-.251-22.5-.251z" opacity=".3" style="mix-blend-mode:multiply"/><path fill="url(#f)" d="M104.499 105.079c-.375-2.887-2.5-7.532-3.375-13.433-.875-6.654.875-14.564.875-14.564s3.375 8.161 4.375 14.564c.875 5.775 0 11.173.375 13.433z"/><path fill="url(#g)" d="M110.125 105.456c.375-2.511 2.125-6.654 2.875-11.927.75-5.775-.75-12.554-.75-12.554s-2.875 7.03-3.75 12.554c-.875 5.022 0 9.918-.375 12.053h2z"/><path fill="#92aa41" d="M104.499 105.079c-.375-2.887-2.5-7.532-3.375-13.433-.875-6.654.875-14.564.875-14.564s3.375 8.161 4.375 14.564c.875 5.775 0 11.173.375 13.433zm5.626.377c.375-2.511 2.125-6.654 2.875-11.927.75-5.775-.75-12.554-.75-12.554s-2.875 7.03-3.75 12.554c-.875 5.022 0 9.918-.375 12.053h2z" opacity=".4" style="mix-blend-mode:multiply"/><path fill="url(#h)" d="M106.375 105.205c0-3.139-1.625-8.537-1.625-15.442 0-7.784 2.75-17.326 2.75-17.326s2.375 9.793 2.625 17.326c.125 6.654-1.5 12.806-1.375 15.442z"/><path fill="url(#i)" d="M102.875 105.205c-.625-3.013-3.25-7.91-4.625-14.312-1.625-7.156-.625-15.693-.625-15.693s4.125 8.788 5.75 15.693c1.5 6.151 1.125 11.927 1.625 14.312h-2.25z"/><path fill="url(#j)" d="M112.125 105.205c.625-2.636 3-6.905 4.25-12.429 1.375-6.026.5-13.182.5-13.182s-3.75 7.281-5.25 13.182c-1.375 5.273-1 10.295-1.5 12.429h2.125z"/><path fill="#92aa41" d="M116.875 79.72s-.5 7.909-2.125 13.433c-1.125 4.143-3.625 9.667-4.375 12.052h1.75c.625-2.636 3-6.905 4.25-12.429 1.375-6.026.5-13.182.5-13.182zm-10.125 25.485c.125-2.134 1.5-8.914 1.5-15.819-.125-8.662-.875-16.823-.875-16.823s2.375 9.793 2.625 17.325c.125 6.654-1.5 12.806-1.375 15.442h-1.75zm-3.25 0c-.625-3.013-.375-8.035-1.625-14.312-1.375-7.156-4.25-15.568-4.25-15.568s4.125 8.788 5.75 15.693c1.5 6.152 1.125 11.927 1.625 14.313h-1.625z" opacity=".4" style="mix-blend-mode:multiply"/><path fill="#e6f769" d="M115.124 85.243c.5 0 0 3.39-.875 6.529-.75 2.762-1.75 5.398-2.5 5.272-1.5-.25 2.5-12.052 3.375-11.8m-16.875-4.018c.5-.126 1.75 4.017 2.375 7.156.625 2.888 1 6.78.25 7.03-.625.252-1.875-3.013-2.5-6.151-.75-3.766-.75-7.784-.25-7.91zm8.625-2.762c.75 0 1 15.317-.75 15.317s-.25-15.317.75-15.317" opacity=".4" style="mix-blend-mode:screen"/><path fill="url(#k)" d="M111 120.019h-7c-1.875-3.641-3.375-8.537-4.625-15.316H115.5c-1.25 7.156-2.75 11.926-4.625 15.316z"/><path fill="#d8ccff" d="M115.5 105.833c0-.377.125-.754.25-1.13H99.625c0 .376.125.753.25 1.13h15.75z"/><path fill="#60578f" d="M109.625 104.703s-.5 9.29-2.125 15.316h3.5c1.875-3.39 3.375-8.16 4.625-15.316z" opacity=".3" style="mix-blend-mode:multiply"/><path fill="#463332" d="M72.5 106.837h-9.25v10.797h9.25z"/><path fill="#463332" d="M72.5 109.097h-9.25v3.39h9.25z" opacity=".3" style="mix-blend-mode:multiply"/><path fill="url(#l)" d="M99.75 56.368H35.875A3.883 3.883 0 0 0 32 60.26v44.819a3.883 3.883 0 0 0 3.875 3.892H99.75a3.883 3.883 0 0 0 3.875-3.892v-44.82a3.884 3.884 0 0 0-3.875-3.891"/><path fill="url(#m)" d="M32 102.569v3.013c0 2.008 1.625 3.641 3.5 3.641h64.625c1.875 0 3.5-1.633 3.5-3.641v-3.013z"/><path fill="#267c0e" d="M98.5 57.498H37.25a3.76 3.76 0 0 0-3.75 3.766v35.655a3.76 3.76 0 0 0 3.75 3.766H98.5a3.76 3.76 0 0 0 3.75-3.766V61.264a3.76 3.76 0 0 0-3.75-3.766"/><path fill="#fff" d="M99.375 59.38C98.75 58.754 98 58.377 97 58.377H37.625c-1.75 0-3.25 1.507-3.25 3.265v34.901c0 .754.25 1.381.625 2.01l64.375-39.046z" opacity=".2" style="mix-blend-mode:screen"/><path fill="url(#n)" d="M57 116.002h21.75c1 0 1.875.879 1.875 1.883v2.134H55.25v-2.134c0-1.004.875-1.883 1.875-1.883z"/><path fill="#463332" d="M78.875 116.002h-11c.875 0 1.625.753 1.625 1.632v2.385h11v-2.385c0-.879-.75-1.632-1.625-1.632" opacity=".3" style="mix-blend-mode:multiply"/><path fill="#fff" d="M63.25 117.132c0 .502-3 .628-5.125.628s-2.25-.251-2.25-.628.375-.628 2.25-.628 5.125 0 5.125.628m2.375 0c0 .251-.375.376-.875.376q-.75 0-.75-.376c0-.251.375-.377.75-.377s.875.126.875.377" opacity=".3" style="mix-blend-mode:screen"/><path fill="#463332" d="M80.5 119.266H55.125v.753H80.5zm23.125-16.697H32v1.004h71.625zm-54.5 3.64c0 .503.375.879.875.879s.875-.376.875-.879a.856.856 0 0 0-.875-.878c-.5 0-.875.376-.875.878m-3.875 0c0 .503.375.879.875.879s.875-.376.875-.879a.856.856 0 0 0-.875-.878c-.5 0-.875.376-.875.878m-3.75 0c0 .503.375.879.875.879s.875-.376.875-.879a.856.856 0 0 0-.875-.878c-.5 0-.875.376-.875.878m-4.25 0a1.39 1.39 0 0 0 1.375 1.381A1.39 1.39 0 0 0 40 106.209a1.39 1.39 0 0 0-1.375-1.381 1.39 1.39 0 0 0-1.375 1.381" opacity=".3" style="mix-blend-mode:multiply"/><path fill="url(#o)" d="M37.625 106.209c0 .503.375.879.875.879s.875-.376.875-.879a.856.856 0 0 0-.875-.878c-.5 0-.875.376-.875.878"/><path fill="#6d4791" d="M64 56.87v41.932c0 .628.5 1.13 1 1.13h32.5c.625 0 1-.502 1-1.13V56.87H63.875z" opacity=".4" style="mix-blend-mode:multiply"/><path fill="#ffede3" d="M65.5 54.359v42.686c0 .627.5 1.13 1 1.13H99c.625 0 1-.503 1-1.13V54.359c0-.628-.5-1.13-1-1.13H66.5c-.625 0-1 .502-1 1.13"/><path fill="#9cc161" d="M100.125 61.264v-6.905c0-.628-.5-1.13-1-1.13h-32.5c-.625 0-1 .502-1 1.13v6.905h34.625z"/><path fill="#ddc4b6" d="M96.25 63.775H71.125v1.13H96.25zm-23.875 6.403H71.25v1.13h1.125zm5.625 0h-4.875v1.13H78z"/><path fill="#a4bf49" d="M81.5 70.178h-1.125v1.13H81.5z"/><path fill="#ddc4b6" d="M87.125 70.178H82.25v1.13h4.875zm3.375 0h-1.125v1.13H90.5zm5.75 0h-4.875v1.13h4.875zm0-4.394H71.125v1.13H96.25zM92 67.918H71.125v1.13H92z"/><path fill="#ff405a" d="M70.375 63.775H69v1.38h1.375z"/><path fill="#ddc4b6" d="M96.25 76.455H71.125v1.13H96.25z"/><path fill="#a4bf49" d="M72.375 80.598H71.25v1.13h1.125z"/><path fill="#ddc4b6" d="M78 80.598h-4.875v1.13H78zm3.5 0h-1.125v1.13H81.5zm5.625 0H82.25v1.13h4.875zm3.375 0h-1.125v1.13H90.5zm5.75 0h-4.875v1.13h4.875zm-1.875-2.134h-23.25v1.13h23.25z"/><path fill="#ff405a" d="M70.375 76.455H69v1.381h1.375z"/><path fill="#ddc4b6" d="M96.25 86.875H71.125v1.13H96.25zm-23.875 6.403H71.25v1.13h1.125zm5.625 0h-4.875v1.13H78zm3.5 0h-1.125v1.13H81.5zm5.625 0H82.25v1.13h4.875z"/><path fill="#a4bf49" d="M90.5 93.278h-1.125v1.13H90.5z"/><path fill="#ddc4b6" d="M96.25 93.278h-4.875v1.13h4.875zm0-4.268H71.125v1.13H96.25zM92 91.018H71.125v1.13H92z"/><path fill="#ff405a" d="M70.375 86.875H69v1.381h1.375z"/><path fill="url(#p)" d="M25.125 104.452c0-.754 2.375-2.009 3.375-4.018.875-1.757 1.25-5.273 1.125-7.91h-12c0 2.637.375 6.027 1.25 7.785 1.125 2.134 3.25 3.515 3.25 4.143s-2.625 2.134-3.625 4.645c-.75 1.758-.875 6.654-.875 8.914h12c0-2.386-.25-7.156-1-8.789-1-2.51-3.625-4.143-3.625-4.77zm-6.75 12.805c0-2.636.25-6.528.875-8.035.625-1.381 1.75-2.51 2.625-3.264.75-.753 1.125-1.13 1.125-1.632s-.375-1.004-1.125-1.757c-.75-.754-1.625-1.633-2.125-2.762-.75-1.507-1.125-4.395-1.25-6.78h10.625c0 2.511-.375 5.399-1.125 6.905-.5 1.004-1.375 1.883-2.125 2.511-.75.753-1.25 1.255-1.25 1.758 0 .502.5 1.004 1.25 1.883.75.753 1.875 1.883 2.5 3.264.5 1.256.875 4.771.875 7.784H18.625z"/><path fill="url(#q)" d="M18.375 117.257c0-2.636.25-6.528.875-8.034.625-1.381 1.75-2.511 2.625-3.265.75-.753 1.125-1.13 1.125-1.632s-.375-1.004-1.125-1.757c-.75-.754-1.625-1.633-2.125-2.762-.75-1.507-1.125-4.395-1.25-6.78h10.625c0 2.511-.375 5.399-1.125 6.905-.5 1.004-1.375 1.883-2.125 2.511-.75.753-1.25 1.255-1.25 1.758 0 .502.5 1.004 1.25 1.883.75.753 1.875 1.883 2.5 3.264.5 1.256.875 4.771.875 7.784H18.625z" opacity=".5"/><path fill="url(#r)" d="M29.625 117.257H17.75c-.276 0-.5.225-.5.503v1.757a.5.5 0 0 0 .5.502h11.875a.5.5 0 0 0 .5-.502v-1.757a.5.5 0 0 0-.5-.503"/><path fill="url(#s)" d="M29.625 90.39H17.75c-.276 0-.5.225-.5.503v1.757c0 .278.224.503.5.503h11.875c.276 0 .5-.225.5-.503v-1.757a.5.5 0 0 0-.5-.502"/><path fill="#463332" d="M29.75 117.257h-4.625v.503c0 .251-.125.502-.375.502h-7.5v1.381c0 .251.125.502.375.502H29.75c.25 0 .375-.251.375-.502v-1.758c0-.251-.125-.502-.375-.502zm0-26.867H17.625c-.25 0-.375.252-.375.503v1.255h7.5c.25 0 .375.251.375.502v.503h4.625c.25 0 .375-.252.375-.503v-1.757c0-.251-.125-.502-.375-.502" opacity=".3" style="mix-blend-mode:multiply"/><path fill="url(#t)" d="M17 118.638h13.5q.375 0 .375.377v.628q0 .376-.375.376H17q-.375 0-.375-.376v-.628q0-.377.375-.377"/><path fill="#463332" d="M30.5 118.638h-5.125c.125 0 .25.126.25.377v.753c0 .126-.125.377-.25.377H30.5c.125 0 .25-.126.25-.377v-.753c0-.125-.125-.377-.25-.377" opacity=".3" style="mix-blend-mode:multiply"/><path fill="url(#u)" d="M17 90.39h13.5q.375 0 .375.377v.628q0 .377-.375.377H17q-.375 0-.375-.377v-.628q0-.375.375-.376"/><path fill="#398191" d="M25.125 104.452c0-.754 2.375-2.009 3.375-4.018.875-1.757 1.25-5.273 1.125-7.91h-12v1.758h7.5s.375 4.395-.5 7.031c-.625 1.883-1 2.511-1 3.39s1.875 2.134 1.625 13.308h4.25c0-2.386-.25-7.156-1-8.789-1-2.51-3.625-4.143-3.625-4.77z" opacity=".3" style="mix-blend-mode:multiply"/><path fill="#463332" d="M30.5 90.39h-5.125c.125 0 .25.126.25.377v.754c0 .125-.125.376-.25.376H30.5c.125 0 .25-.125.25-.377v-.753c0-.125-.125-.376-.25-.376" opacity=".3" style="mix-blend-mode:multiply"/><path fill="url(#v)" d="M25.75 102.568c.75-.627 1.625-1.506 2.125-2.51.25-.628.5-1.507.75-2.511h-9.75c.25 1.004.375 1.757.75 2.385.625 1.13 1.5 2.009 2.125 2.762.75.753 1.375 1.255 1.625 1.632.375.502.375.377.75 0 .25-.377.875-1.004 1.625-1.758"/><path fill="#ffe675" d="M28.5 98.049v-.502h-9.75v.502z"/><path fill="url(#w)" d="M18.5 113.993v3.265h10.625c0-1.13 0-2.386-.125-3.265-2.375 0-3.75-1.506-5.125-1.506s-3 1.506-5.25 1.506z"/><path fill="#ffe675" d="M23.875 112.863c1.25 0 3.125 1.381 4.875 1.13-2.125 0-3.75-1.506-5.125-1.506s-3 1.506-5.25 1.506v.377c2.25 0 4.125-1.507 5.5-1.507"/><path fill="#aa2424" d="M27.125 97.547c-.125.502-.25 1.004-.5 1.38-1.75 3.767-5 4.395-7.375 0a6 6 0 0 1-.375-.878c.125.753.375 1.506.625 2.009.625 1.129 1.5 2.008 2.125 2.762.75.753 1.375 1.255 1.625 1.632.375.502.375.376.75 0 .25-.377.875-1.005 1.625-1.758.75-.628 1.625-1.507 2.125-2.511.25-.628.5-1.507.75-2.51H27zm1.75 16.446c-2 0-3.625-1.255-4.875-1.506q1.125.377 1.125 1.13c0 1.004-1.625 1.632-3.5 1.632s-3.125-.753-3.125-1.381v3.264h10.625c0-1.13 0-2.511-.125-3.264z" opacity=".2" style="mix-blend-mode:multiply"/><path fill="#ed9c47" d="M24 105.833c0 .125-.125.376-.375.376q-.375 0-.375-.376 0-.377.375-.377t.375.377m.125 5.9c0 .126-.125.377-.375.377q-.375 0-.375-.377 0-.376.375-.376t.375.376m.125-3.64s0 .251-.25.251-.25 0-.25-.251 0-.251.25-.251.25 0 .25.251m-1.125-1.13a.125.125 0 1 0 0-.25.125.125 0 0 0 0 .25m.875 3.766s0 .126-.125.126-.125 0-.125-.126c0-.125 0-.125.125-.125s.125 0 .125.125m.5 1.507s0 .125-.125.125-.125 0-.125-.125c0-.126 0-.126.125-.126s.125 0 .125.126m-1.25.125s0 .126-.125.126-.125 0-.125-.126c0-.125 0-.125.125-.125s.125 0 .125.125m.875-5.9a.126.126 0 0 0 0-.252.126.126 0 0 0 0 .252m-.25 2.134s0 .125-.125.125-.125 0-.125-.125c0-.126 0-.126.125-.126s.125 0 .125.126"/><path fill="#aa2424" d="M23.75 105.456c.125 0 .25.126.25.251 0 .126-.125.251-.25.251s-.25 0-.25-.125c0 0 .125.251.25.251s.375-.126.375-.377-.125-.251-.25-.376zm.125 6.026s.125.126.125.252c0 .125-.125.251-.25.251s-.25 0-.25-.126c0 .126.125.251.25.251s.375-.125.375-.376c0-.252 0-.252-.25-.252m.25-3.64v.251c0 .251 0 .251-.25.251h-.125s0 .125.25.125.25 0 .25-.251 0-.251-.125-.251zm-.875-1.131v.126c0 .126 0 .126-.124.126h.125s.125 0 .125-.126 0-.126-.125-.126m.625 3.893s0 .125-.125.125h.125c.125 0 .125 0 .125-.125v-.126zm.624 1.506s0 .125-.124.125h.125c.125 0 .125 0 .125-.125v-.126zm-1.375.126s0 .125-.125.125h-.125s0 .126.125.126.125 0 .125-.126zm1.125-6.027v.126c0 .126 0 .126-.124.126h.125s.125 0 .125-.126 0-.126-.125-.126m-.501 2.26s0 .126-.125.126H23.5s0 .125.125.125.125 0 .125-.125z" opacity=".2" style="mix-blend-mode:multiply"/><path fill="#fff7e6" d="M22.25 107.339c1.75.754-1.375 4.018-2.25 3.641-1.375-.628.75-4.268 2.25-3.641" opacity=".6" style="mix-blend-mode:screen"/><path fill="#fff7e6" d="M17.25 119.141c0 .502 6.625.251 6.625 0 0-.252-6.625-.503-6.625 0m0-28.122c0 .502 6.625.25 6.625 0 0-.252-6.625-.503-6.625 0" opacity=".3" style="mix-blend-mode:screen"/><path fill="#fff7e6" d="M20.125 94.785c1.875-.126 1.625 4.268.625 4.52-1.25.376-2.25-4.395-.625-4.52m1 5.147c.875-.627 2.125 2.009 1.75 2.26-.75.377-2.375-1.758-1.75-2.26" opacity=".6" style="mix-blend-mode:screen"/><path fill="url(#x)" d="M128.375 90.265c.25.628 0 1.758-.75 2.385-1.5 1.381-3.875 1.005-4.125 4.646 0 1.255-.125 2.762-.75 3.389-.5.377-1.375.126-2.375-.376-1.625-.879-3.5 0-3.625 1.757-.25 2.135 2.375 4.143 1.875 6.654-.125 1.005-1.25 1.758-2.125 1.884 0 0 2.75.502 3.375-1.884.625-2.259-.875-4.77.25-5.273 1-.502 1.75 1.633 3 1.256 2-.628.625-4.52.875-6.152.625-4.143 3-2.636 4-4.394.625-1.13 1.125-2.385.25-3.892z"/><path fill="url(#y)" d="M124.625 112.863s1-1.381 2.5-.627c1.625.878 0 5.272-3.125 4.268v-.879c2 .879 3.375-1.757 2.5-2.385-.5-.251-1.375 0-1.875.753v-1.255z"/><path fill="url(#z)" d="M116.5 119.768c-3.25-1.381-4.125-5.524-4-9.541 0-.502.375-.879.875-.879H124c.375 0 .75.377.875.879.25 3.766-.5 8.16-4 9.541-.5.252-3.625.252-4.375 0"/><path fill="#9e4435" d="M127.125 112.236c-1-.502-1.75 0-2.25.251v-2.386a.856.856 0 0 0-.875-.878h-1.625c0 .627.125 1.13.125 1.757 0 4.018-2.375 7.156-5.375 7.156s-3-.878-4-2.385c.625 1.758 1.625 3.139 3.25 3.892.75.251 3.875.251 4.375 0 1.5-.628 2.5-1.758 3.125-3.264 3 1.004 4.625-3.39 3.125-4.269zm-2.75 3.515c.125-.628.375-1.13.375-1.758.5-.627 1.375-1.004 1.75-.627.75.502-.5 3.013-2.125 2.385" opacity=".3" style="mix-blend-mode:multiply"/><path fill="#fff7e6" d="M114.125 109.976c1.875-.628 1.5 3.515.5 3.892-1.5.628-2.125-3.39-.5-3.892m.25 4.645c1-.753 1.375 1.005 1 1.381-.75.502-1.75-.753-1-1.381" opacity=".4" style="mix-blend-mode:screen"/><path fill="#543e3e" d="M104.25 112.487s1 .125 2.625.502c1.5.251 3.625.628 5.625 1.13l1.5.376c.5.126 1 .252 1.5.503s.875.627 1.125 1.004.5.753.625 1.13c.25.753.375 1.506.5 1.883v.753c0 .251-.25.503-.5.503s-.5-.252-.5-.503v-.627c0-.377 0-1.005-.375-1.758-.25-.628-.75-1.507-1.375-1.883-.375-.126-.875-.377-1.375-.502l-1.5-.377c-4-1.004-8.125-1.507-8.125-1.507-.25 0-.375-.251-.375-.502s.25-.376.5-.376z"/><path fill="#463332" d="M80.75 112.487s1 .125 2.625.502c1.5.251 3.625.628 5.625 1.13l1.5.377c.5.125 1 .251 1.5.502s.875.627 1.25 1.004c.25.377.5.753.625 1.256.375.753.5 1.506.5 1.883v.753c0 .251-.25.502-.5.502s-.5-.251-.5-.502v-.628c0-.376 0-1.004-.375-1.757-.25-.628-.75-1.507-1.375-1.884-.375-.125-.875-.376-1.375-.502l-1.5-.376c-4-1.005-8.125-1.507-8.125-1.507-.25 0-.5-.251-.375-.502 0-.251.25-.502.5-.377z"/><path fill="url(#A)" d="M93 112.487s.375 7.533 5.5 7.533 5.5-7.533 5.5-7.533z" opacity=".5"/><path fill="#398191" d="M102 112.361c-.125 1.381-.875 6.277-4.75 6.277-1.5 0-2.5-.627-3.25-1.632.75 1.507 2.125 3.013 4.375 3.013 5.125 0 5.5-7.532 5.5-7.532h-2z" opacity=".3" style="mix-blend-mode:multiply"/><path fill="url(#B)" d="M90.25 112.487s-.375 7.533-4.875 7.533c-4.625 0-4.875-7.533-4.875-7.533h9.875z" opacity=".5"/><path fill="#398191" d="M88.625 112.612c0 1.13-.75 6.027-4.375 6.027-1.125 0-2-.503-2.625-1.256.75 1.381 1.875 2.637 3.625 2.637 4.625 0 4.875-7.533 4.875-7.533-.5 0-1 .125-1.625.125z" opacity=".3" style="mix-blend-mode:multiply"/><path fill="#543e3e" d="M85.25 120.396c-4.5 0-5.125-6.403-5.25-7.784h-.5c-.25 0-.5-.251-.5-.502s.25-.502.5-.502l10.5.251c.125 0 .25 0 .375.126 0 0 .125.251.125.376 0 .377-.375 8.035-5.25 8.035m-4.375-7.784c.125 1.381.875 6.78 4.375 6.78s4.125-5.022 4.25-6.529zm17.625 7.784c-4.375 0-5.875-5.147-6-7.909 0-.126 0-.251.125-.377 0 0 .25-.125.375-.125l12-.377c.25 0 .5.251.5.502s-.25.502-.5.502h-.625c0 1.381-1 7.784-6 7.784zm-5-7.533c.25 1.632 1.125 6.529 5 6.529 4 0 4.875-5.524 5-6.78z"/><path fill="#543e3e" d="M93.875 116.881c-.125 0-.375 0-.5-.251 0 0-.625-1.381-1.875-1.381s-1.75 1.381-1.75 1.381c0 .251-.375.376-.625.251-.25 0-.375-.377-.25-.628 0 0 .875-2.009 2.625-2.009s2.75 1.884 2.75 1.884c0 .251 0 .502-.25.627h-.25z"/><path fill="#fff7e6" d="M82.374 113.24c1.5-.879 1.75 2.762 1 3.264-1.25.754-2.375-2.51-1-3.264m1 3.892c.75-.753 1.375.628 1 1.004-.5.628-1.625-.376-1-1.004m12-3.515c1.5-.879 1.75 2.762 1 3.264-1.25.753-2.375-2.511-1-3.264m.875 3.892c.75-.753 1.375.628 1 1.004-.5.628-1.625-.376-1-1.004" opacity=".4" style="mix-blend-mode:screen"/></g><defs><linearGradient id="b" x1="34.08" x2="34.046" y1="110.478" y2="120.019" gradientUnits="userSpaceOnUse"><stop stop-color="#eb5d84"/><stop offset="1" stop-color="#bf2f56"/></linearGradient><linearGradient id="c" x1="47.08" x2="47.046" y1="110.523" y2="120.065" gradientUnits="userSpaceOnUse"><stop stop-color="#eb5d84"/><stop offset="1" stop-color="#bf2f56"/></linearGradient><linearGradient id="d" x1="34.099" x2="34.079" y1="104.828" y2="110.603" gradientUnits="userSpaceOnUse"><stop stop-color="#ffe675"/><stop offset="1" stop-color="#e57830"/></linearGradient><linearGradient id="e" x1="44.724" x2="44.704" y1="104.865" y2="110.64" gradientUnits="userSpaceOnUse"><stop stop-color="#ffe675"/><stop offset="1" stop-color="#e57830"/></linearGradient><linearGradient id="f" x1="101.158" x2="101.158" y1="64.578" y2="106.837" gradientUnits="userSpaceOnUse"><stop stop-color="#cfe852"/><stop offset=".3" stop-color="#c5df50"/><stop offset=".8" stop-color="#adc74a"/><stop offset="1" stop-color="#a4bf49"/></linearGradient><linearGradient id="g" x1="113.66" x2="113.66" y1="61.728" y2="102.744" gradientUnits="userSpaceOnUse"><stop stop-color="#cfe852"/><stop offset=".3" stop-color="#c5df50"/><stop offset=".8" stop-color="#adc74a"/><stop offset="1" stop-color="#a4bf49"/></linearGradient><linearGradient id="h" x1="107.487" x2="107.487" y1="72.814" y2="112.738" gradientUnits="userSpaceOnUse"><stop stop-color="#cfe852"/><stop offset=".3" stop-color="#c5df50"/><stop offset=".8" stop-color="#adc74a"/><stop offset="1" stop-color="#a4bf49"/></linearGradient><linearGradient id="i" x1="98.21" x2="98.21" y1="75.388" y2="112.11" gradientUnits="userSpaceOnUse"><stop stop-color="#cfe852"/><stop offset=".3" stop-color="#c5df50"/><stop offset=".8" stop-color="#adc74a"/><stop offset="1" stop-color="#a4bf49"/></linearGradient><linearGradient id="j" x1="116.131" x2="116.131" y1="79.908" y2="111.093" gradientUnits="userSpaceOnUse"><stop stop-color="#cfe852"/><stop offset=".3" stop-color="#c5df50"/><stop offset=".8" stop-color="#adc74a"/><stop offset="1" stop-color="#a4bf49"/></linearGradient><linearGradient id="k" x1="107.625" x2="107.625" y1="104.452" y2="120.145" gradientUnits="userSpaceOnUse"><stop stop-color="#987fc9"/><stop offset="1" stop-color="#60578f"/></linearGradient><linearGradient id="l" x1="67.875" x2="67.875" y1="56.368" y2="109.474" gradientUnits="userSpaceOnUse"><stop stop-color="#d9cbcb"/><stop offset=".4" stop-color="#d5c7c7"/><stop offset=".8" stop-color="#c9bbbb"/><stop offset="1" stop-color="#bdb0b0"/></linearGradient><linearGradient id="m" x1="67.875" x2="67.875" y1="102.318" y2="118.011" gradientUnits="userSpaceOnUse"><stop stop-color="#544140"/><stop offset=".8" stop-color="#493635"/><stop offset="1" stop-color="#463332"/></linearGradient><linearGradient id="n" x1="67.875" x2="67.875" y1="119.894" y2="107.214" gradientUnits="userSpaceOnUse"><stop stop-color="#544140"/><stop offset=".8" stop-color="#493635"/><stop offset="1" stop-color="#463332"/></linearGradient><linearGradient id="o" x1="38.625" x2="38.625" y1="108.218" y2="104.703" gradientUnits="userSpaceOnUse"><stop stop-color="#cfe852"/><stop offset=".3" stop-color="#c5df50"/><stop offset=".8" stop-color="#adc74a"/><stop offset="1" stop-color="#a4bf49"/></linearGradient><linearGradient id="p" x1="23.75" x2="23.75" y1="89.888" y2="120.522" gradientUnits="userSpaceOnUse"><stop stop-color="#80d5c9"/><stop offset=".8" stop-color="#56acb3"/><stop offset="1" stop-color="#49a0ad"/></linearGradient><linearGradient id="q" x1="23.75" x2="23.75" y1="90.642" y2="119.643" gradientUnits="userSpaceOnUse"><stop stop-color="#80d5c9"/><stop offset=".8" stop-color="#56acb3"/><stop offset="1" stop-color="#49a0ad"/></linearGradient><linearGradient id="r" x1="23.75" x2="23.75" y1="89.888" y2="120.522" gradientUnits="userSpaceOnUse"><stop stop-color="#544140"/><stop offset=".8" stop-color="#493635"/><stop offset="1" stop-color="#463332"/></linearGradient><linearGradient id="s" x1="23.75" x2="23.75" y1="89.888" y2="120.522" gradientUnits="userSpaceOnUse"><stop stop-color="#544140"/><stop offset=".8" stop-color="#493635"/><stop offset="1" stop-color="#463332"/></linearGradient><linearGradient id="t" x1="23.75" x2="23.75" y1="89.888" y2="120.522" gradientUnits="userSpaceOnUse"><stop stop-color="#544140"/><stop offset=".8" stop-color="#493635"/><stop offset="1" stop-color="#463332"/></linearGradient><linearGradient id="u" x1="23.75" x2="23.75" y1="89.888" y2="120.522" gradientUnits="userSpaceOnUse"><stop stop-color="#544140"/><stop offset=".8" stop-color="#493635"/><stop offset="1" stop-color="#463332"/></linearGradient><linearGradient id="v" x1="23.75" x2="23.75" y1="96.793" y2="105.456" gradientUnits="userSpaceOnUse"><stop stop-color="#ffe675"/><stop offset="1" stop-color="#e57830"/></linearGradient><linearGradient id="w" x1="23.75" x2="23.75" y1="112.11" y2="117.76" gradientUnits="userSpaceOnUse"><stop stop-color="#ffe675"/><stop offset="1" stop-color="#e57830"/></linearGradient><linearGradient id="x" x1="122.625" x2="122.625" y1="90.14" y2="117.76" gradientUnits="userSpaceOnUse"><stop stop-color="#e8d9d9"/><stop offset=".4" stop-color="#e4d5d5"/><stop offset=".8" stop-color="#d8c9c9"/><stop offset="1" stop-color="#ccbebe"/></linearGradient><linearGradient id="y" x1="125.79" x2="125.79" y1="109.097" y2="120.647" gradientUnits="userSpaceOnUse"><stop stop-color="#ffe675"/><stop offset="1" stop-color="#e57830"/></linearGradient><linearGradient id="z" x1="118.75" x2="118.75" y1="109.097" y2="120.647" gradientUnits="userSpaceOnUse"><stop stop-color="#ffe675"/><stop offset="1" stop-color="#e57830"/></linearGradient><linearGradient id="A" x1="98.5" x2="98.5" y1="111.231" y2="120.898" gradientUnits="userSpaceOnUse"><stop stop-color="#80d5c9"/><stop offset=".8" stop-color="#56acb3"/><stop offset="1" stop-color="#49a0ad"/></linearGradient><linearGradient id="B" x1="94.588" x2="94.588" y1="111.859" y2="121.526" gradientUnits="userSpaceOnUse"><stop stop-color="#80d5c9"/><stop offset=".8" stop-color="#56acb3"/><stop offset="1" stop-color="#49a0ad"/></linearGradient><clipPath id="a"><path fill="#fff" d="M0 12C0 5.373 5.373 0 12 0h108c6.627 0 12 5.373 12 12v108c0 6.627-5.373 12-12 12H12c-6.627 0-12-5.373-12-12z"/></clipPath></defs></svg>