<svg xmlns="http://www.w3.org/2000/svg" width="132" height="132" fill="none" viewBox="0 0 132 132"><g clip-path="url(#a)"><path fill="url(#b)" d="m31.89 80.168 50.252 20.411-26.305 18.668-27.174-.125-7.444-29.495z" opacity=".5" style="mix-blend-mode:multiply"/><path fill="#d9cbcb" d="M17.744 116.758 2.73 86.888l15.386-11.822.62.87-14.64 11.326 14.64 28.998z"/><path fill="#bdb0b0" d="M17.991 114.891c-1.365.373-1.613-2.116-7.693-14.063C4.591 89.627 4.094 88.88 4.715 88.631l-.62-1.244 14.64-11.326-.62-.87-1.24.995c.248.746-.497 1.244-6.204 5.6-5.212 3.983-5.708 4.107-5.956 3.734l-1.862 1.493 15.014 29.869.993-.497-.745-1.369z"/><path fill="url(#c)" d="M20.226 117.131c0 .871-.744 1.618-1.613 1.618S17 118.002 17 117.131s.744-1.618 1.613-1.618 1.613.747 1.613 1.618"/><path fill="#463332" d="M18.612 115.389h-.124c.869 0 1.489.746 1.489 1.618 0 .871-.62 1.617-1.489 1.617h.124c.869 0 1.613-.746 1.613-1.617 0-.872-.744-1.618-1.613-1.618" opacity=".3" style="mix-blend-mode:multiply"/><path fill="url(#d)" d="M4.963 87.013c0 .747-.62 1.37-1.365 1.245-.744 0-1.365-.623-1.24-1.37 0-.746.62-1.368 1.364-1.244.745 0 1.365.622 1.241 1.37"/><path fill="url(#e)" d="M19.729 75.563c0 .747-.62 1.37-1.365 1.245-.745 0-1.365-.622-1.24-1.37 0-.746.62-1.368 1.364-1.244.745 0 1.365.623 1.24 1.37"/><path fill="#463332" d="M19.481 117.131a.85.85 0 0 1-.868.871.85.85 0 0 1-.869-.871.85.85 0 0 1 .869-.871.85.85 0 0 1 .868.871" opacity=".3" style="mix-blend-mode:multiply"/><path fill="url(#f)" d="m13.48 117.178 13.276.046c.992.004 1.734.753 1.73 1.749v.373l-16.751-.059.001-.373c.003-.996.75-1.74 1.743-1.736"/><path fill="#463332" d="M18.488 74.319c.62 0 1.24.622 1.24 1.244 0-.746-.62-1.244-1.24-1.244m.62 1.244c0 .374-.372.747-.745.747-.372 0-.744-.373-.744-.747 0-.373.372-.746.744-.746.373 0 .745.373.745.746" opacity=".3" style="mix-blend-mode:multiply"/><path fill="#fff" d="M18.364 74.443s-.248 0-.497.374c-.248.248-.372.497-.496.497 0 0 0-.373.372-.622.248-.249.745-.373.745-.249z" opacity=".3" style="mix-blend-mode:screen"/><path fill="url(#g)" d="M20.349 75.066c-.248-.25-.993 0-1.737.746-.745.623-1.241 1.37-.993 1.618l2.482 2.738 2.73-2.364-2.358-2.738z"/><path fill="#bdb0b0" d="M18.488 76.683c-.124-.124 0-.622.496-1.12 0 0-.248.125-.372.25-.745.621-1.241 1.368-.993 1.617l2.482 2.738.868-.747-2.481-2.862z"/><path fill="url(#h)" d="m31.888 80.168-9.554-4.107c-.372-.124-1.49.373-2.482 1.245-1.117.995-1.861 1.991-1.613 2.364l2.854 9.957z"/><path fill="#463332" d="M19.853 78.302c.124-.623 1.365-1.867 1.489-2.116-.496.249-.993.622-1.613 1.12-1.117.996-1.861 1.991-1.613 2.365l2.854 9.956 3.102-2.614c-1.117-1.991-4.343-8.09-4.22-8.587z" opacity=".3" style="mix-blend-mode:multiply"/><path fill="#fff4c0" d="M27.174 85.769c-2.978 2.613-5.832 4.355-6.204 3.858s1.737-2.987 4.715-5.6c2.978-2.614 5.832-4.357 6.204-3.859.373.498-1.737 2.987-4.715 5.6"/><path fill="#fff" d="M23.947 85.769c.62.249 1.613 0 2.482-.871.868-.747 1.365-1.743 1.24-2.365-.62.498-1.24.996-1.86 1.618s-1.366 1.12-1.862 1.742z"/><path fill="#463332" d="M27.05 117.131h-6.453c.869 0 1.49.622 1.49 1.494v.622h6.452v-.622c0-.872-.62-1.494-1.49-1.494" opacity=".3" style="mix-blend-mode:multiply"/><path fill="#fff" d="M17.867 117.753c0 .249-1.985.374-3.474.374-1.24 0-1.489-.125-1.489-.374 0-.248.248-.373 1.49-.373 1.488 0 3.473 0 3.473.373m1.49 0s-.248.125-.62.125c-.249 0-.497 0-.497-.249s.248-.124.496-.124c.249 0 .62-.001.62.248m-.868-2.116s-.372.125-.745.498c-.372.249-.496.623-.62.623 0 0 0-.374.372-.747.372-.374.869-.374.869-.249z" opacity=".3" style="mix-blend-mode:screen"/><path fill="#463332" d="M3.598 85.769c.62 0 1.24.622 1.24 1.244 0-.746-.62-1.244-1.24-1.244m.744 1.244c0 .373-.372.747-.744.747s-.745-.374-.745-.747.373-.747.745-.747.744.374.744.747" opacity=".3" style="mix-blend-mode:multiply"/><path fill="#fff" d="M3.598 85.893s-.248 0-.496.374c-.248.249-.373.498-.497.498 0 0 0-.374.373-.623.248-.249.744-.373.744-.249z" opacity=".3" style="mix-blend-mode:screen"/><path fill="#fff" d="m20.1 75.19.869.996s-.496 0-.869-.25c-.248-.373 0-.746 0-.746" opacity=".5" style="mix-blend-mode:screen"/><path fill="#fff" d="m29.78 80.044-7.197-3.236c-.248 0-.744.249-.868.373l4.467 5.352c.992-.996 2.233-1.743 3.598-2.49" opacity=".3" style="mix-blend-mode:screen"/><path fill="url(#i)" d="m93.312 103.519-31.517-.111a.994.994 0 0 0-.996.992l-.012 3.485a.994.994 0 0 0 .99.999l31.516.111a.994.994 0 0 0 .996-.992l.012-3.484a.995.995 0 0 0-.99-1"/><path fill="url(#j)" d="m65.764 103.422-1.489-.005-.019 5.476 1.49.005z"/><path fill="url(#k)" d="m68.372 103.431-1.49-.005-.018 5.476 1.489.005z"/><path fill="#a0335d" d="M93.06 107.05H62.04c-.62 0-1.241-.622-1.241-1.369v2.116a.85.85 0 0 0 .868.871h31.765c.496 0 .869-.249.869-.746v-2.116c0 .622-.497 1.244-1.241 1.244" opacity=".3" style="mix-blend-mode:multiply"/><path fill="url(#l)" d="m61.758 113.987 31.392.11c.62.002.991.501.99.999l-.012 3.36c-.002.622-.5.994-.996.992l-31.392-.11c-.62-.002-.991-.501-.99-.999l.012-3.36c.002-.622.5-.994.996-.992"/><path fill="#9e4435" d="M93.06 117.629H62.04c-.62 0-1.241-.622-1.241-1.369v2.116a.85.85 0 0 0 .868.871h31.765c.496 0 .869-.249.869-.747v-2.116c0 .623-.497 1.245-1.241 1.245" opacity=".3" style="mix-blend-mode:multiply"/><path fill="url(#m)" d="m92.052 108.866-31.516-.111a.994.994 0 0 0-.997.992l-.016 4.73a.995.995 0 0 0 .99.999l31.516.11a.994.994 0 0 0 .996-.992l.016-4.729a.993.993 0 0 0-.989-.999"/><path fill="#398191" d="m63.886 108.891-.868-.003-.024 6.721.869.003zm12.904-.079-.868-.003-.023 6.72.868.003z" opacity=".3" style="mix-blend-mode:multiply"/><path fill="#398191" d="M91.82 112.9H60.8c-.621 0-1.242-1.121-1.242-1.867v3.484a.85.85 0 0 0 .869.872h31.765c.496 0 .868-.249.868-.747v-3.485c0 .622-.496 1.743-1.24 1.743" opacity=".3" style="mix-blend-mode:multiply"/><path fill="url(#n)" d="M26.926 112.651c-.125-1.743-.87-3.112-2.11-3.112-1.737 0-2.73 1.369-2.482 3.112.125 1.742 1.365 3.111 2.606 3.111s2.11-1.369 1.985-3.111m-2.11 1.742c-.744 0-1.365-.747-1.489-1.742 0-.996.372-1.743 1.365-1.743.744 0 .993.747 1.117 1.743 0 .995-.373 1.742-1.117 1.742z"/><path fill="#aa2424" d="M24.942 115.264c-1.241 0-2.482-1.369-2.606-3.111v-.249.622c.124 1.743 1.365 3.112 2.606 3.112s1.985-1.245 1.985-2.738c0 1.369-.869 2.364-1.985 2.364" opacity=".2" style="mix-blend-mode:multiply"/><path fill="url(#o)" d="m34.862 106.052-8.81-.031a.62.62 0 0 0-.623.62l-.042 12.072a.62.62 0 0 0 .619.624l8.81.031a.62.62 0 0 0 .622-.62l.042-12.072a.62.62 0 0 0-.618-.624"/><path fill="#aa2424" d="m32.38 106.043 2.482.008c.373.002.62.251.619.625l-.043 12.196c-.001.374-.25.622-.622.62l-2.482-.008.046-13.317z" opacity=".2" style="mix-blend-mode:multiply"/><path fill="#fff7e6" d="M26.307 106.552s1.737 2.116 1.737 6.223-1.738 5.476-1.738 5.476zm-2.234 3.485c.248.249-.248.498-.62.871-.372.498-.62.996-.869.996-.248 0 0-.747.372-1.245.248-.498.869-.747 1.117-.622" opacity=".5" style="mix-blend-mode:screen"/><path fill="url(#p)" d="M32.014 105.432c1.86-2.613-12.657-1.244-12.657-3.982 0-2.614 37.72-3.858 37.72-6.72 0-1.743-12.531-1.743-12.531-3.983s19.356-1.743 19.356-3.734c0-1.494-2.481-1.991-2.481-1.991s5.46 0 5.335 2.115c0 2.738-13.4 2.614-13.4 3.61 0 .995 12.904 1.369 12.904 3.982 0 3.236-39.582 4.854-39.582 6.721s9.927 1.618 5.087 3.858z"/><path fill="#a69b9b" d="M120.981 119.496H84.873c-.62 0-1.117-.747-.993-1.245l8.066-31.487c0-.249.372-.498.62-.498h36.108c.62 0 1.116.747.992 1.245l-8.065 31.487c0 .249-.372.498-.62.498"/><path fill="url(#q)" d="M120.111 119.496H84.004c-.62 0-1.117-.747-.993-1.245l8.066-31.487c0-.249.372-.498.62-.498h36.107c.621 0 1.117.747.993 1.245l-8.065 31.487c0 .249-.372.498-.621.498"/><path fill="#fff4ee" d="m120.856 114.144 6.825-26.509-35.487-.124-6.825 26.633z"/><path fill="url(#r)" d="m127.184 89.876.497-2.24-35.487-.125-.497 2.24z"/><path fill="#ddc4b6" d="m120.236 92.49.372-1.494H97.405l-.372 1.369z"/><path fill="#60578f" d="m112.295 108.543 3.599-14.063-24.196-.124-3.598 14.063z" opacity=".3" style="mix-blend-mode:multiply"/><path fill="url(#s)" d="m123.339 99.21 1.241-4.73h-6.949l-1.24 4.605z"/><path fill="#ddc4b6" d="m122.966 100.578.248-.87h-6.948l-.248.87zm-.248.996.124-.373-6.949-.125-.124.498z"/><path fill="url(#t)" d="m121.23 107.423 1.24-4.729h-6.948l-1.241 4.605z"/><path fill="#ddc4b6" d="m120.857 108.792.248-.871h-6.949l-.248.871zm-.248.996.124-.373-6.949-.125-.124.498z"/><path fill="url(#u)" d="m119.491 114.269.869-3.361h-6.949l-.868 3.361z"/><path fill="url(#v)" d="m92.193 92.365.373-1.37h3.722l-.372 1.37z"/><path fill="#ddc4b6" d="m87.23 111.406.497-1.369h15.138l-.373 1.493zm-.373 1.493.249-.622h9.926l-.248.747z"/><path fill="#fff4ee" d="M101.252 104.686c-.869 0-1.613-.374-2.11-.996s-.62-1.493-.372-2.365c.497-1.742 2.234-3.235 3.971-3.235.869 0 1.613.373 2.109.995.497.623.621 1.494.373 2.365-.497 1.742-2.234 3.236-3.971 3.236m1.613-6.223c-1.613 0-3.226 1.369-3.722 2.987-.249.747 0 1.493.372 2.116.372.497.993.871 1.737.871 1.613 0 3.226-1.369 3.722-2.987.249-.747 0-1.494-.372-2.116a2.17 2.17 0 0 0-1.737-.871"/><path fill="#fff4ee" d="m101.499 99.707-.868 3.361 3.102-1.743z"/><path fill="#fff" d="m127.061 88.009-34.37-.125-6.7 25.762z" opacity=".2" style="mix-blend-mode:screen"/><path fill="#a69b9b" d="M120.98 119.495H89.836v-1.991h32.013z"/><path fill="#d9cbcb" d="m89.417 117.444-36.728-.129a.87.87 0 0 0-.872.868v.249a.87.87 0 0 0 .865.875l36.727.128a.87.87 0 0 0 .872-.868l.001-.249a.87.87 0 0 0-.865-.874"/><path fill="#544140" d="m78.87 117.407-15.635-.055a.373.373 0 0 0-.373.372v.125a.37.37 0 0 0 .37.374l15.635.055a.373.373 0 0 0 .373-.372v-.124a.373.373 0 0 0-.37-.375m16.872.93 4.467.016c.124 0 .248.001.247.249-.001.249-.001.249-.249.249l-4.467-.016c-.124-.001-.248-.001-.247-.25s.001-.249.25-.248m6.204.022 4.467.015c.124.001.248.001.247.25 0 .249 0 .249-.249.248l-4.466-.016c-.125 0-.249-.001-.248-.249.001-.249.001-.249.249-.248m18.661.141c0 .249-.248.498-.497.498-.248 0-.496-.249-.496-.498s.248-.498.496-.498c.249 0 .497.249.497.498"/><path fill="#ceb6aa" d="M30.274 118.251v-1.618s2.234-1.867 7.445-1.867H55.09c4.964 0 7.321 1.494 7.321 1.494v1.991h-32.26z"/><path fill="#edd8ca" d="M49.384 112.153c-6.204-.125-12.408 0-17.992.373 7.197 0 11.912 1.245 14.394 4.232h17.992c-3.35-4.232-14.394-4.605-14.394-4.605"/><path fill="#ceb6aa" d="m58.069 116.882-.62-3.36c-.497-.125-1.117-.249-1.614-.374-1.24.374-3.226.996-5.708 1.12-4.467.374-9.678-.622-9.678-.622 2.234.622 3.97 1.742 5.212 3.111h12.408z" opacity=".3" style="mix-blend-mode:multiply"/><path fill="#ceb6aa" d="M78.542 116.882h1.737v-.622s-2.481-1.494-7.32-1.494H61.17c-1.365-.498-3.599-.995-7.073-.871-5.956.125-7.817 2.987-7.817 2.987h1.861v1.493h32.261v-1.12h-1.737z"/><path fill="#b29b93" d="M78.543 116.882h1.737v-.622H61.916v1.991H80.28v-1.12z"/><path fill="#fae7dc" d="M30.026 118.251v-1.618s2.234-1.867 7.445-1.867 8.19 2.116 8.19 2.116 4.218-2.116 9.182-2.116c4.963 0 7.32 1.494 7.32 1.494v1.991h-32.26z"/><path fill="#5d5485" d="m62.735 118.221-34.122-.119-.004 1.12 34.122.119z"/><path fill="#3f365e" d="m81.969 118.289-19.233-.068-.004 1.121 19.233.067z"/><path fill="#fae7dc" d="M45.66 116.882c-3.722-4.729-14.144-3.983-14.144-3.983v-.373c.372 0 10.546-.747 14.393 4.107z"/><path fill="#5d5485" d="M46.902 118.127h-2.357s.62-1.245 1.116-1.245c.62 0 1.117 1.245 1.117 1.245z"/><path fill="#ceb6aa" d="M71.346 112.899s-1.613.249-3.722 1.12l-17 .747-4.218 1.369s2.606-3.36 11.54-3.982c8.065-.498 13.4.622 13.4.622z"/><path fill="#edd8ca" d="m62.288 115.14 17.992-.249s-2.854-.747-7.817-1.12-16.627-.747-21.094.373c0 0 5.584-.871 10.92.996"/><path fill="#edd8ca" d="M61.296 112.899h17.991c0-.124-2.854-.871-7.817-1.368-4.095-.374-16.875-.996-22.707 2.489 0 0 6.328-2.489 12.408-1.245z"/><path fill="#fae7dc" d="m46.033 117.006-.248-.249c6.328-4.853 15.882-1.991 16.503-1.866h18.116v.373H62.288s-9.927-3.236-16.255 1.742"/><path fill="#fae7dc" d="m46.033 116.882-.248-.249c4.219-5.725 15.51-3.982 15.634-3.982h18.116v.373H61.419c-.124 0-11.291-1.867-15.262 3.858z"/><path fill="#d8c0b6" d="M48.019 116.758s.744-.374 1.861-.747c.62-.125 1.24-.373 1.985-.498.745 0 1.613-.124 2.358-.249.869 0 1.613 0 2.357.125.745 0 1.49.249 2.11.373.62 0 1.117.249 1.365.373.372 0 .496.125.496.125h-.496c-.373 0-.869-.125-1.49-.249-.62 0-1.24-.125-1.985-.249h-2.357c-1.613 0-3.226.249-4.343.498a12.5 12.5 0 0 0-1.985.622zm.993.498s.496-.125 1.24-.249c.745-.125 1.738-.249 2.73-.374h2.73c.745 0 1.241.125 1.241.125h-3.97c-1.986 0-3.971.249-3.971.249zm-4.964-.498s-.744-.249-1.985-.623a71 71 0 0 0-2.11-.373c-.744 0-1.613-.124-2.481-.124H34.99c-.372 0-.744 0-1.116.124-.373 0-.745 0-.993.249a13 13 0 0 0-1.489.373c-.372 0-.62.125-.62.125s.248 0 .496-.249c.372-.125.868-.374 1.489-.498.248 0 .62-.124.992-.249.373 0 .745-.124 1.117-.249h2.481c.87 0 1.738 0 2.483.249.744 0 1.489.249 2.109.498 1.24.373 1.985.747 1.985.747zm-10.671.746s.62-.124 1.49-.373a25 25 0 0 1 3.35-.249c.62 0 1.24 0 1.86.125.621 0 1.117.124 1.614.248.496 0 .868.249 1.116.249h.373s-.62 0-1.49-.249c-.868 0-2.109-.248-3.35-.248h-3.35c-.868 0-1.489.124-1.489.124z"/></g><defs><linearGradient id="b" x1="28.746" x2="61.115" y1="82.637" y2="115.633" gradientUnits="userSpaceOnUse"><stop stop-color="#ffcb85"/><stop offset=".1" stop-color="#ffd9a6"/><stop offset=".2" stop-color="#ffe5c2"/><stop offset=".3" stop-color="#ffeed8"/><stop offset=".4" stop-color="#fff6e9"/><stop offset=".5" stop-color="#fffbf6"/><stop offset=".6" stop-color="#fffefd"/><stop offset="1" stop-color="#fff"/></linearGradient><linearGradient id="c" x1="18.457" x2="18.443" y1="115.208" y2="119.439" gradientUnits="userSpaceOnUse"><stop stop-color="#544140"/><stop offset=".5" stop-color="#503d3c"/><stop offset="1" stop-color="#463332"/></linearGradient><linearGradient id="d" x1="2.3" x2="4.906" y1="87.025" y2="87.034" gradientUnits="userSpaceOnUse"><stop stop-color="#544140"/><stop offset=".5" stop-color="#503d3c"/><stop offset="1" stop-color="#463332"/></linearGradient><linearGradient id="e" x1="17.105" x2="19.711" y1="75.627" y2="75.636" gradientUnits="userSpaceOnUse"><stop stop-color="#544140"/><stop offset=".5" stop-color="#503d3c"/><stop offset="1" stop-color="#463332"/></linearGradient><linearGradient id="f" x1="20.186" x2="20.172" y1="115.21" y2="119.441" gradientUnits="userSpaceOnUse"><stop stop-color="#544140"/><stop offset=".5" stop-color="#503d3c"/><stop offset="1" stop-color="#463332"/></linearGradient><linearGradient id="g" x1="21.197" x2="18.577" y1="76.388" y2="78.611" gradientUnits="userSpaceOnUse"><stop stop-color="#d9cbcb"/><stop offset=".4" stop-color="#d5c7c7"/><stop offset=".8" stop-color="#c9bbbb"/><stop offset="1" stop-color="#bdb0b0"/></linearGradient><linearGradient id="h" x1="18.196" x2="31.845" y1="82.849" y2="82.896" gradientUnits="userSpaceOnUse"><stop stop-color="#544140"/><stop offset=".5" stop-color="#503d3c"/><stop offset="1" stop-color="#463332"/></linearGradient><linearGradient id="i" x1="77.554" x2="77.534" y1="103.339" y2="108.94" gradientUnits="userSpaceOnUse"><stop stop-color="#eb5d84"/><stop offset="1" stop-color="#bf2f56"/></linearGradient><linearGradient id="j" x1="64.896" x2="64.876" y1="103.294" y2="109.019" gradientUnits="userSpaceOnUse"><stop stop-color="#ffe675"/><stop offset="1" stop-color="#e57830"/></linearGradient><linearGradient id="k" x1="67.628" x2="67.608" y1="103.304" y2="109.029" gradientUnits="userSpaceOnUse"><stop stop-color="#ffe675"/><stop offset="1" stop-color="#e57830"/></linearGradient><linearGradient id="l" x1="77.392" x2="77.373" y1="114.041" y2="119.517" gradientUnits="userSpaceOnUse"><stop stop-color="#ffe675"/><stop offset="1" stop-color="#e57830"/></linearGradient><linearGradient id="m" x1="76.17" x2="76.146" y1="108.685" y2="115.655" gradientUnits="userSpaceOnUse"><stop stop-color="#80d5c9"/><stop offset=".8" stop-color="#56acb3"/><stop offset="1" stop-color="#49a0ad"/></linearGradient><linearGradient id="n" x1="24.569" x2="24.519" y1="106.02" y2="120.207" gradientUnits="userSpaceOnUse"><stop stop-color="#ffe675"/><stop offset="1" stop-color="#e57830"/></linearGradient><linearGradient id="o" x1="30.395" x2="30.345" y1="106.036" y2="120.224" gradientUnits="userSpaceOnUse"><stop stop-color="#ffe675"/><stop offset="1" stop-color="#e57830"/></linearGradient><linearGradient id="p" x1="43.132" x2="43.058" y1="84.678" y2="105.835" gradientUnits="userSpaceOnUse"><stop stop-color="#e8d9d9"/><stop offset=".4" stop-color="#e4d5d5"/><stop offset=".8" stop-color="#d8c9c9"/><stop offset="1" stop-color="#ccbebe"/></linearGradient><linearGradient id="q" x1="102.63" x2="102.515" y1="85.609" y2="118.465" gradientUnits="userSpaceOnUse"><stop stop-color="#544140"/><stop offset=".5" stop-color="#503d3c"/><stop offset="1" stop-color="#463332"/></linearGradient><linearGradient id="r" x1="91.288" x2="126.563" y1="88.681" y2="82.226" gradientUnits="userSpaceOnUse"><stop stop-color="#80d5c9"/><stop offset=".8" stop-color="#56acb3"/><stop offset="1" stop-color="#49a0ad"/></linearGradient><linearGradient id="s" x1="121.031" x2="121.015" y1="94.608" y2="99.213" gradientUnits="userSpaceOnUse"><stop stop-color="#80d5c9"/><stop offset=".8" stop-color="#56acb3"/><stop offset="1" stop-color="#49a0ad"/></linearGradient><linearGradient id="t" x1="118.93" x2="118.914" y1="102.815" y2="107.419" gradientUnits="userSpaceOnUse"><stop stop-color="#ffe675"/><stop offset="1" stop-color="#e57830"/></linearGradient><linearGradient id="u" x1="116.828" x2="116.817" y1="111.022" y2="114.257" gradientUnits="userSpaceOnUse"><stop stop-color="#eb5d84"/><stop offset="1" stop-color="#bf2f56"/></linearGradient><linearGradient id="v" x1="93.863" x2="93.854" y1="90.557" y2="93.046" gradientUnits="userSpaceOnUse"><stop stop-color="#eb5d84"/><stop offset="1" stop-color="#bf2f56"/></linearGradient><clipPath id="a"><path fill="#fff" d="M0 12C0 5.373 5.373 0 12 0h108c6.627 0 12 5.373 12 12v108c0 6.627-5.373 12-12 12H12c-6.627 0-12-5.373-12-12z"/></clipPath></defs></svg>