<svg xmlns="http://www.w3.org/2000/svg" width="25" height="46" fill="none" viewBox="0 0 25 46"><g clip-path="url(#a)"><path fill="#f49004" d="m7.793 32.917-.674-3.706c-1.225 1.06-3.799 3.927-4.92 5.418-.529.714-.881 1.197-.881 1.197l1.37 1.239.975-.798z"/><path fill="#c75314" d="M2.687 37.202a.17.17 0 0 1-.093-.032l-1.37-1.239a.146.146 0 0 1-.02-.189s.352-.493.881-1.197c1.08-1.438 3.664-4.336 4.94-5.439.042-.031.094-.042.135-.02.042.02.083.052.094.104l.674 3.707c0 .052 0 .105-.052.136L2.77 37.17a.12.12 0 0 1-.083.032m-1.183-1.397 1.183 1.071 4.95-4.01-.612-3.382c-1.307 1.197-3.694 3.875-4.711 5.24-.384.514-.675.913-.81 1.092z"/><path fill="#9e3f10" d="M3.663 36.267 2.2 34.629c-.53.714-.883 1.197-.883 1.197l1.37 1.239z"/><path fill="#6b240a" d="M2.687 37.201a.17.17 0 0 1-.093-.031l-1.37-1.24a.146.146 0 0 1-.02-.188s.352-.494.881-1.197a.13.13 0 0 1 .104-.053c.042 0 .083.01.104.042l1.463 1.638c.021.032.042.063.031.105-.01.042-.02.074-.051.095l-.976.798a.12.12 0 0 1-.083.031zm-1.183-1.396 1.183 1.07.779-.63L2.21 34.85c-.332.452-.592.798-.706.956"/><path fill="#f49004" d="M13.646 29.249v3.77c1.39-.82 4.442-3.172 5.801-4.432.654-.598 1.08-1.008 1.08-1.008l-1.121-1.47-1.11.599-4.66 2.53z"/><path fill="#c75314" d="M13.646 33.168c-.02 0-.052 0-.072-.021a.15.15 0 0 1-.073-.126v-3.77c0-.052.031-.094.073-.126l5.77-3.139c.062-.032.135-.021.176.042l1.12 1.47a.146.146 0 0 1-.01.189s-.435.42-1.079 1.018c-1.318 1.218-4.38 3.591-5.832 4.452a.15.15 0 0 1-.073.021zm.135-3.833v3.444c1.505-.934 4.328-3.129 5.573-4.284.467-.43.83-.777.986-.924l-.976-1.27-5.593 3.045z"/><path fill="#9e3f10" d="m18.306 26.724 1.152 1.879a66 66 0 0 0 1.079-1.008l-1.12-1.47z"/><path fill="#6b240a" d="M19.458 28.74h-.021c-.042 0-.073-.032-.093-.064l-1.152-1.88c-.021-.03-.021-.073-.021-.104 0-.042.031-.074.073-.084l1.11-.599c.062-.031.135-.02.176.042l1.121 1.47a.146.146 0 0 1-.01.19s-.436.42-1.08 1.018c-.02.02-.062.031-.093.031zm-.955-1.964.986 1.606c.415-.378.726-.672.872-.808l-.976-1.27-.872.472z"/><path fill="#f49004" d="M9.299 38.923c-.073 1.396-.519 3.759-.84 5.334a194 194 0 0 1-.343 1.606L6.33 45.57s-.114-.787-.228-1.963c-.146-1.502-.322-4.21-.218-6.08 0 0 3.539-.84 3.414 1.386z"/><path fill="#c75314" d="M8.126 46h-.021l-1.785-.294c-.062 0-.104-.053-.114-.116 0 0-.114-.808-.228-1.963-.135-1.355-.322-4.158-.218-6.1 0-.063.041-.116.103-.127.083-.02 2.159-.503 3.114.305.342.284.498.703.467 1.228-.073 1.376-.498 3.675-.84 5.355-.188.935-.343 1.596-.343 1.607-.01.063-.073.105-.135.105m-1.671-.557 1.557.252c.052-.241.166-.777.311-1.47.342-1.68.758-3.958.83-5.313.02-.44-.093-.766-.373-.997-.737-.63-2.356-.357-2.771-.273-.083 1.921.103 4.63.228 5.953.083.914.176 1.607.208 1.848z"/><path fill="#9e3f10" d="M8.458 44.257c-.197.945-.342 1.606-.342 1.606l-1.785-.294s-.114-.788-.228-1.964z"/><path fill="#6b240a" d="M8.126 46h-.021l-1.785-.295c-.062 0-.104-.052-.114-.115 0 0-.114-.809-.228-1.964 0-.042.01-.094.051-.115.042-.021.083-.042.125-.032l2.356.651a.145.145 0 0 1 .104.158c-.187.934-.343 1.596-.343 1.606-.01.063-.073.105-.135.105zm-1.671-.557 1.557.252c.051-.22.155-.714.28-1.344l-2.034-.557c.083.809.155 1.418.187 1.649z"/><path fill="#f49004" d="M11.706 38.923c.073 1.396.52 3.759.84 5.334.198.945.343 1.606.343 1.606l1.785-.294s.114-.787.229-1.963c.145-1.502.321-4.21.217-6.08 0 0-3.538-.84-3.414 1.386z"/><path fill="#c75314" d="M12.89 46c-.063 0-.125-.042-.136-.105 0 0-.145-.672-.342-1.607-.343-1.69-.768-3.98-.84-5.355q-.047-.787.466-1.228c.955-.808 3.03-.325 3.114-.304.062.01.103.063.103.125.104 1.943-.093 4.746-.218 6.1-.114 1.156-.228 1.954-.228 1.964 0 .063-.052.105-.114.116L12.91 46zm-1.039-7.088c.073 1.355.499 3.644.83 5.313.146.693.26 1.24.312 1.47l1.557-.252c.03-.252.124-.934.207-1.848.125-1.323.312-4.032.229-5.953-.416-.084-2.035-.357-2.771.273-.27.23-.395.556-.374.997z"/><path fill="#9e3f10" d="M12.547 44.257c.197.945.342 1.606.342 1.606l1.785-.294s.115-.788.229-1.964z"/><path fill="#6b240a" d="M12.89 46c-.063 0-.125-.041-.136-.105 0 0-.145-.672-.342-1.606-.01-.074.03-.147.103-.157l2.356-.651a.14.14 0 0 1 .125.031.17.17 0 0 1 .052.115c-.114 1.155-.229 1.953-.229 1.964 0 .063-.052.105-.114.115L12.92 46zm-.177-1.648c.124.63.238 1.124.28 1.344l1.557-.252c.03-.231.114-.84.186-1.649l-2.034.557z"/><path fill="#ffbf4d" d="M15.878 35.836a4.8 4.8 0 0 1-.218 1.544c-.498 1.46-1.754 2.341-3.248 2.75a8.3 8.3 0 0 1-1.982.263h-.073a7.7 7.7 0 0 1-2.708-.472c-.716-.284-1.36-.693-1.847-1.24-.623-.703-.997-1.637-.976-2.834 0-.357.042-.704.093-1.04.115-.798.333-1.543.602-2.247a24 24 0 0 1 1.017-2.226c.29-.577.571-1.092.758-1.554l.093-.22c.343-.882.509-2.08.592-3.234.02-.347.041-.693.052-1.019.02-.62.02-1.186.02-1.659h4.598c0 .378 0 .83.01 1.313v.252c.021.756.073 1.575.187 2.362.083.578.187 1.134.342 1.628q.048.189.125.346c.332.85.986 1.953 1.557 3.245.166.378.321.766.467 1.176.238.703.425 1.46.508 2.247.02.21.031.42.042.63z"/><path fill="#ffd894" d="M10.347 38.487c2.407 0 3.279-1.796 3.05-3.087-.363-2.069-1.494-5.24-3.05-5.24-1.557 0-2.75 3.675-3.051 5.24-.24 1.28.643 3.087 3.05 3.087"/><path fill="#f49004" d="M10.347 38.623c-1.412 0-2.2-.599-2.605-1.092-.498-.61-.716-1.418-.57-2.153.207-1.134 1.38-5.355 3.185-5.355 1.64 0 2.802 3.203 3.186 5.355.135.746-.093 1.554-.591 2.163-.405.494-1.194 1.082-2.595 1.082zm0-8.327c-1.38 0-2.574 3.34-2.916 5.124-.125.662.072 1.376.519 1.922.373.451 1.09.997 2.397.997s2.013-.535 2.376-.976c.447-.546.654-1.27.53-1.943-.353-1.984-1.453-5.124-2.917-5.124zm2.501-3.728c-.311.01-.633-.074-.861-.284-.425-.388-.436-1.092-.145-1.585.186-.326.487-.567.81-.746.02.82.072 1.743.186 2.615z"/><path fill="#f07800" d="M12.786 26.713c-.343 0-.664-.116-.893-.326-.487-.451-.477-1.249-.166-1.763.187-.315.478-.588.872-.788a.15.15 0 0 1 .135 0c.041.021.062.074.073.116a27 27 0 0 0 .186 2.603c0 .043 0 .074-.03.105a.13.13 0 0 1-.104.053zm-.26-2.52a1.65 1.65 0 0 0-.56.578c-.25.42-.27 1.06.114 1.417.156.147.374.231.612.252a25 25 0 0 1-.166-2.236z"/><path fill="#f49004" d="M14.882 31.807a3.5 3.5 0 0 1-.945-.252c-.954-.42-1.515-1.282-1.328-2.08.083-.378.332-.735.674-1.018 0 .031.021.052.032.084.332.85.986 1.953 1.556 3.244v.021z"/><path fill="#f07800" d="M14.882 31.943h-.021a3.3 3.3 0 0 1-.986-.262c-1.027-.452-1.608-1.365-1.411-2.237.093-.399.342-.777.726-1.092a.11.11 0 0 1 .125-.02q.061.015.093.094c0 .031.02.052.031.073.166.43.426.924.716 1.502.27.514.571 1.113.841 1.732v.032c.031.042.02.094 0 .136-.031.032-.062.053-.114.053zm-1.66-3.244c-.25.241-.426.525-.488.808-.166.735.352 1.533 1.255 1.922.208.084.426.157.664.2a41 41 0 0 0-.747-1.513c-.27-.535-.519-1.008-.685-1.428z"/><path fill="#f49004" d="M10.026 27.39c-.166.44-.509.808-.924 1.06-.54.325-1.204.43-1.816.325l.094-.22c.342-.882.508-2.08.591-3.234a1.7 1.7 0 0 1 .519-.053c.57 0 1.152.263 1.442.756.25.41.26.935.094 1.376z"/><path fill="#f07800" d="M7.753 28.952c-.166 0-.322-.01-.488-.042-.041 0-.072-.031-.093-.073a.14.14 0 0 1 0-.126l.093-.22c.29-.746.488-1.817.581-3.193 0-.063.052-.115.104-.126a2.5 2.5 0 0 1 .55-.063c.664 0 1.256.315 1.557.82.26.43.3.997.104 1.5-.177.452-.52.851-.976 1.124a2.8 2.8 0 0 1-1.422.389zm-.27-.294c.55.053 1.1-.063 1.546-.336.405-.241.716-.598.862-.987.166-.42.135-.903-.083-1.26-.25-.41-.768-.682-1.329-.682-.124 0-.259 0-.384.031-.103 1.376-.3 2.405-.591 3.171 0 .021-.01.042-.02.063"/><path fill="#f49004" d="M6.943 32.125c-.3.325-.768.483-1.204.483-.083 0-.166 0-.249-.01 0-.022.01-.032.021-.053.3-.788.664-1.523.996-2.174.27.084.52.252.654.515.208.399.093.924-.207 1.25z"/><path fill="#f07800" d="M5.74 32.754c-.094 0-.177 0-.26-.01-.042 0-.083-.032-.104-.063-.02-.032-.031-.084-.01-.116a.2.2 0 0 1 .02-.063 22 22 0 0 1 .997-2.184c.031-.063.093-.084.166-.073.322.094.591.304.737.577.228.43.124 1.019-.229 1.407-.311.336-.788.525-1.307.525zm-.052-.283h.051c.447 0 .851-.158 1.11-.441.281-.305.354-.756.188-1.092a.9.9 0 0 0-.467-.4c-.301.6-.613 1.24-.882 1.933"/><path fill="#f49004" d="M6.123 37.96c-.125.21-.29.388-.477.535-.54-.682-.851-1.564-.83-2.667q.002-.504.082-.976c.55.147 1.038.525 1.298 1.04a2.15 2.15 0 0 1-.063 2.067z"/><path fill="#f07800" d="M5.646 38.64a.13.13 0 0 1-.104-.053c-.591-.756-.882-1.68-.861-2.751 0-.347.03-.683.083-.998 0-.042.03-.073.062-.094a.14.14 0 0 1 .114-.021c.592.157 1.11.567 1.39 1.102a2.28 2.28 0 0 1-.072 2.205c-.135.22-.3.41-.519.578a.12.12 0 0 1-.083.031zm-.633-3.602a10 10 0 0 0-.062.798c-.021.955.217 1.785.716 2.467q.202-.189.342-.41a2 2 0 0 0 .062-1.931 1.98 1.98 0 0 0-1.069-.924z"/><path fill="#f49004" d="M10.202 40.39a7.5 7.5 0 0 1-2.574-.473c-.02 0-.031-.01-.052-.02.114-.158.26-.295.426-.39.54-.314 1.266-.24 1.743.169.218.189.374.44.457.724z"/><path fill="#f07800" d="M10.202 40.534c-.934-.01-1.837-.179-2.605-.483h-.02a.1.1 0 0 0-.042-.021.13.13 0 0 1-.073-.095c0-.042 0-.084.02-.115.125-.179.291-.315.468-.43.591-.347 1.39-.274 1.899.178.228.2.405.472.498.787.01.042 0 .084-.02.126-.032.032-.063.053-.115.053zm-2.387-.693a7.3 7.3 0 0 0 2.19.41 1.3 1.3 0 0 0-.343-.473 1.4 1.4 0 0 0-1.577-.147 1.3 1.3 0 0 0-.27.21"/><path fill="#f49004" d="M15.837 35.176c-.405-.074-.81-.315-.986-.693-.187-.4-.083-.914.218-1.229a1.1 1.1 0 0 1 .301-.23 9.7 9.7 0 0 1 .478 2.152z"/><path fill="#f07800" d="M15.837 35.321h-.031c-.498-.094-.903-.378-1.08-.766a1.27 1.27 0 0 1 .239-1.386c.093-.105.208-.19.332-.263a.11.11 0 0 1 .114 0c.042.01.063.042.083.084.26.756.415 1.47.488 2.184 0 .042 0 .074-.031.105a.13.13 0 0 1-.104.042zm-.56-2.079a1 1 0 0 0-.125.116c-.27.283-.353.735-.187 1.081.124.263.384.462.716.567a9.4 9.4 0 0 0-.394-1.753z"/><path fill="#f49004" d="M15.587 37.563c-.498 1.27-1.608 2.079-2.937 2.499 0-.746.312-1.491.883-1.974.56-.473 1.338-.651 2.054-.525"/><path fill="#f07800" d="M12.65 40.198c-.03 0-.062 0-.082-.031a.17.17 0 0 1-.052-.116c0-.808.352-1.585.923-2.079.571-.483 1.38-.693 2.17-.556.04 0 .072.031.093.073a.12.12 0 0 1 0 .116c-.478 1.218-1.526 2.11-3.02 2.572h-.042zm2.48-2.53c-.56 0-1.11.189-1.514.535-.467.4-.768 1.008-.82 1.67.913-.315 2.034-.945 2.594-2.184-.083 0-.166-.01-.26-.01z"/><path fill="#fff" d="M15.836 35.847c.02 1.323-.436 2.467-1.442 3.286.643-.777.913-1.711.892-2.74-.062-3.077-1.94-5.68-2.563-7.298-.623-1.617-.664-4.168-.664-5.9l.55-.547c0 1.649.052 3.98.55 5.555.487 1.648 2.625 4.336 2.688 7.644z" opacity=".3"/><path fill="#e05e02" d="M12.661 24.216c-1.37.892-3.217.84-4.639.084.021-.62.021-1.187.021-1.66h4.597c0 .379 0 .83.01 1.313v.252z" opacity=".7"/><path fill="#c75314" d="M10.347 40.532a7.8 7.8 0 0 1-2.76-.483c-.78-.305-1.412-.735-1.9-1.27-.986-1.124-1.152-2.5-.923-4.001.103-.735.31-1.48.612-2.279.353-.934.789-1.785 1.172-2.52.115-.22.53-1.018.706-1.48.29-.746.488-1.817.581-3.192.021-.347.042-.693.052-1.008.021-.662.021-1.26.021-1.648 0-.389.062-.137.135-.137h4.597c.073 0 .135.063.135.137 0 1.091.02 1.553.02 1.564.032.903.094 1.67.177 2.352.083.62.197 1.165.343 1.596.145.493.415 1.029.83 1.837.446.872.944 1.848 1.308 2.92.27.797.446 1.543.508 2.278.052.567.094 1.375-.187 2.226-.467 1.375-1.65 2.383-3.341 2.835a8 8 0 0 1-2.097.273zm-2.678-.746c.114.032 1.08.473 2.678.473.394 0 1.13-.021 2.023-.263 1.599-.43 2.72-1.375 3.155-2.656.218-.63.26-1.292.177-2.11a9.7 9.7 0 0 0-.498-2.216c-.364-1.06-.862-2.037-1.298-2.888-.415-.808-.695-1.365-.85-1.88-.146-.45-.26-1.007-.353-1.648a23 23 0 0 1-.187-2.373c0-.136-.021-.64-.021-1.438H8.178c0 .388 0 .934-.021 1.522-.01.326-.031.672-.052 1.019-.104 1.428-.3 2.499-.602 3.276-.176.462-.56 1.197-.716 1.501-.384.746-.81 1.575-1.152 2.5a10.8 10.8 0 0 0-.602 2.215c-.145.955-.26 2.51.851 3.77.447.503 1.048.913 1.785 1.196"/><path fill="#f49004" d="M.135 3.19c.01.755.747 1.574 1.328 2.068.041 0 .498.546 2.148 1.291.685.315 1.412.588 2.159.515l.052-.473c-.208-2.425-1.879-4.347-3.238-4.809-.52-.178-1.11-.178-1.609.074-.488.252-.861.777-.85 1.333z"/><path fill="#f07800" d="M5.542 7.222c-.696 0-1.39-.273-1.972-.546-.924-.42-1.619-.84-2.18-1.313l-.01-.01a5.5 5.5 0 0 1-.903-.956C.156 3.967 0 3.567 0 3.2c0-.588.363-1.176.924-1.459.487-.252 1.12-.273 1.712-.084.488.157.955.462 1.432.924a6.36 6.36 0 0 1 1.9 4v.032l-.053.472c0 .063-.062.116-.124.126-.094 0-.177.01-.26.01zM1.567 5.164c.54.451 1.204.85 2.107 1.26.591.273 1.224.525 1.878.514h.094l.041-.346A6.1 6.1 0 0 0 3.871 2.78c-.446-.43-.882-.714-1.328-.86-.53-.179-1.07-.158-1.505.062-.467.242-.779.725-.779 1.197 0 .315.146.662.416 1.04.228.325.518.63.86.913l.022.021z"/><path fill="#ffbf4d" d="M1.152 4.818c.083.158.198.305.312.441.633.536 1.39.945 2.148 1.292.612.283 1.266.535 1.94.535A6.2 6.2 0 0 0 3.395 4.01c-.363-.273-.768-.515-1.214-.567-.343-.042-.8.063-1.059.325-.27.263-.135.746.031 1.05"/><path fill="#f07800" d="M5.542 7.223c-.706 0-1.391-.273-1.972-.546-.924-.42-1.62-.84-2.18-1.313 0 0-.02-.02-.02-.031a3 3 0 0 1-.322-.452c-.208-.388-.311-.903 0-1.218.311-.304.82-.399 1.173-.357.404.042.81.231 1.287.588a6.4 6.4 0 0 1 2.2 3.14c.01.042 0 .084-.021.126-.02.031-.062.052-.114.052h-.021zM1.567 5.165c.54.451 1.204.85 2.107 1.26.529.241 1.1.472 1.691.514a6.1 6.1 0 0 0-2.044-2.814c-.426-.325-.789-.493-1.152-.535-.29-.032-.716.052-.945.283-.207.2-.103.599.052.882.073.126.156.263.29.41"/><path fill="#c75314" d="M5.542 7.222c-.696 0-1.39-.273-1.972-.546-.924-.42-1.619-.84-2.18-1.313l-.01-.01a5.5 5.5 0 0 1-.903-.956C.156 3.967 0 3.567 0 3.2c0-.588.363-1.176.924-1.459.487-.252 1.12-.273 1.712-.084.488.157.955.462 1.432.924a6.36 6.36 0 0 1 1.9 4v.032l-.053.472c0 .063-.062.116-.124.126-.094 0-.177.01-.26.01zM1.567 5.164c.54.451 1.204.85 2.107 1.26.591.273 1.224.525 1.878.514h.094l.041-.346A6.1 6.1 0 0 0 3.871 2.78c-.446-.43-.882-.714-1.328-.86-.53-.179-1.07-.158-1.505.062-.467.242-.779.725-.779 1.197 0 .315.146.662.416 1.04.228.325.518.63.86.913l.022.021z"/><path fill="#9e3f10" d="M12.786 6a.445.445 0 0 1-.395-.484c.104-1.176.322-2.352.644-3.496.072-.242.311-.378.54-.305a.45.45 0 0 1 .29.557 17 17 0 0 0-.612 3.307.434.434 0 0 1-.467.41z"/><path fill="#6b240a" d="M12.827 6.149h-.052a.594.594 0 0 1-.519-.64c.104-1.187.322-2.374.654-3.518a.57.57 0 0 1 .28-.357.53.53 0 0 1 .436-.042c.301.094.477.42.384.735a17 17 0 0 0-.612 3.286c-.031.305-.28.546-.571.546zm-.031-.284a.303.303 0 0 0 .322-.283c.093-1.124.3-2.247.622-3.34a.31.31 0 0 0-.197-.388.3.3 0 0 0-.218.021.3.3 0 0 0-.145.19 18.5 18.5 0 0 0-.644 3.464c-.01.168.104.326.27.336z"/><path fill="#9e3f10" d="M12.474 1.214A1.146 1.146 0 0 1 13.7.144c.633.041 1.1.598 1.058 1.238a1.146 1.146 0 0 1-1.224 1.071c-.633-.042-1.1-.598-1.059-1.239"/><path fill="#6b240a" d="M13.606 2.59a1.283 1.283 0 0 1-1.277-1.29c0-.715.57-1.292 1.277-1.292.705 0 1.276.577 1.276 1.291s-.57 1.292-1.276 1.292m0-2.31c-.55 0-1.007.452-1.007 1.02a1.007 1.007 0 1 0 2.013 0c0-.568-.446-1.02-1.006-1.02"/><path fill="#9e3f10" d="M7.577 6.007a.445.445 0 0 0 .394-.483 19 19 0 0 0-.644-3.496c-.072-.242-.31-.378-.54-.305a.45.45 0 0 0-.29.557 17 17 0 0 1 .613 3.307c.02.252.228.43.467.41z"/><path fill="#6b240a" d="M7.452 1.995a.57.57 0 0 0-.28-.357.53.53 0 0 0-.436-.042.59.59 0 0 0-.384.735c.312 1.07.52 2.173.612 3.286.032.305.28.546.571.546h.052a.594.594 0 0 0 .519-.64 18.4 18.4 0 0 0-.654-3.518zm.114 3.885a.303.303 0 0 1-.321-.284 16.6 16.6 0 0 0-.623-3.339.31.31 0 0 1 .197-.388.3.3 0 0 1 .218.02.3.3 0 0 1 .145.19c.322 1.123.54 2.289.644 3.465.01.168-.104.325-.27.336z"/><path fill="#9e3f10" d="M5.687.862c.239-.588.903-.882 1.484-.64.581.24.872.913.633 1.5-.238.589-.903.883-1.484.641A1.16 1.16 0 0 1 5.687.862"/><path fill="#6b240a" d="M6.746 2.593A1.283 1.283 0 0 1 5.47 1.302C5.47.588 6.04 0 6.746 0s1.277.577 1.277 1.291-.571 1.292-1.277 1.292zm0-2.31c-.55 0-1.006.452-1.006 1.019a1.007 1.007 0 1 0 2.013 0c0-.567-.446-1.019-1.007-1.019"/><path fill="#f49004" d="M20.08 3.197c-.01.756-.747 1.585-1.328 2.068-.633.536-1.39.945-2.148 1.292-.685.315-1.411.588-2.159.514l-.051-.472c.207-2.426 1.868-4.347 3.237-4.81.52-.178 1.11-.178 1.609.074.488.252.861.777.85 1.334z"/><path fill="#f07800" d="M14.674 7.226h-.021c-.073 0-.146 0-.229-.01-.062 0-.114-.063-.124-.126l-.052-.473v-.031a6.36 6.36 0 0 1 1.9-4c.477-.463.944-.757 1.431-.925.592-.2 1.215-.168 1.713.084.56.284.934.872.923 1.46 0 .378-.155.766-.467 1.197-.249.346-.55.661-.903.955l-.01.01c-.56.473-1.256.893-2.18 1.313-.58.273-1.276.546-1.971.546zm-.115-.283h.115c.643 0 1.276-.252 1.857-.515.893-.41 1.567-.808 2.107-1.26l.02-.02c.333-.284.623-.589.862-.914.27-.389.415-.725.415-1.04 0-.483-.3-.966-.778-1.207-.426-.22-.976-.242-1.505-.063-.446.147-.882.43-1.328.86a6.1 6.1 0 0 0-1.817 3.812l.042.347z"/><path fill="#ffbf4d" d="M19.063 4.822a2.6 2.6 0 0 1-.311.44c-.633.536-1.39.946-2.148 1.292-.613.284-1.266.536-1.94.536a6.2 6.2 0 0 1 2.158-3.077c.363-.273.768-.514 1.214-.567.342-.042.799.063 1.058.326.27.262.135.745-.03 1.05"/><path fill="#f07800" d="M14.673 7.228h-.02a.17.17 0 0 1-.114-.053.17.17 0 0 1-.021-.126 6.4 6.4 0 0 1 2.2-3.14c.467-.356.882-.545 1.287-.587.353-.042.861.052 1.172.357.312.304.208.83 0 1.218a2.3 2.3 0 0 1-.321.451s-.01.021-.021.032c-.56.472-1.256.892-2.18 1.312-.58.273-1.276.546-1.971.546zm3.498-3.644h-.125c-.353.042-.716.21-1.152.536a6.14 6.14 0 0 0-2.044 2.814c.581-.042 1.152-.263 1.691-.515.893-.41 1.567-.808 2.107-1.26.125-.147.218-.273.29-.41.156-.283.26-.682.053-.881-.198-.2-.54-.294-.82-.294z"/><path fill="#c75314" d="M14.674 7.226h-.021c-.073 0-.146 0-.229-.01-.062 0-.114-.063-.124-.126l-.052-.473v-.031a6.36 6.36 0 0 1 1.9-4c.477-.463.944-.757 1.431-.925.592-.2 1.215-.168 1.713.084.56.284.934.872.923 1.46 0 .378-.155.766-.467 1.197-.249.346-.55.661-.903.955l-.01.01c-.56.473-1.256.893-2.18 1.313-.58.273-1.276.546-1.971.546zm-.115-.283h.115c.643 0 1.276-.252 1.857-.515.893-.41 1.567-.808 2.107-1.26l.02-.02c.333-.284.623-.589.862-.914.27-.389.415-.725.415-1.04 0-.483-.3-.966-.778-1.207-.426-.22-.976-.242-1.505-.063-.446.147-.882.43-1.328.86a6.1 6.1 0 0 0-1.817 3.812l.042.347z"/><path fill="#ffbf4d" d="M16.874 18.282c-.851 3.633-3.954 5.25-6.808 5.25s-5.957-1.627-6.808-5.25c-.28-1.176-.311-2.572-.02-4.189a100 100 0 0 1 .726-3.812C4.348 8.529 4.72 7.31 5.25 6.46c.85-1.355 2.086-1.754 4.317-1.796h.488c1.805 0 3.009.179 3.88.798.696.494 1.184 1.27 1.589 2.468.249.714.467 1.585.684 2.635.218 1.008.426 2.184.675 3.549.29 1.617.25 3.003-.031 4.19z"/><path fill="#e06716" d="M11.53 9.944c-.042.2.248.42.653.504s.758-.01.8-.21c.04-.2-.25-.42-.655-.504-.404-.084-.757.01-.799.21"/><path fill="#ad4a07" d="M12.152 10.583c-.456-.094-.82-.367-.757-.672.062-.304.508-.41.954-.315.457.095.82.368.758.672s-.519.41-.955.315m-.487-.609c-.021.084.197.263.55.336.352.074.622-.01.633-.094.02-.084-.198-.273-.55-.336-.333-.063-.613 0-.633.094"/><path fill="#e06716" d="M8.852 9.944c.042.2-.249.42-.653.504-.405.084-.758-.01-.8-.21-.041-.2.25-.42.654-.504.405-.084.758.01.8.21"/><path fill="#ad4a07" d="M7.265 10.27c-.063-.305.311-.578.757-.672.488-.105.903.031.955.315.052.283-.27.567-.758.672-.435.094-.892 0-.954-.315m.82-.4c-.353.074-.56.253-.55.337.01.073.27.178.632.094.364-.073.56-.262.55-.336-.02-.084-.27-.168-.633-.094"/><path fill="#ffd894" d="M16.874 18.281c-.85 3.633-3.953 5.25-6.807 5.25s-5.957-1.627-6.808-5.25c1.432-1.501 3.943-2.488 6.808-2.488s5.375.998 6.807 2.488"/><path fill="#f49004" d="M10.067 23.678c-2.626 0-6.009-1.407-6.943-5.365a.14.14 0 0 1 .031-.126c1.515-1.586 4.1-2.53 6.901-2.53s5.386.944 6.902 2.53c.03.031.041.084.03.126-.923 3.958-4.316 5.365-6.942 5.365zm-6.652-5.355c.913 3.738 4.15 5.072 6.652 5.072 2.5 0 5.739-1.334 6.652-5.072-1.474-1.501-3.954-2.394-6.652-2.394s-5.179.893-6.652 2.394m3.31-9.659a4.7 4.7 0 0 1-2.76 1.627c.384-1.753.757-2.971 1.287-3.821l.218-.063c.612-.147 1.37-.011 1.66.546.28.556-.02 1.228-.415 1.711z"/><path fill="#f07800" d="M3.965 10.429a.132.132 0 0 1-.135-.168c.415-1.9.81-3.066 1.308-3.864.02-.032.041-.053.072-.063l.229-.063c.643-.158 1.484-.021 1.816.62.27.514.104 1.217-.426 1.868a4.85 4.85 0 0 1-2.843 1.67zm1.38-3.843c-.456.745-.82 1.806-1.204 3.528a4.6 4.6 0 0 0 2.47-1.533c.177-.21.706-.945.395-1.554-.26-.515-.965-.61-1.505-.473-.052.01-.104.032-.156.042z"/><path fill="#f49004" d="M13.948 5.452a2.73 2.73 0 0 1-.726 1.27c-.602.588-1.505.861-2.314.62-.8-.231-1.443-.987-1.495-1.838-.02-.283.042-.577.156-.84h.488c1.805 0 3.01.179 3.88.798z"/><path fill="#f07800" d="M11.52 7.56a2.2 2.2 0 0 1-.644-.094c-.872-.252-1.546-1.081-1.598-1.963-.021-.305.041-.62.166-.903a.14.14 0 0 1 .124-.084h.498c1.682 0 3 .136 3.954.819a.12.12 0 0 1 .052.147 3 3 0 0 1-.757 1.333 2.6 2.6 0 0 1-1.806.746zM9.671 4.8a1.8 1.8 0 0 0-.114.692c.042.767.633 1.48 1.39 1.712.737.22 1.599-.01 2.18-.588a2.55 2.55 0 0 0 .654-1.113c-.768-.515-1.827-.714-3.716-.714h-.394z"/><path fill="#f07800" d="M11.52 7.56a2.2 2.2 0 0 1-.644-.094c-.872-.252-1.546-1.081-1.598-1.963-.021-.305.041-.62.166-.903a.14.14 0 0 1 .124-.084h.498c1.682 0 3 .136 3.954.819a.12.12 0 0 1 .052.147 3 3 0 0 1-.757 1.333 2.6 2.6 0 0 1-1.806.746zM9.671 4.8a1.8 1.8 0 0 0-.114.692c.042.767.633 1.48 1.39 1.712.737.22 1.599-.01 2.18-.588a2.55 2.55 0 0 0 .654-1.113c-.768-.515-1.827-.714-3.716-.714h-.394z"/><path fill="#f49004" d="M16.22 10.55c-.414 0-.82-.116-1.14-.368-.416-.325-.655-.934-.447-1.428.135-.325.425-.567.726-.745.063-.032.114-.063.177-.095.249.714.467 1.586.685 2.636"/><path fill="#f07800" d="M16.22 10.687c-.477 0-.902-.147-1.224-.399-.498-.388-.706-1.06-.488-1.596.125-.315.394-.588.789-.808l.186-.095c.032-.02.073-.02.115 0 .041.01.062.042.072.084.239.693.457 1.533.696 2.657 0 .042 0 .084-.032.115-.03.032-.062.053-.103.053zm-.768-2.583s-.02.01-.03.021c-.343.19-.572.42-.665.672-.166.41 0 .956.405 1.27.238.19.54.295.882.337a22 22 0 0 0-.592-2.29z"/><path fill="#f07800" d="M16.22 10.687c-.477 0-.902-.147-1.224-.399-.498-.388-.706-1.06-.488-1.596.125-.315.394-.588.789-.808l.186-.095c.032-.02.073-.02.115 0 .041.01.062.042.072.084.239.693.457 1.533.696 2.657 0 .042 0 .084-.032.115-.03.032-.062.053-.103.053zm-.768-2.583s-.02.01-.03.021c-.343.19-.572.42-.665.672-.166.41 0 .956.405 1.27.238.19.54.295.882.337a22 22 0 0 0-.592-2.29z"/><path fill="#fff" d="M16.874 18.283c-.363 1.564-1.152 2.75-2.148 3.601.622-.756 1.1-1.68 1.37-2.814.28-1.176.311-2.572.03-4.19a94 94 0 0 0-.674-3.548c-.218-1.05-.436-1.922-.685-2.636-.404-1.197-.892-1.974-1.587-2.467-.872-.62-2.076-.798-3.882-.798h-.487c-1.536.031-2.605.23-3.394.787.84-1.186 2.065-1.543 4.172-1.585h.488c1.805 0 3.01.178 3.88.798.696.493 1.184 1.27 1.589 2.467.249.714.467 1.586.685 2.636.217 1.008.425 2.184.674 3.549.29 1.617.25 3.003-.031 4.19z" opacity=".3"/><path fill="#c75314" d="M10.066 23.678c-2.625 0-6.009-1.407-6.943-5.366-.29-1.26-.3-2.688-.03-4.242.27-1.533.497-2.771.726-3.821.415-1.911.81-3.066 1.307-3.864.945-1.502 2.335-1.827 4.432-1.87h.498c1.681 0 2.999.137 3.954.82.705.493 1.214 1.28 1.64 2.53.238.693.456 1.533.695 2.657.207.976.415 2.079.674 3.548.28 1.554.27 2.982-.03 4.243-.925 3.958-4.318 5.365-6.944 5.365zm0-18.879h-.488c-2.335.053-3.435.504-4.213 1.733-.488.777-.861 1.9-1.276 3.78-.229 1.039-.457 2.278-.727 3.811-.27 1.523-.26 2.909.02 4.127.893 3.8 4.152 5.144 6.674 5.144s5.78-1.344 6.673-5.144c.29-1.218.29-2.615.02-4.127a99 99 0 0 0-.674-3.538c-.228-1.113-.446-1.943-.685-2.625-.405-1.197-.882-1.932-1.536-2.394-.778-.557-1.847-.767-3.798-.767z"/><path fill="#fff" d="M6.5 15.192c1.101-.188 1.844-1.245 1.657-2.36a2.026 2.026 0 0 0-2.333-1.677 2.045 2.045 0 0 0-1.657 2.36 2.026 2.026 0 0 0 2.332 1.677"/><path fill="#000" d="M6.163 15.364c-1.193 0-2.158-.976-2.158-2.184 0-1.207.965-2.184 2.158-2.184s2.159.977 2.159 2.184-.965 2.184-2.159 2.184m0-4.095c-1.037 0-1.888.861-1.888 1.911s.84 1.911 1.888 1.911 1.89-.85 1.89-1.91c0-1.05-.841-1.912-1.89-1.912"/><path fill="#000" d="M7.99 13.17c0 .734-.591 1.333-1.318 1.333a1.33 1.33 0 0 1-1.318-1.334c0-.735.592-1.333 1.318-1.333s.706.157.945.399c-.301.346-.446.693-.332.798.104.105.363 0 .664-.231.031.115.052.23.052.357z"/><path fill="#fff" d="M14.937 14.993a2.06 2.06 0 0 0 .842-2.768 2.01 2.01 0 0 0-2.736-.851 2.06 2.06 0 0 0-.841 2.768 2.01 2.01 0 0 0 2.735.85"/><path fill="#000" d="M13.989 15.364a2.17 2.17 0 0 1-2.159-2.184c0-1.207.965-2.184 2.159-2.184s2.158.977 2.158 2.184-.965 2.184-2.158 2.184m0-4.095c-1.038 0-1.89.861-1.89 1.911s.841 1.911 1.89 1.911 1.888-.85 1.888-1.91c0-1.05-.84-1.912-1.888-1.912"/><path fill="#000" d="M14.799 13.17c0 .734-.591 1.333-1.318 1.333a1.33 1.33 0 0 1-1.318-1.334c0-.735.592-1.333 1.318-1.333s.706.157.944.399c-.3.346-.446.693-.332.798.094.105.364 0 .665-.231.03.115.051.23.051.357z"/><path fill="#ffbf4d" d="M10.824 17.295c-.041.2.25.42.654.504.405.084.758-.01.8-.21.04-.2-.25-.42-.655-.504-.404-.084-.757.01-.799.21"/><path fill="#f49004" d="M11.447 17.939c-.488-.105-.82-.389-.758-.672.062-.305.509-.41.955-.316.457.095.82.368.758.672-.063.305-.52.41-.955.316m-.488-.61c-.01.074.176.263.55.337.353.073.623-.011.633-.095.02-.084-.197-.263-.55-.336-.363-.073-.623.021-.633.095"/><path fill="#ffbf4d" d="M9.31 17.295c.04.2-.25.42-.654.504-.405.084-.758-.01-.8-.21-.041-.2.25-.42.654-.504.405-.084.758.01.8.21"/><path fill="#f49004" d="M7.721 17.621c-.052-.283.27-.567.758-.672s.903.032.955.315-.27.567-.758.672c-.436.095-.892 0-.955-.315m.82-.399c-.363.074-.56.263-.55.336s.27.179.633.095c.363-.074.56-.263.55-.336-.02-.084-.27-.168-.633-.095"/><path fill="#8049ad" d="M11.021 12.875H9.122v.714h1.9z"/><path fill="#663b8a" d="M11.021 13.725H9.122a.14.14 0 0 1-.135-.136v-.714c0-.074.063-.137.135-.137h1.9c.072 0 .134.063.134.137v.714a.14.14 0 0 1-.135.136m-1.764-.283h1.62v-.43h-1.62z"/><path fill="#8049ad" d="M2.792 11.831h-.633a.35.35 0 0 1-.353-.357c0-.2.155-.357.353-.357h.633c.197 0 .352.158.352.357 0 .2-.155.357-.352.357"/><path fill="#663b8a" d="M2.792 11.98h-.633a.49.49 0 0 1-.488-.494.49.49 0 0 1 .488-.494h.633c.27 0 .487.22.487.494a.49.49 0 0 1-.487.493m-.633-.715a.22.22 0 0 0-.218.22c0 .127.093.221.218.221h.633a.22.22 0 0 0 .218-.22.214.214 0 0 0-.218-.22z"/><path fill="#8049ad" d="M17.974 11.831h-.633a.35.35 0 0 1-.353-.357c0-.2.156-.357.353-.357h.633c.197 0 .353.158.353.357 0 .2-.156.357-.353.357"/><path fill="#663b8a" d="M17.974 11.98h-.633a.49.49 0 0 1-.488-.494.49.49 0 0 1 .488-.494h.633c.27 0 .488.22.488.494a.49.49 0 0 1-.488.493m-.633-.715a.22.22 0 0 0-.218.22c0 .127.094.221.218.221h.633a.22.22 0 0 0 .218-.22.214.214 0 0 0-.218-.22z"/><path fill="#8049ad" d="M5.926 16.863c-2.013 0-3.643-1.659-3.643-3.685 0-2.027 1.64-3.686 3.643-3.686s3.643 1.66 3.643 3.686-1.64 3.685-3.643 3.685m0-6.615c-1.598 0-2.895 1.313-2.895 2.93s1.297 2.93 2.895 2.93 2.895-1.313 2.895-2.93-1.297-2.93-2.895-2.93"/><path fill="#663b8a" d="M5.926 17c-2.086 0-3.788-1.721-3.788-3.832S3.84 9.336 5.926 9.336s3.788 1.722 3.788 3.832-1.702 3.833-3.788 3.833m0-7.38c-1.93 0-3.508 1.595-3.508 3.548s1.578 3.55 3.508 3.55 3.507-1.597 3.507-3.55S7.856 9.62 5.926 9.62m0 6.614c-1.671 0-3.03-1.375-3.03-3.066s1.359-3.066 3.03-3.066 3.03 1.376 3.03 3.066-1.36 3.066-3.03 3.066m0-5.848c-1.515 0-2.75 1.25-2.75 2.782s1.235 2.783 2.75 2.783 2.75-1.25 2.75-2.783-1.235-2.782-2.75-2.782"/><path fill="#8049ad" d="M14.238 16.863c-2.013 0-3.642-1.659-3.642-3.685 0-2.027 1.64-3.686 3.642-3.686 2.003 0 3.643 1.66 3.643 3.686 0 2.037-1.64 3.685-3.643 3.685m0-6.615c-1.598 0-2.895 1.313-2.895 2.93s1.297 2.93 2.895 2.93 2.896-1.313 2.896-2.93-1.298-2.93-2.896-2.93"/><path fill="#663b8a" d="M14.238 17c-2.086 0-3.788-1.721-3.788-3.832s1.702-3.832 3.788-3.832 3.788 1.722 3.788 3.832-1.702 3.833-3.788 3.833m0-7.38c-1.93 0-3.508 1.595-3.508 3.548s1.578 3.55 3.508 3.55 3.508-1.597 3.508-3.55-1.578-3.549-3.508-3.549m0 6.614c-1.67 0-3.03-1.375-3.03-3.066s1.36-3.066 3.03-3.066 3.03 1.376 3.03 3.066-1.36 3.066-3.03 3.066m0-5.848c-1.515 0-2.75 1.25-2.75 2.782s1.235 2.783 2.75 2.783 2.75-1.25 2.75-2.783-1.235-2.782-2.75-2.782"/><path fill="#6e0e1f" d="M6.382 18.73c-.155.588.53 1.995 1.733 2.33 1.173.326 2.501-.493 2.667-1.112.156-.578-.902-.651-2.096-.977-1.214-.336-2.148-.819-2.304-.241"/><path fill="#000" d="M8.686 21.273a2 2 0 0 1-.602-.084c-.633-.179-1.058-.588-1.307-.914a4 4 0 0 1-.343-.546 2.1 2.1 0 0 1-.207-.756c0-.105 0-.2.02-.283.083-.294.312-.41.706-.357.27.031.602.147.996.262.239.074.498.158.768.231.083.021.156.042.229.063.186.053.373.095.54.126.394.095.746.168.995.284.364.157.509.378.426.672-.104.378-.592.819-1.183 1.07-.114.053-.228.084-.353.127a2.7 2.7 0 0 1-.706.094zm-1.899-2.678c-.208 0-.25.084-.27.168a.6.6 0 0 0-.01.19c0 .188.072.42.187.65.083.168.186.336.31.494.219.283.603.661 1.163.819.353.094.758.094 1.152-.021.104-.032.218-.074.322-.116.57-.241.955-.64 1.027-.882.031-.094.031-.22-.27-.346-.228-.095-.56-.179-.944-.263-.176-.042-.353-.084-.55-.136l-.239-.063a10 10 0 0 1-.778-.242c-.374-.115-.706-.22-.944-.252z"/><path fill="#f22a4e" d="M6.361 18.969c0 .2.083.451.198.703.083.179.186.357.321.525.301.389.716.725 1.235.872.415.115.84.084 1.225-.021a3.84 3.84 0 0 0-1.432-1.565 3.9 3.9 0 0 0-1.547-.514"/><path fill="#000" d="M8.686 21.27a2 2 0 0 1-.602-.083c-.633-.179-1.059-.588-1.308-.914a3.4 3.4 0 0 1-.342-.546 2.4 2.4 0 0 1-.218-.756c0-.042.01-.084.041-.105a.2.2 0 0 1 .104-.042c.57.063 1.131.242 1.609.525a3.97 3.97 0 0 1 1.484 1.617c.02.042.02.084 0 .116a.17.17 0 0 1-.094.073 2.7 2.7 0 0 1-.705.095zm-2.159-2.14c.031.147.083.315.166.483s.187.336.312.493c.228.284.612.662 1.162.82.3.083.643.094.986.02a3.76 3.76 0 0 0-1.298-1.354 3.6 3.6 0 0 0-1.317-.473z"/><path fill="#fff" d="M6.943 18.492c-.125.462.55 1.06 1.515 1.323s1.847.105 1.972-.367v-.021c-.343-.147-.893-.252-1.516-.41l-.238-.063c-.716-.2-1.329-.44-1.744-.493v.02z"/><path fill="#000" d="M9.35 20.088c-.28 0-.602-.042-.924-.136-.488-.137-.923-.357-1.224-.62-.333-.283-.467-.598-.395-.882 0-.01 0-.031.01-.042.021-.052.084-.084.146-.084.27.032.602.147.996.263.239.073.498.157.768.23.083.022.156.043.228.064.187.052.374.094.54.126.394.094.747.168.996.283.052.021.094.084.083.137v.042c-.103.378-.58.598-1.224.598zM7.067 18.64c.01.147.124.326.311.494.27.241.664.44 1.12.556.862.242 1.568.105 1.765-.168a9 9 0 0 0-.82-.22 21 21 0 0 1-.55-.137l-.239-.063a10 10 0 0 1-.778-.241c-.311-.095-.581-.19-.81-.231z"/><path fill="#505578" d="M18.94 27.909c-.104-.389.083-.662.186-.966l.353-.904.716-1.806c.83-2.089 2.045-5.081 2.906-7.192.498-1.197.986-2.394 1.495-3.58.03-.074.114-.105.176-.074.062.032.104.105.073.179-.436 1.218-.883 2.425-1.329 3.643-.81 2.142-1.94 5.145-2.75 7.256l-.706 1.805-.352.904c-.135.294-.177.63-.52.84-.093.063-.228 0-.259-.105z"/><path fill="#2e3145" d="M19.116 28.184c-.042 0-.083 0-.114-.021-.094-.032-.156-.116-.187-.21-.094-.357.01-.62.114-.861.031-.063.052-.126.073-.19l1.068-2.708A878 878 0 0 1 22.976 17c.166-.399.332-.808.509-1.207.321-.777.654-1.586.996-2.373a.24.24 0 0 1 .156-.147.28.28 0 0 1 .207 0c.135.063.197.21.145.346-.29.809-.591 1.628-.882 2.415-.155.41-.3.82-.446 1.229-.664 1.764-1.889 5.04-2.75 7.255l-1.059 2.71a2 2 0 0 0-.072.199c-.094.241-.187.514-.498.703a.3.3 0 0 1-.156.042zm5.614-14.658a145 145 0 0 0-.996 2.362c-.166.4-.332.809-.509 1.208a878 878 0 0 0-2.905 7.192l-1.07 2.71c-.02.062-.051.136-.082.199-.094.22-.177.42-.104.682 0 .01.02.021.02.021h.032c.228-.136.3-.336.384-.567.02-.073.052-.136.083-.21l1.048-2.709a587 587 0 0 0 2.75-7.255c.145-.41.3-.82.446-1.229.29-.787.592-1.606.882-2.415z"/><path fill="#3f9e53" d="M16.386 36.027c0 .441-.03.85-.114 1.229-2.906 2.656-8.302 2.373-11.84-.021a5 5 0 0 1-.115-1.197c.062-3.224 1.951-5.954 2.698-7.718l3.435 3.003 3.228-3.003c.757 1.764 2.646 4.505 2.708 7.718z"/><path fill="#30753e" d="M13.677 28.203s.104 0 .125.042c.176.42.425.903.685 1.407.29.567.623 1.208.923 1.89.478 1.082.934 2.384 1.07 3.78.072.777.051 1.375-.073 1.953 0 .032-.021.053-.042.074-1.4 1.28-3.445 1.921-5.614 1.921-2.18 0-4.483-.64-6.393-1.932a.16.16 0 0 1-.062-.084c-.031-.115-.239-.956-.01-2.394a11.3 11.3 0 0 1 .664-2.478c.384-1.018.861-1.932 1.276-2.75.26-.494.498-.967.675-1.376.218-.116.415.147.747.44l2.823 2.479 3.227-2.972zM4.545 37.14c3.694 2.467 8.873 2.488 11.592.031.114-.535.135-1.092.062-1.827-.135-1.354-.581-2.635-1.048-3.696a40 40 0 0 0-.913-1.88c-.229-.44-.447-.86-.612-1.249l-3.093 2.877a.13.13 0 0 1-.187 0c-.81-.703-2.76-2.415-3.3-2.877-.166.378-.384.788-.602 1.229-.415.808-.882 1.722-1.266 2.72-.322.85-.54 1.637-.654 2.425-.207 1.333-.02 2.12 0 2.236z"/><path fill="#cfedff" d="m7.005 28.313-.29.63 1.94 3.664 1.796-1.291z"/><path fill="#9fc8e0" d="M8.655 32.751h-.031c-.042 0-.073-.032-.094-.073l-1.94-3.665a.14.14 0 0 1 0-.126l.29-.63a.13.13 0 0 1 .094-.073c.041 0 .083 0 .114.031l3.435 3.003a.17.17 0 0 1 .052.116c0 .042-.02.084-.062.105L8.717 32.73c-.02.021-.052.021-.083.021zM6.87 28.94l1.826 3.464 1.526-1.102-3.165-2.761z"/><path fill="#cfedff" d="m13.678 28.309-3.228 3.003 1.796 1.291 1.784-3.549z"/><path fill="#9fc8e0" d="M12.245 32.751c-.03 0-.052 0-.083-.02l-1.795-1.292c-.031-.021-.052-.063-.062-.105a.16.16 0 0 1 .041-.116l3.228-3.003q.045-.047.124-.031c.042 0 .083.042.093.073l.353.746q.032.063 0 .126l-1.785 3.56a.17.17 0 0 1-.093.073h-.031zm-1.577-1.449 1.525 1.103 1.681-3.35-.238-.514z"/></g><defs><clipPath id="a"><path fill="#fff" d="M0 0h25v46H0z"/></clipPath></defs></svg>