<svg xmlns="http://www.w3.org/2000/svg" width="158" height="62" fill="none" viewBox="0 0 158 62"><g clip-path="url(#a)"><path fill="#3a6b43" d="M149.998 60.22H5.002C2.243 60.22 0 57.931 0 55.105V5.115C0 2.295 2.238 0 5.002 0h144.996C152.757 0 155 2.289 155 5.116v49.989c-.005 2.826-2.243 5.115-5.002 5.115"/><path fill="#fff" d="M77.148 34.13c-2.319 2.013-4.468 3.065-6.114 3.065-.728 0-1.36-.207-1.868-.624-.707-.584-1.059-1.495-1.039-2.712l-.005-4.212c-.005-1.046-.703-1.972-1.626-2.153-.487-.09-1.03.035-1.481.357a2.3 2.3 0 0 0-.949 1.535h-.005l-.146 7.778H61.05l.311-16.337a11.8 11.8 0 0 1-3.268 2.219l-1.19-2.612c1.065-.488 2.56-1.419 3.645-3.1a8 8 0 0 0 .838-1.725h2.937l-.085 4.483c.818-1.318 1.51-2.018 2.003-2.455.984-.87 2.796-2.48 5.06-1.983.984.216 1.882.805 2.6 1.7l-2.234 1.792c-.21-.262-.552-.599-.978-.69-.844-.185-1.868.72-2.54 1.32-.287.256-1.14 1.01-2.225 3.169a20 20 0 0 0-.783 1.766 4.6 4.6 0 0 1 1.898-.035c2.284.438 3.94 2.526 3.946 4.961l.005 4.237v.015c-.005.211.015.352.035.438.497.015 2.053-.458 4.257-2.365z"/><path fill="#fff" d="M86.481 18.888c-1.069.483-1.747 1.454-2.113 2.345a4.6 4.6 0 0 0-.306 1.162l-1.07 10.114c-.11.805-.496 2.325-1.842 3.462l-.025.02c-1.05.895-1.968 1.162-2.69 1.162-.317 0-.598-.05-.834-.12-.608-.187-1.13-.58-1.637-1.238-.868-1.122-1.34-2.582-1.37-4.222l2.861-.055c.015.71.16 1.726.773 2.52.116.147.191.222.226.252.066-.005.317-.05.819-.478l.04-.035c.602-.508.788-1.233.848-1.635l1.064-10.043c.181-1.701 1.115-3.749 2.822-5.062a6 6 0 0 1 1.009-.634 4 4 0 0 1 .26-.126c2.114-.951 4.278-.423 5.628.126.367.15.673.297.904.422l-1.34 2.536a8 8 0 0 0-1.105-.473c-.823-.266-1.888-.432-2.861-.015-.026 0-.046.01-.06.015m8.615 15.367c-2.66 1.972-4.679 2.944-6.175 2.944-.653 0-1.21-.187-1.677-.549-1.084-.845-1.074-2.219-1.069-2.732.015-2.46.1-6.939.281-12.675h2.867c-.186 5.751-.271 10.24-.286 12.695 0 .181.005.302.015.387.406-.045 1.636-.362 4.347-2.375z"/><path fill="#fff" d="M112.981 34.257c-2.66 1.972-4.678 2.943-6.174 2.943-.653 0-1.21-.186-1.677-.548-1.084-.846-1.074-2.22-1.069-2.733.005-.87.02-1.987.045-3.33a4.7 4.7 0 0 1-1.597.286q-.277.001-.547-.035a4.3 4.3 0 0 1-.878-.206l-.201 1.882c-.11.805-.497 2.324-1.842 3.461l-.025.02c-1.05.896-1.968 1.163-2.691 1.163-.317 0-.598-.05-.834-.12-.607-.187-1.13-.58-1.636-1.239-.869-1.122-1.34-2.58-1.37-4.221l2.86-.056c.016.71.162 1.726.774 2.521.115.146.19.222.226.252.065-.005.316-.05.818-.478l.04-.035c.603-.509.788-1.233.849-1.64l.266-2.516a4.7 4.7 0 0 0-1.562.095l-.637-2.797a7.6 7.6 0 0 1 2.5-.156l.497-4.675c.18-1.7 1.114-3.748 2.821-5.062a6 6 0 0 1 1.009-.634q.127-.066.261-.126c2.114-.95 4.277-.422 5.628.126.366.151.672.297.903.423l-1.34 2.536a7.3 7.3 0 0 0-1.104-.463c-.809-.262-1.893-.438-2.862-.02l-.05.02c-1.069.483-1.747 1.454-2.108 2.345a4.4 4.4 0 0 0-.307 1.162l-.557 5.248c.402.201.633.307.919.342.542.07 1.164-.166 1.857-.694.045-1.796.101-3.834.171-6.058h2.866c-.185 5.75-.271 10.234-.286 12.695 0 .18.005.306.015.392.497-.05 1.853-.528 4.348-2.375z"/><path fill="#fff" d="M129.889 34.1a12.6 12.6 0 0 1-5.532 2.793c-.01 0-.246.055-.482.095a13.4 13.4 0 0 1-2.339.212c-4.338 0-7.104-2.18-7.239-2.285-4.599-3.698-3.906-9.706-3.876-9.957.367-2.949 1.777-5.5 3.966-7.175.823-.63 3.825-2.642 7.851-1.968a10.1 10.1 0 0 1 4.769 2.174l-1.797 2.239a7.35 7.35 0 0 0-3.443-1.58c-2.897-.483-5.056.961-5.648 1.414-2.018 1.545-2.676 3.713-2.867 5.253-.005.045-.517 4.674 2.827 7.366.11.086 2.947 2.264 7.289 1.49.181-.03.361-.07.371-.076a9.7 9.7 0 0 0 4.272-2.158z"/><path fill="#fff" d="M146.815 34.101a12.6 12.6 0 0 1-5.532 2.793c-.01 0-.246.055-.482.095a13.4 13.4 0 0 1-2.34.212c-4.337 0-7.103-2.18-7.239-2.285-4.598-3.698-3.905-9.706-3.875-9.957.366-2.949 1.777-5.5 3.966-7.176.823-.629 3.825-2.641 7.851-1.967a10.1 10.1 0 0 1 4.769 2.174l-1.797 2.239a7.35 7.35 0 0 0-3.444-1.58c-2.896-.483-5.055.96-5.647 1.414-2.018 1.545-2.676 3.713-2.867 5.253-.005.045-.517 4.674 2.827 7.366.11.086 2.946 2.264 7.289 1.49a9.7 9.7 0 0 0 4.643-2.234zM30.838 21.72c-.15 1.735-1.07 3.386-2.586 4.643-1.606 1.334-3.724 2.064-5.918 2.064-.08 0-.166 0-.246-.005l-.126 7.034h-2.901l.29-16.187h2.902l-.11 6.25c1.601.045 3.133-.449 4.262-1.39.904-.75 1.466-1.72 1.551-2.661.156-1.766-1.365-3.447-2.982-4.247-.115-.06-.236-.11-.351-.161a5.4 5.4 0 0 0-2.32-.402 6.2 6.2 0 0 0-2.916.89 6.8 6.8 0 0 0-1.245.956l-1.762-1.831-.251-.262q.122-.119.25-.232a9.5 9.5 0 0 1 2.887-1.8c2.094-.831 4.403-.861 6.466 0 2.751 1.141 5.392 4.034 5.106 7.34M49.482 32.36c-.939.82-1.948 1.58-3.007 2.255-1.12.714-2.023 1.157-2.46 1.373l-.12.06c-.191.096-.442.227-.738.393-.578 5.958-2.63 8.333-4.629 9.842a10 10 0 0 1-3.404 1.65 1.4 1.4 0 0 1-.381.05c-.306 0-.613-.095-.864-.286a1.45 1.45 0 0 1-.582-1.127c-.03-1.233.116-2.43.437-3.557 1.14-3.97 4.307-6.718 6.642-8.272.02-.353.03-.715.035-1.097-1.16.925-2.797 1.776-4.363 1.776-.703 0-1.385-.171-2.003-.579-1.49-.981-1.832-2.767-1.897-3.743l-.005-.07.215-8.348h2.902l-.216 8.277c.05.558.226 1.212.593 1.454.512.337 2.198-.252 3.368-1.389 1.25-1.217 1.476-2.878 1.506-3.673l.005-.146.07-4.523h2.897l-.07 4.558v.131l-.086 5.711c.422-.221.974-.523 1.607-.926a22 22 0 0 0 2.65-1.987zm-9.619 6.431c-1.405 1.273-2.756 2.954-3.348 5.027q-.06.203-.105.407c.125-.08.25-.166.366-.257.884-.669 2.31-1.746 3.087-5.177"/><path fill="#397052" d="M39.863 38.72s-2.992 3.07-3.453 5.5c-.462 2.43 3.88-4.539 3.88-5.002s-.386-.639-.427-.498"/><path fill="#fff" d="M50.808 12.594c0-.854-.688-1.542-1.537-1.542H12.725c-.848 0-1.537.688-1.537 1.542v36.63c0 .854.689 1.542 1.537 1.542h36.546c.849 0 1.537-.688 1.537-1.542V37.96h2.358v11.265a3.9 3.9 0 0 1-3.895 3.903H12.725a3.9 3.9 0 0 1-3.895-3.903v-36.63a3.9 3.9 0 0 1 3.895-3.903h36.546a3.9 3.9 0 0 1 3.895 3.903v10.622h-2.358z"/></g><defs><clipPath id="a"><path fill="#fff" d="M0 0h158v61.386H0z"/></clipPath></defs></svg>